<svg width="146" height="46" viewBox="0 0 146 46" fill="none" xmlns="http://www.w3.org/2000/svg">
<path d="M56.5078 19.4128V5.66602H62.2187C64.2798 5.66602 65.7826 6.1864 66.8561 7.27053C67.8866 8.3113 68.4019 10.1326 68.4019 12.6045C68.4019 14.9896 67.8866 16.6808 66.8561 17.7649C65.8256 18.8491 64.2798 19.4128 62.2187 19.4128H56.5078ZM59.3418 17.2012H61.7893C62.6051 17.2012 63.2492 17.0711 63.8074 16.8109C64.3656 16.5507 64.7521 16.1171 65.0527 15.4232C65.3103 14.7727 65.482 13.8187 65.482 12.5611C65.482 11.3035 65.3532 10.3928 65.0956 9.69899C64.838 9.04851 64.4515 8.61486 63.8933 8.35467C63.378 8.09447 62.6481 8.00774 61.7893 8.00774H59.3418V17.2012Z" fill="#007AFF"/>
<path d="M73.2084 19.6313C72.5643 19.6313 72.0062 19.5012 71.4479 19.2844C70.8897 19.0676 70.4603 18.7207 70.1168 18.2437C69.7733 17.7666 69.6016 17.2029 69.6016 16.509C69.6016 15.5116 69.9451 14.7311 70.6321 14.1239C71.3191 13.5168 72.3497 13.2133 73.7237 13.2133H76.6865V12.9097C76.6865 12.3026 76.5147 11.8256 76.1712 11.5654C75.8277 11.3052 75.1407 11.1751 74.0672 11.1751C72.9079 11.1751 71.8344 11.3486 70.7609 11.6955V9.65732C71.2332 9.48385 71.7915 9.31039 72.4785 9.1803C73.1655 9.0502 73.8955 9.00684 74.6684 9.00684C76.1712 9.00684 77.3306 9.31039 78.1894 9.91751C79.0481 10.5246 79.4346 11.522 79.4346 12.9097V19.4145H76.9441L76.8153 18.5038C76.4289 18.8508 75.9136 19.1543 75.3554 19.3278C74.7972 19.5446 74.0672 19.6313 73.2084 19.6313ZM73.9813 17.7233C74.6254 17.7233 75.1836 17.6365 75.613 17.4197C76.0853 17.2029 76.4289 16.9427 76.7294 16.5958V14.9913H73.8525C72.7361 14.9913 72.1779 15.4683 72.1779 16.3789C72.1779 17.2896 72.779 17.7233 73.9813 17.7233Z" fill="#007AFF"/>
<path d="M85.7467 19.6261C84.5873 19.6261 83.7285 19.3225 83.1703 18.7154C82.6121 18.1083 82.3545 17.2843 82.3545 16.2002V11.5167H80.9375V9.3051H82.3545V7.13684L85.1885 6.26953V9.3051H87.7219L87.5501 11.5167H85.1885V16.0267C85.1885 16.5905 85.3173 16.9808 85.5749 17.1542C85.8325 17.3711 86.219 17.4578 86.7772 17.4578C87.1636 17.4578 87.593 17.3711 88.0224 17.241V19.2358C87.7219 19.3659 87.3783 19.4526 86.9919 19.5393C86.6054 19.5827 86.1761 19.6261 85.7467 19.6261Z" fill="#007AFF"/>
<path d="M92.6225 19.6313C91.9784 19.6313 91.4202 19.5012 90.862 19.2844C90.3038 19.0676 89.8744 18.7207 89.5309 18.2437C89.1874 17.7666 89.0156 17.2029 89.0156 16.509C89.0156 15.5116 89.3591 14.7311 90.0462 14.1239C90.7332 13.5168 91.7637 13.2133 93.1378 13.2133H96.1005V12.9097C96.1005 12.3026 95.9288 11.8256 95.5853 11.5654C95.2418 11.3052 94.5547 11.1751 93.4813 11.1751C92.3219 11.1751 91.2484 11.3486 90.175 11.6955V9.65732C90.6473 9.48385 91.2055 9.31039 91.8925 9.1803C92.5795 9.0502 93.3095 9.00684 94.0824 9.00684C95.5853 9.00684 96.7446 9.31039 97.6034 9.91751C98.4622 10.5246 98.8486 11.522 98.8486 12.9097V19.4145H96.3582L96.2294 18.5038C95.8429 18.8508 95.3276 19.1543 94.7694 19.3278C94.2112 19.5446 93.4813 19.6313 92.6225 19.6313ZM93.3954 17.7233C94.0395 17.7233 94.5977 17.6365 95.0271 17.4197C95.4994 17.2029 95.8429 16.9427 96.1435 16.5958V14.9913H93.2666C92.1502 14.9913 91.592 15.4683 91.592 16.3789C91.549 17.2896 92.1502 17.7233 93.3954 17.7233Z" fill="#007AFF"/>
<path d="M107.047 19.6288C106.36 19.6288 105.716 19.542 105.2 19.3252C104.685 19.1518 104.213 18.8482 103.783 18.4579L103.655 19.4119H101.164V5.01465H104.041V9.8282C104.47 9.56801 104.9 9.39455 105.415 9.26445C105.93 9.13436 106.446 9.09099 107.004 9.09099C108.421 9.09099 109.58 9.48128 110.439 10.3052C111.298 11.1292 111.684 12.4301 111.684 14.2515C111.684 16.0728 111.255 17.4171 110.439 18.2844C109.58 19.1951 108.464 19.6288 107.047 19.6288ZM106.274 17.5039C107.176 17.5039 107.82 17.2437 108.206 16.6799C108.592 16.1595 108.764 15.3356 108.764 14.2515C108.764 13.124 108.55 12.3434 108.163 11.8664C107.777 11.3894 107.133 11.1725 106.231 11.1725C105.801 11.1725 105.372 11.2159 104.986 11.346C104.599 11.4761 104.256 11.6495 103.998 11.9097V16.5498C104.299 16.8534 104.599 17.0702 104.986 17.2437C105.372 17.4171 105.844 17.5039 106.274 17.5039Z" fill="#007AFF"/>
<path d="M116.794 19.6313C116.15 19.6313 115.592 19.5012 115.034 19.2844C114.476 19.0676 114.046 18.7207 113.703 18.2437C113.359 17.7666 113.188 17.2029 113.188 16.509C113.188 15.5116 113.531 14.7311 114.218 14.1239C114.905 13.5168 115.936 13.2133 117.31 13.2133H120.272V12.9097C120.272 12.3026 120.101 11.8256 119.757 11.5654C119.414 11.3052 118.727 11.1751 117.653 11.1751C116.494 11.1751 115.42 11.3486 114.347 11.6955V9.65732C114.819 9.48385 115.377 9.31039 116.064 9.1803C116.751 9.0502 117.481 9.00684 118.254 9.00684C119.757 9.00684 120.917 9.31039 121.775 9.91751C122.634 10.5246 123.021 11.522 123.021 12.9097V19.4145H120.53L120.401 18.5038C120.015 18.8508 119.5 19.1543 118.941 19.3278C118.383 19.5446 117.653 19.6313 116.794 19.6313ZM117.567 17.7233C118.211 17.7233 118.77 17.6365 119.199 17.4197C119.671 17.2029 120.015 16.9427 120.315 16.5958V14.9913H117.438C116.322 14.9913 115.764 15.4683 115.764 16.3789C115.764 17.2896 116.365 17.7233 117.567 17.7233Z" fill="#007AFF"/>
<path d="M128.904 19.6278C128.174 19.6278 127.444 19.5844 126.757 19.4543C126.07 19.3242 125.554 19.2375 125.125 19.0641V16.679C125.597 16.8958 126.155 17.0259 126.8 17.156C127.401 17.2427 128.002 17.3294 128.517 17.3294C129.204 17.3294 129.719 17.2861 130.02 17.1993C130.32 17.1126 130.449 16.9392 130.449 16.6356C130.449 16.2887 130.235 16.0285 129.762 15.8984C129.333 15.7249 128.646 15.5081 127.787 15.2479C126.885 14.9443 126.155 14.5541 125.683 14.1204C125.168 13.6868 124.953 13.0363 124.953 12.169C124.953 11.2149 125.297 10.4777 125.984 9.95733C126.671 9.43695 127.787 9.17676 129.376 9.17676C129.977 9.17676 130.578 9.22012 131.136 9.30685C131.695 9.39358 132.167 9.52368 132.553 9.65378V12.0389C132.167 11.8654 131.737 11.7353 131.222 11.6052C130.707 11.5185 130.278 11.4751 129.848 11.4751C129.247 11.4751 128.775 11.5185 128.388 11.6052C128.045 11.6919 127.83 11.8654 127.83 12.169C127.83 12.4725 128.045 12.6894 128.431 12.8194C128.818 12.9495 129.419 13.123 130.235 13.3832C131.05 13.6434 131.652 13.9036 132.124 14.1638C132.553 14.4673 132.897 14.7709 133.069 15.1612C133.24 15.5515 133.326 16.0285 133.326 16.6356C133.326 18.587 131.866 19.6278 128.904 19.6278Z" fill="#007AFF"/>
<path d="M140.242 19.6315C138.525 19.6315 137.151 19.1979 136.12 18.3306C135.09 17.4633 134.617 16.1189 134.617 14.341C134.617 12.7364 135.047 11.4355 135.905 10.5248C136.764 9.57077 138.052 9.09375 139.727 9.09375C141.273 9.09375 142.475 9.48404 143.291 10.308C144.107 11.1319 144.536 12.2161 144.536 13.517V15.3384H137.279C137.451 16.1623 137.795 16.7261 138.396 16.9862C138.997 17.2464 139.813 17.4199 140.886 17.4199C141.402 17.4199 141.96 17.3765 142.518 17.2898C143.076 17.2031 143.548 17.073 143.935 16.8995V18.981C143.463 19.1979 142.947 19.3713 142.303 19.4581C141.659 19.5882 140.972 19.6315 140.242 19.6315ZM137.236 13.6037H142.003V13.04C142.003 12.4762 141.831 11.9992 141.487 11.6523C141.144 11.3054 140.586 11.1319 139.77 11.1319C138.825 11.1319 138.181 11.3054 137.795 11.6957C137.408 12.1293 137.236 12.7364 137.236 13.6037Z" fill="#007AFF"/>
<path d="M56.5078 40.7908V27.0439H62.9057C63.9792 27.0439 64.838 27.2608 65.525 27.6511C66.212 28.0847 66.7273 28.6051 67.0708 29.3423C67.4143 30.0362 67.5861 30.8601 67.5861 31.7708C67.5861 32.6814 67.3714 33.5054 66.9849 34.2426C66.5985 34.9364 66.0403 35.5002 65.3532 35.8905C64.6233 36.2808 63.8074 36.4976 62.8198 36.4976H59.3847V40.8341H56.5078V40.7908ZM59.3418 34.1559H62.1758C62.9916 34.1559 63.5927 33.939 64.0221 33.5054C64.4515 33.0717 64.6662 32.4646 64.6662 31.7274C64.6662 30.9468 64.4515 30.3397 64.0651 29.9061C63.6786 29.4724 63.0775 29.2556 62.3046 29.2556H59.3418V34.1559Z" fill="#007AFF"/>
<path d="M69.1367 40.7887V30.6846H71.7989L71.9277 31.7254C72.4001 31.4218 72.9583 31.1616 73.6024 30.9448C74.2894 30.728 74.9335 30.5545 75.5776 30.4678V32.636C75.1911 32.6794 74.7617 32.7661 74.3323 32.8962C73.86 33.0263 73.4306 33.1564 73.0442 33.2865C72.6148 33.4166 72.2713 33.5901 72.0136 33.7202V40.7887H69.1367Z" fill="#007AFF"/>
<path d="M81.629 41.0099C79.7397 41.0099 78.3657 40.5328 77.5069 39.6222C76.6481 38.7115 76.1758 37.4105 76.1758 35.7193C76.1758 34.028 76.6052 32.7271 77.5069 31.8164C78.4086 30.9057 79.7397 30.4287 81.629 30.4287C83.5183 30.4287 84.8924 30.9057 85.7512 31.8164C86.6529 32.7271 87.0823 34.028 87.0823 35.7193C87.0823 37.4105 86.6529 38.7115 85.7512 39.6222C84.8924 40.5328 83.5183 41.0099 81.629 41.0099ZM81.629 38.538C82.5307 38.538 83.2178 38.3212 83.6042 37.8876C83.9907 37.4539 84.2054 36.7167 84.2054 35.7193C84.2054 34.7219 83.9907 33.9413 83.6042 33.551C83.2178 33.1607 82.5737 32.9005 81.629 32.9005C80.7273 32.9005 80.0832 33.1174 79.6968 33.551C79.3103 33.9847 79.0956 34.7219 79.0956 35.7193C79.0956 36.7167 79.3103 37.4973 79.6968 37.8876C80.0832 38.3212 80.7273 38.538 81.629 38.538Z" fill="#007AFF"/>
<path d="M91.4152 40.7936L87.4648 30.6895H90.4276L92.9181 37.8881L95.4515 30.6895H98.4143L94.4639 40.7936H91.4152Z" fill="#007AFF"/>
<path d="M100.643 40.7906V32.8114H99.1406L99.3982 30.6865H103.52V40.7906H100.643ZM100.386 28.7784V26.5234H103.477V28.7784H100.386Z" fill="#007AFF"/>
<path d="M110.091 41.0108C109.189 41.0108 108.416 40.8373 107.729 40.5338C107.042 40.2302 106.484 39.6665 106.097 38.9726C105.711 38.2354 105.496 37.2814 105.496 36.0671C105.496 34.8529 105.711 33.8555 106.14 33.0316C106.57 32.2076 107.171 31.6005 107.901 31.1669C108.631 30.7332 109.446 30.5164 110.305 30.5164C111.422 30.5164 112.323 30.7766 113.139 31.297V26.4834H116.016V40.8807H113.569L113.397 39.9267C112.967 40.3169 112.495 40.6205 111.98 40.794C111.422 40.8807 110.821 41.0108 110.091 41.0108ZM110.906 38.8859C111.808 38.8859 112.538 38.5823 113.139 37.9752V33.3785C112.538 32.8581 111.851 32.5979 111.078 32.5979C109.318 32.5979 108.416 33.7688 108.416 36.0671C108.416 37.1513 108.631 37.8885 109.06 38.3221C109.489 38.6691 110.091 38.8859 110.906 38.8859Z" fill="#007AFF"/>
<path d="M123.402 41.0056C121.685 41.0056 120.311 40.5719 119.28 39.7046C118.25 38.8373 117.777 37.493 117.777 35.715C117.777 34.1105 118.207 32.8095 119.066 31.8988C119.924 30.9448 121.212 30.4678 122.887 30.4678C124.433 30.4678 125.635 30.8581 126.451 31.682C127.267 32.5059 127.696 33.5901 127.696 34.891V36.7124H120.44C120.611 37.5363 120.955 38.1001 121.556 38.3603C122.157 38.6205 122.973 38.7939 124.046 38.7939C124.562 38.7939 125.12 38.7506 125.678 38.6638C126.236 38.5771 126.709 38.447 127.095 38.2735V40.3117C126.623 40.5285 126.107 40.702 125.463 40.7887C124.819 40.9188 124.132 41.0056 123.402 41.0056ZM120.397 34.9344H125.163V34.3707C125.163 33.8069 124.991 33.3299 124.648 32.983C124.304 32.636 123.746 32.4626 122.93 32.4626C121.985 32.4626 121.341 32.636 120.955 33.0263C120.611 33.46 120.397 34.0671 120.397 34.9344Z" fill="#007AFF"/>
<path d="M129.676 40.7887V30.6846H132.338L132.467 31.7254C132.939 31.4218 133.497 31.1616 134.141 30.9448C134.828 30.728 135.473 30.5545 136.117 30.4678V32.636C135.73 32.6794 135.301 32.7661 134.871 32.8962C134.399 33.0263 133.97 33.1564 133.583 33.2865C133.154 33.4166 132.81 33.5901 132.553 33.7202V40.7887H129.676Z" fill="#007AFF"/>
<path d="M140.966 41.0057C140.236 41.0057 139.506 40.9624 138.819 40.8323C138.132 40.7022 137.617 40.6154 137.187 40.442V38.0569C137.66 38.2737 138.218 38.4038 138.862 38.5339C139.463 38.6206 140.064 38.7074 140.58 38.7074C141.267 38.7074 141.782 38.664 142.082 38.5773C142.383 38.4905 142.512 38.3171 142.512 38.0135C142.512 37.6666 142.297 37.4064 141.825 37.2763C141.395 37.1029 140.708 36.886 139.85 36.6258C138.948 36.3223 138.218 35.932 137.746 35.4983C137.23 35.0647 137.016 34.4142 137.016 33.5469C137.016 32.5929 137.359 31.8556 138.046 31.3353C138.733 30.8149 139.85 30.5547 141.438 30.5547C142.039 30.5547 142.641 30.5981 143.199 30.6848C143.757 30.7715 144.229 30.9016 144.616 31.0317V33.4168C144.229 33.2433 143.8 33.1132 143.285 32.9831C142.769 32.8964 142.34 32.8531 141.911 32.8531C141.31 32.8531 140.837 32.8964 140.451 32.9831C140.107 33.0699 139.893 33.2433 139.893 33.5469C139.893 33.8505 140.107 34.0673 140.494 34.1974C140.88 34.3275 141.481 34.5009 142.297 34.7611C143.113 35.0213 143.714 35.2815 144.186 35.5417C144.616 35.8453 144.959 36.1488 145.131 36.5391C145.303 36.9294 145.389 37.4064 145.389 38.0135C145.389 39.965 143.929 41.0057 140.966 41.0057Z" fill="#007AFF"/>
<path d="M22.5 45.775C34.9264 45.775 45 35.6014 45 23.0516C45 10.5018 34.9264 0.328125 22.5 0.328125C10.0736 0.328125 0 10.5018 0 23.0516C0 35.6014 10.0736 45.775 22.5 45.775Z" fill="url(#paint0_linear_20520_5747)"/>
<path fill-rule="evenodd" clip-rule="evenodd" d="M24.6572 14.5055V12.424C25.6448 12.424 28.994 12.3373 29.7669 12.5107C30.7545 12.7276 31.6562 13.2913 32.1715 14.0285C32.3862 14.3321 32.515 14.5055 32.6868 14.8958C33.6314 16.8473 32.7726 19.3625 30.9263 20.3599C30.1534 20.7935 29.724 20.8369 28.8652 20.9236V25.2168C30.2392 25.3035 31.828 24.7831 33.0303 24.1327C33.3308 23.9592 33.5455 23.7857 33.8032 23.6123C34.9625 22.7883 36.2078 21.2705 36.723 19.8828C37.8394 16.8906 37.41 14.0285 35.6066 11.5133C35.349 11.123 35.0055 10.8195 34.7049 10.4726C34.1467 9.90882 33.4597 9.47516 32.7297 9.08488C30.4539 7.87065 28.3929 8.13084 25.6877 8.13084C23.9272 8.13084 22.1238 8.08747 20.3633 8.13084V18.8421" fill="white"/>
<path fill-rule="evenodd" clip-rule="evenodd" d="M20.4007 31.5909V33.6724C19.5849 33.6724 18.812 33.6724 17.9961 33.6724C15.8921 33.6724 14.6898 33.8459 13.187 32.3281C12.3282 31.5041 11.9847 30.3766 12.0276 29.119C12.0276 28.3385 12.4999 27.211 12.9723 26.6906C13.4017 26.2136 13.5305 26.0835 14.0887 25.7365C14.6039 25.3896 15.4198 25.1728 16.2356 25.1728V20.8796C15.0763 20.7929 13.187 21.3133 12.1994 21.877C12.1994 21.877 12.1994 21.877 12.1564 21.877L11.4265 22.3107C9.06482 23.9152 7.81959 26.5171 7.73372 29.3359C7.69078 30.7669 8.07723 32.0679 8.67837 33.3255C8.80719 33.629 9.02188 33.9326 9.19364 34.1928C10.8683 36.6212 13.4446 37.9222 16.4503 37.9222H21.9036C22.8053 37.9222 23.7929 37.9656 24.6946 37.9222V27.211" fill="white"/>
<path d="M24.6572 26.5625L20.3633 30.8557V19.5373L24.6572 15.2441V26.5625Z" fill="white"/>
<defs>
<linearGradient id="paint0_linear_20520_5747" x1="0.0130964" y1="23.032" x2="45.0226" y2="23.032" gradientUnits="userSpaceOnUse">
<stop stop-color="#1798FF"/>
<stop offset="1" stop-color="#264BD1"/>
</linearGradient>
</defs>
</svg>
