<svg width="32" height="32" viewBox="0 0 32 32" fill="none" xmlns="http://www.w3.org/2000/svg">
<path d="M29.6034 26.4831H2.39656C1.07294 26.4831 0 25.4102 0 24.0865V7.91414C0 6.59058 1.07294 5.51758 2.39656 5.51758H29.6034C30.927 5.51758 32 6.59052 32 7.91414V24.0866C32 25.4102 30.9271 26.4831 29.6034 26.4831Z" fill="#F5F5F5"/>
<path d="M29.6034 5.51758H2.39656C1.07294 5.51758 0 6.59052 0 7.91414V16.0003H32V7.91414C32 6.59052 30.9271 5.51758 29.6034 5.51758Z" fill="#FF4B55"/>
<path d="M0 16H32V25.9311C32 26.2358 31.7529 26.4828 31.4482 26.4828H0.55175C0.247063 26.4828 0 26.2358 0 25.9311V16Z" fill="#F5F5F5"/>
<path d="M4.53645 10.7664C4.53645 8.95212 5.8677 7.44818 7.60601 7.16993C7.70039 7.15481 7.70464 7.02499 7.61151 7.00349C7.18114 6.90456 6.72407 6.87637 6.24945 6.94099C4.37457 7.19637 2.92532 8.81887 2.89882 10.7109C2.86864 12.8712 4.61026 14.6304 6.76039 14.6304C7.05307 14.6304 7.33726 14.5962 7.61076 14.5332C7.70382 14.5119 7.69914 14.3817 7.60489 14.3666C5.86726 14.0887 4.53645 12.5877 4.53645 10.7664Z" fill="#F5F5F5"/>
<path d="M7.63536 11.7369L7.47205 12.2267L6.95586 12.2307C6.88905 12.2312 6.8613 12.3165 6.91511 12.3562L7.33036 12.6629L7.17461 13.1551C7.15449 13.2188 7.22705 13.2715 7.28136 13.2326L7.70136 12.9324L8.12136 13.2326C8.17574 13.2715 8.24824 13.2187 8.22811 13.1551L8.07236 12.6629L8.48761 12.3562C8.54142 12.3164 8.51367 12.2312 8.44686 12.2307L7.93067 12.2267L7.76736 11.7369C7.74617 11.6736 7.65649 11.6736 7.63536 11.7369Z" fill="#F5F5F5"/>
<path d="M10.1861 11.7369L10.0228 12.2267L9.50664 12.2307C9.43983 12.2312 9.41208 12.3165 9.46589 12.3562L9.88114 12.6629L9.72539 13.1551C9.70527 13.2188 9.77783 13.2715 9.83214 13.2326L10.2521 12.9324L10.6721 13.2326C10.7265 13.2715 10.799 13.2187 10.7789 13.1551L10.6231 12.6629L11.0384 12.3562C11.0922 12.3164 11.0645 12.2312 10.9976 12.2307L10.4815 12.2267L10.3181 11.7369C10.297 11.6736 10.2073 11.6736 10.1861 11.7369Z" fill="#F5F5F5"/>
<path d="M8.92052 7.79948L8.75721 8.28923L8.24102 8.29323C8.17421 8.29373 8.14646 8.37905 8.20027 8.41873L8.61552 8.72542L8.45977 9.21761C8.43964 9.28136 8.51221 9.33405 8.56652 9.29517L8.98652 8.99498L9.40652 9.29517C9.46089 9.33405 9.53339 9.2813 9.51327 9.21761L9.35752 8.72542L9.77277 8.41873C9.82658 8.37898 9.79883 8.2938 9.73202 8.29323L9.21583 8.28923L9.05252 7.79948C9.03133 7.73611 8.94164 7.73611 8.92052 7.79948Z" fill="#F5F5F5"/>
<path d="M6.88536 9.30832L6.72205 9.79807L6.20586 9.80207C6.13905 9.80257 6.1113 9.88788 6.16511 9.92757L6.58036 10.2343L6.42461 10.7264C6.40449 10.7902 6.47705 10.8429 6.53136 10.804L6.95136 10.5038L7.37136 10.804C7.42574 10.8429 7.49824 10.7901 7.47811 10.7264L7.32236 10.2343L7.73767 9.92757C7.79149 9.88782 7.76374 9.80263 7.69692 9.80207L7.18074 9.79807L7.01742 9.30832C6.99617 9.24488 6.90649 9.24488 6.88536 9.30832Z" fill="#F5F5F5"/>
<path d="M10.94 9.30832L10.7767 9.79807L10.2605 9.80207C10.1937 9.80257 10.166 9.88788 10.2198 9.92757L10.635 10.2343L10.4793 10.7264C10.4592 10.7902 10.5317 10.8429 10.586 10.804L11.006 10.5038L11.426 10.804C11.4804 10.8429 11.5529 10.7901 11.5328 10.7264L11.377 10.2343L11.7923 9.92757C11.8461 9.88782 11.8184 9.80263 11.7515 9.80207L11.2354 9.79807L11.072 9.30832C11.0509 9.24488 10.9612 9.24488 10.94 9.30832Z" fill="#F5F5F5"/>
</svg>
