<svg width="32" height="20" viewBox="0 0 32 20" fill="none" xmlns="http://www.w3.org/2000/svg">
<path d="M3.21634 9.42596e-08C2.79393 -0.000102173 2.37565 0.0830135 1.98537 0.244614C1.5951 0.406214 1.24048 0.643126 0.941794 0.941812C0.643109 1.2405 0.406197 1.5951 0.244596 1.98537C0.0829958 2.37565 -0.000102173 2.79393 9.42798e-08 3.21634V16.476C-0.000101562 16.8984 0.083031 17.3167 0.244632 17.7069C0.406232 18.0972 0.643109 18.4518 0.941794 18.7505C1.24048 19.0492 1.5951 19.2861 1.98537 19.4477C2.37564 19.6093 2.79393 19.6924 3.21634 19.6923H28.7837C29.2061 19.6924 29.6244 19.6093 30.0146 19.4477C30.4049 19.2861 30.7595 19.0492 31.0582 18.7505C31.3569 18.4518 31.5938 18.0972 31.7554 17.7069C31.917 17.3167 32.0001 16.8984 32 16.476V3.21634C32.0001 2.79393 31.917 2.37565 31.7554 1.98537C31.5938 1.5951 31.3569 1.2405 31.0582 0.941812C30.7595 0.643126 30.4049 0.406215 30.0146 0.244614C29.6244 0.0830133 29.2061 -0.000101562 28.7837 9.42596e-08H3.21634Z" fill="#ECECEC"/>
<path d="M16 2.81348V4.22006H32V2.81348H16Z" fill="#D40000"/>
<path d="M16 5.62598V7.03258H32V5.62598H16Z" fill="#D40000"/>
<path d="M16 8.43945V9.84604H32V8.43945H16Z" fill="#D40000"/>
<path d="M0 11.252V12.6585H32V11.252H0Z" fill="#D40000"/>
<path d="M0 14.0664V15.473H32V14.0664H0Z" fill="#D40000"/>
<path d="M16 0.000976562V1.40721H31.6899C31.5261 0.974334 31.3061 0.619972 31.0488 0.374898C30.7916 0.129823 30.505 0.00146869 30.2139 0.000976562H16Z" fill="#D40000"/>
<path d="M3.21634 9.42596e-08C2.79393 -0.000102173 2.37565 0.0830135 1.98537 0.244614C1.5951 0.406214 1.24048 0.643126 0.941794 0.941812C0.643109 1.2405 0.406197 1.5951 0.244596 1.98537C0.0829958 2.37565 -0.000102173 2.79393 9.42798e-08 3.21634V11.2524H16V9.42596e-08H3.21634Z" fill="#002255"/>
<path d="M10.8781 6.67937L10.6385 8.25997L10.3977 6.67958L9.49605 7.99968L9.96473 6.47131L8.57963 7.2695L9.66505 6.09583L8.07077 6.21398L9.55794 5.62749L8.07031 5.04222L9.66466 5.15908L8.57828 3.98631L9.96405 4.78334L9.49409 3.25535L10.3968 4.57472L10.6364 2.99414L10.8772 4.57452L11.7788 3.25441L11.3101 4.78279L12.6952 3.98461L11.6099 5.15828L13.2041 5.04011L11.7169 5.6266L13.2046 6.21186L11.6102 6.09501L12.6966 7.26779L11.3109 6.47074L11.7808 7.99874L10.8781 6.67937Z" fill="#FFCC00"/>
<path d="M6.59021 1.83008C6.09152 1.83001 5.59774 1.92819 5.137 2.119C4.67627 2.30981 4.25763 2.58951 3.90501 2.94214C3.55239 3.29476 3.2727 3.71338 3.08189 4.17411C2.89108 4.63485 2.7929 5.12865 2.79297 5.62733C2.79343 6.63408 3.1937 7.59943 3.90579 8.31109C4.61788 9.02276 5.58346 9.42248 6.59021 9.42235C7.09126 9.42236 7.58739 9.32319 8.04994 9.13056C8.51249 8.93792 8.93233 8.65564 9.28527 8.29999C8.74303 8.67363 8.10004 8.87363 7.44154 8.87348C6.58037 8.87356 5.75442 8.53167 5.14527 7.92294C4.53613 7.31422 4.19363 6.4885 4.19311 5.62733C4.19308 5.20074 4.2771 4.77833 4.44034 4.38419C4.60357 3.99006 4.84284 3.63194 5.14449 3.33029C5.44614 3.02864 5.80423 2.78937 6.19836 2.62613C6.59249 2.4629 7.01494 2.37891 7.44154 2.37895C8.10229 2.37986 8.74703 2.58227 9.28974 2.95917C8.93683 2.60176 8.51652 2.31793 8.05313 2.12411C7.58975 1.9303 7.09249 1.83036 6.59021 1.83008Z" fill="#FFCC00"/>
<path d="M0.0273438 16.8799C0.0908327 17.384 0.272888 17.8659 0.558591 18.2861H31.4384C31.7241 17.8659 31.9062 17.384 31.9697 16.8799H0.0273438Z" fill="#D40000"/>
</svg>
