<svg width="32" height="32" viewBox="0 0 32 32" fill="none" xmlns="http://www.w3.org/2000/svg">
<path d="M31.4482 26.4831H0.551749C0.247062 26.4831 0 26.236 0 25.9314V6.06933C0 5.76464 0.247062 5.51758 0.551749 5.51758H31.4483C31.7529 5.51758 32 5.76464 32 6.06933V25.9314C31.9999 26.2361 31.7529 26.4831 31.4482 26.4831Z" fill="#F5F5F5"/>
<path d="M31.9999 7.13039H0V6.06933C0 5.76464 0.247062 5.51758 0.551749 5.51758H31.4483C31.7529 5.51758 32 5.76464 32 6.06933L31.9999 7.13039Z" fill="#FF4B55"/>
<path d="M31.9999 11.9688H0V13.5815H31.9999V11.9688Z" fill="#FF4B55"/>
<path d="M31.9999 8.74316H0V10.3559H31.9999V8.74316Z" fill="#FF4B55"/>
<path d="M31.9999 16.8071H0.551749C0.247062 16.8071 0 16.5601 0 16.2554V15.1943H31.9999V16.8071Z" fill="#FF4B55"/>
<path d="M31.9999 21.6455H0V23.2583H31.9999V21.6455Z" fill="#FF4B55"/>
<path d="M31.4482 26.4829H0.551749C0.247062 26.4829 0 26.2358 0 25.9311V24.8701H31.9999V25.9312C31.9999 26.2359 31.7529 26.4829 31.4482 26.4829Z" fill="#FF4B55"/>
<path d="M31.9999 18.4199H0V20.0327H31.9999V18.4199Z" fill="#FF4B55"/>
<path d="M14.3448 5.51758H0.551749C0.247062 5.51758 0 5.76458 0 6.06926V16.2549C0 16.5596 0.247062 16.8066 0.551749 16.8066H14.3448C14.6495 16.8066 14.8966 16.5596 14.8966 16.2549V6.06926C14.8965 5.76458 14.6495 5.51758 14.3448 5.51758Z" fill="#41479B"/>
<path d="M1.54915 6.78362L1.67127 7.14987L2.05733 7.1528C2.10733 7.15324 2.12802 7.21699 2.08783 7.24668L1.77727 7.47605L1.89377 7.84411C1.9089 7.89174 1.85458 7.93124 1.8139 7.90211L1.49983 7.67768L1.18577 7.90218C1.14508 7.93124 1.0909 7.8918 1.1059 7.84418L1.2224 7.47612L0.911835 7.24674C0.871647 7.21699 0.892335 7.1533 0.942335 7.15287L1.3284 7.14993L1.45052 6.78368C1.46627 6.73618 1.53327 6.73618 1.54915 6.78362Z" fill="#F5F5F5"/>
<path d="M1.54915 8.69959L1.67127 9.06584L2.05733 9.06877C2.10733 9.06921 2.12802 9.13296 2.08783 9.16265L1.77727 9.39202L1.89377 9.76008C1.9089 9.80771 1.85458 9.84721 1.8139 9.81808L1.49983 9.59365L1.18577 9.81815C1.14508 9.84721 1.0909 9.80777 1.1059 9.76015L1.2224 9.39208L0.911835 9.16271C0.871647 9.13296 0.892335 9.06927 0.942335 9.06884L1.3284 9.0659L1.45052 8.69965C1.46627 8.65221 1.53327 8.65221 1.54915 8.69959Z" fill="#F5F5F5"/>
<path d="M1.54915 10.6156L1.67127 10.9819L2.05733 10.9848C2.10733 10.9852 2.12802 11.049 2.08783 11.0787L1.77727 11.308L1.89377 11.6761C1.9089 11.7237 1.85458 11.7632 1.8139 11.7341L1.49983 11.5097L1.18577 11.7342C1.14508 11.7632 1.0909 11.7238 1.1059 11.6762L1.2224 11.3081L0.911835 11.0787C0.871647 11.049 0.892335 10.9853 0.942335 10.9849L1.3284 10.9819L1.45052 10.6157C1.46627 10.5682 1.53327 10.5682 1.54915 10.6156Z" fill="#F5F5F5"/>
<path d="M1.54915 12.5317L1.67127 12.8979L2.05733 12.9009C2.10733 12.9013 2.12802 12.965 2.08783 12.9947L1.77727 13.2241L1.89377 13.5922C1.9089 13.6398 1.85458 13.6793 1.8139 13.6502L1.49983 13.4257L1.18577 13.6502C1.14508 13.6793 1.0909 13.6398 1.1059 13.5922L1.2224 13.2242L0.911835 12.9948C0.871647 12.965 0.892335 12.9014 0.942335 12.9009L1.3284 12.898L1.45052 12.5317C1.46627 12.4842 1.53327 12.4842 1.54915 12.5317Z" fill="#F5F5F5"/>
<path d="M1.54915 14.4467L1.67127 14.813L2.05733 14.8159C2.10733 14.8164 2.12802 14.8801 2.08783 14.9098L1.77727 15.1392L1.89377 15.5072C1.9089 15.5549 1.85458 15.5944 1.8139 15.5652L1.49983 15.3408L1.18577 15.5653C1.14508 15.5944 1.0909 15.5549 1.1059 15.5073L1.2224 15.1392L0.911835 14.9099C0.871647 14.8801 0.892335 14.8164 0.942335 14.816L1.3284 14.8131L1.45052 14.4468C1.46627 14.3993 1.53327 14.3992 1.54915 14.4467Z" fill="#F5F5F5"/>
<path d="M3.03743 7.72303L3.15955 8.08928L3.54561 8.09222C3.59561 8.09266 3.6163 8.15641 3.57611 8.18609L3.26555 8.41547L3.38205 8.78353C3.39718 8.83115 3.34286 8.87065 3.30218 8.84153L2.98812 8.61703L2.67405 8.84153C2.63337 8.87059 2.57918 8.83115 2.59418 8.78353L2.71068 8.41547L2.40012 8.18609C2.35993 8.15634 2.38062 8.09266 2.43062 8.09222L2.81668 8.08928L2.9388 7.72303C2.95449 7.67566 3.02162 7.67566 3.03743 7.72303Z" fill="#F5F5F5"/>
<path d="M3.03743 9.63909L3.15955 10.0053L3.54561 10.0083C3.59561 10.0087 3.6163 10.0725 3.57611 10.1022L3.26555 10.3315L3.38205 10.6996C3.39718 10.7472 3.34286 10.7867 3.30218 10.7576L2.98812 10.5331L2.67405 10.7576C2.63337 10.7867 2.57918 10.7473 2.59418 10.6996L2.71068 10.3315L2.40012 10.1022C2.35993 10.0724 2.38062 10.0087 2.43062 10.0083L2.81668 10.0053L2.9388 9.63909C2.95449 9.59166 3.02162 9.59166 3.03743 9.63909Z" fill="#F5F5F5"/>
<path d="M3.03743 11.5551L3.15955 11.9214L3.54561 11.9243C3.59561 11.9247 3.6163 11.9885 3.57611 12.0182L3.26555 12.2475L3.38205 12.6156C3.39718 12.6632 3.34286 12.7027 3.30218 12.6736L2.98812 12.4491L2.67405 12.6736C2.63337 12.7027 2.57918 12.6632 2.59418 12.6156L2.71068 12.2475L2.40012 12.0182C2.35993 11.9884 2.38062 11.9247 2.43062 11.9243L2.81668 11.9214L2.9388 11.5551C2.95449 11.5077 3.02162 11.5077 3.03743 11.5551Z" fill="#F5F5F5"/>
<path d="M3.03743 13.4711L3.15955 13.8373L3.54561 13.8403C3.59561 13.8407 3.6163 13.9045 3.57611 13.9341L3.26555 14.1635L3.38205 14.5316C3.39718 14.5792 3.34286 14.6187 3.30218 14.5896L2.98812 14.3651L2.67405 14.5896C2.63337 14.6186 2.57918 14.5792 2.59418 14.5316L2.71068 14.1635L2.40012 13.9341C2.35993 13.9044 2.38062 13.8407 2.43062 13.8403L2.81668 13.8373L2.9388 13.4711C2.95449 13.4237 3.02162 13.4237 3.03743 13.4711Z" fill="#F5F5F5"/>
<path d="M4.5218 6.78362L4.64393 7.14987L5.02999 7.15281C5.07999 7.15325 5.10068 7.217 5.06049 7.24669L4.74993 7.47606L4.86643 7.84412C4.88155 7.89175 4.82724 7.93125 4.78655 7.90212L4.47249 7.67762L4.15843 7.90212C4.11774 7.93118 4.06355 7.89175 4.07855 7.84412L4.19505 7.47606L3.88449 7.24669C3.8443 7.21694 3.86499 7.15325 3.91499 7.15281L4.30105 7.14987L4.42318 6.78362C4.43893 6.73619 4.50599 6.73619 4.5218 6.78362Z" fill="#F5F5F5"/>
<path d="M4.5218 8.69959L4.64393 9.06584L5.02999 9.06878C5.07999 9.06922 5.10068 9.13297 5.06049 9.16266L4.74993 9.39203L4.86643 9.76009C4.88155 9.80772 4.82724 9.84722 4.78655 9.81809L4.47249 9.59359L4.15843 9.81809C4.11774 9.84715 4.06355 9.80772 4.07855 9.76009L4.19505 9.39203L3.88449 9.16266C3.8443 9.13291 3.86499 9.06922 3.91499 9.06878L4.30105 9.06584L4.42318 8.69959C4.43893 8.65222 4.50599 8.65222 4.5218 8.69959Z" fill="#F5F5F5"/>
<path d="M4.5218 10.6156L4.64393 10.9819L5.02999 10.9848C5.07999 10.9852 5.10068 11.049 5.06049 11.0787L4.74993 11.308L4.86643 11.6761C4.88155 11.7237 4.82724 11.7632 4.78655 11.7341L4.47249 11.5096L4.15843 11.7341C4.11774 11.7632 4.06355 11.7237 4.07855 11.6761L4.19505 11.308L3.88449 11.0787C3.8443 11.0489 3.86499 10.9852 3.91499 10.9848L4.30105 10.9819L4.42318 10.6156C4.43893 10.5682 4.50599 10.5682 4.5218 10.6156Z" fill="#F5F5F5"/>
<path d="M4.5218 12.5317L4.64393 12.8979L5.02999 12.9009C5.07999 12.9013 5.10068 12.965 5.06049 12.9947L4.74993 13.2241L4.86643 13.5922C4.88155 13.6398 4.82724 13.6793 4.78655 13.6502L4.47249 13.4257L4.15843 13.6502C4.11774 13.6792 4.06355 13.6398 4.07855 13.5922L4.19505 13.2241L3.88449 12.9947C3.8443 12.965 3.86499 12.9013 3.91499 12.9009L4.30105 12.8979L4.42318 12.5317C4.43893 12.4842 4.50599 12.4842 4.5218 12.5317Z" fill="#F5F5F5"/>
<path d="M4.5218 14.4468L4.64393 14.813L5.02999 14.8159C5.07999 14.8164 5.10068 14.8801 5.06049 14.9098L4.74993 15.1392L4.86643 15.5073C4.88155 15.5549 4.82724 15.5944 4.78655 15.5653L4.47249 15.3408L4.15843 15.5653C4.11774 15.5943 4.06355 15.5549 4.07855 15.5073L4.19505 15.1392L3.88449 14.9098C3.8443 14.8801 3.86499 14.8164 3.91499 14.8159L4.30105 14.813L4.42318 14.4468C4.43893 14.3993 4.50599 14.3993 4.5218 14.4468Z" fill="#F5F5F5"/>
<path d="M6.01008 7.72303L6.13221 8.08928L6.51827 8.09222C6.56827 8.09266 6.58896 8.15641 6.54877 8.18609L6.23821 8.41547L6.35471 8.78353C6.36983 8.83115 6.31552 8.87065 6.27483 8.84153L5.96077 8.61703L5.64671 8.84153C5.60602 8.87059 5.55183 8.83115 5.56683 8.78353L5.68333 8.41547L5.37277 8.18609C5.33258 8.15634 5.35327 8.09266 5.40327 8.09222L5.78933 8.08928L5.91146 7.72303C5.92715 7.67566 5.99427 7.67566 6.01008 7.72303Z" fill="#F5F5F5"/>
<path d="M6.01008 9.63909L6.13221 10.0053L6.51827 10.0083C6.56827 10.0087 6.58896 10.0725 6.54877 10.1022L6.23821 10.3315L6.35471 10.6996C6.36983 10.7472 6.31552 10.7867 6.27483 10.7576L5.96077 10.5331L5.64671 10.7576C5.60602 10.7867 5.55183 10.7473 5.56683 10.6996L5.68333 10.3315L5.37277 10.1022C5.33258 10.0724 5.35327 10.0087 5.40327 10.0083L5.78933 10.0053L5.91146 9.63909C5.92715 9.59166 5.99427 9.59166 6.01008 9.63909Z" fill="#F5F5F5"/>
<path d="M6.01008 11.5551L6.13221 11.9214L6.51827 11.9243C6.56827 11.9247 6.58896 11.9885 6.54877 12.0182L6.23821 12.2475L6.35471 12.6156C6.36983 12.6632 6.31552 12.7027 6.27483 12.6736L5.96077 12.4491L5.64671 12.6736C5.60602 12.7027 5.55183 12.6632 5.56683 12.6156L5.68333 12.2475L5.37277 12.0182C5.33258 11.9884 5.35327 11.9247 5.40327 11.9243L5.78933 11.9214L5.91146 11.5551C5.92715 11.5077 5.99427 11.5077 6.01008 11.5551Z" fill="#F5F5F5"/>
<path d="M6.01008 13.4711L6.13221 13.8373L6.51827 13.8403C6.56827 13.8407 6.58896 13.9045 6.54877 13.9341L6.23821 14.1635L6.35471 14.5316C6.36983 14.5792 6.31552 14.6187 6.27483 14.5896L5.96077 14.3651L5.64671 14.5896C5.60602 14.6186 5.55183 14.5792 5.56683 14.5316L5.68333 14.1635L5.37277 13.9341C5.33258 13.9044 5.35327 13.8407 5.40327 13.8403L5.78933 13.8373L5.91146 13.4711C5.92715 13.4237 5.99427 13.4237 6.01008 13.4711Z" fill="#F5F5F5"/>
<path d="M7.49843 6.78362L7.62055 7.14987L8.00661 7.15281C8.05661 7.15325 8.0773 7.217 8.03711 7.24669L7.72655 7.47606L7.84305 7.84412C7.85818 7.89175 7.80386 7.93125 7.76318 7.90212L7.44905 7.67762L7.13499 7.90212C7.0943 7.93118 7.04012 7.89175 7.05512 7.84412L7.17162 7.47606L6.86105 7.24669C6.82087 7.21694 6.84155 7.15325 6.89155 7.15281L7.27762 7.14987L7.39974 6.78362C7.41555 6.73619 7.48261 6.73619 7.49843 6.78362Z" fill="#F5F5F5"/>
<path d="M7.49843 8.69959L7.62055 9.06584L8.00661 9.06878C8.05661 9.06922 8.0773 9.13297 8.03711 9.16266L7.72655 9.39203L7.84305 9.76009C7.85818 9.80772 7.80386 9.84722 7.76318 9.81809L7.44905 9.59359L7.13499 9.81809C7.0943 9.84715 7.04012 9.80772 7.05512 9.76009L7.17162 9.39203L6.86105 9.16266C6.82087 9.13291 6.84155 9.06922 6.89155 9.06878L7.27762 9.06584L7.39974 8.69959C7.41555 8.65222 7.48261 8.65222 7.49843 8.69959Z" fill="#F5F5F5"/>
<path d="M7.49843 10.6156L7.62055 10.9819L8.00661 10.9848C8.05661 10.9852 8.0773 11.049 8.03711 11.0787L7.72655 11.308L7.84305 11.6761C7.85818 11.7237 7.80386 11.7632 7.76318 11.7341L7.44905 11.5096L7.13499 11.7341C7.0943 11.7632 7.04012 11.7237 7.05512 11.6761L7.17162 11.308L6.86105 11.0787C6.82087 11.0489 6.84155 10.9852 6.89155 10.9848L7.27762 10.9819L7.39974 10.6156C7.41555 10.5682 7.48261 10.5682 7.49843 10.6156Z" fill="#F5F5F5"/>
<path d="M7.49843 12.5317L7.62055 12.8979L8.00661 12.9009C8.05661 12.9013 8.0773 12.965 8.03711 12.9947L7.72655 13.2241L7.84305 13.5922C7.85818 13.6398 7.80386 13.6793 7.76318 13.6502L7.44905 13.4257L7.13499 13.6502C7.0943 13.6792 7.04012 13.6398 7.05512 13.5922L7.17162 13.2241L6.86105 12.9947C6.82087 12.965 6.84155 12.9013 6.89155 12.9009L7.27762 12.8979L7.39974 12.5317C7.41555 12.4842 7.48261 12.4842 7.49843 12.5317Z" fill="#F5F5F5"/>
<path d="M7.49843 14.4468L7.62055 14.813L8.00661 14.8159C8.05661 14.8164 8.0773 14.8801 8.03711 14.9098L7.72655 15.1392L7.84305 15.5073C7.85818 15.5549 7.80386 15.5944 7.76318 15.5653L7.44905 15.3408L7.13499 15.5653C7.0943 15.5943 7.04012 15.5549 7.05512 15.5073L7.17162 15.1392L6.86105 14.9098C6.82087 14.8801 6.84155 14.8164 6.89155 14.8159L7.27762 14.813L7.39974 14.4468C7.41555 14.3993 7.48261 14.3993 7.49843 14.4468Z" fill="#F5F5F5"/>
<path d="M8.98274 7.72303L9.10486 8.08928L9.49093 8.09222C9.54093 8.09266 9.56161 8.15641 9.52143 8.18609L9.21086 8.41547L9.32736 8.78353C9.34249 8.83115 9.28818 8.87065 9.24749 8.84153L8.93343 8.61703L8.61937 8.84153C8.57868 8.87059 8.52449 8.83115 8.53949 8.78353L8.65599 8.41547L8.34543 8.18609C8.30524 8.15634 8.32593 8.09266 8.37593 8.09222L8.76199 8.08928L8.88412 7.72303C8.89993 7.67566 8.96693 7.67566 8.98274 7.72303Z" fill="#F5F5F5"/>
<path d="M8.98274 9.63909L9.10486 10.0053L9.49093 10.0083C9.54093 10.0087 9.56161 10.0725 9.52143 10.1022L9.21086 10.3315L9.32736 10.6996C9.34249 10.7472 9.28818 10.7867 9.24749 10.7576L8.93343 10.5331L8.61937 10.7576C8.57868 10.7867 8.52449 10.7473 8.53949 10.6996L8.65599 10.3315L8.34543 10.1022C8.30524 10.0724 8.32593 10.0087 8.37593 10.0083L8.76199 10.0053L8.88412 9.63909C8.89993 9.59166 8.96693 9.59166 8.98274 9.63909Z" fill="#F5F5F5"/>
<path d="M8.98274 11.5551L9.10486 11.9214L9.49093 11.9243C9.54093 11.9247 9.56161 11.9885 9.52143 12.0182L9.21086 12.2475L9.32736 12.6156C9.34249 12.6632 9.28818 12.7027 9.24749 12.6736L8.93343 12.4491L8.61937 12.6736C8.57868 12.7027 8.52449 12.6632 8.53949 12.6156L8.65599 12.2475L8.34543 12.0182C8.30524 11.9884 8.32593 11.9247 8.37593 11.9243L8.76199 11.9214L8.88412 11.5551C8.89993 11.5077 8.96693 11.5077 8.98274 11.5551Z" fill="#F5F5F5"/>
<path d="M8.98274 13.4711L9.10486 13.8373L9.49093 13.8403C9.54093 13.8407 9.56161 13.9045 9.52143 13.9341L9.21086 14.1635L9.32736 14.5316C9.34249 14.5792 9.28818 14.6187 9.24749 14.5896L8.93343 14.3651L8.61937 14.5896C8.57868 14.6186 8.52449 14.5792 8.53949 14.5316L8.65599 14.1635L8.34543 13.9341C8.30524 13.9044 8.32593 13.8407 8.37593 13.8403L8.76199 13.8373L8.88412 13.4711C8.89993 13.4237 8.96693 13.4237 8.98274 13.4711Z" fill="#F5F5F5"/>
<path d="M10.471 6.78362L10.5931 7.14987L10.9792 7.15281C11.0292 7.15325 11.0499 7.217 11.0097 7.24669L10.6991 7.47606L10.8156 7.84412C10.8308 7.89175 10.7765 7.93125 10.7358 7.90212L10.4217 7.67762L10.1076 7.90212C10.067 7.93118 10.0128 7.89175 10.0278 7.84412L10.1443 7.47606L9.83371 7.24669C9.79352 7.21694 9.81421 7.15325 9.86421 7.15281L10.2503 7.14987L10.3724 6.78362C10.3881 6.73619 10.4552 6.73619 10.471 6.78362Z" fill="#F5F5F5"/>
<path d="M10.471 8.69959L10.5931 9.06584L10.9792 9.06878C11.0292 9.06922 11.0499 9.13297 11.0097 9.16266L10.6991 9.39203L10.8156 9.76009C10.8308 9.80772 10.7765 9.84722 10.7358 9.81809L10.4217 9.59359L10.1076 9.81809C10.067 9.84715 10.0128 9.80772 10.0278 9.76009L10.1443 9.39203L9.83371 9.16266C9.79352 9.13291 9.81421 9.06922 9.86421 9.06878L10.2503 9.06584L10.3724 8.69959C10.3881 8.65222 10.4552 8.65222 10.471 8.69959Z" fill="#F5F5F5"/>
<path d="M10.471 10.6156L10.5931 10.9819L10.9792 10.9848C11.0292 10.9852 11.0499 11.049 11.0097 11.0787L10.6991 11.308L10.8156 11.6761C10.8308 11.7237 10.7765 11.7632 10.7358 11.7341L10.4217 11.5096L10.1076 11.7341C10.067 11.7632 10.0128 11.7237 10.0278 11.6761L10.1443 11.308L9.83371 11.0787C9.79352 11.0489 9.81421 10.9852 9.86421 10.9848L10.2503 10.9819L10.3724 10.6156C10.3881 10.5682 10.4552 10.5682 10.471 10.6156Z" fill="#F5F5F5"/>
<path d="M10.471 12.5317L10.5931 12.8979L10.9792 12.9009C11.0292 12.9013 11.0499 12.965 11.0097 12.9947L10.6991 13.2241L10.8156 13.5922C10.8308 13.6398 10.7765 13.6793 10.7358 13.6502L10.4217 13.4257L10.1076 13.6502C10.067 13.6792 10.0128 13.6398 10.0278 13.5922L10.1443 13.2241L9.83371 12.9947C9.79352 12.965 9.81421 12.9013 9.86421 12.9009L10.2503 12.8979L10.3724 12.5317C10.3881 12.4842 10.4552 12.4842 10.471 12.5317Z" fill="#F5F5F5"/>
<path d="M10.471 14.4468L10.5931 14.813L10.9792 14.8159C11.0292 14.8164 11.0499 14.8801 11.0097 14.9098L10.6991 15.1392L10.8156 15.5073C10.8308 15.5549 10.7765 15.5944 10.7358 15.5653L10.4217 15.3408L10.1076 15.5653C10.067 15.5943 10.0128 15.5549 10.0278 15.5073L10.1443 15.1392L9.83371 14.9098C9.79352 14.8801 9.81421 14.8164 9.86421 14.8159L10.2503 14.813L10.3724 14.4468C10.3881 14.3993 10.4552 14.3993 10.471 14.4468Z" fill="#F5F5F5"/>
<path d="M11.9593 7.72303L12.0814 8.08928L12.4675 8.09222C12.5175 8.09266 12.5382 8.15641 12.498 8.18609L12.1874 8.41547L12.3039 8.78353C12.3191 8.83115 12.2647 8.87065 12.2241 8.84153L11.91 8.61703L11.5959 8.84153C11.5552 8.87059 11.5011 8.83115 11.5161 8.78353L11.6326 8.41547L11.322 8.18609C11.2818 8.15634 11.3025 8.09266 11.3525 8.09222L11.7386 8.08928L11.8607 7.72303C11.8764 7.67566 11.9436 7.67566 11.9593 7.72303Z" fill="#F5F5F5"/>
<path d="M11.9593 9.63909L12.0814 10.0053L12.4675 10.0083C12.5175 10.0087 12.5382 10.0725 12.498 10.1022L12.1874 10.3315L12.3039 10.6996C12.3191 10.7472 12.2647 10.7867 12.2241 10.7576L11.91 10.5331L11.5959 10.7576C11.5552 10.7867 11.5011 10.7473 11.5161 10.6996L11.6326 10.3315L11.322 10.1022C11.2818 10.0724 11.3025 10.0087 11.3525 10.0083L11.7386 10.0053L11.8607 9.63909C11.8764 9.59166 11.9436 9.59166 11.9593 9.63909Z" fill="#F5F5F5"/>
<path d="M11.9593 11.5551L12.0814 11.9214L12.4675 11.9243C12.5175 11.9247 12.5382 11.9885 12.498 12.0182L12.1874 12.2475L12.3039 12.6156C12.3191 12.6632 12.2647 12.7027 12.2241 12.6736L11.91 12.4491L11.5959 12.6736C11.5552 12.7027 11.5011 12.6632 11.5161 12.6156L11.6326 12.2475L11.322 12.0182C11.2818 11.9884 11.3025 11.9247 11.3525 11.9243L11.7386 11.9214L11.8607 11.5551C11.8764 11.5077 11.9436 11.5077 11.9593 11.5551Z" fill="#F5F5F5"/>
<path d="M11.9593 13.4711L12.0814 13.8373L12.4675 13.8403C12.5175 13.8407 12.5382 13.9045 12.498 13.9341L12.1874 14.1635L12.3039 14.5316C12.3191 14.5792 12.2647 14.6187 12.2241 14.5896L11.91 14.3651L11.5959 14.5896C11.5552 14.6186 11.5011 14.5792 11.5161 14.5316L11.6326 14.1635L11.322 13.9341C11.2818 13.9044 11.3025 13.8407 11.3525 13.8403L11.7386 13.8373L11.8607 13.4711C11.8764 13.4237 11.9436 13.4237 11.9593 13.4711Z" fill="#F5F5F5"/>
<path d="M13.4476 6.78362L13.5697 7.14987L13.9558 7.15281C14.0058 7.15325 14.0265 7.217 13.9863 7.24669L13.6757 7.47606L13.7922 7.84412C13.8073 7.89175 13.753 7.93125 13.7123 7.90212L13.3983 7.67762L13.0842 7.90212C13.0435 7.93118 12.9893 7.89175 13.0043 7.84412L13.1208 7.47606L12.8103 7.24669C12.7701 7.21694 12.7908 7.15325 12.8408 7.15281L13.2268 7.14987L13.349 6.78362C13.3647 6.73619 13.4317 6.73619 13.4476 6.78362Z" fill="#F5F5F5"/>
<path d="M13.4476 8.69959L13.5697 9.06584L13.9558 9.06878C14.0058 9.06922 14.0265 9.13297 13.9863 9.16266L13.6757 9.39203L13.7922 9.76009C13.8073 9.80772 13.753 9.84722 13.7123 9.81809L13.3983 9.59359L13.0842 9.81809C13.0435 9.84715 12.9893 9.80772 13.0043 9.76009L13.1208 9.39203L12.8103 9.16266C12.7701 9.13291 12.7908 9.06922 12.8408 9.06878L13.2268 9.06584L13.349 8.69959C13.3647 8.65222 13.4317 8.65222 13.4476 8.69959Z" fill="#F5F5F5"/>
<path d="M13.4476 10.6156L13.5697 10.9819L13.9558 10.9848C14.0058 10.9852 14.0265 11.049 13.9863 11.0787L13.6757 11.308L13.7922 11.6761C13.8073 11.7237 13.753 11.7632 13.7123 11.7341L13.3983 11.5096L13.0842 11.7341C13.0435 11.7632 12.9893 11.7237 13.0043 11.6761L13.1208 11.308L12.8103 11.0787C12.7701 11.0489 12.7908 10.9852 12.8408 10.9848L13.2268 10.9819L13.349 10.6156C13.3647 10.5682 13.4317 10.5682 13.4476 10.6156Z" fill="#F5F5F5"/>
<path d="M13.4476 12.5317L13.5697 12.8979L13.9558 12.9009C14.0058 12.9013 14.0265 12.965 13.9863 12.9947L13.6757 13.2241L13.7922 13.5922C13.8073 13.6398 13.753 13.6793 13.7123 13.6502L13.3983 13.4257L13.0842 13.6502C13.0435 13.6792 12.9893 13.6398 13.0043 13.5922L13.1208 13.2241L12.8103 12.9947C12.7701 12.965 12.7908 12.9013 12.8408 12.9009L13.2268 12.8979L13.349 12.5317C13.3647 12.4842 13.4317 12.4842 13.4476 12.5317Z" fill="#F5F5F5"/>
<path d="M13.4476 14.4468L13.5697 14.813L13.9558 14.8159C14.0058 14.8164 14.0265 14.8801 13.9863 14.9098L13.6757 15.1392L13.7922 15.5073C13.8073 15.5549 13.753 15.5944 13.7123 15.5653L13.3983 15.3408L13.0842 15.5653C13.0435 15.5943 12.9893 15.5549 13.0043 15.5073L13.1208 15.1392L12.8103 14.9098C12.7701 14.8801 12.7908 14.8164 12.8408 14.8159L13.2268 14.813L13.349 14.4468C13.3647 14.3993 13.4317 14.3993 13.4476 14.4468Z" fill="#F5F5F5"/>
</svg>
