<svg width="32" height="32" viewBox="0 0 32 32" fill="none" xmlns="http://www.w3.org/2000/svg">
<path d="M29.6034 5.51758H2.39656C1.07294 5.51758 0 6.59052 0 7.91414V12.5061H32V7.91414C32 6.59052 30.9271 5.51758 29.6034 5.51758Z" fill="#FAB446"/>
<path d="M0 24.0861C0 25.4096 1.07294 26.4826 2.39656 26.4826H29.6034C30.927 26.4826 32 25.4097 32 24.0861V19.4941H0V24.0861Z" fill="#73AF00"/>
<path d="M32 12.5059H0V19.494H32V12.5059Z" fill="#F5F5F5"/>
<path d="M16.0007 18.9652C14.3654 18.9652 13.0352 17.6349 13.0352 15.9997C13.0352 14.3644 14.3654 13.0342 16.0007 13.0342C17.6359 13.0342 18.9662 14.3644 18.9662 15.9997C18.9662 17.6349 17.6359 18.9652 16.0007 18.9652ZM16.0007 13.5859C14.6695 13.5859 13.5868 14.6686 13.5868 15.9997C13.5868 17.3308 14.6695 18.4135 16.0007 18.4135C17.3318 18.4135 18.4145 17.3308 18.4145 15.9997C18.4145 14.6686 17.3318 13.5859 16.0007 13.5859Z" fill="#41479B"/>
<path d="M16.0002 16.3355C16.1859 16.3355 16.3364 16.1849 16.3364 15.9993C16.3364 15.8136 16.1859 15.6631 16.0002 15.6631C15.8146 15.6631 15.6641 15.8136 15.6641 15.9993C15.6641 16.1849 15.8146 16.3355 16.0002 16.3355Z" fill="#41479B"/>
<path d="M16.0021 16.0504L15.1477 16.1367L13.3125 16.0504V15.9495L15.1477 15.8633L16.0021 15.9495V16.0504Z" fill="#41479B"/>
<path d="M16 16.0504L16.8544 16.1367L18.6896 16.0504V15.9495L16.8544 15.8633L16 15.9495V16.0504Z" fill="#41479B"/>
<path d="M15.9495 15.9992L15.8633 15.1448L15.9495 13.3096H16.0504L16.1367 15.1448L16.0504 15.9992H15.9495Z" fill="#41479B"/>
<path d="M15.9495 16L15.8633 16.8544L15.9495 18.6896H16.0504L16.1367 16.8544L16.0504 16H15.9495Z" fill="#41479B"/>
<path d="M15.9644 16.0356L15.2992 15.4926L14.0625 14.1338L14.1338 14.0625L15.4926 15.2992L16.0356 15.9644L15.9644 16.0356Z" fill="#41479B"/>
<path d="M15.9648 16.0351L16.5079 16.7002L17.8667 17.937L17.938 17.8657L16.7012 16.5069L16.0361 15.9639L15.9648 16.0351Z" fill="#41479B"/>
<path d="M15.9648 15.9644L16.5079 15.2992L17.8667 14.0625L17.938 14.1338L16.7012 15.4926L16.0361 16.0356L15.9648 15.9644Z" fill="#41479B"/>
<path d="M15.9644 15.9639L15.2992 16.5069L14.0625 17.8657L14.1338 17.937L15.4926 16.7002L16.0356 16.0351L15.9644 15.9639Z" fill="#41479B"/>
<path d="M16.0196 16.0464L15.2632 16.453L13.5347 17.0756L13.4961 16.9824L15.1587 16.2004L15.981 15.9531L16.0196 16.0464Z" fill="#41479B"/>
<path d="M16.0191 16.0463L16.8414 15.799L18.504 15.017L18.4653 14.9238L16.7368 15.5465L15.9805 15.9531L16.0191 16.0463Z" fill="#41479B"/>
<path d="M15.955 16.0186L15.5484 15.2622L14.9258 13.5337L15.019 13.4951L15.801 15.1577L16.0483 15.98L15.955 16.0186Z" fill="#41479B"/>
<path d="M15.9531 16.0191L16.2004 16.8414L16.9824 18.504L17.0756 18.4653L16.453 16.7368L16.0464 15.9805L15.9531 16.0191Z" fill="#41479B"/>
<path d="M15.981 16.0463L15.1587 15.799L13.4961 15.017L13.5347 14.9238L15.2632 15.5465L16.0196 15.9531L15.981 16.0463Z" fill="#41479B"/>
<path d="M15.9805 16.0464L16.7368 16.453L18.4653 17.0756L18.504 16.9824L16.8414 16.2004L16.0191 15.9531L15.9805 16.0464Z" fill="#41479B"/>
<path d="M15.9531 15.98L16.2004 15.1577L16.9824 13.4951L17.0756 13.5337L16.453 15.2622L16.0464 16.0186L15.9531 15.98Z" fill="#41479B"/>
<path d="M15.955 15.9805L15.5484 16.7368L14.9258 18.4653L15.019 18.504L15.801 16.8414L16.0483 16.0191L15.955 15.9805Z" fill="#41479B"/>
<path d="M16.0004 16.4539C16.2508 16.4539 16.4539 16.2508 16.4539 16.0004C16.4539 15.7499 16.2508 15.5469 16.0004 15.5469C15.7499 15.5469 15.5469 15.7499 15.5469 16.0004C15.5469 16.2508 15.7499 16.4539 16.0004 16.4539Z" fill="#F5F5F5"/>
<path d="M15.9985 16.2724C16.1487 16.2724 16.2704 16.1506 16.2704 16.0005C16.2704 15.8503 16.1487 15.7285 15.9985 15.7285C15.8483 15.7285 15.7266 15.8503 15.7266 16.0005C15.7266 16.1506 15.8483 16.2724 15.9985 16.2724Z" fill="#41479B"/>
</svg>
