<svg width="32" height="20" viewBox="0 0 32 20" fill="none" xmlns="http://www.w3.org/2000/svg">
<path d="M3.21635 9.37999e-08C2.79394 -0.000101899 2.37565 0.0830224 1.98538 0.244623C1.59511 0.406223 1.2405 0.643133 0.941818 0.941819C0.643133 1.2405 0.406223 1.59511 0.244622 1.98538C0.0830219 2.37565 -0.000101929 2.79394 9.3913e-08 3.21635V16.476C-0.00010199 16.8984 0.0830216 17.3167 0.244622 17.7069C0.406222 18.0972 0.643133 18.4518 0.941818 18.7505C1.2405 19.0492 1.59511 19.2861 1.98538 19.4477C2.37565 19.6093 2.79394 19.6924 3.21635 19.6923H28.7837C29.2061 19.6924 29.6243 19.6093 30.0146 19.4477C30.4049 19.2861 30.7595 19.0492 31.0582 18.7505C31.3569 18.4518 31.5938 18.0972 31.7554 17.7069C31.917 17.3167 32.0001 16.8984 32 16.476V3.21635C32.0001 2.79394 31.917 2.37565 31.7554 1.98538C31.5938 1.59511 31.3569 1.2405 31.0582 0.941819C30.7595 0.643133 30.4049 0.406223 30.0146 0.244623C29.6243 0.0830224 29.2061 -0.000101929 28.7837 9.37999e-08H3.21635Z" fill="#338000"/>
<path d="M0 6.56348V13.1276H32V6.56348H0Z" fill="white"/>
<path d="M9.3913e-08 13.127V16.4755C-0.00010199 16.8979 0.0830216 17.3162 0.244622 17.7065C0.406222 18.0967 0.643133 18.4514 0.941818 18.75C1.2405 19.0487 1.59511 19.2856 1.98538 19.4472C2.37565 19.6088 2.79394 19.692 3.21635 19.6919H28.7837C29.2061 19.692 29.6243 19.6088 30.0146 19.4472C30.4049 19.2856 30.7595 19.0487 31.0582 18.75C31.3569 18.4514 31.5938 18.0967 31.7554 17.7065C31.917 17.3162 32.0001 16.8979 32 16.4755V13.127H9.3913e-08Z" fill="black"/>
<path d="M3.21635 9.37438e-08C2.79394 -0.000101899 2.37565 0.0830224 1.98538 0.244623C1.59511 0.406223 1.2405 0.643133 0.941818 0.941819C0.643133 1.2405 0.406223 1.59511 0.244622 1.98538C0.0830219 2.37565 -0.000101929 2.79394 9.3913e-08 3.21635V16.476C-0.00010199 16.8984 0.0830216 17.3167 0.244622 17.7069C0.406222 18.0972 0.643133 18.4518 0.941818 18.7505C1.2405 19.0492 1.59511 19.2861 1.98538 19.4477C2.37565 19.6093 2.79394 19.6924 3.21635 19.6923H8.61538V9.37438e-08H3.21635Z" fill="#FF0000"/>
</svg>
