<svg width="24" height="24" viewBox="0 0 24 24" fill="none" xmlns="http://www.w3.org/2000/svg">
<g clip-path="url(#clip0_1106_724)">
<path fill-rule="evenodd" clip-rule="evenodd" d="M11.6719 22.7363V18.6245C10.4493 18.641 9.16969 18.7501 7.91452 18.9758C8.58323 20.539 9.84942 22.5125 11.6719 22.7363ZM15.8473 9.39856C15.8473 11.5233 8.15264 11.5233 8.15264 9.39856C8.15264 7.27386 9.87534 5.55139 12.0001 5.55139C14.1249 5.55139 15.8473 7.27386 15.8473 9.39856ZM10.2219 2.7485C10.2219 3.73058 11.018 4.52666 12.0001 4.52666C12.9822 4.52666 13.7783 3.73058 13.7783 2.7485C13.7783 1.76671 12.9822 0.970581 12.0001 0.970581C11.0181 0.970581 10.2219 1.76671 10.2219 2.7485ZM15.0166 4.35074C15.0166 5.14199 15.658 5.78328 16.4492 5.78328C17.2404 5.78328 17.8818 5.14194 17.8818 4.35074C17.8818 3.55977 17.2404 2.91838 16.4492 2.91838C15.658 2.91838 15.0166 3.55972 15.0166 4.35074ZM8.52989 10.9333C7.95933 10.6053 7.49644 10.1109 7.49644 9.39856C7.49644 8.39567 7.82456 7.46938 8.37909 6.72088C8.11547 6.64794 7.83783 6.60885 7.551 6.60885C5.83922 6.60885 4.45134 7.99653 4.45134 9.70827C4.45134 10.7473 6.73472 11.1554 8.52989 10.9333ZM19.5487 9.70831C19.5487 7.99658 18.161 6.60885 16.4492 6.60885C16.1624 6.60885 15.8846 6.64799 15.621 6.72092C16.1755 7.46942 16.5036 8.39567 16.5036 9.39856C16.5036 10.1109 16.0407 10.6053 15.4701 10.9333C17.2653 11.1554 19.5487 10.7473 19.5487 9.70831ZM6.11845 4.35074C6.11845 5.14199 6.7598 5.78333 7.55105 5.78333C8.34225 5.78333 8.98359 5.14199 8.98359 4.35074C8.98359 3.55977 8.34225 2.91838 7.55105 2.91838C6.7598 2.91838 6.11845 3.55977 6.11845 4.35074ZM4.38703 10.849C2.99934 11.1931 0.75 10.9163 0.75 10.018C0.75 8.71921 1.80305 7.6663 3.10191 7.6663C3.51056 7.6663 3.89484 7.7706 4.22967 7.95392C3.95241 8.47761 3.79514 9.07456 3.79514 9.70827C3.79509 10.1986 4.04048 10.5722 4.38703 10.849ZM23.25 10.018C23.25 10.9162 21.0006 11.1931 19.613 10.8489C19.9596 10.5722 20.2049 10.1986 20.2049 9.70827C20.2049 9.07456 20.0477 8.47766 19.7704 7.95397C20.1053 7.77064 20.4896 7.6663 20.8983 7.6663C22.1971 7.6663 23.25 8.71925 23.25 10.018ZM2.01492 5.95297C2.01492 6.55335 2.50158 7.03996 3.10191 7.03996C3.70223 7.03996 4.18884 6.55335 4.18884 5.95297C4.18884 5.35283 3.70223 4.86617 3.10191 4.86617C2.50158 4.86617 2.01492 5.35278 2.01492 5.95297ZM19.8113 5.95297C19.8113 6.55335 20.298 7.03996 20.8983 7.03996C21.4986 7.03996 21.9852 6.55335 21.9852 5.95297C21.9852 5.35283 21.4986 4.86617 20.8983 4.86617C20.298 4.86617 19.8113 5.35278 19.8113 5.95297ZM17.9947 12.5487C17.961 14.7462 17.5908 16.7864 16.9788 18.488C18.141 18.7448 19.206 19.0896 20.1378 19.505C21.801 17.6481 22.838 15.2187 22.9168 12.5487H17.9947ZM19.6569 20.0088C18.0395 21.5991 15.9289 22.6894 13.5756 23.0295C15.0764 22.2808 16.1104 20.6216 16.7394 19.1068C17.8104 19.3373 18.7927 19.6427 19.6569 20.0088ZM10.4244 23.0294C8.07094 22.6894 5.9603 21.599 4.34288 20.0085C5.25863 19.6194 6.24577 19.3224 7.25977 19.1048C7.88883 20.6203 8.92298 22.2805 10.4244 23.0294ZM3.86208 19.505C4.85339 19.0621 5.92341 18.7277 7.02042 18.486C6.40889 16.7848 6.03895 14.7453 6.0053 12.5487H1.08319C1.16194 15.2187 2.19891 17.6481 3.86208 19.505ZM6.66169 12.5487H11.6719V17.9682C10.3721 17.9853 9.0067 18.1049 7.66805 18.3545C7.06294 16.7071 6.69553 14.7107 6.66169 12.5487ZM12.3281 12.5487H17.3383C17.3044 14.7114 16.9368 16.7083 16.3314 18.356C15.0835 18.1223 13.7355 17.9865 12.3281 17.9682V12.5487ZM16.0849 18.9773C14.9125 18.7654 13.6485 18.6421 12.3281 18.6245V22.7364C14.1501 22.5125 15.4162 20.54 16.0849 18.9773Z" fill="#007AFF"/>
</g>
<defs>
<clipPath id="clip0_1106_724">
<rect width="24" height="24" fill="white"/>
</clipPath>
</defs>
</svg>
