<svg width="24" height="24" viewBox="0 0 24 24" fill="none" xmlns="http://www.w3.org/2000/svg">
<path d="M1.44531 11.2876V11.9912C1.44531 12.3052 1.65349 12.5814 1.95585 12.668C2.1606 12.7264 7.03293 14.102 11.9994 14.102C16.9659 14.102 21.8382 12.7264 22.043 12.668C22.3453 12.5814 22.5535 12.3052 22.5535 11.9912V11.2876C22.5535 10.8987 22.2388 10.584 21.8499 10.584H2.14892C1.76001 10.584 1.44531 10.8987 1.44531 11.2876Z" fill="#007AFF"/>
<path d="M20.4417 16.9165C20.8306 16.9165 21.1453 16.6018 21.1453 16.2129V14.3477C20.1461 14.5836 18.6423 14.8991 16.8896 15.1432C16.7125 17.6989 14.5984 19.7309 11.9984 19.7309C9.39848 19.7309 7.28442 17.6989 7.1073 15.1432C5.3542 14.899 3.85054 14.5834 2.85156 14.3477V16.2129C2.85156 16.6018 3.16626 16.9165 3.55517 16.9165H4.55288C4.7164 17.4916 4.94798 18.0461 5.24551 18.5738L4.53571 19.2836C4.26089 19.5585 4.26089 20.0038 4.53571 20.2786L6.52561 22.2685C6.80043 22.5433 7.24572 22.5433 7.52055 22.2685L8.23035 21.5587C8.75805 21.8562 9.31254 22.0877 9.88767 22.2513V23.2959C9.88767 23.6848 10.2024 23.9995 10.5913 23.9995H13.4057C13.7946 23.9995 14.1093 23.6848 14.1093 23.2959V22.2513C14.6844 22.0878 15.2389 21.8562 15.7666 21.5587L16.4764 22.2685C16.7513 22.5433 17.1965 22.5433 17.4714 22.2685L19.4613 20.2786C19.7361 20.0038 19.7361 19.5585 19.4613 19.2836L18.7515 18.5738C19.049 18.0461 19.2805 17.4916 19.4441 16.9165H20.4417Z" fill="#007AFF"/>
<path d="M10.8815 7.70762C10.5271 7.86799 10.1097 7.70926 9.95117 7.35581L7.7547 2.43873C5.24348 3.76015 3.44004 6.26766 2.98828 9.17736H21.0106C20.5589 6.26766 18.7554 3.76011 16.2442 2.43873L14.0477 7.35581C13.8891 7.70949 13.4714 7.8678 13.1174 7.70762C12.7635 7.54823 12.6055 7.13183 12.7656 6.77726L15.1969 1.33872C15.3717 0.951076 15.1705 0.478347 14.7601 0.36713C12.9547 -0.122392 11.044 -0.122392 9.23855 0.367224C8.82816 0.47844 8.62703 0.95117 8.8018 1.33881L11.2333 6.77726C11.3934 7.13183 11.2361 7.54823 10.8815 7.70762Z" fill="#007AFF"/>
</svg>
