<svg width="42" height="42" viewBox="0 0 42 42" fill="none" xmlns="http://www.w3.org/2000/svg">
<path d="M21 0C12.3165 0 5.25 7.1155 5.25 15.8637C5.25 28.294 19.5195 41.1285 20.1268 41.6675C20.377 41.8897 20.6885 42 21 42C21.3115 42 21.623 41.8898 21.8732 41.6693C22.4805 41.1285 36.75 28.294 36.75 15.8637C36.75 7.1155 29.6835 0 21 0ZM21 24.5C16.1753 24.5 12.25 20.5747 12.25 15.75C12.25 10.9253 16.1753 7 21 7C25.8247 7 29.75 10.9253 29.75 15.75C29.75 20.5747 25.8247 24.5 21 24.5Z" fill="white"/>
</svg>
