<svg width="68" height="34" viewBox="0 0 68 34" fill="none" xmlns="http://www.w3.org/2000/svg">
<g clip-path="url(#clip0_20548_9851)">
<path d="M1.98428 30.1045L0 33.9997H15.8731L17.8568 30.1045H1.98428Z" fill="#D2DBF0"/>
<path d="M17.563 9.18164L10.4237 26.4321H7.62146L0.457031 9.18164H5.62208L8.0352 15.5903L9.2289 19.3009L10.3745 15.5903L12.64 9.18164H17.563Z" fill="#D2DBF0"/>
<path d="M31.9157 5.43663H32.9562V2.59166C33.0216 2.58269 33.096 2.57427 33.1799 2.56698C33.2637 2.55968 33.3426 2.55631 33.4181 2.55631C33.5117 2.54483 33.6067 2.55816 33.6936 2.59497C33.7805 2.63178 33.8563 2.69081 33.9134 2.76615C34.0194 2.98859 34.0653 3.23506 34.0465 3.48089V5.43552L35.0853 5.2616V3.35409C35.0874 3.12287 35.0613 2.89226 35.0076 2.66739C34.9616 2.47301 34.8734 2.29123 34.7493 2.13499C34.6179 1.97845 34.4481 1.85895 34.2567 1.78827C34.007 1.69968 33.7432 1.65821 33.4784 1.66595C33.1838 1.66499 32.8896 1.68732 32.5984 1.73273C32.3676 1.76681 32.1391 1.81476 31.9141 1.87634V5.43607L31.9157 5.43663Z" fill="#D2DBF0"/>
<path d="M30.0503 3.58741C30.0643 3.85655 29.9975 4.1237 29.8585 4.35432C29.7996 4.44529 29.7181 4.51932 29.622 4.56909C29.5259 4.61887 29.4186 4.64268 29.3106 4.63821C29.2021 4.64244 29.0944 4.61855 28.9978 4.56882C28.9013 4.51909 28.8191 4.44521 28.7593 4.35432C28.6178 4.12461 28.5496 3.85708 28.5636 3.58741C28.5487 3.31979 28.6171 3.05414 28.7593 2.82721C28.8203 2.73806 28.903 2.66591 28.9994 2.61753C29.0958 2.56915 29.2029 2.54613 29.3106 2.55062C29.4178 2.54597 29.5245 2.56894 29.6204 2.61736C29.7163 2.66577 29.7983 2.73802 29.8585 2.82721C29.998 3.05513 30.0649 3.32034 30.0503 3.58741ZM31.1126 3.58741C31.1157 3.31773 31.0708 3.04965 30.9801 2.7958C30.8991 2.56953 30.7729 2.36221 30.6094 2.18652C30.4492 2.01699 30.2553 1.88317 30.0402 1.79379C29.5736 1.6065 29.0531 1.6065 28.5865 1.79379C28.3708 1.88377 28.1759 2.01747 28.014 2.18652C27.8486 2.36207 27.7203 2.56929 27.6366 2.7958C27.543 3.049 27.4968 3.31737 27.5002 3.58741C27.4971 3.85842 27.5422 4.1278 27.6332 4.38295C27.7142 4.6116 27.8402 4.82149 28.0039 5.00007C28.1631 5.17136 28.357 5.30644 28.5725 5.39617C29.0487 5.58304 29.5775 5.58304 30.0536 5.39617C30.2694 5.30657 30.4636 5.17148 30.6228 5.00007C30.7857 4.82225 30.9093 4.61197 30.9857 4.38295C31.0722 4.12683 31.1147 3.85783 31.1115 3.58741" fill="#D2DBF0"/>
<path d="M24.6798 3.93036C24.6778 4.14929 24.7001 4.36777 24.7464 4.58172C24.7845 4.76464 24.8645 4.93613 24.9801 5.08271C25.0996 5.22648 25.2535 5.33748 25.4273 5.40531C25.6527 5.48932 25.8921 5.52856 26.1324 5.52087C26.3225 5.52433 26.5124 5.5055 26.6982 5.46477C26.8411 5.43075 26.9812 5.38613 27.1175 5.33126L26.971 4.51832C26.8658 4.55776 26.757 4.58706 26.6462 4.60585C26.5322 4.62642 26.4165 4.63693 26.3007 4.63727C26.2128 4.64932 26.1233 4.63745 26.0416 4.6029C25.9598 4.56836 25.8888 4.51241 25.8361 4.4409C25.7517 4.27929 25.7119 4.09799 25.7209 3.91578V2.61924H26.971V1.7502H25.7209V0.664062L24.6804 0.832364V3.9298L24.6798 3.93036Z" fill="#D2DBF0"/>
<path d="M22.6982 4.2104C22.6229 4.252 22.5432 4.28494 22.4606 4.30859C22.3631 4.33725 22.2619 4.35142 22.1603 4.35066C21.6899 4.35066 21.4549 4.05873 21.4553 3.47489C21.4452 3.22756 21.5163 2.98376 21.6577 2.7809C21.73 2.68828 21.824 2.61492 21.9312 2.56728C22.0385 2.51963 22.1557 2.49916 22.2727 2.50768C22.3663 2.50768 22.4477 2.51124 22.517 2.51834C22.5864 2.52545 22.6471 2.53368 22.6993 2.54303V4.21097L22.6982 4.2104ZM23.7387 4.97396V1.87709C23.6453 1.84903 23.5396 1.82098 23.4211 1.79686C23.3026 1.77273 23.1779 1.74918 23.0482 1.7301C22.9185 1.71103 22.7854 1.69588 22.6529 1.68466C22.5204 1.67344 22.3907 1.66727 22.266 1.66727C21.9974 1.66308 21.7303 1.70696 21.4771 1.79686C21.2564 1.87598 21.0551 2.00146 20.8867 2.16489C20.7247 2.32645 20.5996 2.5213 20.5199 2.73602C20.4336 2.97279 20.3909 3.22336 20.3941 3.47546C20.3659 3.93304 20.5104 4.3845 20.7989 4.74001C20.9488 4.89581 21.1308 5.01696 21.3321 5.09505C21.5334 5.17315 21.7492 5.20629 21.9646 5.1922C22.0946 5.19312 22.2243 5.18014 22.3515 5.15349C22.4707 5.12764 22.5868 5.0889 22.6976 5.03792V5.17088C22.7051 5.35716 22.6385 5.53878 22.5126 5.67581C22.4258 5.7495 22.3252 5.80487 22.2166 5.83861C22.108 5.87235 21.9938 5.88376 21.8808 5.87217C21.4959 5.87793 21.1138 5.8064 20.7569 5.66178L20.5747 6.53755C20.7776 6.60602 20.9854 6.65873 21.1964 6.6952C21.4179 6.73472 21.6424 6.75462 21.8673 6.75467C22.3773 6.79674 22.8838 6.63979 23.2813 6.3165C23.4451 6.13618 23.5701 5.92401 23.6487 5.69315C23.7273 5.46229 23.7577 5.21768 23.7381 4.97452" fill="#D2DBF0"/>
<path d="M16.4548 5.43664H17.4947V2.59167C17.5602 2.58269 17.6351 2.57428 17.7184 2.56698C17.8017 2.55969 17.8811 2.55632 17.956 2.55632C18.0496 2.54495 18.1446 2.55832 18.2315 2.59513C18.3184 2.63193 18.3942 2.6909 18.4514 2.76615C18.5573 2.98861 18.6032 3.23506 18.5844 3.4809V5.43552L19.6238 5.26161V3.3541C19.6263 3.12285 19.6002 2.8922 19.5461 2.6674C19.5002 2.47308 19.4122 2.29132 19.2884 2.135C19.1571 1.97834 18.9873 1.85881 18.7958 1.78827C18.5461 1.69966 18.2822 1.65819 18.0175 1.66596C17.7229 1.66496 17.4286 1.6873 17.1375 1.73273C16.9067 1.76682 16.6782 1.81477 16.4531 1.87635V5.43607L16.4548 5.43664Z" fill="#D2DBF0"/>
<path d="M14.4375 1.88281V5.43636H15.4774V1.88506C15.3228 1.98644 15.1422 2.04041 14.9575 2.04041C14.7728 2.04041 14.5921 1.98644 14.4375 1.88506" fill="#D2DBF0"/>
<path d="M14.96 0.392578C14.8257 0.392689 14.6944 0.432768 14.5828 0.507736C14.4711 0.582704 14.3841 0.689196 14.3328 0.81376C14.2815 0.938325 14.2681 1.07538 14.2944 1.20757C14.3206 1.33976 14.3854 1.46115 14.4804 1.55643C14.5754 1.6517 14.6965 1.71657 14.8282 1.74283C14.96 1.76908 15.0966 1.75555 15.2207 1.70394C15.3448 1.65234 15.4508 1.56496 15.5254 1.45288C15.6001 1.34079 15.6399 1.20904 15.6399 1.07424C15.6399 0.98468 15.6223 0.895985 15.5881 0.813247C15.5539 0.730509 15.5039 0.655345 15.4407 0.592041C15.3776 0.528736 15.3026 0.478542 15.2201 0.444319C15.1377 0.410096 15.0493 0.392505 14.96 0.392578Z" fill="#D2DBF0"/>
<path d="M13.8392 4.64629C13.7363 4.64206 13.6349 4.62083 13.5389 4.58346C13.4721 4.55669 13.4132 4.51324 13.3679 4.45722C13.3263 4.40159 13.2987 4.33675 13.2873 4.26817C13.2729 4.18481 13.2659 4.10031 13.2667 4.0157V0.000976562L12.2267 0.169295V4.22608C12.2246 4.40421 12.2445 4.58191 12.286 4.75513C12.3223 4.90647 12.3997 5.04475 12.5096 5.15459C12.6363 5.27436 12.7896 5.36207 12.9569 5.41041C13.1966 5.47833 13.4448 5.51141 13.6938 5.5086L13.8392 4.64629Z" fill="#D2DBF0"/>
<path d="M11.6731 1.81624C11.6077 1.79008 11.5399 1.77018 11.4707 1.75678C11.3919 1.74051 11.3125 1.72647 11.2331 1.71469C11.1537 1.70291 11.0749 1.69394 10.996 1.68665C10.9172 1.67935 10.8495 1.67598 10.7936 1.67598C10.5083 1.67305 10.2236 1.70241 9.94491 1.76351C9.72178 1.81328 9.50153 1.87527 9.28516 1.9492V5.4388H10.3251V2.62188C10.3928 2.60355 10.4617 2.59061 10.5314 2.58317C10.6089 2.57254 10.6869 2.56673 10.7651 2.56577C10.9008 2.56494 11.0362 2.57772 11.1694 2.60392C11.2957 2.62972 11.4042 2.65442 11.4981 2.67742L11.6731 1.81624Z" fill="#D2DBF0"/>
<path d="M8.307 1.75152H7.26706V4.59651C7.20164 4.60604 7.12672 4.6139 7.04342 4.6212C6.96011 4.62849 6.88071 4.63185 6.80579 4.63185C6.71061 4.64315 6.61416 4.62824 6.52679 4.5887C6.43942 4.54916 6.36443 4.4865 6.30987 4.40744C6.20514 4.17941 6.15937 3.92858 6.17679 3.67811V1.75152H5.13685V3.80434C5.13462 4.03779 5.16072 4.27065 5.21457 4.49777C5.25988 4.69553 5.34786 4.8809 5.47232 5.04084C5.60309 5.19976 5.77285 5.32178 5.96489 5.39485C6.214 5.48605 6.47812 5.52889 6.74317 5.52109C7.03781 5.522 7.33206 5.49967 7.62321 5.45431C7.85403 5.42044 8.08257 5.37249 8.30756 5.3107V1.75098L8.307 1.75152Z" fill="#D2DBF0"/>
<path d="M3.26415 3.94484C3.27362 4.05178 3.24984 4.15904 3.19608 4.25187C3.14231 4.3447 3.0612 4.41853 2.9639 4.46321C2.71404 4.56631 2.44496 4.61415 2.175 4.60347C2.06318 4.60347 1.9603 4.60347 1.86749 4.59618C1.77468 4.58888 1.68802 4.5844 1.60974 4.57543V3.32097H2.29409C2.54217 3.30734 2.78967 3.35673 3.01367 3.46459C3.09627 3.51281 3.16362 3.58348 3.20793 3.66845C3.25225 3.75342 3.27174 3.84924 3.26415 3.94484ZM3.07573 1.94083C3.08158 2.02359 3.06446 2.10636 3.02626 2.17995C2.98807 2.25353 2.93029 2.31506 2.85935 2.35768C2.63405 2.46051 2.38666 2.50506 2.13978 2.48727H1.60694V1.42918C1.69081 1.41964 1.78586 1.41403 1.89321 1.41178C2.00056 1.40954 2.10064 1.40841 2.19345 1.40841C2.41852 1.39583 2.64338 1.43657 2.84984 1.52735C2.92324 1.56703 2.9835 1.62735 3.02322 1.70089C3.06295 1.77444 3.08042 1.85803 3.07349 1.9414M3.56942 2.81043C3.73798 2.72415 3.87943 2.59272 3.97812 2.43072C4.0768 2.26872 4.12886 2.08245 4.12853 1.89258C4.13618 1.66624 4.08184 1.44212 3.97142 1.2446C3.86505 1.0679 3.71478 0.921941 3.53532 0.821017C3.32815 0.706112 3.10231 0.628989 2.8683 0.593236C2.58778 0.546895 2.30385 0.524567 2.01957 0.52648C1.79145 0.52648 1.54488 0.536953 1.27987 0.557898C1.03405 0.576309 0.789376 0.60777 0.546875 0.65215V5.36086C0.816894 5.41953 1.09085 5.45816 1.36653 5.47643C1.62931 5.49289 1.89339 5.50112 2.15878 5.50112C2.73526 5.54018 3.31026 5.40599 3.8104 5.11569C3.99325 4.98791 4.14033 4.81516 4.23755 4.61397C4.33476 4.41278 4.37885 4.18989 4.36559 3.9667C4.36892 3.72952 4.31114 3.49549 4.19786 3.2873C4.05078 3.05902 3.82797 2.8903 3.56886 2.81098" fill="#D2DBF0"/>
<path d="M19.9904 9.18164L18.2852 13.5161H23.8913V26.4321H28.8205V13.5161H33.3543L35.059 9.18164H19.9904Z" fill="#D2DBF0"/>
<path d="M40.9576 18.0798C40.9576 18.3681 40.6461 18.4882 40.3353 18.4882H36.554C36.5761 18.2116 36.6526 17.9421 36.7792 17.6953C36.9057 17.4486 37.0797 17.2294 37.2912 17.0506C37.5026 16.8718 37.7473 16.7368 38.0111 16.6534C38.2749 16.57 38.5525 16.54 38.8279 16.565C40.3375 16.565 40.9581 17.4065 40.9581 18.0798M45.1945 19.9311C45.1945 16.4494 42.7775 13.5186 38.6608 13.5186C37.7968 13.497 36.9375 13.6518 36.135 13.9736C35.3325 14.2955 34.6036 14.7777 33.9925 15.3909C33.3814 16.0041 32.9009 16.7356 32.5803 17.5408C32.2596 18.3461 32.1054 19.2084 32.127 20.0753C32.127 23.7254 35.0232 26.631 39.0437 26.631C43.0134 26.631 44.7634 24.5417 44.7634 24.5417L42.801 21.9722C42.3916 22.3915 41.8986 22.7193 41.3542 22.9343C40.8098 23.1492 40.2264 23.2463 39.642 23.2193C38.9341 23.2434 38.2389 23.0262 37.6697 22.6033C37.1004 22.1803 36.6907 21.5764 36.5071 20.8899H45.1705C45.1705 20.5791 45.1939 20.2425 45.1939 19.9306" fill="#D2DBF0"/>
<path d="M51.9901 13.5154C48.2564 13.5154 46.5338 15.6288 46.5338 17.8353C46.5338 20.6208 49.2857 21.4377 51.1744 21.822C52.3709 22.0621 52.9221 22.1821 52.9221 22.7342C52.9221 23.2621 52.1562 23.4304 51.5339 23.4304C50.0537 23.4605 48.6057 22.9957 47.4177 22.1092L46.0977 25.2981C46.5511 25.5382 48.3274 26.6238 51.8688 26.6238C55.4823 26.6238 57.3967 24.631 57.3967 22.2293C57.3967 20.572 56.2483 19.1318 54.165 18.4592C53.8542 18.3632 52.7773 18.0749 52.4178 18.0031C51.341 17.7871 50.8624 17.5469 50.8624 17.1615C50.8624 16.8496 51.1028 16.5135 52.2982 16.5135C53.3814 16.4911 54.4444 16.8102 55.3375 17.4258L56.5116 14.5993C55.1364 13.8172 53.5692 13.4402 51.9901 13.5115" fill="#D2DBF0"/>
<path d="M59.2901 10.3818V13.8512H58.4341L57.0195 17.6213H59.2895V22.3766C59.2895 24.2499 60.3423 26.6264 63.5734 26.6264C65.1884 26.6722 66.7638 26.1212 68.0004 25.078L66.1107 21.9323C65.7804 22.29 65.3272 22.5087 64.8426 22.5444C64.1487 22.5444 63.8848 22.0641 63.8848 21.2955V17.6213H65.6555L67.069 13.7676L63.886 13.8512V10.3818H59.2901Z" fill="#D2DBF0"/>
</g>
<defs>
<clipPath id="clip0_20548_9851">
<rect width="68" height="34" fill="white"/>
</clipPath>
</defs>
</svg>
