<svg width="133" height="35" viewBox="0 0 133 35" fill="none" xmlns="http://www.w3.org/2000/svg">
<path d="M13.2266 26.1747C12.5559 26.8048 11.6617 27.2112 10.6659 27.2315C7.6174 27.2315 6.9061 24.5895 6.9061 21.0736C6.9061 17.5578 7.55644 14.9157 10.6049 14.9157C11.5804 14.9361 12.4543 15.3425 13.1046 15.9726L14.7711 18.8991H14.8727V14.8345H14.7711L13.1859 15.688C12.4949 15.0783 11.6007 14.6922 10.6252 14.6719C7.67837 14.6719 4.20312 17.009 4.20312 21.0736C4.20312 25.1383 7.6174 27.4754 10.6659 27.4754C11.682 27.4348 12.5966 27.069 13.3079 26.4593L14.954 27.2925H15.0557V23.0653H14.954L13.2266 26.1747Z" fill="white" fill-opacity="0.8"/>
<path d="M23.1462 14.6523C19.6913 14.7743 16.9274 17.5789 16.8867 21.0541C16.9274 24.5294 19.6913 27.334 23.1462 27.4559C26.6215 27.334 29.3854 24.5294 29.4261 21.0541C29.3651 17.5789 26.6012 14.7743 23.1462 14.6523ZM23.1462 27.212C20.2197 27.212 19.5694 24.7529 19.5694 21.0541C19.5694 17.335 20.24 14.8962 23.1462 14.8962C26.0524 14.8962 26.7231 17.3553 26.7231 21.0541C26.7434 24.7326 26.0931 27.212 23.1462 27.212Z" fill="white" fill-opacity="0.8"/>
<path d="M39.4436 15.0802H41.0085V22.9452H40.9678L35.4806 14.8973H30.7656V15.1005H32.3102V27.0302H30.7656V27.2334H34.1189V27.0302H32.5947V15.0802H32.6353L41.1914 27.4569H41.2523V15.0802H42.8172V14.877H39.4436V15.0802Z" fill="white" fill-opacity="0.8"/>
<path d="M49.4879 14.8965H44.1836V15.0997H45.7282V27.0294H44.1836V27.2326H49.4879C52.1299 27.2326 56.6416 26.0539 56.6416 20.9934C56.6416 15.933 52.1299 14.8965 49.4879 14.8965ZM49.427 27.0294H48.1466V15.0794H49.427C52.5567 15.0794 53.9793 17.2743 53.9793 21.0544C53.9793 24.8345 52.5567 27.0294 49.427 27.0294Z" fill="white" fill-opacity="0.8"/>
<path d="M66.4747 27.0294H61.963V20.7089H64.2392C64.9911 21.3186 65.865 23.107 65.865 23.107H65.9667V18.1075H65.865C65.865 18.1075 64.9911 19.8756 64.2392 20.5057H61.963V15.0794H66.0073C67.186 15.872 68.2022 18.2092 68.2022 18.2092H68.3038V14.8965H58V15.0997H59.5446V27.0294H58V27.2326H68.6493V23.0867H68.5477C68.5477 23.0867 67.5315 25.8506 66.4747 27.0294Z" fill="white" fill-opacity="0.8"/>
<path d="M66.2723 12.2735L65.9675 11.4199L66.2317 9.97699L66.1707 9.91602L62.3906 13.1474L62.4313 13.2084L66.2723 12.2735Z" fill="white" fill-opacity="0.8"/>
<path d="M90.7235 14.877H87.3498V15.0802H88.9147V22.9452H88.8741L83.3868 14.8973H78.6719V15.1005H80.2164V27.0302H78.6719V27.2334H82.0252V27.0302H80.4806V15.0802H80.5213L89.0976 27.4569H89.1586V15.0802H90.7235V14.877Z" fill="white" fill-opacity="0.8"/>
<path d="M97.1621 14.4707H97.0808L91.9187 27.0304H90.4961V27.2336H93.7071V27.0304H92.1626L94.0933 22.3154H97.975L100.007 27.0304H98.4627V27.2336H104.072V27.0304H102.649L97.1621 14.4707ZM94.1746 22.1325L95.9833 17.7021L97.8937 22.1325H94.1746Z" fill="white" fill-opacity="0.8"/>
<path d="M111.02 19.9774L108.662 19.1441C107.483 18.7377 106.528 18.1483 106.528 16.9695C106.528 15.6079 107.544 14.8763 109.13 14.8763C109.17 14.8763 109.231 14.8763 109.292 14.8763C110.085 14.8763 110.796 15.2014 111.304 15.7095L112.991 18.5751H113.072V14.6934H112.991L111.385 15.5063C110.816 14.9982 110.064 14.6934 109.231 14.6934C109.191 14.6934 109.17 14.6934 109.13 14.6934C106.874 14.6934 105.37 16.2176 105.349 18.3718C105.349 20.1399 106.549 21.0138 107.89 21.5219L110.288 22.3958C111.548 22.8632 112.422 23.4323 112.422 24.733C112.422 25.9727 111.629 27.1921 109.556 27.2124C108.5 27.1921 107.544 26.7856 106.813 26.1149L104.984 22.9649H104.902L104.984 27.253H105.065L106.711 26.3791C107.483 27.0092 108.459 27.4156 109.536 27.4563C112.158 27.4563 113.865 25.5459 113.865 23.4729C113.865 21.4 112.503 20.4854 111.02 19.9774Z" fill="white" fill-opacity="0.8"/>
<path d="M115.051 14.8965V18.7172H115.132C115.132 18.7172 116.25 16.2581 117.307 15.0794H119.38V27.0294H117.51V27.2326H123.668V27.0294H121.798V15.0794H123.871C124.907 16.2581 126.046 18.7172 126.046 18.7172H126.127V14.8965H115.051Z" fill="white" fill-opacity="0.8"/>
</svg>
