<svg width="78" height="41" viewBox="0 0 78 41" fill="none" xmlns="http://www.w3.org/2000/svg">
<g filter="url(#filter0_d_20548_5771)">
<path d="M22.1001 2.62241C21.0659 2.23384 19.6303 2.06384 17.8296 2.06384H10.4688V2.62241H11.2109C11.9774 2.62241 12.5493 2.82884 12.9386 3.27812C13.2063 3.56955 13.3523 4.37098 13.3523 5.6217V18.566C13.3523 19.6953 13.2306 20.436 13.0237 20.7274C12.6709 21.286 12.0747 21.5531 11.2109 21.5531H10.4688V22.1117H19.0827V21.5531H18.3041C17.5376 21.5531 16.9657 21.3467 16.6129 20.8974C16.3209 20.606 16.1992 19.8046 16.1992 18.5538V12.7131C16.8197 12.8588 17.4403 12.956 18.0121 13.0046C18.5718 13.0653 19.1071 13.0896 19.5816 13.0896C21.5647 13.0896 23.0856 12.5917 24.1562 11.5474C25.2269 10.5153 25.7866 9.20384 25.7866 7.55241C25.7866 6.33812 25.4337 5.30598 24.7159 4.44384C23.9981 3.59384 23.1464 2.97455 22.1001 2.62241ZM21.2727 10.9767C20.5306 11.7781 19.6424 12.1667 18.5961 12.1667C18.3041 12.1667 17.9756 12.1424 17.5619 12.106C17.1483 12.0453 16.6981 11.9846 16.1628 11.8996V3.53312C16.9658 3.35098 17.6227 3.26598 18.1216 3.26598C18.9489 3.26598 19.6911 3.44812 20.3238 3.82455C20.9808 4.1767 21.4796 4.74741 21.8324 5.48812C22.1852 6.22884 22.3677 7.03027 22.3677 7.89241C22.4042 9.16741 22.0149 10.1753 21.2727 10.9767ZM35.7876 7.95312C37.5639 6.11955 38.5737 5.1117 38.8171 4.92955C39.5592 4.21312 40.2162 3.71527 40.7151 3.42384C41.2139 3.13241 41.6641 2.92598 42.0169 2.80455C42.3697 2.68313 42.7591 2.62241 43.2093 2.62241V2.06384H35.8241V2.62241H36.2986C36.7974 2.62241 37.1259 2.70741 37.3327 2.88955C37.5396 3.0717 37.6612 3.27812 37.6612 3.48455C37.6612 3.77598 37.5152 4.14027 37.2476 4.5167C36.6271 5.40312 34.8751 7.21241 31.9307 9.88384C30.7749 10.9524 30.0936 11.5717 29.9111 11.7781V5.64598C29.9111 4.66241 29.9719 3.98241 30.0936 3.69098C30.2152 3.36312 30.4221 3.13241 30.7141 2.97455C31.1642 2.7317 31.6022 2.62241 32.0767 2.62241H32.7581V2.06384H24.1806V2.62241H24.8984C25.3729 2.62241 25.8231 2.74384 26.2611 2.97455C26.5531 3.1567 26.7599 3.36312 26.8573 3.56955C27.0033 3.9217 27.0641 4.6017 27.0641 5.60955V21.5774C27.0884 21.5774 29.9111 20.7153 29.9111 20.7153V12.0938L36.8582 18.9424L40.0337 18.2624L32.7337 11.001L35.7876 7.95312ZM56.4831 1.57812H55.9477C55.8626 2.0517 55.6801 2.44027 55.4124 2.70741C55.2056 2.88955 54.9987 2.97455 54.6946 2.97455C54.5121 2.97455 54.2201 2.85312 53.8064 2.6467C52.3829 1.94241 50.9594 1.57812 49.4994 1.57812C47.6257 1.57812 45.9102 2.0517 44.3286 2.97455C42.7591 3.89741 41.5059 5.1967 40.6177 6.88455C39.7296 8.57241 39.2794 10.406 39.2794 12.3974C39.2794 14.4981 39.7539 16.3438 40.7394 17.9953L43.7324 17.546C43.6716 17.4246 43.6107 17.2788 43.5499 17.1574C42.9537 15.8217 42.6861 14.2553 42.6861 12.446C42.6861 10.2481 42.9781 8.39027 43.6107 6.93312C44.2312 5.4517 45.0707 4.38312 46.1657 3.70312C47.2364 3.02312 48.4531 2.69527 49.7914 2.69527C51.3974 2.69527 52.7601 3.14455 53.8916 4.05527C55.0231 4.9417 55.9112 6.42313 56.5074 8.47527H56.9819L56.4831 1.57812Z" fill="#D2DBF0"/>
<path d="M73.6131 18.2388C62.6266 16.1017 52.5891 16.1381 43.7439 17.316C43.7439 17.316 43.7439 17.2917 43.7196 17.2917L40.7509 17.741L40.7752 17.7652C18.1209 21.5902 4.22656 32.786 4.22656 32.786C18.1817 25.7674 31.4191 21.9667 42.5272 19.951C44.2549 21.5538 46.4206 22.3552 49.0851 22.3552C50.9222 22.3552 52.5282 21.9424 53.8666 21.1167C54.9616 20.4367 55.9471 19.4531 56.8109 18.1538C67.2012 17.4131 73.6131 18.2388 73.6131 18.2388ZM53.6597 20.2181C52.6742 20.7767 51.5184 21.0438 50.1801 21.0438C48.6957 21.0438 47.3574 20.6917 46.1772 19.9752C45.9096 19.8295 45.6784 19.6474 45.4351 19.441C49.2311 18.846 52.7351 18.4331 55.8862 18.2024C55.1197 19.1495 54.3411 19.8052 53.6597 20.2181Z" fill="#D2DBF0"/>
<path d="M33.8039 24.8442C33.7796 24.7228 33.7431 24.662 33.7188 24.6013C33.6944 24.5406 33.6336 24.5406 33.4754 24.5406H33.3538V25.6335C33.3538 25.8156 33.3781 25.8399 33.5971 25.8399V25.9249H32.8793V25.8399C33.0861 25.8399 33.0861 25.8156 33.0861 25.6335V24.5406H32.9644C32.7819 24.5406 32.7576 24.5649 32.7211 24.6013C32.6968 24.6256 32.6603 24.7228 32.6359 24.8078H32.5508C32.5508 24.662 32.5751 24.4799 32.5751 24.3585H32.6359C32.6603 24.4192 32.6968 24.4192 32.7576 24.4192H33.6458C33.7066 24.4192 33.7309 24.4192 33.7674 24.3585H33.8283C33.8283 24.4435 33.8283 24.6499 33.8526 24.8078L33.8039 24.8442ZM35.0814 25.9735V25.8885C35.2274 25.8642 35.2274 25.8642 35.2031 25.7428C35.1788 25.682 35.1423 25.5606 35.1179 25.4513H34.6678C34.6434 25.512 34.6069 25.597 34.5826 25.6942C34.5583 25.8156 34.5583 25.8399 34.7286 25.8763V25.9613H34.2298V25.8763C34.3758 25.852 34.4123 25.852 34.4974 25.6335L34.9719 24.4435L35.0936 24.4192C35.2396 24.8078 35.3856 25.2449 35.5438 25.6335C35.6046 25.8399 35.6289 25.8399 35.8114 25.8763V25.9613H35.0936V25.9735H35.0814ZM34.8624 24.7835C34.8016 24.9656 34.7164 25.1356 34.6556 25.3178H35.0449L34.8624 24.7835ZM36.9429 25.9735V25.8885C37.0889 25.8642 37.0889 25.8278 37.0281 25.767C37.0038 25.7063 36.9064 25.5849 36.7604 25.3178C36.6753 25.4635 36.5536 25.6456 36.4928 25.7306C36.4319 25.8156 36.4684 25.852 36.6144 25.852V25.937H36.0548V25.852C36.1764 25.852 36.2616 25.7913 36.3224 25.7306C36.3833 25.6456 36.5293 25.4392 36.6753 25.1963C36.5536 25.0142 36.4684 24.8442 36.3833 24.6985C36.2981 24.577 36.2616 24.5528 36.0913 24.5163V24.4313H36.7483V24.5163C36.6266 24.5406 36.6266 24.5406 36.6631 24.6013C36.7239 24.6863 36.7848 24.8442 36.9064 24.9899C36.9673 24.8685 37.0524 24.747 37.1133 24.662C37.1376 24.577 37.1376 24.5406 37.0281 24.5406V24.4556H37.5634V24.5406C37.4174 24.5649 37.3566 24.5649 37.2714 24.6863C37.2106 24.7713 37.1254 24.8928 37.0038 25.0749C37.1254 25.2813 37.2471 25.4635 37.3566 25.6699C37.4418 25.8156 37.5026 25.852 37.6486 25.8763V25.9613H36.9429V25.9735ZM39.0599 26.532V24.1885H39.2424V26.532H39.0599ZM41.6393 25.9735V25.8885C41.7853 25.8642 41.7853 25.8642 41.7609 25.7428C41.7366 25.682 41.7001 25.5606 41.6758 25.4513H41.2256C41.2013 25.512 41.1648 25.597 41.1404 25.6942C41.1161 25.8156 41.1161 25.8399 41.2864 25.8763V25.9613H40.7876V25.8763C40.9336 25.852 40.9701 25.852 41.0553 25.6335L41.5298 24.4435L41.6514 24.4192C41.7974 24.8078 41.9434 25.2449 42.1016 25.6335C42.1624 25.8399 42.1868 25.8399 42.3693 25.8763V25.9613H41.6514V25.9735H41.6393ZM41.4324 24.7835C41.3716 24.9656 41.2864 25.1356 41.2256 25.3178H41.6149L41.4324 24.7835ZM44.1578 24.5163C44.0361 24.5163 43.9753 24.5406 43.9509 24.6378C43.9509 24.6985 43.9266 24.7835 43.9266 24.9899V25.1963C43.9266 25.4635 43.9023 25.6456 43.7441 25.7913C43.6589 25.9128 43.4764 25.9735 43.3304 25.9735C43.1844 25.9735 43.0384 25.9492 42.9411 25.852C42.8194 25.767 42.7343 25.5849 42.7343 25.3178V24.7592C42.7343 24.5528 42.7099 24.5528 42.5274 24.5163V24.4313H43.1844V24.5163C43.0019 24.5163 42.9776 24.5406 42.9776 24.7592V25.2935C42.9776 25.6456 43.1236 25.852 43.3669 25.852C43.6589 25.852 43.7563 25.6092 43.7563 25.2328V25.0263C43.7563 24.8442 43.7563 24.7592 43.7319 24.6742C43.7319 24.5892 43.6711 24.5528 43.4886 24.5528V24.4678H44.0483V24.5285H44.1578V24.5163ZM45.2893 24.4556C45.5813 24.4556 45.7881 24.5163 45.9463 24.662C46.0679 24.7835 46.1531 24.9292 46.1531 25.1599C46.1531 25.4513 46.0314 25.6335 45.8611 25.7792C45.6786 25.9249 45.4718 25.9856 45.1798 25.9856H44.6201V25.9006C44.8026 25.9006 44.8269 25.8763 44.8269 25.6942V24.8078C44.8269 24.6013 44.8026 24.6013 44.6444 24.6013V24.5163H45.3014V24.4556H45.2893ZM45.1068 25.6456C45.1068 25.8278 45.1676 25.852 45.3136 25.852C45.6664 25.852 45.8733 25.5849 45.8733 25.172C45.8733 24.9292 45.8124 24.7592 45.6664 24.6742C45.5813 24.5892 45.4596 24.5528 45.3136 24.5528C45.2284 24.5528 45.1676 24.5528 45.1676 24.577C45.1433 24.6013 45.1433 24.6378 45.1433 24.6985V25.6456H45.1068ZM46.6884 25.9735V25.8885C46.8709 25.8885 46.8953 25.8642 46.8953 25.682V24.7956C46.8953 24.5892 46.8709 24.5892 46.6884 24.5892V24.5042H47.3454V24.5892C47.1629 24.5892 47.1386 24.6135 47.1386 24.7956V25.682C47.1386 25.8885 47.1629 25.8885 47.3454 25.8885V25.9735H46.6884ZM49.0853 24.8442C49.0609 24.7228 49.0244 24.662 49.0001 24.6013C48.9758 24.5406 48.9149 24.5406 48.7568 24.5406H48.6351V25.6335C48.6351 25.8156 48.6594 25.8399 48.8784 25.8399V25.9249H48.1606V25.8399C48.3674 25.8399 48.3674 25.8156 48.3674 25.6335V24.5406H48.2458C48.0633 24.5406 48.0389 24.5649 48.0024 24.6013C47.9781 24.6256 47.9416 24.7228 47.9173 24.8078H47.8321C47.8321 24.662 47.8564 24.4799 47.8564 24.3585H47.9173C47.9416 24.4192 47.9781 24.4192 48.0389 24.4192H48.9271C48.9879 24.4192 49.0123 24.4192 49.0488 24.3585H49.1096C49.1096 24.4435 49.1096 24.6499 49.1339 24.8078L49.0853 24.8442ZM50.6669 26.532V24.1885H50.8494V26.532H50.6669ZM53.7816 25.5606C53.7573 25.682 53.6964 25.8278 53.6599 25.9128C53.5991 25.9128 53.3923 25.9735 53.2463 25.9735C52.6501 25.9735 52.4189 25.5849 52.4189 25.2085C52.4189 24.7349 52.7718 24.407 53.3071 24.407C53.4896 24.407 53.6356 24.4313 53.7208 24.4678C53.7451 24.5892 53.7451 24.7106 53.7816 24.8199L53.6964 24.8442C53.6356 24.577 53.4896 24.492 53.2828 24.492C52.9543 24.492 52.7474 24.7835 52.7474 25.1478C52.7474 25.5606 52.9908 25.8642 53.2828 25.8642C53.4896 25.8642 53.6113 25.7428 53.7329 25.512L53.7816 25.5606ZM55.0591 24.4313C55.4484 24.4313 55.8013 24.7228 55.8013 25.1963C55.8013 25.6942 55.4484 25.9978 55.0348 25.9978C54.5846 25.9978 54.2926 25.6699 54.2926 25.2328C54.2804 24.8199 54.5846 24.4313 55.0591 24.4313ZM55.0226 24.5163C54.7793 24.5163 54.6089 24.7592 54.6089 25.172C54.6089 25.5849 54.7914 25.9128 55.0834 25.9128C55.3268 25.9128 55.4971 25.7063 55.4971 25.257C55.4971 24.7835 55.2903 24.5163 55.0226 24.5163ZM57.9061 24.5163C57.7844 24.5163 57.7236 24.5406 57.7236 24.6378C57.7236 24.6985 57.6993 24.8199 57.6993 25.0263V25.9492H57.5776L56.6529 24.7956V25.3299C56.6529 25.5363 56.6529 25.6213 56.6773 25.7185C56.6773 25.8035 56.7381 25.8642 56.8841 25.8642V25.9492H56.3244V25.8642C56.4461 25.8642 56.5069 25.8399 56.5313 25.7185C56.5313 25.6578 56.5556 25.5363 56.5556 25.3299V24.832C56.5556 24.6863 56.5556 24.6499 56.5313 24.5892C56.5069 24.5285 56.4461 24.5285 56.3244 24.5042V24.4192H56.7138L57.6019 25.4878V25.0142C57.6019 24.8078 57.6019 24.6863 57.5776 24.6256C57.5776 24.5406 57.5168 24.5042 57.3343 24.4799V24.3949H57.8939V24.5163H57.9061ZM59.2079 24.8199C59.1471 24.6742 59.0863 24.5285 58.9159 24.5285C58.7699 24.5285 58.6726 24.6499 58.6726 24.7713C58.6726 24.917 58.7578 24.9778 58.9646 25.0992C59.1714 25.2206 59.3783 25.342 59.3783 25.5728C59.3783 25.8399 59.1714 26.022 58.8429 26.022C58.7578 26.022 58.6604 25.9978 58.5996 25.9978C58.5388 25.9735 58.5144 25.9735 58.4779 25.937C58.4536 25.8763 58.4171 25.6942 58.4171 25.5485L58.5023 25.5242C58.5266 25.6699 58.6483 25.9128 58.8916 25.9128C59.0376 25.9128 59.1349 25.8278 59.1349 25.6456C59.1349 25.4999 59.0133 25.4028 58.8429 25.3178C58.6361 25.2328 58.4536 25.0749 58.4536 24.8442C58.4536 24.6135 58.6361 24.3949 58.9524 24.3949C59.0741 24.3949 59.1958 24.4192 59.2444 24.4556C59.2444 24.5406 59.2688 24.6378 59.3053 24.7835L59.2079 24.8199ZM61.4101 24.5163C61.2884 24.5163 61.2276 24.5406 61.2033 24.6378C61.2033 24.6985 61.1789 24.7835 61.1789 24.9899V25.1963C61.1789 25.4635 61.1546 25.6456 60.9964 25.7913C60.9113 25.9128 60.7288 25.9735 60.5828 25.9735C60.4368 25.9735 60.2908 25.9492 60.1934 25.852C60.0718 25.767 59.9866 25.5849 59.9866 25.3178V24.7592C59.9866 24.5528 59.9623 24.5528 59.7798 24.5163V24.4313H60.4368V24.5163C60.2543 24.5163 60.2299 24.5406 60.2299 24.7592V25.2935C60.2299 25.6456 60.3759 25.852 60.6193 25.852C60.9113 25.852 61.0086 25.6092 61.0086 25.2328V25.0263C61.0086 24.8442 61.0086 24.7592 60.9843 24.6742C60.9843 24.5892 60.9234 24.5528 60.7409 24.5528V24.4678H61.3006V24.5285H61.4101V24.5163ZM63.0404 25.5849C63.0161 25.6699 62.9796 25.9128 62.9553 25.9735H61.8603V25.8885C62.0428 25.8885 62.0671 25.8642 62.0671 25.682V24.7956C62.0671 24.5892 62.0428 24.5892 61.8603 24.5892V24.5042H62.5173V24.5892C62.3348 24.5892 62.3104 24.6135 62.3104 24.7956V25.682C62.3104 25.8035 62.3104 25.8278 62.3713 25.8642C62.3956 25.8885 62.4929 25.8885 62.5538 25.8885C62.6389 25.8885 62.7363 25.8885 62.7971 25.8278C62.8214 25.767 62.8823 25.7063 62.9188 25.5849H63.0404ZM64.5613 24.8442C64.5369 24.7228 64.5004 24.662 64.4761 24.6013C64.4518 24.5406 64.3909 24.5406 64.2328 24.5406H64.1111V25.6335C64.1111 25.8156 64.1354 25.8399 64.3544 25.8399V25.9249H63.6366V25.8399C63.8434 25.8399 63.8434 25.8156 63.8434 25.6335V24.5406H63.7218C63.5393 24.5406 63.5149 24.5649 63.4784 24.6013C63.4541 24.6256 63.4176 24.7228 63.3933 24.8078H63.3081C63.3081 24.662 63.3324 24.4799 63.3324 24.3585H63.3933C63.4176 24.4192 63.4541 24.4192 63.5149 24.4192H64.4031C64.4639 24.4192 64.4883 24.4192 64.5248 24.3585H64.5856C64.5856 24.4435 64.5856 24.6499 64.6099 24.8078L64.5613 24.8442ZM65.1453 25.9735V25.8885C65.3278 25.8885 65.3521 25.8642 65.3521 25.682V24.7956C65.3521 24.5892 65.3278 24.5892 65.1453 24.5892V24.5042H65.8023V24.5892C65.6198 24.5892 65.5954 24.6135 65.5954 24.7956V25.682C65.5954 25.8885 65.6198 25.8885 65.8023 25.8885V25.9735H65.1453ZM67.9071 24.5163C67.7854 24.5163 67.7246 24.5406 67.7246 24.6378C67.7246 24.6985 67.7003 24.8199 67.7003 25.0263V25.9492H67.5786L66.6539 24.7956V25.3299C66.6539 25.5363 66.6539 25.6213 66.6783 25.7185C66.6783 25.8035 66.7391 25.8642 66.8851 25.8642V25.9492H66.3254V25.8642C66.4471 25.8642 66.5079 25.8399 66.5323 25.7185C66.5323 25.6578 66.5566 25.5363 66.5566 25.3299V24.832C66.5566 24.6863 66.5566 24.6499 66.5323 24.5892C66.5079 24.5285 66.4471 24.5285 66.3254 24.5042V24.4192H66.7148L67.6029 25.4878V25.0142C67.6029 24.8078 67.6029 24.6863 67.5786 24.6256C67.5786 24.5406 67.5178 24.5042 67.3353 24.4799V24.3949H67.8949V24.5163H67.9071ZM69.9024 25.3178C69.7808 25.342 69.7565 25.342 69.7565 25.4999V25.8885C69.6105 25.9128 69.4279 25.9735 69.2576 25.9735C68.7588 25.9735 68.4303 25.6456 68.4303 25.2085C68.4303 24.6742 68.8439 24.407 69.3184 24.407C69.5009 24.407 69.6713 24.4313 69.7686 24.4678C69.7686 24.5528 69.7929 24.6742 69.7929 24.8563L69.7078 24.8806C69.6469 24.6135 69.4644 24.5285 69.2941 24.5285C69.0021 24.5285 68.7588 24.7713 68.7588 25.2085C68.7588 25.5606 68.9413 25.9249 69.3184 25.9249C69.3793 25.9249 69.4401 25.9249 69.4644 25.9006C69.4888 25.8763 69.5253 25.8399 69.5253 25.7549V25.5485C69.5253 25.4028 69.5253 25.3663 69.2819 25.342V25.257H69.9389V25.342H69.9024V25.3178Z" fill="#D2DBF0"/>
</g>
<defs>
<filter id="filter0_d_20548_5771" x="-2" y="0" width="81" height="42" filterUnits="userSpaceOnUse" color-interpolation-filters="sRGB">
<feFlood flood-opacity="0" result="BackgroundImageFix"/>
<feColorMatrix in="SourceAlpha" type="matrix" values="0 0 0 0 0 0 0 0 0 0 0 0 0 0 0 0 0 0 127 0" result="hardAlpha"/>
<feOffset dy="4"/>
<feGaussianBlur stdDeviation="2"/>
<feComposite in2="hardAlpha" operator="out"/>
<feColorMatrix type="matrix" values="0 0 0 0 0 0 0 0 0 0 0 0 0 0 0 0 0 0 0.25 0"/>
<feBlend mode="normal" in2="BackgroundImageFix" result="effect1_dropShadow_20548_5771"/>
<feBlend mode="normal" in="SourceGraphic" in2="effect1_dropShadow_20548_5771" result="shape"/>
</filter>
</defs>
</svg>
