<svg width="175" height="34" viewBox="0 0 175 34" fill="none" xmlns="http://www.w3.org/2000/svg">
<g clip-path="url(#clip0_20548_9878)">
<path d="M26.4251 1.56543L24.0692 5.53027L23.4486 6.57037L15.5164 19.5272L8.03856 32.4351H4.93129L11.3453 21.0274L0 1.56543H5.46985L14.1356 16.4313H14.6277L23.3954 1.56543H26.4251Z" fill="#D2DBF0"/>
<path d="M29.6914 17.2224C29.6914 8.2837 36.7348 0.825195 45.6488 0.825195C54.6625 0.825195 61.5087 7.34361 61.5087 16.7779C61.5087 25.7165 54.4165 33.175 45.5002 33.175C36.4887 33.175 29.6914 26.6055 29.6914 17.2224ZM56.4356 17.3201C56.4356 8.48151 51.3624 2.99874 45.4516 2.99874C39.5916 2.99874 34.7158 7.98591 34.7158 16.6289C34.7158 25.5187 39.7889 31.0015 45.6488 31.0015C51.5088 31.0015 56.4356 26.0099 56.4356 17.3201Z" fill="#D2DBF0"/>
<path d="M91.3802 1.5625H93.9911V21.6645C93.9911 28.8763 89.6072 33.1722 82.4153 33.1722C75.2743 33.1722 70.9414 29.3208 70.9414 21.22V1.5625H75.7176V20.231C75.7176 27.5894 79.1174 29.8119 83.796 29.8119C88.5234 29.8119 91.3802 26.7494 91.3802 21.12V1.5625Z" fill="#D2DBF0"/>
<path d="M122.735 32.4342L114.801 19.1485L110.517 18.9996V32.4342H105.738V1.61343L115.342 1.41785C123.125 1.26895 126.424 4.62705 126.424 9.17194C126.424 13.319 123.764 16.5305 119.28 17.9617L128.196 32.4342H122.735ZM110.517 3.73808V16.5794C111.543 16.7415 112.58 16.824 113.619 16.826C118.101 16.826 121.401 14.5058 121.401 10.2076C121.401 5.9094 118.839 3.73808 114.012 3.73808H110.517Z" fill="#D2DBF0"/>
<path d="M137.408 27.7411C139.97 29.717 142.53 31.0015 145.782 31.0015C150.757 31.0015 152.824 27.9879 152.824 25.2721C152.824 22.4562 151.249 20.5316 144.746 18.3091C138.64 16.2311 136.227 13.5642 136.227 9.27047C136.227 5.17007 139.28 0.825195 146.667 0.825195C150.263 0.825195 153.908 1.71418 155.633 2.55425L154.598 5.86347C152.135 3.93662 149.574 2.99874 146.324 2.99874C142.482 2.99874 140.217 5.41898 140.217 7.9859C140.217 11.0485 142.284 12.6775 147.801 14.6532C154.696 17.1246 157.011 19.8404 157.011 24.1364C157.011 28.779 153.614 33.175 145.486 33.175C142.087 33.175 138.295 32.186 136.375 31.1503L137.408 27.7411Z" fill="#D2DBF0"/>
<path d="M163.007 8.38835V1.86994H162.429C161.832 1.8558 161.236 1.92006 160.656 2.06106V1.41211H166.265V2.06106C165.685 1.91998 165.089 1.85572 164.492 1.86994H163.913V8.38835H163.007Z" fill="#D2DBF0"/>
<path d="M174.076 8.38835L173.854 2.23886H173.744L171.528 8.13054H171.027L168.81 2.23886H168.699L168.478 8.38835H167.941L168.198 1.41211H169.444L171.426 6.74596H171.515L173.495 1.41211H174.743L174.998 8.38835H174.076Z" fill="#D2DBF0"/>
</g>
<defs>
<clipPath id="clip0_20548_9878">
<rect width="175" height="34" fill="white"/>
</clipPath>
</defs>
</svg>
