<svg width="113" height="34" viewBox="0 0 113 34" fill="none" xmlns="http://www.w3.org/2000/svg">
<g clip-path="url(#clip0_20084_3317)">
<path d="M69.5129 26.4267C63.0079 31.2214 53.5792 33.7796 45.4613 33.7796C34.0787 33.7796 23.8314 29.5696 16.079 22.5675C15.4699 22.0169 16.0156 21.2665 16.7465 21.6953C25.1129 26.5631 35.4577 29.4916 46.1435 29.4916C53.3502 29.4916 61.278 28.0006 68.5676 24.9064C69.6688 24.4386 70.5898 25.6276 69.5129 26.4267Z" fill="white" fill-opacity="0.8"/>
<path d="M72.2142 23.3326C71.3858 22.2704 66.7178 22.8307 64.6226 23.0792C63.9842 23.1572 63.8868 22.6017 64.4618 22.2021C68.1796 19.5855 74.2802 20.3408 74.9916 21.2179C75.703 22.0998 74.8065 28.215 71.3128 31.1338C70.7768 31.5821 70.2651 31.3433 70.5039 30.7488C71.2884 28.79 73.0474 24.3997 72.2142 23.3326Z" fill="white" fill-opacity="0.8"/>
<path d="M64.7692 3.72971V1.18616C64.7692 0.801221 65.0615 0.542969 65.4124 0.542969H76.7998C77.1653 0.542969 77.4577 0.806094 77.4577 1.18616V3.36426C77.4528 3.72971 77.1458 4.20723 76.6001 4.9625L70.6992 13.3874C72.8919 13.3338 75.2065 13.6602 77.1945 14.781C77.6428 15.0343 77.7646 15.4047 77.7987 15.7701V18.4842C77.7987 18.8545 77.3894 19.2882 76.9606 19.0641C73.4572 17.2271 68.8037 17.0273 64.93 19.0836C64.5353 19.298 64.1211 18.8692 64.1211 18.4988V15.9212C64.1211 15.507 64.126 14.8005 64.5401 14.1719L71.3765 4.36803H65.427C65.0615 4.36803 64.7692 4.10978 64.7692 3.72971Z" fill="white" fill-opacity="0.8"/>
<path d="M23.2278 19.6004H19.7634C19.432 19.576 19.1689 19.3275 19.1445 19.0108V1.23032C19.1445 0.874613 19.4418 0.591995 19.8121 0.591995H23.0427C23.3789 0.606603 23.6469 0.864865 23.6713 1.18646V3.51074H23.7346C24.5776 1.26442 26.1612 0.216797 28.2954 0.216797C30.4638 0.216797 31.8184 1.26442 32.7929 3.51074C33.631 1.26442 35.5363 0.216797 37.5779 0.216797C39.03 0.216797 40.6185 0.816137 41.5881 2.161C42.6845 3.65692 42.4604 5.83014 42.4604 7.73536L42.4555 18.9572C42.4555 19.3129 42.1583 19.6004 41.7879 19.6004H38.3283C37.9824 19.576 37.7046 19.2983 37.7046 18.9572V9.53338C37.7046 8.78299 37.7728 6.91187 37.6072 6.20046C37.3489 5.00665 36.5742 4.67043 35.5704 4.67043C34.7323 4.67043 33.8552 5.23079 33.4995 6.12737C33.1438 7.02395 33.1779 8.52473 33.1779 9.53338V18.9572C33.1779 19.3129 32.8806 19.6004 32.5103 19.6004H29.0507C28.6999 19.576 28.427 19.2983 28.427 18.9572L28.4221 9.53338C28.4221 7.5502 28.7486 4.63145 26.2879 4.63145C23.7979 4.63145 23.8954 7.4771 23.8954 9.53338V18.9572C23.8954 19.3129 23.5982 19.6004 23.2278 19.6004Z" fill="white" fill-opacity="0.8"/>
<path d="M87.2612 0.216797C92.4018 0.216797 95.1841 4.63145 95.1841 10.2448C95.1841 15.6681 92.1095 19.9707 87.2612 19.9707C82.213 19.9707 79.4648 15.556 79.4648 10.0548C79.4648 4.51938 82.2472 0.216797 87.2612 0.216797ZM87.2904 3.84695C84.7371 3.84695 84.5763 7.32605 84.5763 9.4944C84.5763 11.6676 84.5422 16.3064 87.2612 16.3064C89.946 16.3064 90.0727 12.5642 90.0727 10.2838C90.0727 8.78299 90.0094 6.98984 89.5562 5.56701C89.1664 4.32935 88.3916 3.84695 87.2904 3.84695Z" fill="white" fill-opacity="0.8"/>
<path d="M101.852 19.6004H98.402C98.056 19.576 97.7783 19.2983 97.7783 18.9572L97.7734 1.17184C97.8027 0.845373 98.0902 0.591995 98.441 0.591995H101.652C101.954 0.606603 102.203 0.811266 102.271 1.08901V3.80797H102.334C103.304 1.3765 104.663 0.216797 107.056 0.216797C108.61 0.216797 110.126 0.777157 111.1 2.31205C112.007 3.73488 112.007 6.12737 112.007 7.84743V19.04C111.968 19.3519 111.68 19.6004 111.339 19.6004H107.865C107.548 19.576 107.285 19.3421 107.251 19.04V9.38233C107.251 7.43813 107.475 4.59247 105.082 4.59247C104.239 4.59247 103.465 5.15771 103.08 6.0153C102.593 7.10191 102.529 8.18365 102.529 9.38233V18.9572C102.524 19.3129 102.222 19.6004 101.852 19.6004Z" fill="white" fill-opacity="0.8"/>
<path d="M55.6927 11.1059V10.3555C53.1881 10.3555 50.5422 10.8915 50.5422 13.8444C50.5422 15.3403 51.317 16.3538 52.6472 16.3538C53.6218 16.3538 54.494 15.7545 55.0446 14.7799C55.7268 13.5813 55.6927 12.4557 55.6927 11.1059ZM59.1864 19.5503C58.9574 19.755 58.626 19.7696 58.3678 19.6331C57.2178 18.6781 57.0132 18.2347 56.3797 17.3235C54.4794 19.2628 53.1345 19.8427 50.6689 19.8427C47.755 19.8427 45.4844 18.0446 45.4844 14.4437C45.4844 11.6322 47.0095 9.71721 49.1779 8.78166C51.0587 7.9533 53.6851 7.80712 55.6927 7.5781V7.12981C55.6927 6.30633 55.756 5.33179 55.2736 4.62038C54.8497 3.98206 54.0408 3.71893 53.3294 3.71893C52.0089 3.71893 50.8297 4.39623 50.5422 5.79957C50.4838 6.11142 50.2547 6.4184 49.9429 6.43302L46.5807 6.07244C46.2981 6.0091 45.9863 5.78008 46.0642 5.34641C46.839 1.27284 50.5179 0.0449219 53.8118 0.0449219C55.4978 0.0449219 57.7002 0.493209 59.0305 1.76985C60.7164 3.34373 60.5556 5.44386 60.5556 7.72915V13.1281C60.5556 14.7507 61.228 15.4621 61.8615 16.3392C62.0856 16.651 62.1344 17.0262 61.8517 17.2601C61.1452 17.8497 59.888 18.9461 59.1961 19.56L59.1864 19.5503Z" fill="white" fill-opacity="0.8"/>
<path d="M10.2708 11.1059V10.3555C7.76622 10.3555 5.12035 10.8915 5.12035 13.8444C5.12035 15.3403 5.89511 16.3538 7.22535 16.3538C8.19989 16.3538 9.0721 15.7545 9.62272 14.7799C10.3049 13.5813 10.2708 12.4557 10.2708 11.1059ZM13.7645 19.5503C13.5355 19.755 13.2041 19.7696 12.9459 19.6331C11.7959 18.6781 11.5913 18.2347 10.9578 17.3235C9.05748 19.2628 7.71263 19.8427 5.24704 19.8427C2.33317 19.8427 0.0625 18.0446 0.0625 14.4437C0.0625 11.6322 1.58765 9.71721 3.756 8.78166C5.63686 7.9533 8.26324 7.80712 10.2708 7.5781V7.12981C10.2708 6.30633 10.3341 5.33179 9.85174 4.62038C9.42781 3.98206 8.61894 3.71893 7.90753 3.71893C6.58703 3.71893 5.40784 4.39623 5.12035 5.79957C5.06188 6.11142 4.83286 6.4184 4.52101 6.43302L1.15886 6.07244C0.876239 6.0091 0.564386 5.78008 0.642349 5.34641C1.41711 1.27284 5.09599 0.0449219 8.38993 0.0449219C10.0759 0.0449219 12.2783 0.493209 13.6086 1.76985C15.2945 3.34373 15.1337 5.44386 15.1337 7.72915V13.1281C15.1337 14.7507 15.8062 15.4621 16.4396 16.3392C16.6638 16.651 16.7125 17.0262 16.4299 17.2601C15.7233 17.8497 14.4662 18.9461 13.7742 19.56L13.7645 19.5503Z" fill="white" fill-opacity="0.8"/>
</g>
<defs>
<clipPath id="clip0_20084_3317">
<rect width="112.074" height="33.8267" fill="white"/>
</clipPath>
</defs>
</svg>
