<svg width="162" height="35" viewBox="0 0 162 35" fill="none" xmlns="http://www.w3.org/2000/svg">
<path d="M59.9462 6.64754L57.4492 9.14453L64.0322 15.7275L66.5292 13.2305L59.9462 6.64754Z" fill="white" fill-opacity="0.8"/>
<path d="M53.2383 13.3574L68.7464 28.8903H73.7347L55.7324 10.8633L53.2383 13.3574Z" fill="white" fill-opacity="0.8"/>
<path d="M52.7227 21.2852L60.3286 28.8911H65.3169L55.2168 18.791L52.7227 21.2852Z" fill="white" fill-opacity="0.8"/>
<path d="M5.41016 13.5312H9.63292C10.6948 13.5312 11.485 13.8029 12.0036 14.3462C12.4234 14.766 12.621 15.2846 12.621 15.9019V15.9266C12.621 16.1983 12.5963 16.4205 12.5222 16.6181C12.4481 16.8156 12.374 16.9885 12.2752 17.1613C12.1765 17.3342 12.053 17.4577 11.9048 17.5812C11.7567 17.7046 11.6085 17.8034 11.4356 17.9022C11.9542 18.0997 12.374 18.3714 12.6703 18.7171C12.9667 19.0628 13.1148 19.532 13.1148 20.1494V20.1741C13.1148 20.5939 13.0408 20.9643 12.8679 21.2606C12.695 21.5817 12.4728 21.8286 12.1765 22.0509C11.8801 22.2484 11.5097 22.4213 11.0899 22.5201C10.6701 22.6188 10.2009 22.6682 9.68231 22.6682H5.41016V13.5312ZM9.21311 17.2107C9.65762 17.2107 10.0033 17.1367 10.275 16.9885C10.5466 16.8403 10.6701 16.5934 10.6701 16.2476V16.223C10.6701 15.9266 10.5466 15.6797 10.3244 15.5315C10.1021 15.3586 9.78109 15.2846 9.33659 15.2846H7.36102V17.2107H9.21311ZM9.75639 20.8902C10.2009 20.8902 10.5466 20.8161 10.7936 20.6433C11.0405 20.4704 11.164 20.2235 11.164 19.9024V19.8777C11.164 19.5814 11.0405 19.3345 10.8183 19.1616C10.5713 18.9887 10.2009 18.89 9.68231 18.89H7.36102V20.8902H9.75639Z" fill="white" fill-opacity="0.8"/>
<path d="M18.4472 22.791C17.2125 22.791 16.2494 22.4453 15.558 21.7785C14.8418 21.1118 14.4961 20.0993 14.4961 18.7411V13.5306H16.4964V18.6917C16.4964 19.4325 16.6692 20.0005 17.0149 20.3709C17.3607 20.7414 17.8545 20.9389 18.4719 20.9389C19.0893 20.9389 19.5832 20.7661 19.9289 20.3956C20.2746 20.0252 20.4475 19.4819 20.4475 18.7411V13.5059H22.4477V18.6423C22.4477 19.3338 22.349 19.9511 22.1761 20.445C21.9785 20.9636 21.7316 21.3834 21.3859 21.7291C21.0401 22.0749 20.6203 22.3218 20.1264 22.4947C19.6079 22.7169 19.0646 22.791 18.4472 22.791Z" fill="white" fill-opacity="0.8"/>
<path d="M24.125 13.5312H28.2984C29.459 13.5312 30.348 13.8523 30.9654 14.445C31.484 14.9635 31.7556 15.655 31.7556 16.5193V16.544C31.7556 17.2848 31.5827 17.8775 31.2123 18.3467C30.8419 18.8159 30.3727 19.1616 29.8047 19.3592L32.0272 22.6188H29.6813L27.7304 19.7049H27.7057H26.15V22.6188H24.1497V13.5312H24.125ZM28.1749 17.9516C28.6688 17.9516 29.0392 17.8281 29.3109 17.6058C29.5825 17.3589 29.706 17.0626 29.706 16.6675V16.6428C29.706 16.1983 29.5578 15.8772 29.2862 15.655C29.0145 15.4327 28.6194 15.334 28.1255 15.334H26.1253V17.9516H28.1749Z" fill="white" fill-opacity="0.8"/>
<path d="M33.5586 13.5312H35.4107L39.6828 19.1616V13.5312H41.6584V22.6435H39.9545L35.5342 16.865V22.6435H33.5586V13.5312Z" fill="white" fill-opacity="0.8"/>
<path d="M47.0919 22.7914C46.4004 22.7914 45.709 22.668 45.0422 22.421C44.3755 22.1741 43.7581 21.8036 43.2148 21.3098L44.4002 19.8775C44.82 20.2232 45.2398 20.4948 45.6843 20.6924C46.1288 20.8899 46.598 20.9887 47.1166 20.9887C47.5364 20.9887 47.8574 20.9146 48.0797 20.7665C48.3019 20.6183 48.4254 20.3961 48.4254 20.1244V20.0997C48.4254 19.9763 48.4007 19.8528 48.3513 19.754C48.3019 19.6552 48.2031 19.5564 48.0797 19.4824C47.9315 19.3836 47.7586 19.3095 47.5117 19.2107C47.2647 19.1119 46.9684 19.0379 46.5733 18.9391C46.1041 18.8156 45.6843 18.6921 45.3139 18.5687C44.9435 18.4205 44.6224 18.2476 44.3508 18.0501C44.0792 17.8525 43.8816 17.5809 43.7334 17.2846C43.5853 16.9882 43.5112 16.5931 43.5112 16.1486C43.5112 15.7288 43.5853 15.3584 43.7334 15.0127C43.8816 14.6669 44.1038 14.3953 44.3755 14.1483C44.6471 13.9014 44.9929 13.7285 45.388 13.5804C45.7831 13.4569 46.2029 13.3828 46.6721 13.3828C47.3388 13.3828 47.9562 13.4816 48.5242 13.6791C49.0921 13.8767 49.6107 14.173 50.0799 14.5435L49.0428 16.0498C48.6229 15.7782 48.2278 15.5559 47.8327 15.3831C47.4376 15.2102 47.0425 15.1361 46.6474 15.1361C46.2523 15.1361 45.9559 15.2102 45.7584 15.3584C45.5608 15.5065 45.462 15.7041 45.462 15.9264V15.951C45.462 16.0992 45.4867 16.2227 45.5361 16.3462C45.5855 16.4449 45.6843 16.5437 45.8325 16.6425C45.9806 16.7413 46.1782 16.8154 46.4498 16.8894C46.6968 16.9635 47.0425 17.0623 47.4129 17.1611C47.8821 17.2846 48.2772 17.4327 48.6476 17.5809C49.0181 17.729 49.3144 17.9266 49.5613 18.1242C49.8083 18.3464 50.0058 18.5934 50.1293 18.865C50.2528 19.1613 50.3269 19.5071 50.3269 19.9022V19.9269C50.3269 20.3714 50.2528 20.7912 50.0799 21.1369C49.9071 21.4826 49.6848 21.779 49.3885 22.0259C49.0921 22.2728 48.7464 22.4457 48.3266 22.5692C48.055 22.7173 47.6105 22.7914 47.0919 22.7914Z" fill="white" fill-opacity="0.8"/>
<path d="M82.4798 19.7279C82.0353 19.7279 81.5908 19.6538 81.1957 19.481C80.8006 19.3081 80.4549 19.0859 80.1832 18.7895C79.9116 18.4932 79.6893 18.1722 79.5165 17.777C79.3683 17.3819 79.2695 16.9868 79.2695 16.5423V16.5176C79.2695 16.0731 79.3436 15.678 79.5165 15.2829C79.6646 14.8878 79.8869 14.5668 80.1832 14.2704C80.4549 13.9741 80.8006 13.7518 81.1957 13.579C81.5908 13.4061 82.0106 13.332 82.4798 13.332C83.0478 13.332 83.5417 13.4308 83.9121 13.6037C84.2825 13.7765 84.6282 14.0482 84.9246 14.3445L83.8627 15.4805C83.6652 15.2829 83.4676 15.11 83.2453 14.9866C83.0478 14.8631 82.7762 14.8137 82.4551 14.8137C82.2329 14.8137 82.0353 14.8631 81.8625 14.9372C81.6896 15.036 81.5167 15.1347 81.3933 15.3076C81.2698 15.4558 81.1463 15.6286 81.0722 15.8509C80.9981 16.0484 80.9735 16.2707 80.9735 16.4929V16.5176C80.9735 16.7646 80.9981 16.9621 81.0722 17.1844C81.1463 17.3819 81.2451 17.5795 81.3933 17.7277C81.5414 17.8758 81.6896 17.9993 81.8871 18.0981C82.0847 18.1969 82.2823 18.2215 82.5292 18.2215C82.8255 18.2215 83.0725 18.1722 83.2947 18.0487C83.517 17.9252 83.7145 17.777 83.9368 17.5795L84.9493 18.6167C84.6529 18.9377 84.3072 19.2093 83.9368 19.4316C83.5911 19.6291 83.0972 19.7279 82.4798 19.7279Z" fill="white" fill-opacity="0.8"/>
<path d="M86.5781 13.5312H90.1341C90.8503 13.5312 91.4923 13.6547 92.085 13.877C92.6777 14.0992 93.1963 14.4203 93.6161 14.8401C94.0359 15.2599 94.3816 15.7291 94.6038 16.2723C94.8261 16.8156 94.9496 17.433 94.9496 18.075V18.0997C94.9496 18.7418 94.8261 19.3345 94.6038 19.9024C94.3569 20.4704 94.0359 20.9396 93.6161 21.3594C93.1963 21.7792 92.6777 22.1003 92.085 22.3225C91.4923 22.5694 90.8256 22.6682 90.1341 22.6682H86.5781V13.5312ZM90.1341 20.8408C90.554 20.8408 90.9244 20.7668 91.2454 20.6433C91.5911 20.5198 91.8628 20.3222 92.1097 20.0753C92.3567 19.8284 92.5295 19.5567 92.6777 19.211C92.8011 18.89 92.8752 18.5195 92.8752 18.0997V18.075C92.8752 17.6799 92.8011 17.3095 92.6777 16.9638C92.5542 16.6181 92.3567 16.3217 92.1097 16.0995C91.8628 15.8525 91.5911 15.655 91.2454 15.5315C90.8997 15.408 90.5293 15.334 90.1341 15.334H88.5784V20.8408H90.1341Z" fill="white" fill-opacity="0.8"/>
<path d="M101.021 22.8161C100.305 22.8161 99.6629 22.6927 99.0702 22.4457C98.4775 22.1988 97.959 21.853 97.5391 21.4332C97.1193 21.0134 96.7736 20.5195 96.5267 19.9516C96.2797 19.3836 96.1562 18.7662 96.1562 18.1242V18.0995C96.1562 17.4574 96.2797 16.84 96.5267 16.2721C96.7736 15.7041 97.0946 15.2102 97.5391 14.7657C97.959 14.3459 98.4775 14.0002 99.0702 13.7532C99.6629 13.5063 100.305 13.3828 101.021 13.3828C101.737 13.3828 102.379 13.5063 102.972 13.7532C103.565 14.0002 104.083 14.3459 104.503 14.7657C104.923 15.1855 105.269 15.6794 105.515 16.2474C105.762 16.8154 105.886 17.4327 105.886 18.0748V18.0995C105.886 18.7415 105.762 19.3589 105.515 19.9269C105.269 20.4948 104.923 20.9887 104.503 21.4332C104.083 21.853 103.565 22.1988 102.972 22.4457C102.379 22.6927 101.737 22.8161 101.021 22.8161ZM101.046 20.964C101.441 20.964 101.811 20.89 102.157 20.7418C102.503 20.5936 102.774 20.3961 103.021 20.1244C103.268 19.8528 103.441 19.5564 103.589 19.2107C103.713 18.865 103.787 18.4946 103.787 18.0995V18.0748C103.787 17.6797 103.713 17.3092 103.589 16.9635C103.466 16.6178 103.268 16.3215 103.021 16.0498C102.774 15.7782 102.478 15.5806 102.132 15.4325C101.787 15.2843 101.416 15.2102 101.021 15.2102C100.601 15.2102 100.231 15.2843 99.9098 15.4325C99.5641 15.5806 99.2925 15.7782 99.0455 16.0498C98.7986 16.3215 98.6257 16.6178 98.4775 16.9635C98.3541 17.3092 98.28 17.6797 98.28 18.0748V18.0995C98.28 18.4946 98.3541 18.865 98.4775 19.2107C98.601 19.5564 98.7986 19.8528 99.0455 20.1244C99.2925 20.3961 99.5888 20.5936 99.9098 20.7418C100.28 20.89 100.651 20.964 101.046 20.964Z" fill="white" fill-opacity="0.8"/>
<path d="M107.297 13.5312H109.149L113.421 19.1369V13.5312H115.421V22.6435H113.693L109.297 16.865V22.6435H107.297V13.5312Z" fill="white" fill-opacity="0.8"/>
<path d="M117.426 13.5312H119.278L123.55 19.1369V13.5312H125.526V22.6435H123.822L119.401 16.865V22.6435H117.426V13.5312Z" fill="white" fill-opacity="0.8"/>
<path d="M127.352 13.5312H134.217V15.3093H129.327V17.1613H133.624V18.964H129.327V20.8655H134.291V22.6435H127.352V13.5312Z" fill="white" fill-opacity="0.8"/>
<path d="M136.09 13.5312H138.09V20.8408H142.634V22.6435H136.09V13.5312Z" fill="white" fill-opacity="0.8"/>
<path d="M144.145 13.5312H146.145V20.8408H150.713V22.6435H144.145V13.5312Z" fill="white" fill-opacity="0.8"/>
<path d="M84.7993 20.7402H79.6875V22.6417H84.7993V20.7402Z" fill="white" fill-opacity="0.8"/>
<path d="M75.7321 13.5312L73.3368 17.3836L70.9414 13.5312H68.793V16.0501V20.4951L70.7685 22.4707V17.4824V16.7415L72.2255 18.9394L73.3121 20.5939H73.3615L73.559 20.2975L75.9297 16.6922V22.6435H77.9053V13.5312H75.7321Z" fill="white" fill-opacity="0.8"/>
<path d="M151.766 21.7535C151.766 21.2597 152.161 20.8398 152.655 20.8398C153.173 20.8398 153.544 21.2597 153.544 21.7288C153.544 22.2227 153.149 22.6425 152.655 22.6425C152.161 22.6425 151.766 22.2474 151.766 21.7535ZM153.47 21.7535C153.47 21.309 153.124 20.9386 152.679 20.9386C152.235 20.9386 151.889 21.309 151.889 21.7535C151.889 22.198 152.235 22.5438 152.679 22.5438C153.124 22.5438 153.47 22.198 153.47 21.7535ZM152.334 21.2597H152.753C152.951 21.2597 153.099 21.3584 153.099 21.556C153.099 21.7042 153 21.8029 152.877 21.8276L153.124 22.1733H152.902L152.679 21.8523H152.482V22.1733H152.309V21.2597H152.334ZM152.729 21.7288C152.852 21.7288 152.926 21.6548 152.926 21.5807C152.926 21.4819 152.852 21.4325 152.729 21.4325H152.506V21.7288H152.729Z" fill="white" fill-opacity="0.8"/>
</svg>
