<svg width="85" height="34" viewBox="0 0 85 34" fill="none" xmlns="http://www.w3.org/2000/svg">
<g clip-path="url(#clip0_20548_5609)">
<mask id="mask0_20548_5609" style="mask-type:luminance" maskUnits="userSpaceOnUse" x="0" y="0" width="85" height="34">
<path d="M85 0H0V34H85V0Z" fill="white"/>
</mask>
<g mask="url(#mask0_20548_5609)">
<path d="M66.1441 7.61007C65.8679 8.59678 64.469 8.59678 64.1934 7.61007L62.725 2.35778C62.6694 2.15915 62.6757 1.94825 62.7432 1.75333C62.8106 1.55839 62.936 1.3887 63.1026 1.26695L64.571 0.19524C64.7445 0.0683769 64.9538 0 65.1688 0C65.3837 0 65.5931 0.0683769 65.7666 0.19524L67.2336 1.26695C67.575 1.51557 67.7251 1.95048 67.6119 2.35707L66.1441 7.61007ZM72.0006 11.1752C71.0876 11.6412 70.1391 10.612 70.6782 9.74074L73.5463 5.10186C73.6547 4.92664 73.8141 4.7887 74.0031 4.70643C74.192 4.62416 74.4016 4.6015 74.6038 4.64145L76.3874 4.99278C76.5983 5.03442 76.7906 5.14212 76.9363 5.30028C77.0819 5.45845 77.1735 5.65886 77.1977 5.87253L77.4031 7.67878C77.4262 7.88354 77.3863 8.09048 77.2887 8.27197C77.1912 8.45345 77.0405 8.60087 76.857 8.69453L72.0006 11.1752ZM70.5755 24.224C70.035 23.3535 70.9828 22.3229 71.8959 22.7883L76.7557 25.2632C77.1319 25.4544 77.35 25.8596 77.3025 26.2789L77.0993 28.0852C77.0752 28.2988 76.9839 28.4993 76.8383 28.6576C76.6927 28.816 76.5005 28.9238 76.2896 28.9657L74.5068 29.3198C74.3045 29.3598 74.0947 29.3373 73.9056 29.255C73.7166 29.1727 73.5571 29.0347 73.4485 28.8594L70.5755 24.224ZM64.1934 26.349C64.4683 25.3609 65.8679 25.3595 66.1441 26.3462L67.6175 31.597C67.6734 31.7955 67.6673 32.0062 67.6003 32.2012C67.5331 32.396 67.4082 32.5658 67.2421 32.6879L65.7759 33.7624C65.6024 33.8897 65.3929 33.9584 65.1779 33.9587C64.9627 33.9589 64.7532 33.8907 64.5795 33.7639L63.1111 32.6922C62.9446 32.5707 62.8191 32.4014 62.7514 32.2066C62.6837 32.012 62.677 31.8014 62.7321 31.6028L64.1934 26.349ZM73.9266 17.951C72.9392 17.6748 72.9392 16.2752 73.9266 15.9995L79.1782 14.5327C79.3768 14.4771 79.5877 14.4835 79.7826 14.5509C79.9776 14.6184 80.1473 14.7437 80.269 14.9102L81.3415 16.3772C81.4686 16.5507 81.5371 16.7602 81.5371 16.9753C81.5371 17.1904 81.4686 17.3999 81.3415 17.5735L80.269 19.0404C80.1471 19.2068 79.9775 19.3321 79.7826 19.3995C79.5876 19.467 79.3768 19.4734 79.1782 19.418L73.9266 17.951Z" fill="#D2DBF0"/>
<path d="M7.97166 23.3749C7.43109 23.3749 6.94615 23.2397 6.51687 22.9694C6.0876 22.6991 5.73781 22.3414 5.46752 21.8962C5.21313 21.4352 5.08594 20.9264 5.08594 20.3699C5.08594 19.8611 5.21313 19.3921 5.46752 18.9628C5.73781 18.5336 6.07964 18.1759 6.49303 17.8896L11.4775 14.5269C11.541 14.4951 11.5808 14.4554 11.5967 14.4077C11.6125 14.36 11.6205 14.3203 11.6205 14.2885C11.6205 14.2089 11.5887 14.1454 11.5251 14.0977C11.4775 14.034 11.4139 14.0023 11.3344 14.0023H5.68216V11.2119H12.2883C12.8289 11.2119 13.3138 11.3471 13.7431 11.6174C14.1724 11.8877 14.5142 12.2534 14.7686 12.7144C15.0389 13.1596 15.174 13.6604 15.174 14.2169C15.174 14.7257 15.0389 15.1947 14.7686 15.6239C14.5142 16.0533 14.1803 16.411 13.767 16.6972L8.78252 20.0599C8.73483 20.0916 8.69508 20.1314 8.66328 20.1791C8.64737 20.2268 8.63943 20.2665 8.63943 20.2984C8.63943 20.3779 8.66328 20.4494 8.71097 20.513C8.77458 20.5607 8.84611 20.5845 8.92562 20.5845H14.9117V23.3749H7.97166ZM22.6593 23.6611C21.5463 23.6611 20.5764 23.3749 19.7497 22.8025C18.9229 22.2301 18.279 21.4669 17.8179 20.513C17.3727 19.5432 17.1502 18.4779 17.1502 17.3173C17.1502 16.1248 17.4046 15.0436 17.9133 14.0738C18.4379 13.1039 19.1852 12.3408 20.1552 11.7843C21.125 11.2119 22.2856 10.9258 23.6371 10.9258C25.0044 10.9258 26.1571 11.2119 27.0952 11.7843C28.0332 12.3566 28.7487 13.1278 29.2415 14.0977C29.7344 15.0675 29.9808 16.1407 29.9808 17.3173V23.3749H26.7135V21.3477H26.6658C26.4274 21.777 26.1252 22.1665 25.7596 22.5163C25.4099 22.8662 24.9805 23.1443 24.4718 23.3511C23.9629 23.5577 23.3588 23.6611 22.6593 23.6611ZM23.5894 20.8708C24.2253 20.8708 24.7738 20.7117 25.235 20.3937C25.696 20.0758 26.0458 19.6465 26.2843 19.106C26.5387 18.5494 26.6658 17.9373 26.6658 17.2695C26.6658 16.6018 26.5387 16.0056 26.2843 15.4809C26.0458 14.9403 25.696 14.5111 25.235 14.1931C24.7738 13.8751 24.2253 13.7161 23.5894 13.7161C22.9375 13.7161 22.373 13.8751 21.8961 14.1931C21.435 14.5111 21.0773 14.9403 20.8228 15.4809C20.5844 16.0056 20.4652 16.6018 20.4652 17.2695C20.4652 17.9373 20.5844 18.5494 20.8228 19.106C21.0773 19.6465 21.435 20.0758 21.8961 20.3937C22.373 20.7117 22.9375 20.8708 23.5894 20.8708ZM39.37 10.9258C40.4035 10.9258 41.3177 11.0927 42.1127 11.4265C42.9076 11.7445 43.5754 12.2057 44.116 12.8098C44.6566 13.3981 45.0699 14.0977 45.3562 14.9086C45.6423 15.7035 45.7854 16.578 45.7854 17.5319C45.7854 18.7243 45.539 19.7816 45.0461 20.7038C44.5692 21.626 43.8934 22.3494 43.019 22.874C42.1445 23.3987 41.1111 23.6611 39.9186 23.6611C39.4098 23.6611 38.917 23.5895 38.4399 23.4464C37.9789 23.3034 37.5575 23.0966 37.176 22.8263C36.8103 22.5561 36.5002 22.2381 36.2459 21.8724H36.2221V28.6216H32.9547V17.5319C32.9547 16.1805 33.217 15.0118 33.7418 14.0261C34.2664 13.0404 35.0057 12.2772 35.9596 11.7366C36.9295 11.1961 38.0664 10.9258 39.37 10.9258ZM39.37 13.7161C38.7341 13.7161 38.1776 13.8751 37.7006 14.1931C37.2395 14.5111 36.8819 14.9403 36.6274 15.4809C36.389 16.0214 36.2697 16.6257 36.2697 17.2935C36.2697 17.9611 36.389 18.5654 36.6274 19.106C36.8819 19.6465 37.2395 20.0758 37.7006 20.3937C38.1776 20.7117 38.7341 20.8708 39.37 20.8708C40.022 20.8708 40.5784 20.7117 41.0395 20.3937C41.5006 20.0758 41.8503 19.6465 42.0889 19.106C42.3432 18.5654 42.4704 17.9611 42.4704 17.2935C42.4704 16.6257 42.3432 16.0214 42.0889 15.4809C41.8503 14.9403 41.5006 14.5111 41.0395 14.1931C40.5784 13.8751 40.022 13.7161 39.37 13.7161ZM48.0466 23.3749V14.67C48.0466 13.5888 48.3487 12.7462 48.9528 12.142C49.5729 11.522 50.4235 11.2119 51.5047 11.2119H54.8673V14.0023H52.0771C51.8703 14.0023 51.6875 14.0738 51.5285 14.2169C51.3854 14.36 51.3139 14.5429 51.3139 14.7654V23.3749H48.0466ZM62.5097 23.6611C61.2536 23.6611 60.1328 23.3828 59.147 22.8263C58.1612 22.2539 57.3822 21.4909 56.8098 20.5368C56.2374 19.567 55.9512 18.4859 55.9512 17.2935C55.9512 16.101 56.2374 15.0278 56.8098 14.0738C57.3822 13.1039 58.1612 12.3408 59.147 11.7843C60.1328 11.2119 61.2536 10.9258 62.5097 10.9258C63.7657 10.9258 64.8866 11.2119 65.8724 11.7843C66.8581 12.3408 67.6372 13.1039 68.2096 14.0738C68.7819 15.0278 69.0681 16.101 69.0681 17.2935C69.0681 18.4859 68.7819 19.567 68.2096 20.5368C67.6372 21.4909 66.8581 22.2539 65.8724 22.8263C64.8866 23.3828 63.7657 23.6611 62.5097 23.6611ZM62.5097 20.8708C63.1775 20.8708 63.7498 20.7117 64.2268 20.3937C64.7197 20.0758 65.0933 19.6465 65.3477 19.106C65.6179 18.5654 65.7531 17.9611 65.7531 17.2935C65.7531 16.6257 65.6179 16.0214 65.3477 15.4809C65.0933 14.9403 64.7197 14.5111 64.2268 14.1931C63.7498 13.8751 63.1775 13.7161 62.5097 13.7161C61.8419 13.7161 61.2616 13.8751 60.7687 14.1931C60.2917 14.5111 59.918 14.9403 59.6479 15.4809C59.3934 16.0214 59.2662 16.6257 59.2662 17.2935C59.2662 17.9611 59.3934 18.5654 59.6479 19.106C59.918 19.6465 60.2917 20.0758 60.7687 20.3937C61.2616 20.7117 61.8419 20.8708 62.5097 20.8708Z" fill="#D2DBF0"/>
</g>
</g>
<defs>
<clipPath id="clip0_20548_5609">
<rect width="85" height="34" fill="white"/>
</clipPath>
</defs>
</svg>
