<svg width="35" height="34" viewBox="0 0 35 34" fill="none" xmlns="http://www.w3.org/2000/svg">
<path d="M28.697 10.065C28.5835 10.5558 28.3677 11.0237 28.0594 11.4218C27.7639 11.7718 27.4346 12.0861 27.0571 12.2989C26.6564 12.5317 26.2083 12.6452 25.7308 12.6489C25.5654 12.6511 25.394 12.6407 25.2203 12.6259C25.218 12.6066 25.2165 12.5881 25.2143 12.5696C25.197 12.227 25.1391 11.8971 25.0684 11.5783L25.1211 11.3988L25.2218 11.1245C25.2662 11.0377 25.3053 10.948 25.3594 10.868C25.418 10.7901 25.4692 10.7078 25.5414 10.6426C25.612 10.5758 25.6842 10.5128 25.7767 10.4705C25.8211 10.4483 25.8669 10.429 25.9105 10.409C25.9556 10.3905 26.006 10.3786 26.0526 10.3638L26.1857 10.3193C26.2323 10.3074 26.2759 10.2933 26.3173 10.2763C26.3586 10.2607 26.3962 10.24 26.4338 10.2199C26.4737 10.2014 26.5113 10.1792 26.5481 10.1562C26.618 10.1043 26.6925 10.0546 26.7684 10.002C26.8421 9.94561 26.915 9.88482 26.9932 9.82328C27.1429 9.68759 27.303 9.55043 27.4586 9.33096L27.4489 9.29018C27.2098 9.17971 26.9714 9.1419 26.7398 9.15524C26.6226 9.15673 26.509 9.17971 26.397 9.20937C26.3406 9.22346 26.2857 9.24199 26.2301 9.2583L26.0699 9.33171C26.018 9.35914 25.9662 9.38731 25.918 9.41919C25.8699 9.45404 25.8256 9.49482 25.7827 9.53708C25.7406 9.5786 25.7008 9.62383 25.6632 9.67054C25.6293 9.7217 25.5977 9.77508 25.5662 9.82624C25.5038 9.93004 25.4549 10.0405 25.4075 10.1473C25.3541 10.2496 25.3135 10.3556 25.2617 10.4513C25.1511 10.6767 25.0444 10.9013 24.9617 11.1304C24.9617 11.1282 24.9609 11.1252 24.9601 11.123C24.8308 10.5662 24.6714 10.0294 24.6128 9.51336C24.5857 9.25756 24.5827 9.00696 24.6353 8.78453C24.685 8.56803 24.7955 8.34708 24.9421 8.15875C25.2338 7.77617 25.6812 7.51 26.1639 7.40546C26.6481 7.30462 27.1647 7.35875 27.6023 7.5834C28.0421 7.80064 28.3992 8.17729 28.5947 8.62215C28.6932 8.84458 28.7489 9.08332 28.7677 9.32577C28.791 9.55414 28.7526 9.81215 28.697 10.065ZM24.4045 7.75616C24.2068 8.01417 24.0549 8.3063 23.9774 8.63846C23.9015 8.96469 23.9113 9.285 23.9421 9.58602C23.988 9.97601 24.0744 10.3408 24.1624 10.6959C24.1511 10.6863 24.1406 10.6752 24.1293 10.6655C23.7992 10.3934 23.4098 10.194 22.9985 10.0872C22.5865 9.97824 22.1564 9.96341 21.7436 10.0198L21.7887 10.3912C22.1609 10.3756 22.5271 10.4246 22.8617 10.5462C23.1955 10.667 23.4955 10.8605 23.7391 11.1037C24.1316 11.493 24.3752 12.015 24.4316 12.531C24.3662 12.5221 24.3008 12.5132 24.2353 12.5036C23.7218 12.4294 23.2008 12.3508 22.6714 12.3004C22.2789 12.2589 21.8789 12.2359 21.4767 12.2366C21.4594 12.1099 21.4211 11.9838 21.3857 11.857C21.3256 11.6583 21.2391 11.4604 21.1263 11.2728L21.1301 11.2698C21.0714 11.1371 21.0068 10.9777 20.9564 10.8287C20.903 10.6774 20.8617 10.5239 20.8316 10.3727C20.797 10.2222 20.7782 10.0709 20.7805 9.92708C20.7835 9.78917 20.8015 9.63347 20.8338 9.4837C20.897 9.18416 21.0286 8.91576 21.2165 8.68369C21.2857 8.59917 21.3677 8.52428 21.4534 8.45162C21.5526 8.41826 21.6586 8.38786 21.7586 8.36413C21.918 8.32854 22.0797 8.31001 22.2391 8.31668C22.3992 8.32261 22.5549 8.36265 22.703 8.42864C22.8534 8.49166 22.988 8.59546 23.1195 8.70816L23.2955 8.56506C23.1759 8.41158 23.0444 8.2544 22.8662 8.14689C22.6955 8.03271 22.4947 7.95115 22.2872 7.91705C22.2669 7.91334 22.2451 7.91111 22.2241 7.90815C22.5143 7.77321 22.815 7.60787 23.091 7.40175C23.2519 7.27941 23.406 7.1467 23.5684 7.00879C23.6541 6.94132 23.7203 6.86421 23.7955 6.78636C23.8737 6.70999 23.9316 6.62472 23.982 6.53501C24.1835 6.17616 24.2436 5.76244 23.9504 5.32351C23.7053 5.45919 23.5805 5.6097 23.4722 5.75799C23.4173 5.83065 23.3774 5.90627 23.3451 5.98487C23.315 6.06568 23.2774 6.13612 23.2564 6.21694C23.2338 6.29701 23.2188 6.38153 23.197 6.46087C23.1737 6.53946 23.1677 6.63436 23.1323 6.70851C23.0805 6.87236 22.988 7.01917 22.8602 7.13038C22.6098 7.36764 22.2647 7.46255 21.912 7.59823C21.8346 7.62863 21.7556 7.66125 21.6767 7.69684L21.6752 7.69536C21.6872 7.68201 21.6489 7.70796 21.6158 7.72353L21.5496 7.75616C21.485 7.78804 21.4211 7.8214 21.3579 7.85847C21.3211 7.87849 21.285 7.89554 21.2489 7.91779C21.0805 8.01788 20.9211 8.14244 20.7789 8.28628C20.4925 8.5747 20.294 8.9469 20.1902 9.32726C20.1376 9.51632 20.1015 9.70761 20.0947 9.91966C20.0895 10.068 20.0992 10.2125 20.1195 10.3541C20.0293 10.3037 19.9383 10.2555 19.8489 10.2103C19.4241 10.0012 19.0173 9.82476 18.6353 9.61271C18.4398 9.50594 18.2669 9.39769 18.0699 9.27239L18.0293 9.24718C18.0805 9.20937 18.1316 9.17378 18.1812 9.13374C18.3579 8.99435 18.5481 8.85051 18.7368 8.66515C18.9226 8.4798 19.0925 8.25366 19.2068 8.00083C19.2639 7.87553 19.3098 7.74503 19.3414 7.6138C19.3571 7.54781 19.3722 7.48257 19.3812 7.41658L19.3962 7.31871C19.3992 7.28015 19.4045 7.24012 19.4053 7.20304C19.415 6.90054 19.3451 6.62991 19.2361 6.3756C19.1248 6.12277 18.9624 5.88996 18.7556 5.69645C18.5489 5.50293 18.2962 5.3539 18.0278 5.26493C17.7602 5.17374 17.4789 5.1426 17.2128 5.15075C16.6857 5.16187 16.1083 5.3502 15.7038 5.76244C15.2962 6.168 15.1053 6.75744 15.1662 7.30833C15.1947 7.58043 15.2759 7.8518 15.4098 8.09202C15.5429 8.33299 15.7173 8.5443 15.912 8.71854C16.1023 8.89426 16.3263 9.0381 16.5068 9.15598C16.5414 9.17897 16.5759 9.20121 16.6105 9.22346C16.4135 9.32874 16.2113 9.42957 16.0053 9.52819C15.5992 9.72541 15.1774 9.91447 14.7571 10.1562C14.7308 10.1718 14.7045 10.1888 14.6774 10.2044C14.6865 10.0724 14.6895 9.93968 14.6789 9.80548C14.6632 9.60752 14.6218 9.43106 14.5662 9.24496C14.4549 8.88017 14.2541 8.52502 13.9669 8.25885C13.8248 8.12539 13.6699 8.00898 13.5053 7.91927C13.4233 7.8733 13.3406 7.83252 13.2609 7.79545L13.1474 7.74281C13.115 7.72946 13.0774 7.70574 13.0842 7.71538L13.0797 7.71982C13.0248 7.69758 12.9699 7.67534 12.9158 7.65606C12.5556 7.52334 12.191 7.4492 11.9233 7.21861C11.8541 7.16671 11.7955 7.10221 11.7466 7.03103C11.6917 6.96653 11.6602 6.88052 11.6293 6.80045C11.5932 6.72556 11.5827 6.63214 11.5609 6.55132C11.5511 6.5098 11.5406 6.46976 11.5301 6.42973C11.5218 6.38747 11.5135 6.34594 11.5008 6.30591C11.4805 6.22435 11.4429 6.15465 11.4128 6.07384C11.3805 5.99525 11.3414 5.91962 11.2857 5.84696C11.1774 5.69867 11.0526 5.54816 10.803 5.41174C10.506 5.85437 10.5722 6.27625 10.7925 6.6351C10.8188 6.67959 10.8496 6.72259 10.8805 6.76486C10.915 6.80638 10.9556 6.84493 10.994 6.88274C11.0714 6.95985 11.1474 7.03251 11.2376 7.09628C11.3271 7.16004 11.4023 7.22899 11.4925 7.2846C11.5782 7.34392 11.6549 7.40842 11.7436 7.45958C11.9692 7.60564 12.2053 7.72576 12.4383 7.83252C12.2774 7.8822 12.1293 7.95634 12.0015 8.05125C11.9158 8.11056 11.8444 8.18248 11.7692 8.24921L11.5752 8.47386L11.7617 8.64143L11.9647 8.4709C12.0391 8.42567 12.1075 8.3708 12.1835 8.33373C12.3331 8.25292 12.4917 8.20917 12.6459 8.19583C12.7842 8.18619 12.9195 8.21362 13.0481 8.25959C13.1045 8.2937 13.1594 8.3278 13.2105 8.36339C13.3361 8.45088 13.4481 8.54801 13.5444 8.65626C13.7383 8.87201 13.8662 9.13374 13.9346 9.41919C13.9669 9.55858 13.9932 9.71503 13.9925 9.85442C13.9925 9.99603 13.9774 10.1399 13.9489 10.2822C13.9195 10.4253 13.8759 10.5677 13.8218 10.7056C13.794 10.7738 13.7647 10.8428 13.7323 10.908C13.7015 10.971 13.6609 11.0459 13.6338 11.0859L13.6406 11.0904C13.6293 11.1052 13.6165 11.1193 13.6053 11.1349C13.4496 11.3469 13.3263 11.5834 13.2391 11.8266C13.1872 11.9779 13.1331 12.1328 13.1278 12.2915C12.7383 12.2915 12.3511 12.313 11.9692 12.3486C11.4406 12.3953 10.9195 12.4702 10.4053 12.5421C10.3353 12.551 10.2654 12.5607 10.1962 12.5703C10.2632 12.009 10.5399 11.4552 10.9714 11.0548C11.2293 10.8138 11.5414 10.6277 11.8827 10.5158C12.2248 10.4031 12.594 10.3653 12.9647 10.392L13.0098 10.019C12.5985 9.95229 12.1654 9.95525 11.7459 10.0553C11.3263 10.1525 10.9241 10.346 10.5805 10.6159C10.5444 10.644 10.512 10.6759 10.4782 10.7056C10.5707 10.3415 10.6617 9.96786 10.709 9.566C10.7421 9.26127 10.7466 8.93504 10.6692 8.60362C10.5865 8.26478 10.4301 7.97414 10.2256 7.71241C9.8188 7.18896 9.21429 6.84122 8.57218 6.71221C8.42782 6.68256 8.28045 6.6655 8.13233 6.65809C8.1594 6.39043 8.21955 6.12277 8.31504 5.86698C8.46316 5.46364 8.69699 5.08847 9.0015 4.78671C9.30526 4.48346 9.68196 4.25806 10.097 4.13573C10.2827 4.08012 10.4729 4.04898 10.6669 4.02896H10.6684C10.9105 4.00449 11.1594 3.99782 11.4158 3.98818C11.5805 4.00523 11.7436 4.03934 11.9015 4.09124C12.1015 4.15352 12.2887 4.25065 12.4677 4.36186C12.5564 4.41895 12.6429 4.48049 12.7248 4.54722C12.8053 4.61692 12.8805 4.6918 12.9534 4.76891C13.0263 4.8475 13.0902 4.93203 13.1519 5.01952C13.2173 5.10552 13.2722 5.19079 13.306 5.28124C13.3789 5.4629 13.3308 5.65715 13.3075 5.85437C13.3023 5.90331 13.2932 5.95521 13.2947 6.00488C13.291 6.05679 13.2902 6.1072 13.294 6.1591C13.2992 6.26365 13.3158 6.36967 13.3414 6.47718C13.397 6.69294 13.4827 6.91314 13.6805 7.13706L13.7233 7.1378C13.9278 6.91907 14.0188 6.69813 14.0714 6.47125C14.118 6.24511 14.1218 6.01156 14.0361 5.77059C13.9579 5.53185 13.8053 5.28792 13.6519 5.08699C13.5308 4.92832 13.4173 4.7919 13.2985 4.65547C13.5586 4.73555 13.8376 4.77558 14.1233 4.74667C14.3256 4.73481 14.5135 4.66511 14.7113 4.60802C14.9045 4.54574 15.1241 4.49087 15.2977 4.38559C15.4729 4.28105 15.5932 4.13054 15.6774 3.96075C15.7586 3.78725 15.8075 3.59596 15.7744 3.34461L15.712 3.29568C15.4556 3.31941 15.2812 3.40467 15.1293 3.49957C14.9812 3.59819 14.8624 3.71163 14.7789 3.85102C14.6962 3.99411 14.6331 4.15797 14.5195 4.27882C14.4609 4.32998 14.397 4.38485 14.3218 4.40561C14.285 4.41821 14.2496 4.43897 14.2113 4.44639L14.0947 4.46566C14.0564 4.47605 14.0158 4.46863 13.9759 4.46789C13.9353 4.46566 13.8955 4.46641 13.8556 4.45973C13.7759 4.43897 13.6962 4.42933 13.618 4.39968C13.4609 4.34629 13.306 4.28031 13.1496 4.21135C12.8444 4.08308 12.5504 3.91033 12.2444 3.75759C12.1865 3.7272 12.1278 3.69754 12.0684 3.67085C11.7188 3.51144 11.3376 3.42543 10.9564 3.39429C10.9361 3.14591 10.9677 2.90494 11.0571 2.68844C11.1722 2.40373 11.3857 2.16203 11.6504 1.99075C12.1647 1.623 12.8647 1.56739 13.5271 1.76981C13.8669 1.86619 14.2323 2.01226 14.6556 2.10938C15.0797 2.20429 15.5571 2.20503 15.9947 2.0686C16.4782 1.90994 16.8128 1.58445 17.0489 1.2293C17.1609 1.05877 17.2504 0.876376 17.3158 0.688052C17.3805 0.872669 17.4677 1.0521 17.5767 1.21966C17.809 1.57333 18.1376 1.89659 18.612 2.06045C18.6737 2.08269 18.7293 2.09678 18.7827 2.10864C18.8368 2.12199 18.8925 2.13089 18.9489 2.14127C19.0609 2.15906 19.1744 2.16944 19.2887 2.17166C19.5173 2.17463 19.7451 2.14497 19.9541 2.09455C20.3744 1.98779 20.7293 1.83431 21.0579 1.73941C21.3872 1.64154 21.697 1.6141 22.015 1.67268C22.1729 1.70159 22.3323 1.74608 22.4812 1.80984C22.6286 1.87806 22.7684 1.95516 22.9038 2.03746C23.1714 2.20874 23.3872 2.44377 23.5226 2.73219C23.6158 2.92867 23.6707 3.14888 23.6962 3.37946C23.6654 3.3802 23.6353 3.38243 23.6045 3.38465V3.38095C23.1346 3.40096 22.6429 3.48994 22.218 3.71088C22.1571 3.74128 22.0992 3.77465 22.0421 3.80949C21.8158 3.9259 21.594 4.04527 21.3684 4.14314C21.215 4.21209 21.0639 4.28105 20.9113 4.33814C20.8353 4.3715 20.7586 4.38188 20.6805 4.40487C20.6421 4.41451 20.6038 4.41302 20.5647 4.41673C20.5263 4.41673 20.4865 4.42785 20.4489 4.41821C20.3737 4.40932 20.2985 4.39745 20.2301 4.36335C20.1586 4.34185 20.0962 4.2892 20.0429 4.23582C19.9376 4.11126 19.8902 3.9385 19.8173 3.79392C19.7429 3.65231 19.6263 3.54332 19.4722 3.45286C19.3947 3.40764 19.3083 3.37057 19.2045 3.34165C19.106 3.30977 18.9895 3.29049 18.8459 3.29049L18.7714 3.34906C18.7398 3.48623 18.7346 3.60412 18.7474 3.70866C18.7541 3.81691 18.785 3.91181 18.8211 4.00153C18.8977 4.17799 19.0188 4.33072 19.2023 4.43082C19.3835 4.53165 19.618 4.5754 19.8188 4.62952C20.0248 4.67994 20.218 4.7437 20.4241 4.7526C20.6323 4.76743 20.8368 4.75038 21.0316 4.7096C20.918 4.83045 20.8098 4.95946 20.6842 5.11368C20.5195 5.31906 20.3571 5.56744 20.282 5.8047C20.2015 6.04196 20.2105 6.27106 20.2737 6.49201C20.3075 6.60174 20.3534 6.71073 20.4248 6.81824C20.4917 6.92575 20.5797 7.03251 20.7083 7.1378L20.7632 7.13706C20.8902 7.02807 20.9752 6.91982 21.0414 6.81379C21.1113 6.70702 21.1571 6.60174 21.191 6.49794C21.2579 6.2896 21.2752 6.09015 21.2316 5.90034C21.1947 5.71276 21.1135 5.52888 21.1549 5.35242C21.1729 5.26271 21.2226 5.18337 21.282 5.10182C21.3421 5.01803 21.4083 4.93796 21.4789 4.86382C21.7699 4.56798 22.1293 4.37373 22.4617 4.2158C22.8045 4.06307 23.1737 4.01339 23.5729 4.01042V4.00672C23.8383 4.03489 24.091 4.06232 24.3383 4.14388C24.7496 4.27289 25.1218 4.49903 25.4218 4.80154C25.9293 5.302 26.2391 6.00711 26.303 6.71147C26.2083 6.72185 26.1135 6.7352 26.0203 6.75522C25.3917 6.89164 24.8015 7.23789 24.4045 7.75616ZM24.3451 13.3533C24.2624 13.5171 24.1707 13.6824 24.0421 13.8278C23.7977 14.1258 23.4797 14.3757 23.1263 14.5685C22.7744 14.7649 22.3857 14.9058 21.9827 15.0022C21.9038 15.0215 21.8233 15.0371 21.7429 15.0526C21.6895 15.0489 21.6353 15.0437 21.582 15.043L21.5752 12.9536C21.9165 12.9566 22.2609 12.9751 22.6053 13.0033C23.112 13.0463 23.6211 13.116 24.1383 13.1849C24.2241 13.1961 24.3113 13.2072 24.3977 13.2183C24.3805 13.2628 24.3639 13.3073 24.3451 13.3533ZM20.4015 15.1972C20.2158 15.2498 20.0308 15.3069 19.8534 15.3759C19.7632 15.4085 19.6759 15.4463 19.588 15.4819C19.5023 15.5182 19.4 15.5657 19.3113 15.6146C19.2075 15.671 19.1098 15.7347 19.015 15.803C18.9782 15.7177 18.9421 15.6317 18.9023 15.5472C18.6722 15.0593 18.3744 14.5892 17.988 14.1814C17.9353 14.1258 17.8789 14.0739 17.8241 14.0205C18.3632 13.6239 18.9767 13.3317 19.6301 13.1642C20.0023 13.0671 20.385 13.0092 20.7722 12.9788L20.7797 15.1142C20.6519 15.1371 20.5256 15.1646 20.4015 15.1972ZM18.388 16.3954C18.1361 16.7008 17.9353 17.0345 17.7692 17.3785C17.5564 17.8263 17.3932 18.2905 17.2744 18.762C17.1609 18.2393 17 17.7218 16.7714 17.2191C16.618 16.8899 16.4256 16.5711 16.1835 16.276C16.2414 16.1225 16.3015 15.9698 16.3684 15.8222C16.5722 15.3774 16.8226 14.957 17.1436 14.6167C17.1977 14.5588 17.2556 14.5047 17.3128 14.4506C17.3759 14.5106 17.4391 14.5707 17.4985 14.6345C17.8218 14.98 18.0895 15.387 18.2985 15.8289C18.3692 15.975 18.4323 16.1255 18.4925 16.2782C18.4579 16.3168 18.4211 16.3553 18.388 16.3954ZM16.9301 8.53985C16.7308 8.40788 16.5714 8.30111 16.4278 8.16765C16.1436 7.90667 15.9654 7.58933 15.9346 7.23418C15.9008 6.88868 16.0218 6.5402 16.2624 6.30442C16.5015 6.06494 16.8541 5.94038 17.2361 5.93371C17.6165 5.9211 17.9601 6.02935 18.2113 6.26439C18.3368 6.38079 18.4398 6.52685 18.5113 6.68701C18.5812 6.84567 18.6226 7.02436 18.6158 7.17339C18.6165 7.19266 18.6135 7.20823 18.612 7.22677L18.6015 7.29498C18.5962 7.34169 18.585 7.38544 18.5744 7.42992C18.5541 7.51815 18.5241 7.60194 18.4887 7.68201C18.4165 7.84142 18.312 7.98452 18.1774 8.1202C18.0429 8.2544 17.8707 8.38786 17.691 8.52947C17.5737 8.62438 17.4489 8.71187 17.3226 8.79639C17.1902 8.71112 17.0579 8.62586 16.9301 8.53985ZM17.3511 9.69501L17.6684 9.89371C17.8564 10.0131 18.0714 10.1428 18.2782 10.2526C18.6955 10.478 19.1293 10.6604 19.5241 10.8509C19.9195 11.0415 20.2556 11.2498 20.4654 11.5501C20.5707 11.7006 20.6534 11.8726 20.7135 12.0617C20.7368 12.1291 20.7526 12.1981 20.7692 12.2678C20.3256 12.3041 19.8827 12.3738 19.4466 12.4902C18.6677 12.6949 17.9323 13.0708 17.3053 13.5712C16.6759 13.0915 15.9489 12.7349 15.1842 12.5354C14.7564 12.4227 14.3233 12.3568 13.8902 12.3219C13.915 12.2418 13.9346 12.1618 13.9647 12.0839C14.0301 11.903 14.1188 11.7347 14.2316 11.582C14.4556 11.2743 14.7805 11.0296 15.1504 10.8168C15.8226 10.4357 16.6098 10.1302 17.3511 9.69501ZM15.7737 15.5598C15.7399 15.6346 15.7098 15.7103 15.6789 15.7859C15.5301 15.6717 15.3677 15.5694 15.1887 15.4901C15.0857 15.4411 15.006 15.4174 14.9158 15.3826C14.8278 15.3499 14.7376 15.3218 14.6481 15.2914C14.4669 15.2372 14.2842 15.1839 14.0955 15.146C14.0143 15.129 13.9323 15.1149 13.8496 15.1008L13.8571 12.9566C14.2496 12.9914 14.6368 13.0545 15.0135 13.156C15.6624 13.3303 16.2714 13.6268 16.806 14.022C16.7564 14.0724 16.7045 14.1214 16.6571 14.1733C16.2729 14.59 15.994 15.0689 15.7737 15.5598ZM13.0474 15.0459C13.0331 15.0459 13.018 15.0459 13.003 15.0467C12.8406 15.0244 12.6797 14.9978 12.5226 14.9585C12.1316 14.8673 11.7541 14.7338 11.4158 14.5425C11.0759 14.3564 10.7744 14.111 10.5489 13.8174C10.4293 13.6743 10.3481 13.5119 10.2722 13.3503C10.2511 13.2954 10.2316 13.2413 10.212 13.1872C10.3053 13.1746 10.3977 13.1627 10.4902 13.1508C11.0075 13.0826 11.5173 13.0122 12.0263 12.9699C12.3692 12.9403 12.7128 12.9232 13.0549 12.9232L13.0474 15.0459ZM10.0226 9.49556C9.96617 10.0131 9.80602 10.5536 9.67519 11.1134C9.67519 11.1141 9.67519 11.1149 9.67444 11.1156C9.59398 10.8887 9.48947 10.667 9.37895 10.4453C9.32632 10.349 9.28496 10.2429 9.23083 10.1414C9.18271 10.0346 9.13233 9.92485 9.06917 9.82254C9.03684 9.77138 9.00526 9.71799 8.97068 9.66757C8.93233 9.62161 8.89248 9.57638 8.84962 9.53486C8.80752 9.49334 8.76241 9.4533 8.71429 9.41845C8.66541 9.38657 8.61353 9.35914 8.56165 9.33171L8.4015 9.25904C8.34587 9.24273 8.29098 9.2242 8.23459 9.21011C8.1218 9.18045 8.00902 9.15747 7.89173 9.15673C7.6594 9.14264 7.4218 9.17971 7.18271 9.28944L7.17218 9.33245C7.32857 9.55043 7.48872 9.68685 7.6391 9.82179C7.71729 9.88333 7.79023 9.94487 7.86391 10.0012C7.93985 10.0539 8.01353 10.1043 8.08346 10.1562C8.1203 10.1792 8.1579 10.2022 8.19774 10.2199C8.23534 10.2414 8.27218 10.2622 8.31353 10.2785C8.35414 10.2956 8.39774 10.3097 8.44286 10.3223L8.57519 10.3682C8.62105 10.3831 8.67068 10.3957 8.71579 10.4142C8.75865 10.435 8.80451 10.4542 8.84812 10.4765C8.93985 10.5187 9.01128 10.5825 9.0812 10.6485C9.15338 10.7137 9.20376 10.796 9.26241 10.8731C9.31654 10.9525 9.35564 11.0422 9.4 11.1275L9.50226 11.4011L9.56241 11.5998C9.49925 11.8911 9.44737 12.1907 9.42857 12.5013C9.4188 12.554 9.41053 12.6066 9.40376 12.6607C9.23308 12.6741 9.06466 12.683 8.9015 12.6808C8.4203 12.6704 7.96617 12.5532 7.56842 12.3108C7.16767 12.0735 6.82632 11.7243 6.52331 11.3403L6.49925 11.3099C6.40601 11.1453 6.31504 10.9844 6.23233 10.825C6.11278 10.5966 6.00977 10.3653 5.95113 10.1243C5.88872 9.88333 5.87519 9.64163 5.88045 9.38435C5.88722 9.1419 5.92632 8.89945 6.01504 8.67034C6.1985 8.21659 6.55188 7.83178 6.98872 7.60194C7.42481 7.36838 7.94286 7.30091 8.43308 7.3973C8.9203 7.49295 9.37669 7.75541 9.67444 8.13651C9.82406 8.32335 9.94135 8.54727 9.99323 8.76302C10.0474 8.98768 10.0496 9.23754 10.0226 9.49556ZM29.9752 16.772C29.7827 16.5711 29.7 16.3079 29.7165 16.0395C29.7188 15.972 29.7308 15.9053 29.7414 15.8363C29.7511 15.7666 29.7632 15.6969 29.782 15.6272C29.8165 15.4886 29.8669 15.3507 29.9286 15.212C30.0511 14.9332 30.2173 14.6537 30.3654 14.3408C30.5128 14.0294 30.6414 13.6684 30.6511 13.2821C30.6571 13.0908 30.6361 12.898 30.5932 12.7149C30.5534 12.5377 30.4805 12.3397 30.3684 12.1684C30.1444 11.8207 29.7977 11.5864 29.4511 11.4492C29.2767 11.3795 29.0985 11.3299 28.9188 11.2935C28.9045 11.2913 28.8902 11.2891 28.8759 11.2861C29.0767 10.9525 29.2256 10.5884 29.3241 10.2148C29.3632 10.068 29.3925 9.91818 29.415 9.76544C29.4256 9.68908 29.4338 9.61049 29.4391 9.52893C29.4436 9.43847 29.4406 9.36581 29.4376 9.28425C29.4241 8.96544 29.3398 8.65033 29.2135 8.35672C28.9556 7.77024 28.4872 7.27793 27.9083 6.99025C27.6617 6.86421 27.3955 6.78117 27.1233 6.7352C27.1038 6.33779 27.0143 5.94928 26.8707 5.58375C26.6692 5.08402 26.3647 4.62211 25.9632 4.24917C25.5617 3.87845 25.0609 3.60338 24.5286 3.47585C24.4511 3.45731 24.3722 3.44174 24.2932 3.42766C24.303 3.11625 24.2647 2.79373 24.1511 2.48307C24.0045 2.06638 23.7226 1.68751 23.3699 1.41243C23.1962 1.27008 22.9985 1.16331 22.7925 1.08324C22.588 0.999455 22.3774 0.936433 22.1586 0.896395C21.7211 0.81113 21.2451 0.851168 20.8383 0.964607C20.4271 1.07286 20.0789 1.23449 19.7541 1.31308C19.5925 1.35683 19.4376 1.38278 19.282 1.38945C19.1316 1.40057 18.9617 1.38129 18.8218 1.35238C18.5564 1.29677 18.2707 1.10622 18.0331 0.868221C17.794 0.626513 17.5932 0.332904 17.4376 0H17.194C17.0368 0.33587 16.8338 0.630961 16.5917 0.874152C16.3511 1.11289 16.0624 1.30344 15.7962 1.35534C15.6489 1.38648 15.4789 1.4028 15.3226 1.3939C15.1632 1.38945 15.003 1.3635 14.8376 1.32272C14.5053 1.24932 14.1526 1.09955 13.7459 0.993523C13.3429 0.883791 12.8842 0.827442 12.4436 0.881567C12.2286 0.906034 11.997 0.952744 11.7827 1.03579C11.5677 1.11512 11.3609 1.21818 11.1827 1.36202C10.8226 1.6408 10.5353 2.02634 10.4008 2.46601C10.303 2.77371 10.2902 3.09623 10.3361 3.40171C10.1925 3.41876 10.0496 3.44397 9.90902 3.47807C9.3782 3.60857 8.8782 3.87993 8.47444 4.24917C8.07293 4.62211 7.76842 5.08476 7.56692 5.58375C7.42331 5.94854 7.33835 6.33557 7.31729 6.73075C7.08571 6.78413 6.8609 6.86569 6.64962 6.97765C6.06316 7.28238 5.59098 7.79323 5.33985 8.4012C5.20902 8.70223 5.13158 9.02846 5.11729 9.35691C5.1015 9.66832 5.13609 10.002 5.22331 10.3134C5.31654 10.6648 5.47519 10.9888 5.6782 11.275C5.50677 11.3076 5.33759 11.358 5.16992 11.4248C4.8203 11.5649 4.46992 11.8029 4.24436 12.1566C4.13083 12.3301 4.05789 12.5317 4.01804 12.7097C3.97519 12.895 3.95414 13.0893 3.9609 13.2828C3.97143 13.6728 4.1015 14.0361 4.24962 14.3483C4.40226 14.6611 4.57368 14.9362 4.70075 15.2128C4.83083 15.4849 4.91203 15.7696 4.9203 16.0395C4.92782 16.3094 4.83609 16.5659 4.64135 16.7557C4.44962 16.944 4.16992 17.0715 3.88195 17.0945V17.4193C4.25414 17.4393 4.63684 17.3273 4.93684 17.0782C5.08647 16.9544 5.21278 16.7965 5.3 16.62C5.38571 16.4421 5.43459 16.2486 5.44737 16.0573C5.47444 15.6732 5.37068 15.3136 5.24211 14.9889C5.11128 14.6641 4.95188 14.3727 4.83158 14.0902C4.71053 13.8077 4.63158 13.5356 4.63609 13.2687C4.63684 13.1353 4.65639 13.0033 4.69248 12.8713C4.73308 12.7334 4.77143 12.6229 4.83759 12.5221C4.96617 12.3197 5.17895 12.1632 5.43835 12.0587C5.56692 12.0053 5.70602 11.9675 5.84812 11.9349C5.93534 11.9149 6.03083 11.8993 6.1218 11.8882C6.4406 12.2507 6.80301 12.5911 7.24211 12.8483C7.48947 12.9922 7.76015 13.1056 8.03985 13.179C8.31955 13.2509 8.60602 13.2836 8.88647 13.2873C9.10226 13.2902 9.31053 13.2784 9.51654 13.2621C9.53684 13.3844 9.57143 13.503 9.61504 13.6165C9.71805 13.8396 9.83609 14.0561 9.99098 14.2407C10.2429 14.5603 10.5549 14.8198 10.8932 15.0274C10.8481 15.0385 10.8023 15.0489 10.7586 15.0623C10.4865 15.1475 10.2444 15.2706 10.0195 15.3966C9.79624 15.5242 9.5782 15.645 9.35338 15.7066C9.24211 15.7429 9.12857 15.7511 9.02105 15.754C8.91278 15.7496 8.80827 15.7199 8.7218 15.6569C8.54436 15.536 8.44887 15.3366 8.32105 15.1801C8.19323 15.0215 8.0203 14.8977 7.81429 14.7672C7.70902 14.7064 7.59699 14.6419 7.46316 14.5922C7.33008 14.5395 7.18872 14.4884 7.00451 14.4602L6.97368 14.481C6.90451 14.8302 6.96015 15.1186 7.07669 15.3781C7.19398 15.6339 7.38196 15.8675 7.64737 16.0254C7.91429 16.1818 8.27293 16.2404 8.59474 16.2241C8.91729 16.2078 9.20677 16.1648 9.46541 16.0691C9.59549 16.0239 9.7188 15.9764 9.84135 15.9283C9.9609 15.8771 10.0797 15.8274 10.1977 15.7852C10.4323 15.6977 10.6602 15.6154 10.8865 15.5753C11.0083 15.5501 11.1293 15.5405 11.2489 15.5427C11.082 15.6361 10.9226 15.7384 10.7707 15.846C10.1586 16.2819 9.64962 16.7876 9.13008 17.2502C8.61804 17.721 8.0812 18.1422 7.47519 18.4373C6.86993 18.7309 6.19023 18.8755 5.49323 18.874L5.46992 19.2202C5.83835 19.2647 6.21729 19.2773 6.59624 19.2373C6.97519 19.1965 7.34962 19.0986 7.70677 18.9637C8.42481 18.6901 9.03835 18.2363 9.59774 17.7848C10.1534 17.3244 10.6586 16.841 11.2083 16.4732C11.7556 16.104 12.3436 15.8652 12.9714 15.8334C12.9955 15.8319 13.0203 15.8326 13.0451 15.8319L13.0444 16.1307L13.0421 16.5459C13.0444 16.6727 13.0278 16.7957 13.0323 16.9196C13.0293 17.1657 12.9947 17.4067 12.9105 17.6224C12.8271 17.8375 12.6917 18.028 12.4985 18.1637C12.3068 18.3023 12.0586 18.3824 11.797 18.4091V18.7027C12.0977 18.7287 12.4218 18.6953 12.7233 18.5574C13.0248 18.4239 13.2842 18.1822 13.4579 17.9034C13.6353 17.6247 13.7399 17.3162 13.8038 17.0108C13.8414 16.858 13.8429 16.7023 13.8451 16.5511L13.8466 16.1314L13.8474 15.8993C14.194 15.9646 14.5383 16.0714 14.8624 16.2033C15.0579 16.2864 15.2376 16.4132 15.4015 16.5703C15.3504 16.7357 15.3023 16.901 15.2586 17.0671C14.991 18.0873 14.8579 19.1231 14.7541 20.1559C14.6556 21.1902 14.615 22.226 14.606 23.2596C14.6 23.7771 14.6068 24.2931 14.612 24.8084C14.615 25.3215 14.6301 25.8457 14.6248 26.3365H15.3842C15.3767 25.8049 15.3504 25.3022 15.3361 24.7884C15.3203 24.2776 15.309 23.7675 15.3068 23.2581C15.3015 22.2386 15.3271 21.2206 15.409 20.21C15.4902 19.1995 15.6338 18.1941 15.8835 17.225C15.8857 17.2161 15.8887 17.208 15.891 17.1991C15.9586 17.3103 16.0226 17.4245 16.0805 17.5416C16.3729 18.1318 16.5526 18.788 16.6925 19.4516C16.8098 20.0091 16.8729 20.5793 16.915 21.1524L16.9143 27.3234H17.7173L17.7165 21.1153C17.7436 20.6208 17.8075 20.1292 17.9105 19.6488C18.0188 18.9733 18.1752 18.3016 18.4511 17.6884C18.5421 17.4838 18.6489 17.2866 18.7692 17.1005C18.7805 17.1405 18.7932 17.1798 18.8038 17.2198C19.0632 18.1837 19.1947 19.1891 19.2654 20.1989C19.3331 21.2117 19.318 22.2223 19.312 23.2566L19.3263 26.3402L20.1038 26.3321C20.0466 25.3074 20.0248 24.282 19.985 23.2566C19.9707 22.2371 19.9827 21.1932 19.9135 20.1567C19.8451 19.1187 19.7143 18.0769 19.4436 17.053C19.394 16.8654 19.3368 16.6778 19.2759 16.4925C19.394 16.385 19.5203 16.2908 19.6549 16.2122C19.7241 16.1729 19.785 16.141 19.8654 16.1069C19.9451 16.0743 20.0233 16.0395 20.1038 16.0106C20.2632 15.9475 20.4248 15.8979 20.5865 15.8504C20.6511 15.8326 20.7165 15.8178 20.782 15.8037L20.7827 16.1314L20.785 16.5511C20.7865 16.7023 20.788 16.858 20.8256 17.0108C20.8895 17.3162 20.994 17.6247 21.1714 17.9034C21.3459 18.1822 21.6045 18.4239 21.9068 18.5574C22.2075 18.6953 22.5316 18.7287 22.8323 18.7027V18.4091C22.5707 18.3824 22.3233 18.3023 22.1316 18.1637C21.9376 18.028 21.8023 17.8375 21.7188 17.6224C21.6353 17.4067 21.6008 17.1657 21.5977 16.9196C21.6023 16.7957 21.5857 16.6727 21.5872 16.5459L21.5857 16.1307L21.5842 15.7169C22.2256 15.7251 22.8301 15.9742 23.3737 16.3694C23.9278 16.7631 24.4353 17.2688 24.9895 17.7507C25.5421 18.2319 26.1586 18.7012 26.8835 18.9978C27.6098 19.2862 28.4226 19.3707 29.1662 19.215L29.1368 18.8918C28.4211 18.8458 27.7383 18.7353 27.1188 18.4469C26.4917 18.1785 25.9398 17.7507 25.4143 17.2777C24.8857 16.8069 24.382 16.2804 23.7662 15.8311C23.6549 15.7511 23.5383 15.6754 23.4188 15.6028C23.5323 15.5991 23.6481 15.6057 23.7662 15.625C24.2105 15.6984 24.6797 15.9016 25.197 16.0765C25.4586 16.1663 25.7481 16.2048 26.0692 16.2196C26.3902 16.236 26.7489 16.1803 27.0165 16.0246C27.2835 15.8682 27.4707 15.6339 27.588 15.3781C27.7045 15.1186 27.7602 14.8302 27.6917 14.481L27.6602 14.4602C27.4759 14.4884 27.3346 14.5395 27.2015 14.5922C27.0684 14.6419 26.9556 14.7064 26.8504 14.7672C26.6444 14.8977 26.4722 15.0222 26.3429 15.1794C26.215 15.3351 26.118 15.5316 25.9421 15.6532C25.8549 15.7118 25.7519 15.7503 25.6436 15.754C25.5361 15.7533 25.4218 15.7466 25.309 15.7132C24.8534 15.5931 24.4323 15.2647 23.894 15.1127C23.8135 15.089 23.7301 15.0712 23.6459 15.0563C23.9955 14.8472 24.3188 14.587 24.5872 14.2667C24.7496 14.0836 24.8789 13.8663 24.9925 13.6409C25.0399 13.5312 25.0805 13.4155 25.1068 13.2947C25.3158 13.3117 25.5278 13.3229 25.7481 13.3184C26.0293 13.3102 26.318 13.2747 26.5985 13.1983C26.8789 13.1212 27.1496 13.004 27.394 12.8543C27.8376 12.5851 28.194 12.2278 28.5015 11.8504C29.0301 11.9045 29.5857 12.1195 29.8158 12.5088C29.882 12.6133 29.9188 12.7275 29.9579 12.8669C29.9932 13.0003 30.0113 13.1345 30.0113 13.2687C30.012 13.5386 29.9293 13.8115 29.8053 14.0925C29.682 14.3742 29.5195 14.6634 29.3865 14.9874C29.2564 15.3114 29.1444 15.671 29.1752 16.0573C29.188 16.2493 29.2383 16.4443 29.3263 16.6222C29.4143 16.8002 29.5421 16.9574 29.6925 17.0804C29.9955 17.3266 30.3752 17.4423 30.7504 17.4282V17.1309C30.4519 17.1071 30.1647 16.9729 29.9752 16.772ZM3.22857 33.8977C3.16842 33.8977 3.11128 33.8925 3.06316 33.8843C2.73534 33.8258 2.44361 33.5892 2.14586 33.1407C1.94662 32.8463 1.56992 32.225 1.26842 31.6949L1.25564 31.6726L0.693985 32.3103L0.689474 33.8703H0V29.1584H0.689474V31.5162L2.6594 29.1518L3.46541 29.1577L1.72932 31.1736L1.73534 31.184C2.03233 31.7282 2.34211 32.2851 2.59624 32.6736C3.02932 33.3364 3.20451 33.5433 3.45639 33.5425L3.49023 33.5418L3.49248 33.5514C3.50902 33.6604 3.53158 33.8391 3.53233 33.8443L3.53383 33.8532L3.52481 33.8562C3.45113 33.8821 3.33985 33.8977 3.22857 33.8977ZM4.75865 33.9993C4.41278 33.9941 4.10526 33.8384 3.81729 33.524L3.81128 33.5173L4.05038 33.2289L4.05865 33.2356C4.26015 33.4009 4.52331 33.4921 4.79925 33.4921C5.02707 33.4921 5.40827 33.441 5.40827 33.0984C5.40827 32.8204 5.18797 32.7173 4.7218 32.5638C4.15263 32.3674 3.89925 32.0856 3.89925 31.6497C3.89925 31.1692 4.2985 30.6821 5.06241 30.6821C5.51955 30.6821 5.81278 30.8697 5.91805 30.9505L5.92481 30.9557L5.69925 31.4354L5.68797 31.4257C5.51203 31.2774 5.27744 31.1959 5.02857 31.1959C4.67594 31.1959 4.47368 31.3323 4.47368 31.5703C4.47368 31.8113 4.69774 31.9077 5.06541 32.0382C5.62481 32.2235 5.99624 32.463 5.99624 33.025C5.99624 33.2741 5.90301 33.4958 5.72707 33.6671C5.50601 33.8814 5.17293 34 4.78872 34L4.75865 33.9993ZM8.75113 33.8703V31.8595C8.75113 31.4346 8.53759 31.2196 8.11579 31.2196C7.87895 31.2196 7.67444 31.3182 7.49098 31.5214C7.36391 31.66 7.34586 31.7282 7.34586 31.9062V33.8703H6.73008V28.9323H7.34586V31.1484L7.37669 31.1114C7.64211 30.7985 7.9406 30.6524 8.31805 30.6524C8.97444 30.6524 9.36692 31.0469 9.36692 31.7067V33.8703H8.75113ZM11.6992 33.9637C10.7286 33.9303 10.1256 33.3053 10.1256 32.331C10.1256 31.5229 10.5759 30.6524 11.5654 30.6524C12.5331 30.6524 12.8767 31.4028 12.8767 32.0456C12.8767 32.1279 12.8767 32.265 12.8699 32.3459L12.8684 32.3555H11.2143V31.9707L12.2947 31.8891V31.8728C12.2827 31.5132 12.0414 31.1269 11.5383 31.1269C11.1429 31.1269 10.8541 31.3597 10.7639 31.7505C10.7038 31.9455 10.7008 32.2828 10.7233 32.5127C10.7519 32.9924 10.991 33.2719 11.4767 33.3928C11.6 33.4232 11.7301 33.4387 11.8632 33.4387C12.3045 33.4387 12.6421 33.2719 12.6451 33.2704L12.6549 33.266L12.8128 33.547L12.8045 33.5529C12.5985 33.7064 12.1865 33.9644 11.7383 33.9644L11.6992 33.9637ZM17.5429 33.8703V31.8595C17.5429 31.5681 17.4383 31.2196 16.9414 31.2196C16.709 31.2196 16.5128 31.319 16.3571 31.514C16.2361 31.6534 16.2248 31.7327 16.2248 31.9062V33.8703H15.6098V31.8595C15.6098 31.5681 15.5053 31.2196 15.0075 31.2196C14.7669 31.2196 14.5654 31.3212 14.4241 31.514C14.3023 31.6541 14.291 31.729 14.291 31.9062V33.8703H13.6759V30.7525H14.2504V31.1863L14.2827 31.144C14.4571 30.9156 14.7188 30.6524 15.203 30.6524C15.6466 30.6524 15.9647 30.8474 16.1233 31.2144L16.1353 31.2441L16.1541 31.2181C16.3406 30.9549 16.6218 30.6524 17.1429 30.6524C17.7789 30.6524 18.1579 31.0469 18.1579 31.7067V33.8703H17.5429ZM19.9053 33.957C19.3564 33.957 18.9571 33.5885 18.9571 33.0821C18.9571 32.3229 19.6068 32.1642 20.1511 32.1642C20.2323 32.1642 20.3143 32.1672 20.3955 32.1738V32.4979C20.0368 32.5112 19.5729 32.5839 19.5729 33.0354C19.5729 33.2949 19.7699 33.4565 20.0872 33.4565C20.3391 33.4565 20.5414 33.3638 20.7053 33.174C20.794 33.0739 20.8323 32.9761 20.8368 32.8367C20.8436 32.6358 20.8466 32.162 20.8466 32.013C20.8466 31.9388 20.8436 31.7527 20.8436 31.7527C20.8436 31.534 20.7564 31.1662 20.1744 31.1662C19.8519 31.1662 19.5827 31.2752 19.3744 31.4888L19.3632 31.4999L19.1165 31.0261L19.1233 31.0202C19.4421 30.7659 19.8083 30.6524 20.309 30.6524C21.0083 30.6524 21.4256 31.0469 21.4256 31.7067V33.2348C21.4256 33.3542 21.4451 33.4202 21.5624 33.4988C21.6098 33.5307 21.6917 33.5507 21.7699 33.5507C21.7857 33.5507 21.8023 33.5499 21.8173 33.5485L21.8353 33.8413C21.7188 33.8777 21.5519 33.9044 21.4248 33.9066H21.4241C21.1812 33.9066 20.9895 33.7605 20.8895 33.5062L20.8789 33.4788L20.8594 33.501C20.5887 33.8161 20.294 33.957 19.9053 33.957ZM23.1308 33.8836L22.0113 30.7525H22.6887L23.2504 32.5342C23.3135 32.7373 23.3835 32.982 23.4594 33.2615L23.4759 33.3231L23.5008 33.2348C23.5504 33.0613 23.6323 32.7722 23.7143 32.5201L24.2827 30.7525H24.8729L23.7526 33.8836H23.1308ZM30.8075 33.8703V31.8595C30.8075 31.4346 30.5887 31.2196 30.1586 31.2196C29.8985 31.2196 29.682 31.3212 29.5135 31.5214C29.3797 31.66 29.3617 31.7245 29.3617 31.9062V33.8703H28.7459V30.7525H29.3549V31.1996L29.3865 31.1588C29.6594 30.8089 29.9639 30.6524 30.3737 30.6524C31.0406 30.6524 31.4226 31.0372 31.4226 31.7067V33.8703H30.8075ZM26.1173 33.957C25.5677 33.957 25.1692 33.5885 25.1692 33.0821C25.1692 32.3229 25.8188 32.1642 26.3632 32.1642C26.4444 32.1642 26.5263 32.1672 26.6075 32.1738V32.4979C26.2489 32.5112 25.785 32.5839 25.785 33.0354C25.785 33.2949 25.982 33.4565 26.2992 33.4565C26.5511 33.4565 26.7526 33.3638 26.9165 33.174C27.006 33.0739 27.0444 32.9761 27.0489 32.8367C27.0556 32.6313 27.0586 32.1442 27.0586 32.013C27.0586 31.9388 27.0556 31.7527 27.0556 31.7527C27.0556 31.534 26.9684 31.1662 26.3865 31.1662C26.0639 31.1662 25.7947 31.2752 25.5865 31.4888L25.5752 31.4999L25.3278 31.0261L25.3353 31.0202C25.6541 30.7659 26.0203 30.6524 26.5211 30.6524C27.2195 30.6524 27.6376 31.0469 27.6376 31.7067V33.2348C27.6376 33.3542 27.6571 33.4202 27.7744 33.4988C27.8218 33.5307 27.903 33.5507 27.982 33.5507C27.9977 33.5507 28.0135 33.5499 28.0293 33.5485L28.0474 33.8413C27.9308 33.8777 27.7639 33.9044 27.6361 33.9066C27.3932 33.9066 27.2015 33.7605 27.1015 33.5062L27.091 33.4788L27.0714 33.501C26.8 33.8161 26.506 33.957 26.1173 33.957ZM33.0699 33.957C32.5203 33.957 32.1218 33.5885 32.1218 33.0821C32.1218 32.3229 32.7707 32.1642 33.3158 32.1642C33.397 32.1642 33.4789 32.1672 33.5602 32.1738V32.4979C33.2015 32.5112 32.7376 32.5839 32.7376 33.0354C32.7376 33.2949 32.9346 33.4565 33.2519 33.4565C33.5038 33.4565 33.706 33.3638 33.8692 33.174C33.9586 33.0739 33.997 32.9761 34.0015 32.8367C34.0075 32.6358 34.0113 32.162 34.0113 32.013C34.0113 31.9388 34.0083 31.7527 34.0083 31.7527C34.0083 31.534 33.9211 31.1662 33.3391 31.1662C33.0165 31.1662 32.7474 31.2752 32.5391 31.4888L32.5278 31.4999L32.2805 31.0261L32.288 31.0202C32.6068 30.7659 32.9729 30.6524 33.4737 30.6524C34.1729 30.6524 34.5902 31.0469 34.5902 31.7067V33.2348C34.5902 33.3542 34.6098 33.4202 34.7271 33.4988C34.7744 33.5307 34.8556 33.5507 34.9346 33.5507C34.9504 33.5507 34.9662 33.5499 34.982 33.5485L35 33.8413C34.8835 33.8777 34.7165 33.9044 34.5895 33.9066H34.5887C34.3459 33.9066 34.1541 33.7605 34.0541 33.5062L34.0436 33.4788L34.0241 33.5018C33.7534 33.8161 33.4586 33.957 33.0699 33.957Z" fill="#D2DBF0"/>
</svg>
