<svg width="294" height="34" viewBox="0 0 294 34" fill="none" xmlns="http://www.w3.org/2000/svg">
<path d="M11.1448 11.6338L13.9879 16.2226L6.59321 28.1643H0.910156L11.1448 11.6338Z" fill="#D2DDF0"/>
<path d="M31.8414 28.1645H26.1042L13.5078 7.81794L16.3764 3.1875L31.8414 28.1645Z" fill="#D2DDF0"/>
<path d="M21.3823 28.1649H11.6289L16.5056 20.2891L21.3823 28.1649Z" fill="#D2DDF0"/>
<path d="M39.6406 27.625L48.4474 7.84531H52.9636L61.7986 27.625H57L49.774 10.1624H51.5805L44.3263 27.625H39.6406ZM44.0439 23.3865L45.2577 19.911H55.4194L56.6613 23.3865H44.0439ZM63.8486 27.625V7.84531H68.4213V23.8951H78.3289V27.625H63.8486ZM80.8838 27.625V7.84531H85.4565V23.8951H95.3641V27.625H80.8838ZM97.9192 27.625V7.84531H102.492V27.625H97.9192ZM111.387 15.8138H120.899V19.3741H111.387V15.8138ZM111.726 23.9517H122.48V27.625H107.181V7.84531H122.113V11.5187H111.726V23.9517ZM126.118 27.625V7.84531H135.094C137.24 7.84531 139.13 8.25975 140.768 9.08862C142.405 9.89865 143.685 11.0384 144.607 12.5077C145.529 13.977 145.99 15.7195 145.99 17.7352C145.99 19.7319 145.529 21.4744 144.607 22.9627C143.685 24.432 142.405 25.5811 140.768 26.41C139.13 27.22 137.24 27.625 135.094 27.625H126.118ZM130.691 23.8669H134.869C136.186 23.8669 137.324 23.622 138.284 23.1323C139.263 22.6236 140.016 21.9077 140.542 20.9847C141.088 20.0616 141.36 18.9785 141.36 17.7352C141.36 16.473 141.088 15.3898 140.542 14.4856C140.016 13.5626 139.263 12.8562 138.284 12.3664C137.324 11.8578 136.186 11.6035 134.869 11.6035H130.691V23.8669ZM155.146 27.625L164.179 7.84531H166.239L175.272 27.625H173.07L164.771 9.06036H165.618L157.319 27.625H155.146ZM158.703 22.341L159.324 20.6456H170.812L171.433 22.341H158.703ZM183.137 27.625L174.387 7.84531H176.646L184.831 26.4665H183.589L191.832 7.84531H193.948L185.198 27.625H183.137ZM196.816 27.625V7.84531H198.905V27.625H196.816ZM202.173 27.625L211.205 7.84531H213.265L222.298 27.625H220.096L211.797 9.06036H212.644L204.345 27.625H202.173ZM205.729 22.341L206.35 20.6456H217.838L218.459 22.341H205.729ZM228.413 27.625V9.65375H221.469V7.84531H237.445V9.65375H230.502V27.625H228.413ZM240.782 27.625V7.84531H242.871V27.625H240.782ZM257.937 27.7946C256.451 27.7946 255.068 27.5497 253.788 27.0599C252.527 26.5513 251.427 25.8448 250.485 24.9406C249.564 24.0176 248.839 22.9532 248.313 21.7476C247.804 20.5232 247.551 19.1857 247.551 17.7352C247.551 16.2847 247.804 14.9566 248.313 13.751C248.839 12.5265 249.564 11.4622 250.485 10.558C251.427 9.63491 252.527 8.92849 253.788 8.43871C255.049 7.93009 256.432 7.67578 257.937 7.67578C259.424 7.67578 260.798 7.93009 262.058 8.43871C263.319 8.92849 264.41 9.62549 265.333 10.5297C266.274 11.4339 266.998 12.4982 267.506 13.7228C268.033 14.9472 268.297 16.2847 268.297 17.7352C268.297 19.1857 268.033 20.5232 267.506 21.7476C266.998 22.9721 266.274 24.0365 265.333 24.9406C264.41 25.8448 263.319 26.5513 262.058 27.0599C260.798 27.5497 259.424 27.7946 257.937 27.7946ZM257.937 25.9296C259.123 25.9296 260.215 25.7319 261.211 25.3362C262.228 24.9218 263.103 24.3472 263.837 23.6126C264.59 22.8591 265.172 21.9925 265.586 21.013C266.001 20.0146 266.208 18.922 266.208 17.7352C266.208 16.5484 266.001 15.4653 265.586 14.4856C265.172 13.4872 264.59 12.6207 263.837 11.886C263.103 11.1325 262.228 10.558 261.211 10.1624C260.215 9.74794 259.123 9.54072 257.937 9.54072C256.752 9.54072 255.651 9.74794 254.635 10.1624C253.618 10.558 252.734 11.1325 251.982 11.886C251.247 12.6207 250.665 13.4872 250.232 14.4856C249.818 15.4653 249.611 16.5484 249.611 17.7352C249.611 18.9031 249.818 19.9863 250.232 20.9847C250.665 21.9831 251.247 22.8591 251.982 23.6126C252.734 24.3472 253.618 24.9218 254.635 25.3362C255.651 25.7319 256.752 25.9296 257.937 25.9296ZM272.979 27.625V7.84531H274.7L288.334 25.0254H287.43V7.84531H289.492V27.625H287.769L274.164 10.4449H275.068V27.625H272.979Z" fill="#D2DDF0"/>
</svg>
