<svg width="71" height="32" viewBox="0 0 71 32" fill="none" xmlns="http://www.w3.org/2000/svg">
<path d="M32.3438 24.5552V22.8431H32.5871C32.6297 22.8431 32.6592 22.8509 32.6762 22.8663C32.6932 22.8821 32.7041 22.9087 32.7097 22.9466L32.735 23.1536C32.7965 23.0479 32.8686 22.9646 32.9516 22.9034C33.0346 22.8423 33.1274 22.8115 33.2304 22.8115C33.3154 22.8115 33.3859 22.8311 33.4422 22.8701L33.3886 23.1788C33.3852 23.1987 33.378 23.2129 33.3667 23.2212C33.3554 23.2295 33.3403 23.2339 33.3214 23.2339C33.3048 23.2339 33.2818 23.2302 33.2527 23.2223C33.2237 23.2144 33.1852 23.2107 33.1369 23.2107C33.0509 23.2107 32.9769 23.2343 32.9154 23.2816C32.8539 23.3288 32.8018 23.3983 32.7592 23.4894V24.5559H32.3445L32.3438 24.5552Z" fill="#D2DBF0"/>
<path d="M34.4255 22.8184C34.5342 22.8184 34.6338 22.8356 34.7251 22.8701C34.8164 22.9046 34.8949 22.9549 34.961 23.0213C35.027 23.0877 35.0783 23.1687 35.1153 23.2651C35.1523 23.3612 35.1707 23.4711 35.1707 23.5949C35.1707 23.626 35.1693 23.6519 35.1666 23.6725C35.164 23.6932 35.1587 23.7093 35.1515 23.7209C35.1443 23.7326 35.1345 23.7412 35.1221 23.7461C35.1096 23.751 35.0941 23.7536 35.0749 23.7536H34.0108C34.0233 23.9295 34.0708 24.0585 34.1535 24.1407C34.2361 24.2233 34.3459 24.2641 34.4825 24.2641C34.5497 24.2641 34.6074 24.2563 34.6561 24.2409C34.7047 24.2251 34.7474 24.2079 34.7836 24.1891C34.8199 24.1704 34.8519 24.1531 34.8794 24.1373C34.907 24.1216 34.9334 24.1141 34.9591 24.1141C34.976 24.1141 34.9904 24.1175 35.0028 24.1242C35.0153 24.131 35.0258 24.1403 35.0349 24.1527L35.1557 24.3028C35.1096 24.3561 35.0583 24.4011 35.0013 24.4371C34.9443 24.4731 34.8847 24.502 34.8225 24.5237C34.7602 24.5455 34.6972 24.5605 34.6327 24.5695C34.5682 24.5785 34.5059 24.583 34.4455 24.583C34.3259 24.583 34.2146 24.5631 34.1116 24.5237C34.0086 24.4843 33.9191 24.4258 33.8429 24.3486C33.7667 24.2713 33.7071 24.1756 33.6633 24.0616C33.6196 23.9475 33.5977 23.8155 33.5977 23.665C33.5977 23.5484 33.6165 23.4385 33.6546 23.3353C33.6927 23.2325 33.7471 23.1428 33.8184 23.0667C33.8893 22.9905 33.9761 22.9301 34.0788 22.8855C34.1814 22.8409 34.2969 22.8184 34.4255 22.8184ZM34.4338 23.1136C34.3131 23.1136 34.2184 23.1477 34.1501 23.2153C34.0818 23.2832 34.038 23.3792 34.0192 23.5041H34.7979C34.7979 23.4508 34.7908 23.4006 34.7761 23.3529C34.7613 23.3057 34.7391 23.2644 34.7089 23.2288C34.6787 23.1931 34.6406 23.165 34.5946 23.1443C34.5485 23.1237 34.4953 23.1136 34.4338 23.1136Z" fill="#D2DBF0"/>
<path d="M36.8572 24.5559H36.6708C36.6316 24.5559 36.601 24.5499 36.5784 24.5383C36.5557 24.5267 36.5391 24.5031 36.5282 24.4674L36.4912 24.3455C36.4474 24.3845 36.4048 24.4186 36.3629 24.4479C36.3211 24.4775 36.2777 24.5023 36.2327 24.5222C36.1879 24.5421 36.1403 24.5571 36.0901 24.5672C36.04 24.5773 35.9837 24.5822 35.9222 24.5822C35.8494 24.5822 35.7822 24.5724 35.7207 24.5529C35.6592 24.5334 35.6064 24.5042 35.5622 24.4652C35.5181 24.4261 35.4837 24.3774 35.4588 24.3196C35.4343 24.2615 35.4219 24.1939 35.4219 24.117C35.4219 24.0521 35.4389 23.9883 35.4732 23.9253C35.5072 23.8623 35.5641 23.8053 35.6437 23.7546C35.7233 23.704 35.829 23.6616 35.9611 23.6282C36.0932 23.5948 36.2569 23.5779 36.4527 23.5779V23.477C36.4527 23.3615 36.4286 23.2759 36.3795 23.2204C36.3309 23.1649 36.2599 23.1372 36.1671 23.1372C36.0999 23.1372 36.0441 23.145 35.9992 23.1604C35.9543 23.1762 35.9154 23.1934 35.8826 23.2129C35.8498 23.2324 35.8192 23.2501 35.7913 23.2655C35.7633 23.2812 35.7324 23.2887 35.6988 23.2887C35.6709 23.2887 35.6468 23.2816 35.6268 23.267C35.6068 23.2523 35.5905 23.2347 35.5781 23.2137L35.5026 23.082C35.7007 22.9019 35.9396 22.8115 36.2195 22.8115C36.3203 22.8115 36.4101 22.828 36.489 22.8607C36.5678 22.8937 36.6346 22.9391 36.6897 22.9976C36.7448 23.0561 36.7863 23.1259 36.8146 23.2069C36.8432 23.2879 36.8572 23.3772 36.8572 23.474V24.5559ZM36.0513 24.299C36.0939 24.299 36.1328 24.2952 36.1686 24.2873C36.2044 24.2798 36.2384 24.2682 36.2701 24.2528C36.3018 24.2375 36.3328 24.2187 36.3626 24.1962C36.3924 24.1736 36.4222 24.1474 36.4524 24.1167V23.83C36.3316 23.83 36.2305 23.8375 36.1493 23.8529C36.0683 23.8679 36.0029 23.8874 35.9539 23.9111C35.9045 23.9347 35.8697 23.9621 35.849 23.9936C35.8282 24.0247 35.8181 24.0592 35.8181 24.096C35.8181 24.1688 35.8396 24.2209 35.8826 24.2525C35.9256 24.2836 35.9818 24.299 36.0513 24.299Z" fill="#D2DBF0"/>
<path d="M37.7077 22.0762V24.5562H37.293V22.0762H37.7077Z" fill="#D2DBF0"/>
<path d="M39.5349 22.8184C39.6435 22.8184 39.7432 22.8356 39.8345 22.8701C39.9258 22.9046 40.0043 22.9549 40.0703 23.0213C40.1364 23.0877 40.1877 23.1687 40.2246 23.2651C40.2616 23.3612 40.2801 23.4711 40.2801 23.5949C40.2801 23.626 40.2786 23.6519 40.2759 23.6725C40.2733 23.6932 40.268 23.7093 40.2608 23.7209C40.2537 23.7326 40.2439 23.7412 40.2315 23.7461C40.219 23.751 40.2035 23.7536 40.1843 23.7536H39.1202C39.1327 23.9295 39.1802 24.0585 39.2628 24.1407C39.3455 24.2233 39.4553 24.2641 39.5918 24.2641C39.659 24.2641 39.7167 24.2563 39.7654 24.2409C39.8141 24.2251 39.8568 24.2079 39.893 24.1891C39.9292 24.1704 39.9613 24.1531 39.9888 24.1373C40.0164 24.1216 40.0428 24.1141 40.0684 24.1141C40.0854 24.1141 40.0997 24.1175 40.1122 24.1242C40.1247 24.131 40.1352 24.1403 40.1443 24.1527L40.265 24.3028C40.219 24.3561 40.1676 24.4011 40.1107 24.4371C40.0537 24.4731 39.9941 24.502 39.9318 24.5237C39.8696 24.5455 39.8065 24.5605 39.742 24.5695C39.6775 24.5785 39.6153 24.583 39.5549 24.583C39.4353 24.583 39.3239 24.5631 39.2209 24.5237C39.1179 24.4843 39.0285 24.4258 38.9523 24.3486C38.8761 24.2713 38.8164 24.1756 38.7727 24.0616C38.7289 23.9475 38.707 23.8155 38.707 23.665C38.707 23.5484 38.7259 23.4385 38.764 23.3353C38.8021 23.2325 38.8564 23.1428 38.9277 23.0667C38.9987 22.9905 39.0855 22.9301 39.1881 22.8855C39.2907 22.8409 39.4062 22.8184 39.5349 22.8184ZM39.5432 23.1136C39.4224 23.1136 39.3277 23.1477 39.2594 23.2153C39.1911 23.2832 39.1474 23.3792 39.1285 23.5041H39.9073C39.9073 23.4508 39.9001 23.4006 39.8854 23.3529C39.8707 23.3057 39.8484 23.2644 39.8182 23.2288C39.7881 23.1931 39.75 23.165 39.7039 23.1443C39.6579 23.1237 39.6047 23.1136 39.5432 23.1136Z" fill="#D2DBF0"/>
<path d="M41.6419 23.1789C41.6305 23.1965 41.6189 23.2092 41.6068 23.2164C41.5943 23.2235 41.5789 23.2273 41.5596 23.2273C41.5396 23.2273 41.5177 23.2216 41.4951 23.2107C41.4721 23.1999 41.4457 23.1871 41.4155 23.1732C41.3853 23.1593 41.3509 23.147 41.3121 23.1357C41.2736 23.1249 41.2279 23.1192 41.1751 23.1192C41.0932 23.1192 41.0291 23.1365 40.9819 23.171C40.9347 23.2055 40.9114 23.2505 40.9114 23.306C40.9114 23.3428 40.9234 23.3736 40.9476 23.3987C40.9717 23.4238 41.0034 23.4456 41.0434 23.4647C41.083 23.4835 41.1283 23.5007 41.1785 23.5157C41.2291 23.5307 41.2804 23.5473 41.3328 23.5649C41.3853 23.5825 41.437 23.6032 41.4872 23.6257C41.5377 23.6485 41.5826 23.6774 41.6223 23.7123C41.6619 23.7472 41.6939 23.7896 41.7181 23.8384C41.7423 23.8871 41.7543 23.9464 41.7543 24.0151C41.7543 24.0972 41.7392 24.1734 41.709 24.2428C41.6788 24.3121 41.6347 24.3726 41.5766 24.4232C41.5185 24.4738 41.4464 24.5132 41.3607 24.5417C41.2751 24.5703 41.177 24.5841 41.0661 24.5841C41.0068 24.5841 40.9487 24.5789 40.8925 24.5684C40.8359 24.5579 40.7815 24.5433 40.7298 24.5241C40.6778 24.5054 40.6299 24.4828 40.5853 24.4573C40.5412 24.4318 40.5023 24.4041 40.4688 24.3737L40.5646 24.2169C40.577 24.1981 40.5914 24.1835 40.6083 24.1734C40.6249 24.1633 40.6465 24.1584 40.6721 24.1584C40.6978 24.1584 40.7223 24.1655 40.7453 24.1801C40.7683 24.1947 40.7947 24.2101 40.8249 24.227C40.8551 24.2439 40.8906 24.2593 40.9313 24.2739C40.9721 24.2885 41.0238 24.2957 41.0865 24.2957C41.1359 24.2957 41.1781 24.2897 41.2132 24.278C41.2483 24.2664 41.2777 24.251 41.3004 24.2322C41.323 24.2135 41.34 24.1913 41.3509 24.1662C41.3615 24.1411 41.3668 24.1152 41.3668 24.0886C41.3668 24.0484 41.3547 24.0158 41.3305 23.9899C41.3064 23.9641 41.2747 23.9419 41.2347 23.9232C41.1951 23.9044 41.1498 23.8871 41.0989 23.8721C41.048 23.8571 40.9959 23.8406 40.9427 23.823C40.8894 23.8053 40.8374 23.7843 40.7864 23.7603C40.7355 23.7363 40.6902 23.7059 40.6506 23.6692C40.611 23.6324 40.5789 23.5874 40.5548 23.5341C40.5306 23.4809 40.5185 23.4163 40.5185 23.3406C40.5185 23.2704 40.5325 23.2036 40.5604 23.1402C40.5884 23.0768 40.6295 23.0213 40.6838 22.974C40.7382 22.9268 40.8057 22.8889 40.8868 22.8608C40.968 22.8322 41.0615 22.8184 41.168 22.8184C41.2864 22.8184 41.3947 22.8378 41.492 22.8769C41.5894 22.9159 41.6705 22.9669 41.7354 23.0303L41.6419 23.1789Z" fill="#D2DBF0"/>
<path d="M42.6515 24.5835C42.5028 24.5835 42.3882 24.5415 42.3074 24.4575C42.2267 24.3734 42.1867 24.2575 42.1867 24.1093V23.1531H42.012C41.9897 23.1531 41.9704 23.146 41.9542 23.1314C41.938 23.1167 41.9297 23.0954 41.9297 23.0661V22.9025L42.2066 22.8575L42.2938 22.3905C42.2983 22.3683 42.3085 22.3511 42.3247 22.3387C42.341 22.3263 42.3614 22.3203 42.3859 22.3203H42.601V22.8594H43.0541V23.1531H42.601V24.0808C42.601 24.1341 42.6146 24.1761 42.6413 24.2061C42.6681 24.2362 42.704 24.2511 42.7489 24.2511C42.7745 24.2511 42.796 24.2482 42.8134 24.2418C42.8308 24.2354 42.8458 24.2294 42.8587 24.2227C42.8715 24.2159 42.8828 24.2095 42.893 24.2035C42.9032 24.1975 42.913 24.1941 42.9232 24.1941C42.9357 24.1941 42.9455 24.1972 42.9534 24.2035C42.9613 24.2095 42.9696 24.2189 42.9786 24.2313L43.1028 24.4316C43.0424 24.4815 42.973 24.5194 42.8945 24.5449C42.8161 24.5704 42.7349 24.5831 42.6511 24.5831L42.6515 24.5835Z" fill="#D2DBF0"/>
<path d="M44.7361 24.5559H44.5497C44.5105 24.5559 44.4799 24.5499 44.4573 24.5383C44.4347 24.5267 44.418 24.5031 44.4071 24.4674L44.3701 24.3455C44.3264 24.3845 44.2837 24.4186 44.2418 24.4479C44.1999 24.4775 44.1566 24.5023 44.1116 24.5222C44.0667 24.5421 44.0192 24.5571 43.969 24.5672C43.9188 24.5773 43.8626 24.5822 43.8011 24.5822C43.7283 24.5822 43.6611 24.5724 43.5996 24.5529C43.5381 24.5334 43.4853 24.5042 43.4411 24.4652C43.397 24.4261 43.3626 24.3774 43.3377 24.3196C43.3132 24.2615 43.3008 24.1939 43.3008 24.117C43.3008 24.0521 43.3177 23.9883 43.3521 23.9253C43.386 23.8623 43.443 23.8053 43.5226 23.7546C43.6022 23.704 43.7079 23.6616 43.84 23.6282C43.972 23.5948 44.1358 23.5779 44.3316 23.5779V23.477C44.3316 23.3615 44.3075 23.2759 44.2584 23.2204C44.2098 23.1649 44.1388 23.1372 44.046 23.1372C43.9788 23.1372 43.923 23.145 43.8781 23.1604C43.8332 23.1762 43.7943 23.1934 43.7615 23.2129C43.7287 23.2324 43.6981 23.2501 43.6702 23.2655C43.6422 23.2812 43.6113 23.2887 43.5777 23.2887C43.5498 23.2887 43.5257 23.2816 43.5056 23.267C43.4857 23.2523 43.4694 23.2347 43.457 23.2137L43.3815 23.082C43.5796 22.9019 43.8185 22.8115 44.0984 22.8115C44.1992 22.8115 44.289 22.828 44.3679 22.8607C44.4467 22.8937 44.5135 22.9391 44.5686 22.9976C44.6237 23.0561 44.6652 23.1259 44.6935 23.2069C44.7222 23.2879 44.7361 23.3772 44.7361 23.474V24.5559ZM43.9306 24.299C43.9732 24.299 44.012 24.2952 44.0479 24.2873C44.0837 24.2798 44.1177 24.2682 44.1494 24.2528C44.1811 24.2375 44.212 24.2187 44.2418 24.1962C44.2716 24.1736 44.3015 24.1474 44.3316 24.1167V23.83C44.2109 23.83 44.1098 23.8375 44.0286 23.8529C43.9475 23.8679 43.8822 23.8874 43.8332 23.9111C43.7838 23.9347 43.749 23.9621 43.7283 23.9936C43.7075 24.0247 43.6973 24.0592 43.6973 24.096C43.6973 24.1688 43.7188 24.2209 43.7619 24.2525C43.8049 24.2836 43.8611 24.299 43.9306 24.299Z" fill="#D2DBF0"/>
<path d="M45.7062 24.5835C45.5575 24.5835 45.4428 24.5415 45.3621 24.4575C45.2813 24.3734 45.2413 24.2575 45.2413 24.1093V23.1531H45.0666C45.0444 23.1531 45.0251 23.146 45.0089 23.1314C44.9927 23.1167 44.9844 23.0954 44.9844 23.0661V22.9025L45.2613 22.8575L45.3485 22.3905C45.3531 22.3683 45.3632 22.3511 45.3795 22.3387C45.3957 22.3263 45.4161 22.3203 45.4406 22.3203H45.6557V22.8594H46.1088V23.1531H45.6557V24.0808C45.6557 24.1341 45.6692 24.1761 45.696 24.2061C45.7228 24.2362 45.7587 24.2511 45.8036 24.2511C45.8292 24.2511 45.8507 24.2482 45.8681 24.2418C45.8855 24.2354 45.9006 24.2294 45.9134 24.2227C45.9262 24.2159 45.9375 24.2095 45.9477 24.2035C45.9579 24.1975 45.9677 24.1941 45.9779 24.1941C45.9903 24.1941 46.0001 24.1972 46.0081 24.2035C46.016 24.2095 46.0243 24.2189 46.0334 24.2313L46.1575 24.4316C46.0971 24.4815 46.0277 24.5194 45.9492 24.5449C45.8707 24.5704 45.7896 24.5831 45.7058 24.5831L45.7062 24.5835Z" fill="#D2DBF0"/>
<path d="M47.1521 22.8184C47.2608 22.8184 47.3603 22.8356 47.4517 22.8701C47.543 22.9046 47.6216 22.9549 47.6874 23.0213C47.7536 23.0877 47.8048 23.1687 47.8417 23.2651C47.8786 23.3612 47.8975 23.4711 47.8975 23.5949C47.8975 23.626 47.8956 23.6519 47.8933 23.6725C47.8904 23.6932 47.8852 23.7093 47.8781 23.7209C47.871 23.7326 47.8611 23.7412 47.8488 23.7461C47.836 23.751 47.8208 23.7536 47.8014 23.7536H46.7374C46.7498 23.9295 46.7974 24.0585 46.88 24.1407C46.9627 24.2233 47.0725 24.2641 47.2091 24.2641C47.2762 24.2641 47.3338 24.2563 47.3825 24.2409C47.4313 24.2251 47.4739 24.2079 47.5103 24.1891C47.5463 24.1704 47.5785 24.1531 47.606 24.1373C47.6334 24.1216 47.6599 24.1141 47.6855 24.1141C47.7025 24.1141 47.7167 24.1175 47.7295 24.1242C47.7418 24.131 47.7522 24.1403 47.7617 24.1527L47.8824 24.3028C47.836 24.3561 47.7849 24.4011 47.7281 24.4371C47.6708 24.4731 47.6112 24.502 47.5492 24.5237C47.4867 24.5455 47.4237 24.5605 47.3594 24.5695C47.2947 24.5785 47.2325 24.583 47.1721 24.583C47.0524 24.583 46.9412 24.5631 46.8381 24.5237C46.7351 24.4843 46.6457 24.4258 46.5695 24.3486C46.4932 24.2713 46.4337 24.1756 46.3899 24.0616C46.3461 23.9475 46.3242 23.8155 46.3242 23.665C46.3242 23.5484 46.3431 23.4385 46.3812 23.3353C46.4193 23.2325 46.4737 23.1428 46.5449 23.0667C46.6159 22.9905 46.7027 22.9301 46.8053 22.8855C46.9076 22.8409 47.0234 22.8184 47.1521 22.8184ZM47.1604 23.1136C47.0396 23.1136 46.9449 23.1477 46.8766 23.2153C46.8083 23.2832 46.7646 23.3792 46.7457 23.5041H47.5245C47.5245 23.4508 47.5174 23.4006 47.5028 23.3529C47.4881 23.3057 47.4659 23.2644 47.4356 23.2288C47.4053 23.1931 47.3669 23.165 47.3211 23.1443C47.2751 23.1237 47.2219 23.1136 47.1604 23.1136Z" fill="#D2DBF0"/>
<path d="M50.0966 24.5562C50.0432 24.5562 50.0077 24.5311 49.9911 24.4812L49.9575 24.3161C49.9215 24.3563 49.8836 24.3923 49.8448 24.4245C49.8055 24.4568 49.7634 24.4846 49.718 24.5078C49.673 24.5311 49.6242 24.5495 49.5722 24.5622C49.5201 24.575 49.4638 24.5813 49.4037 24.5813C49.3095 24.5813 49.2233 24.5619 49.1452 24.5229C49.0667 24.4838 48.9995 24.4276 48.9427 24.3533C48.8863 24.279 48.8428 24.1878 48.812 24.0787C48.7808 23.9699 48.7656 23.845 48.7656 23.705C48.7656 23.5782 48.7831 23.4601 48.8177 23.3513C48.8527 23.2421 48.9024 23.1476 48.9673 23.0677C49.0321 22.9874 49.1097 22.9247 49.2006 22.8797C49.291 22.8347 49.3928 22.8122 49.5059 22.8122C49.6025 22.8122 49.6848 22.8276 49.753 22.858C49.8212 22.8887 49.8817 22.9296 49.9357 22.9806V22.0762H50.3508V24.5562H50.0966ZM49.5443 24.2539C49.6304 24.2539 49.7033 24.2362 49.7644 24.2006C49.8249 24.165 49.8817 24.1143 49.9357 24.0487V23.2811C49.8888 23.2245 49.8372 23.1844 49.7819 23.1611C49.7265 23.1378 49.6673 23.1262 49.603 23.1262C49.5391 23.1262 49.4837 23.1378 49.4326 23.1611C49.3814 23.1844 49.3388 23.2196 49.3033 23.2669C49.2683 23.3141 49.2413 23.3741 49.2219 23.4469C49.203 23.5197 49.1935 23.6056 49.1935 23.7046C49.1935 23.8037 49.2016 23.8896 49.2177 23.959C49.2342 24.0284 49.2574 24.0851 49.2877 24.1293C49.318 24.1732 49.3549 24.2051 49.3985 24.2246C49.4425 24.2441 49.4908 24.2539 49.5443 24.2539Z" fill="#D2DBF0"/>
<path d="M51.508 22.8184C51.6169 22.8184 51.7163 22.8356 51.8076 22.8701C51.899 22.9046 51.9776 22.9549 52.0434 23.0213C52.1096 23.0877 52.1607 23.1687 52.1977 23.2651C52.2346 23.3612 52.2535 23.4711 52.2535 23.5949C52.2535 23.626 52.2516 23.6519 52.2493 23.6725C52.2464 23.6932 52.2412 23.7093 52.2341 23.7209C52.227 23.7326 52.2171 23.7412 52.2048 23.7461C52.192 23.751 52.1768 23.7536 52.1574 23.7536H51.0929C51.1057 23.9295 51.153 24.0585 51.2359 24.1407C51.3182 24.2233 51.428 24.2641 51.5648 24.2641C51.632 24.2641 51.6898 24.2563 51.7381 24.2409C51.7868 24.2251 51.8294 24.2079 51.8659 24.1891C51.9018 24.1704 51.934 24.1531 51.9615 24.1373C51.9889 24.1216 52.0154 24.1141 52.0415 24.1141C52.058 24.1141 52.0727 24.1175 52.085 24.1242C52.0973 24.131 52.1082 24.1403 52.1172 24.1527L52.2379 24.3028C52.192 24.3561 52.1404 24.4011 52.0836 24.4371C52.0263 24.4731 51.9667 24.502 51.9047 24.5237C51.8427 24.5455 51.7792 24.5605 51.7149 24.5695C51.6505 24.5785 51.588 24.583 51.5279 24.583C51.4081 24.583 51.2964 24.5631 51.1937 24.5237C51.0905 24.4843 51.0011 24.4258 50.9249 24.3486C50.8487 24.2713 50.789 24.1756 50.7455 24.0616C50.7019 23.9475 50.6797 23.8155 50.6797 23.665C50.6797 23.5484 50.6986 23.4385 50.737 23.3353C50.7748 23.2325 50.8293 23.1428 50.9007 23.0667C50.9717 22.9905 51.0584 22.9301 51.1611 22.8855C51.2638 22.8409 51.3788 22.8187 51.5071 22.8187L51.508 22.8184ZM51.5165 23.1136C51.3958 23.1136 51.3007 23.1477 51.2325 23.2153C51.1644 23.2832 51.1204 23.3792 51.1019 23.5041H51.8805C51.8805 23.4508 51.8734 23.4006 51.8588 23.3529C51.8441 23.3053 51.8218 23.2644 51.7915 23.2288C51.7613 23.1931 51.7229 23.165 51.6775 23.1443C51.6316 23.1237 51.5781 23.1136 51.5165 23.1136Z" fill="#D2DBF0"/>
<path d="M53.3972 24.5559H53.0209L52.3359 22.8438H52.6801C52.7103 22.8438 52.7354 22.8509 52.7563 22.8655C52.7771 22.8801 52.7913 22.8985 52.7989 22.9206L53.1316 23.8352C53.1505 23.8885 53.1666 23.941 53.1794 23.992C53.1922 24.043 53.2036 24.0944 53.2135 24.1455C53.2239 24.0944 53.2353 24.043 53.2481 23.992C53.2608 23.941 53.2774 23.8885 53.2973 23.8352L53.6381 22.9206C53.6461 22.8985 53.6603 22.8801 53.6802 22.8655C53.7006 22.8512 53.7242 22.8438 53.7522 22.8438H54.0792L53.3962 24.5559H53.3972Z" fill="#D2DBF0"/>
<path d="M54.9846 22.8184C55.093 22.8184 55.1928 22.8356 55.2842 22.8701C55.3756 22.9046 55.4541 22.9549 55.5199 23.0213C55.5862 23.0877 55.6373 23.1687 55.6742 23.2651C55.7112 23.3612 55.7296 23.4711 55.7296 23.5949C55.7296 23.626 55.7282 23.6519 55.7258 23.6725C55.723 23.6932 55.7178 23.7093 55.7107 23.7209C55.7036 23.7326 55.6936 23.7412 55.6809 23.7461C55.6686 23.751 55.6529 23.7536 55.634 23.7536H54.5695C54.5818 23.9295 54.6296 24.0585 54.7119 24.1407C54.7948 24.2233 54.9046 24.2641 55.0409 24.2641C55.1081 24.2641 55.1659 24.2563 55.2146 24.2409C55.2634 24.2251 55.306 24.2079 55.3424 24.1891C55.3784 24.1704 55.4106 24.1531 55.438 24.1373C55.4655 24.1216 55.492 24.1141 55.5176 24.1141C55.5341 24.1141 55.5488 24.1175 55.5616 24.1242C55.5739 24.131 55.5843 24.1403 55.5938 24.1527L55.7145 24.3028C55.6681 24.3561 55.617 24.4011 55.5602 24.4371C55.5029 24.4731 55.4432 24.502 55.3812 24.5237C55.3192 24.5455 55.2558 24.5605 55.1914 24.5695C55.1266 24.5785 55.0646 24.583 55.004 24.583C54.8847 24.583 54.773 24.5631 54.6703 24.5237C54.5671 24.4843 54.4776 24.4258 54.4014 24.3486C54.3252 24.2713 54.2656 24.1756 54.222 24.0616C54.178 23.9475 54.1562 23.8155 54.1562 23.665C54.1562 23.5484 54.1752 23.4385 54.213 23.3353C54.2514 23.2325 54.3058 23.1428 54.3768 23.0667C54.4478 22.9905 54.5349 22.9301 54.6376 22.8855C54.7399 22.8409 54.8549 22.8187 54.9836 22.8187L54.9846 22.8184ZM54.9926 23.1136C54.8719 23.1136 54.7773 23.1477 54.7091 23.2153C54.6409 23.2832 54.5969 23.3792 54.578 23.5041H55.3571C55.3571 23.4508 55.35 23.4006 55.3348 23.3529C55.3202 23.3053 55.2979 23.2644 55.2681 23.2288C55.2378 23.1931 55.1995 23.165 55.154 23.1443C55.1081 23.1237 55.0542 23.1136 54.9926 23.1136Z" fill="#D2DBF0"/>
<path d="M56.5084 22.0762V24.5562H56.0938V22.0762H56.5084Z" fill="#D2DBF0"/>
<path d="M57.7098 22.8184C57.8386 22.8184 57.955 22.839 58.0601 22.8799C58.1647 22.9211 58.2537 22.9793 58.3275 23.0551C58.4009 23.1308 58.4586 23.2231 58.4989 23.3323C58.5391 23.4415 58.559 23.563 58.559 23.6977C58.559 23.8323 58.5386 23.9558 58.4989 24.0649C58.4586 24.1741 58.4014 24.2668 58.3275 24.3437C58.2537 24.4206 58.1647 24.4795 58.0601 24.5208C57.9555 24.562 57.8386 24.5823 57.7098 24.5823C57.5811 24.5823 57.4642 24.5617 57.3591 24.5208C57.2535 24.4795 57.1636 24.4206 57.0893 24.3437C57.015 24.2668 56.9572 24.1741 56.9165 24.0649C56.8758 23.9558 56.8555 23.8335 56.8555 23.6977C56.8555 23.5619 56.8758 23.4411 56.9165 23.3323C56.9572 23.2231 57.015 23.1308 57.0893 23.0551C57.1636 22.9793 57.2535 22.9211 57.3591 22.8799C57.4642 22.8386 57.5811 22.8184 57.7098 22.8184ZM57.7098 24.2653C57.8533 24.2653 57.9588 24.2172 58.0279 24.1216C58.0965 24.0259 58.1311 23.8856 58.1311 23.701C58.1311 23.5165 58.097 23.3754 58.0279 23.2786C57.9593 23.1818 57.8533 23.1335 57.7098 23.1335C57.5664 23.1335 57.4571 23.1822 57.3875 23.2794C57.3179 23.3769 57.2834 23.5172 57.2834 23.7007C57.2834 23.8841 57.3179 24.0241 57.3875 24.1205C57.4571 24.2169 57.5645 24.2653 57.7098 24.2653Z" fill="#D2DBF0"/>
<path d="M58.8833 25.1145V22.8434H59.137C59.1635 22.8434 59.1867 22.8494 59.2056 22.8618C59.2246 22.8742 59.2369 22.8929 59.2425 22.9184L59.2762 23.0771C59.3457 22.998 59.4253 22.9342 59.5152 22.8851C59.6056 22.8363 59.7107 22.8115 59.8318 22.8115C59.926 22.8115 60.0117 22.8311 60.0898 22.8701C60.1674 22.9091 60.2347 22.9654 60.291 23.0396C60.3478 23.1135 60.3913 23.2047 60.4221 23.3135C60.4529 23.4219 60.468 23.5464 60.468 23.6863C60.468 23.8143 60.451 23.9328 60.4159 24.042C60.3814 24.1511 60.3317 24.2457 60.2673 24.3256C60.2029 24.4059 60.1253 24.4685 60.034 24.5135C59.9426 24.5586 59.8408 24.5811 59.7272 24.5811C59.6302 24.5811 59.5474 24.5664 59.4797 24.5368C59.4125 24.5071 59.3514 24.4663 59.2975 24.4141V25.1149H58.8828L58.8833 25.1145ZM59.6889 23.1368C59.6028 23.1368 59.5294 23.1548 59.4683 23.1911C59.4073 23.2272 59.3505 23.2782 59.2975 23.3439V24.1114C59.3448 24.1692 59.3959 24.2097 59.4513 24.2322C59.5067 24.2551 59.5663 24.2663 59.6302 24.2663C59.6936 24.2663 59.7495 24.2547 59.8006 24.2314C59.8517 24.2082 59.8948 24.1726 59.9298 24.1245C59.9653 24.0769 59.9923 24.0165 60.0117 23.9433C60.0306 23.8705 60.0401 23.7847 60.0401 23.6856C60.0401 23.5866 60.0321 23.5007 60.016 23.4312C59.9999 23.3619 59.9767 23.3052 59.9464 23.2617C59.9161 23.2182 59.8797 23.1867 59.8366 23.1664C59.7935 23.1465 59.7443 23.1364 59.6898 23.1364L59.6889 23.1368Z" fill="#D2DBF0"/>
<path d="M61.4963 22.8184C61.6047 22.8184 61.7046 22.8356 61.7959 22.8701C61.8873 22.9046 61.9654 22.9549 62.0316 23.0213C62.0974 23.0877 62.149 23.1687 62.1859 23.2651C62.2229 23.3612 62.2413 23.4711 62.2413 23.5949C62.2413 23.626 62.2399 23.6519 62.2371 23.6725C62.2347 23.6932 62.2295 23.7093 62.2224 23.7209C62.2148 23.7326 62.2054 23.7412 62.1926 23.7461C62.1803 23.751 62.1646 23.7536 62.1457 23.7536H61.0812C61.0935 23.9295 61.1413 24.0585 61.2237 24.1407C61.3065 24.2233 61.4163 24.2641 61.5526 24.2641C61.6198 24.2641 61.6776 24.2563 61.7263 24.2409C61.7751 24.2251 61.8177 24.2079 61.8537 24.1891C61.8901 24.1704 61.9223 24.1531 61.9498 24.1373C61.9772 24.1216 62.0037 24.1141 62.0293 24.1141C62.0458 24.1141 62.0605 24.1175 62.0733 24.1242C62.0856 24.131 62.096 24.1403 62.105 24.1527L62.2257 24.3028C62.1798 24.3561 62.1287 24.4011 62.0714 24.4371C62.0146 24.4731 61.955 24.502 61.893 24.5237C61.8309 24.5455 61.7675 24.5605 61.7031 24.5695C61.6383 24.5785 61.5763 24.583 61.5157 24.583C61.396 24.583 61.2847 24.5631 61.182 24.5237C61.0788 24.4843 60.9894 24.4258 60.9132 24.3486C60.8369 24.2713 60.7773 24.1756 60.7338 24.0616C60.6897 23.9475 60.668 23.8155 60.668 23.665C60.668 23.5484 60.6869 23.4385 60.7248 23.3353C60.7631 23.2325 60.8175 23.1428 60.8885 23.0667C60.9595 22.9905 61.0466 22.9301 61.1489 22.8855C61.2516 22.8409 61.3666 22.8187 61.4954 22.8187L61.4963 22.8184ZM61.5043 23.1136C61.3836 23.1136 61.289 23.1477 61.2208 23.2153C61.1527 23.2832 61.1086 23.3792 61.0897 23.5041H61.8688C61.8688 23.4508 61.8612 23.4006 61.8466 23.3529C61.8319 23.3053 61.8096 23.2644 61.7794 23.2288C61.7495 23.1931 61.7112 23.165 61.6657 23.1443C61.6194 23.1237 61.5659 23.1136 61.5043 23.1136Z" fill="#D2DBF0"/>
<path d="M62.5781 24.5552V22.8431H62.8214C62.864 22.8431 62.8934 22.8509 62.9104 22.8663C62.9275 22.8817 62.9383 22.9087 62.944 22.9466L62.9696 23.1536C63.0311 23.0479 63.1031 22.9646 63.1859 22.9034C63.2687 22.8423 63.362 22.8115 63.4647 22.8115C63.5499 22.8115 63.6199 22.8311 63.6763 22.8701L63.6228 23.1788C63.619 23.1987 63.6119 23.2129 63.6005 23.2212C63.5892 23.2295 63.5745 23.2339 63.5556 23.2339C63.539 23.2339 63.5158 23.2302 63.4869 23.2223C63.4576 23.2144 63.4192 23.2107 63.371 23.2107C63.2848 23.2107 63.211 23.2343 63.1494 23.2816C63.0879 23.3288 63.0358 23.3983 62.9932 23.4894V24.5559H62.5786L62.5781 24.5552Z" fill="#D2DBF0"/>
<path d="M64.9703 23.1789C64.9589 23.1965 64.9475 23.2092 64.9352 23.2164C64.9229 23.2235 64.9073 23.2273 64.8884 23.2273C64.868 23.2273 64.8467 23.2216 64.8235 23.2107C64.8008 23.1999 64.7743 23.1871 64.744 23.1732C64.7137 23.1593 64.6796 23.147 64.6408 23.1357C64.602 23.1249 64.5566 23.1192 64.5036 23.1192C64.4221 23.1192 64.3578 23.1365 64.3104 23.171C64.2631 23.2055 64.2399 23.2505 64.2399 23.306C64.2399 23.3428 64.2522 23.3736 64.2764 23.3987C64.3005 23.4238 64.3322 23.4456 64.372 23.4647C64.4122 23.4839 64.4567 23.5007 64.5069 23.5157C64.557 23.5307 64.6091 23.5473 64.6617 23.5649C64.7137 23.5825 64.7658 23.6032 64.816 23.6257C64.8661 23.6481 64.9111 23.6774 64.9509 23.7123C64.9906 23.7472 65.0223 23.7896 65.0465 23.8384C65.0706 23.8871 65.0829 23.9464 65.0829 24.0151C65.0829 24.0972 65.0678 24.1734 65.0375 24.2428C65.0077 24.3121 64.9632 24.3726 64.9049 24.4232C64.8472 24.4738 64.7748 24.5132 64.6891 24.5417C64.6039 24.5703 64.5055 24.5841 64.3947 24.5841C64.3355 24.5841 64.2773 24.5789 64.221 24.5684C64.1647 24.5579 64.1102 24.5433 64.0582 24.5241C64.0061 24.5054 63.9583 24.4828 63.9138 24.4573C63.8693 24.4318 63.8305 24.4041 63.7969 24.3737L63.893 24.2169C63.9053 24.1981 63.9195 24.1835 63.9365 24.1734C63.9531 24.1633 63.9749 24.1584 64.0004 24.1584C64.026 24.1584 64.0506 24.1655 64.0738 24.1801C64.0965 24.1947 64.123 24.2101 64.1533 24.227C64.1831 24.2439 64.2186 24.2593 64.2598 24.2739C64.3005 24.2885 64.3521 24.2957 64.415 24.2957C64.4643 24.2957 64.5064 24.2897 64.5419 24.278C64.5774 24.2664 64.6063 24.251 64.629 24.2322C64.6522 24.2135 64.6688 24.1913 64.6792 24.1662C64.6896 24.1411 64.6948 24.1152 64.6948 24.0886C64.6948 24.0484 64.683 24.0158 64.6588 23.9899C64.6347 23.9641 64.603 23.9419 64.5632 23.9232C64.5239 23.9044 64.478 23.8871 64.4274 23.8721C64.3767 23.8571 64.3246 23.8406 64.2712 23.823C64.2181 23.8053 64.1661 23.7843 64.115 23.7603C64.0643 23.7363 64.0189 23.7059 63.9791 23.6692C63.9398 23.6324 63.9076 23.5874 63.8835 23.5341C63.8594 23.4809 63.847 23.4163 63.847 23.3406C63.847 23.2704 63.8613 23.2036 63.8892 23.1402C63.9171 23.0768 63.9583 23.0213 64.0122 22.974C64.0667 22.9268 64.1344 22.8889 64.2153 22.8608C64.2967 22.8322 64.39 22.8184 64.4965 22.8184C64.6148 22.8184 64.7232 22.8378 64.8207 22.8769C64.9182 22.9159 64.9991 22.9669 65.064 23.0303L64.9703 23.1789Z" fill="#D2DBF0"/>
<path d="M32.9658 18.6949C31.8987 18.6949 31.9138 17.619 31.9138 17.1707V13.3604C31.9138 13.3342 31.9259 12.938 31.9138 12.9613C31.1716 15.3145 28.4541 14.7046 28.2786 16.2734C28.1911 17.1449 28.8627 17.7833 29.9 17.7833C30.7418 17.7833 31.1626 17.4547 31.6286 16.7521C31.4331 17.4993 30.5313 18.6945 29.1337 18.6945C28.233 18.6945 27.2289 18.3303 27.0516 17.0574C27.0406 16.9775 26.7471 15.6863 28.5401 14.8797C28.8054 14.7604 29.0839 14.6727 29.3668 14.6051C30.529 14.3279 31.1984 13.9002 31.5712 13.3222C31.7761 13.0044 31.887 12.6312 31.8779 12.2537C31.8606 11.5384 31.4591 10.8882 30.7184 10.7423C30.689 10.7367 30.6592 10.7314 30.629 10.7273C30.5177 10.7123 30.4007 10.6995 30.2758 10.6853C32.3047 10.6253 33.4922 11.5819 33.4922 13.3601V17.499C33.4922 17.843 33.5975 18.0073 33.7929 18.0073C33.8982 18.0073 33.9733 17.9026 34.0182 17.8129C33.9884 18.2759 33.5522 18.6945 32.9662 18.6945L32.9658 18.6949ZM27.57 11.7169C27.5771 11.131 28.3217 10.6857 30.0951 10.6857C29.1333 10.865 29.1933 12.4788 28.3217 12.4788C27.9009 12.4788 27.57 12.1348 27.57 11.7169Z" fill="#D2DBF0"/>
<path d="M61.8955 18.6949C60.8281 18.6949 60.8433 17.619 60.8433 17.1707V13.3604C60.8433 13.3342 60.8556 12.938 60.8433 12.9613C60.1011 15.3145 57.3837 14.7046 57.2081 16.2734C57.1205 17.1449 57.7922 17.7833 58.8297 17.7833C59.6713 17.7833 60.0921 17.4547 60.5583 16.7521C60.3629 17.4993 59.4607 18.6945 58.0634 18.6945C57.1626 18.6945 56.1587 18.3303 55.9812 17.0574C55.9703 16.9775 55.6768 15.6863 57.4698 14.8797C57.7349 14.7604 58.0132 14.6727 58.2963 14.6051C59.4588 14.3279 60.1281 13.9002 60.5006 13.3222C60.7055 13.0044 60.8168 12.6312 60.8078 12.2537C60.7903 11.5384 60.3889 10.8882 59.6481 10.7423C59.6188 10.7367 59.589 10.7314 59.5587 10.7273C59.4474 10.7123 59.3305 10.6995 59.2055 10.6853C61.2343 10.6253 62.4218 11.5819 62.4218 13.3601V17.499C62.4218 17.843 62.5269 18.0073 62.7224 18.0073C62.828 18.0073 62.9028 17.9026 62.9477 17.8129C62.9179 18.2759 62.482 18.6945 61.896 18.6945L61.8955 18.6949Z" fill="#D2DBF0"/>
<path d="M38.4956 18.6967C36.0758 18.6967 35.2193 17.5611 34.9336 16.8589L35.7452 16.052C36.1811 17.0682 36.8425 18.4873 38.4956 18.6967ZM41.9976 16.6646C41.9976 18.0394 40.4947 18.6967 39.0367 18.6967C39.7279 18.607 40.4045 18.308 40.4045 17.1425C40.4045 14.7071 35.0838 15.9323 35.0838 12.8392C35.0838 11.33 36.9625 10.7324 37.9092 10.7324C37.278 10.9118 36.6919 11.4797 36.6919 12.3909C36.6919 14.8264 41.9976 13.5265 41.9976 16.6646ZM38.4658 10.7324C40.8705 10.7324 41.8025 11.928 41.8025 12.4956C41.8025 12.9139 41.532 13.1829 41.1113 13.1829C40.0592 13.1829 40.4649 11.1357 38.4658 10.7324Z" fill="#D2DBF0"/>
<path d="M42.9141 6.69629H44.4921V18.5605H42.9141V6.69629ZM50.068 13.3607V18.5609H48.5051V13.3607C48.5051 11.7172 47.7085 11.3585 46.8217 11.3585C46.3259 11.3585 45.7097 11.5825 44.7928 12.1651C45.6497 11.4178 46.807 10.6859 48.009 10.6859C49.4371 10.6859 50.068 11.5825 50.068 13.3607Z" fill="#D2DBF0"/>
<path d="M53.0898 10.8818H51.5117V18.5625H53.0898V10.8818Z" fill="#D2DBF0"/>
<path d="M53.3125 15.0495C53.9737 12.4793 55.5821 10.7012 57.1153 10.7012C57.5361 10.7012 57.8669 11.0448 57.8669 11.4631C57.8669 12.793 54.4551 11.8518 53.313 15.0491L53.3125 15.0495Z" fill="#D2DBF0"/>
<path d="M65.7205 18.3819L63.7969 10.8656H65.4204L67.344 18.3819H65.7205ZM69.1323 10.8656H70.2896C69.9289 12.2701 67.4188 21.5943 64.7587 21.5943C64.3379 21.5943 64.0676 21.3253 64.0676 20.907C64.0676 19.8611 67.0435 20.2794 67.4794 18.3816L69.1328 10.8652L69.1323 10.8656Z" fill="#D2DBF0"/>
<path d="M3.77272 24.448C1.76156 24.8794 0.657113 23.8598 0.712957 22.2073C0.718997 21.2222 1.20236 20.2738 1.91098 19.3911C2.94222 18.1066 4.88775 17.009 6.76608 16.5074C8.0686 16.1593 10.0417 16.0404 12.1129 16.7201C13.398 15.2664 15.2066 12.9399 18.2101 11.6239C21.6819 9.97962 23.2105 10.3229 23.8549 10.9257L23.8678 10.9369C24.376 11.3744 24.4405 12.1351 24.0138 12.6513C23.6553 13.115 23.006 13.324 22.4245 13.0509C22.3117 12.9976 22.2075 12.9293 22.1173 12.8461C21.2747 12.065 19.9703 11.3312 18.3573 11.9836C15.4409 13.1631 12.6082 16.7231 12.5018 16.8582C13.5308 17.3027 15.2684 18.4957 15.3186 18.5459L16.44 21.1941C16.3435 21.0369 15.5095 19.4741 13.97 18.2424C13.6554 17.9907 12.6268 17.3031 12.243 17.1782C12.243 17.1782 7.44072 23.4686 3.7731 24.4488L3.77272 24.448ZM4.6568 23.2975C7.08492 22.4369 10.7299 18.3813 11.8446 17.0454C11.0144 16.794 10.1681 16.6792 9.33567 16.6792C6.5642 16.6792 4.39116 17.7323 3.01127 19.4508C2.86034 19.6387 2.73205 19.8301 2.62489 20.0221C2.37434 20.4708 2.23397 20.9716 2.20001 21.4837C2.11323 22.7959 2.73318 23.8598 4.6568 23.2975Z" fill="#D2DBF0"/>
<path d="M6.80791 10.779L7.40824 10.1769C8.50178 9.07995 10.3541 9.36621 11.0616 10.7411L17.6856 23.6141C17.9897 24.2053 18.6017 24.5774 19.2696 24.5774H21.0434L12.6067 7.98828C11.794 6.39021 9.53677 6.28857 8.58216 7.80711L6.74491 10.7295C6.71926 10.7704 6.77398 10.8131 6.80791 10.779Z" fill="#D2DBF0"/>
</svg>
