<svg width="133" height="35" viewBox="0 0 133 35" fill="none" xmlns="http://www.w3.org/2000/svg">
<g clip-path="url(#clip0_20084_3380)">
<path d="M132.462 6.02238C132.448 5.97325 132.433 5.92413 132.413 5.875C120.775 5.87991 109.142 5.875 97.5083 5.87991C97.4788 5.9143 97.4591 5.94869 97.4542 5.9929C97.4542 15.0176 97.4542 24.0373 97.4492 33.062C97.5229 33.5434 97.7882 33.9806 98.142 34.3098C98.1567 34.3147 98.1911 34.3195 98.2059 34.3245C98.3876 34.516 98.648 34.6095 98.8937 34.6979C99.0754 34.6881 99.2523 34.7667 99.4341 34.747H113.877C114.015 34.7421 114.157 34.7667 114.29 34.7127C114.295 34.6931 114.3 34.6586 114.305 34.639C114.31 34.6144 114.315 34.5604 114.32 34.531C114.629 32.8017 114.929 31.0675 115.258 29.3383L115.287 29.1172C113.951 29.1122 112.61 29.1172 111.274 29.1122C110.949 29.1024 110.616 29.1122 110.291 29.0728C109.736 29.0483 109.176 29.0679 108.621 29.0139C107.933 29.0139 107.25 28.95 106.563 28.95C106.022 28.896 105.477 28.9157 104.931 28.8911C104.578 28.847 104.214 28.8665 103.856 28.8517C103.271 28.7879 102.677 28.8322 102.092 28.7683C101.473 28.7733 100.854 28.7192 100.235 28.7044C100.24 28.6995 100.245 28.6798 100.245 28.6749C100.451 28.6798 100.653 28.6651 100.859 28.6602C101.316 28.6012 101.778 28.6405 102.235 28.5766C102.711 28.5766 103.183 28.5128 103.659 28.5128C104.082 28.4538 104.509 28.4883 104.931 28.4292C105.428 28.4292 105.914 28.3654 106.41 28.3605C106.818 28.3064 107.231 28.3359 107.638 28.2819C108.115 28.2868 108.587 28.2131 109.063 28.2181C109.53 28.1639 110.006 28.1786 110.473 28.1295C110.429 27.9479 110.394 27.766 110.355 27.5842C110.321 27.4712 110.183 27.4958 110.095 27.481C109.029 27.3286 107.968 27.1765 106.907 27.0291C106.975 26.9749 107.069 26.9995 107.147 26.9897C107.973 26.9258 108.793 26.8521 109.618 26.7932C109.805 26.7834 109.987 26.749 110.173 26.7441C110.09 26.4887 110.041 26.2086 109.928 25.9728C108.164 25.7026 106.4 25.4619 104.642 25.172C105.099 25.0983 105.56 25.064 106.017 25.0149L106.057 25.0001C107.516 24.8477 108.98 24.6757 110.439 24.5334C112.291 24.5236 114.138 24.5284 115.99 24.5334C116.049 24.5236 116.152 24.5529 116.162 24.4695C116.314 23.6736 116.462 22.8778 116.614 22.0819C116.825 20.9766 117.159 19.8859 117.675 18.8788C118.486 17.2576 119.768 15.8821 121.33 14.9683C122.789 14.1135 124.479 13.7009 126.159 13.6223C126.705 13.5731 127.255 13.5879 127.795 13.6567C128.149 13.7402 128.513 13.8384 128.793 14.0791C129.023 14.2658 129.161 14.5409 129.264 14.8161C129.49 15.4694 129.618 16.1474 129.726 16.8303C129.731 17.1054 129.78 17.4149 129.633 17.6654C129.495 17.9111 129.22 18.029 128.96 18.1027C128.011 18.3483 127.019 18.1174 126.071 18.3483C125.29 18.5153 124.563 18.9476 124.067 19.5716C123.482 20.2986 123.172 21.2024 123 22.1065C122.868 22.9122 122.701 23.7179 122.568 24.5285C123.502 24.5335 124.44 24.5235 125.378 24.5335C125.752 24.5335 126.135 24.7397 126.287 25.0934C126.484 25.5454 126.439 26.0564 126.376 26.5329C126.297 27.0684 126.169 27.5989 125.928 28.0902C125.727 28.5078 125.393 28.891 124.936 29.0384C124.7 29.1317 124.445 29.1121 124.194 29.1121C123.369 29.1121 122.543 29.1218 121.718 29.1121C121.586 29.7164 121.497 30.3353 121.379 30.9494C121.163 32.1432 120.952 33.3419 120.736 34.5406C120.731 34.58 120.726 34.6634 120.726 34.7077C121.114 34.7273 121.502 34.7077 121.89 34.7174C124.769 34.7174 127.653 34.7124 130.537 34.7174C130.846 34.7273 131.16 34.6536 131.431 34.5013C131.593 34.4424 131.691 34.2999 131.834 34.2213C131.971 34.1427 132.01 33.9807 132.128 33.8774C132.256 33.6514 132.389 33.4157 132.399 33.1503C132.413 33.1503 132.453 33.1454 132.472 33.1405C132.457 24.1012 132.472 15.0618 132.462 6.02238Z" fill="white" fill-opacity="0.8" stroke="#FCD109" stroke-width="0.0162035"/>
<path d="M102.031 0.0776704C102.449 -0.0549731 102.886 0.0334559 103.313 0.00397956C111.336 0.00889228 119.358 0.00397956 127.381 0.00397956C127.857 -0.0156713 128.275 0.254528 128.717 0.392085C129.071 0.534554 129.439 0.647546 129.793 0.79984C129.867 0.829317 129.921 0.893182 129.975 0.947222C129.97 1.5957 129.975 2.24909 129.975 2.90248C129.98 3.07443 129.95 3.25129 130.009 3.41832C130.112 3.43306 130.166 3.51166 130.235 3.57553C130.559 3.72291 130.834 3.96363 131.129 4.16014C131.571 4.47456 132.043 4.74967 132.475 5.07391C132.495 5.20164 132.48 5.33428 132.441 5.45219C132.397 5.58974 132.426 5.73713 132.411 5.87468C120.773 5.87959 109.14 5.87468 97.5063 5.87959C97.4818 5.71747 97.526 5.55535 97.4572 5.40306C97.4474 5.27533 97.4032 5.1083 97.526 5.01987C98.0173 4.67598 98.538 4.36648 99.0194 4.00293C99.3191 3.81134 99.6089 3.61483 99.8987 3.41832C99.9577 3.32007 99.938 3.19725 99.938 3.08917C99.938 2.37682 99.938 1.66448 99.9429 0.952135C100.11 0.735975 100.4 0.711411 100.631 0.603332C101.098 0.426474 101.569 0.254528 102.031 0.0776704ZM102.061 0.161187C101.432 0.40191 100.798 0.632808 100.169 0.873531C100.086 0.88827 100.041 0.96196 99.9972 1.02583C100.002 1.06513 100.007 1.13391 100.007 1.17321C100.002 1.76273 100.007 2.35226 100.002 2.94179C100.007 3.08917 99.9873 3.23655 100.041 3.36919C99.9774 3.43306 99.9088 3.49692 99.8301 3.54605C99.1177 4.00785 98.4299 4.50895 97.7176 4.96583C97.5948 5.03952 97.4572 5.13777 97.4965 5.29989C97.4719 5.38832 97.5162 5.46201 97.6095 5.43745C99.1521 5.42762 100.69 5.44727 102.232 5.42271C104.527 5.42271 106.816 5.42762 109.11 5.42271L109.145 5.40797C109.248 5.43254 109.351 5.42271 109.459 5.42271C113.615 5.42271 117.771 5.42762 121.932 5.42271C123.239 5.42762 124.551 5.42271 125.863 5.42271C128.024 5.42271 130.191 5.44236 132.352 5.43254C132.416 5.4178 132.436 5.37358 132.411 5.29498C132.406 5.21638 132.436 5.1083 132.352 5.05917C132.008 4.89705 131.714 4.6465 131.384 4.44999C131.267 4.35174 131.114 4.2977 131.026 4.16505C130.687 3.97346 130.372 3.73765 130.038 3.5264C129.974 3.4871 129.925 3.42323 129.871 3.36919C129.901 3.26603 129.911 3.15303 129.911 3.04495C129.906 2.42104 129.911 1.79712 129.906 1.17321C129.92 1.07495 129.916 0.96196 129.827 0.898095C129.237 0.686848 128.653 0.460863 128.068 0.244703C127.886 0.156274 127.685 0.107147 127.489 0.0776704H102.38C102.272 0.0825831 102.169 0.136623 102.061 0.161187Z" fill="#1A43A0" stroke="#030303" stroke-width="0.0162035"/>
<path d="M100.005 1.17383C100.437 1.3556 100.899 1.45877 101.336 1.63562C101.572 1.72897 101.646 1.98443 101.749 2.19076C101.646 2.29393 101.523 2.37744 101.4 2.45605C100.948 2.76064 100.486 3.0554 100.039 3.36981C99.9853 3.23717 100.005 3.08979 100 2.94241C100.005 2.35288 100 1.76335 100.005 1.17383ZM128.572 1.63562C129.01 1.46368 129.466 1.34577 129.904 1.17383C129.909 1.79774 129.904 2.42166 129.909 3.04557C129.909 3.15365 129.899 3.26665 129.869 3.36981C129.486 3.10453 129.098 2.85398 128.715 2.5936C128.528 2.45605 128.322 2.35288 128.155 2.18585C128.258 1.97951 128.337 1.72897 128.572 1.63562Z" fill="white" fill-opacity="0.8" stroke="white" stroke-opacity="0.8" stroke-width="0.0162035"/>
<path d="M107.504 1.83783C108.044 1.7101 108.649 2.19155 108.604 2.75651C108.609 3.31165 108.025 3.76362 107.489 3.63589C107.273 3.56219 107.067 3.4492 106.934 3.25761C106.762 2.99723 106.723 2.64843 106.86 2.36349C106.959 2.08838 107.224 1.90169 107.504 1.83783ZM121.52 2.14733C121.746 1.89678 122.105 1.75431 122.439 1.84274C122.689 1.91643 122.935 2.07855 123.043 2.32419C123.259 2.74668 123.092 3.31656 122.67 3.53763C122.296 3.74396 121.825 3.64571 121.54 3.34603C121.25 3.01688 121.23 2.47648 121.52 2.14733Z" fill="#1B44A4" stroke="#1B44A3" stroke-width="0.0162035"/>
<path d="M101.401 2.4577C101.524 2.3791 101.646 2.29558 101.75 2.19241L101.784 2.2268C101.818 2.48226 101.794 2.74264 101.804 2.9981C101.789 3.76448 101.818 4.53578 101.784 5.30216C100.354 5.30216 98.9248 5.29234 97.4951 5.30216C97.4558 5.14004 97.5934 5.04179 97.7162 4.9681C98.4285 4.51122 99.1163 4.01012 99.8287 3.54832C99.9074 3.4992 99.976 3.43533 100.04 3.37147C100.487 3.05705 100.949 2.76229 101.401 2.4577ZM128.106 2.35945C128.106 2.29558 128.121 2.24154 128.155 2.1875C128.322 2.35453 128.529 2.4577 128.715 2.59526C129.099 2.85563 129.487 3.10618 129.87 3.37147C129.924 3.42551 129.973 3.48937 130.037 3.52867C130.371 3.73992 130.685 3.97573 131.024 4.16733C131.113 4.29997 131.265 4.35401 131.383 4.45226C131.712 4.64877 132.007 4.89932 132.351 5.06144C132.434 5.11057 132.405 5.21865 132.41 5.29725C130.98 5.30217 129.555 5.29234 128.126 5.30216C128.101 5.10566 128.116 4.90915 128.111 4.71755C128.111 3.93152 128.101 3.14548 128.106 2.35945Z" fill="white" fill-opacity="0.8" stroke="white" stroke-opacity="0.8" stroke-width="0.0162035"/>
<path d="M132.41 5.29543C130.98 5.30035 129.555 5.29052 128.126 5.30035C128.101 5.10384 128.116 4.90733 128.111 4.71573C128.111 3.9297 128.101 3.14366 128.106 2.35763C128.106 2.29376 128.121 2.23972 128.155 2.18568C128.259 1.97935 128.337 1.7288 128.573 1.63546C129.01 1.46351 129.467 1.34561 129.904 1.17366C129.919 1.07541 129.914 0.962415 129.826 0.89855C129.236 0.687303 128.652 0.461317 128.067 0.245158C127.885 0.156729 127.684 0.107601 127.487 0.078125H102.378C102.27 0.0830377 102.167 0.137078 102.059 0.161641C101.43 0.402365 100.796 0.633263 100.168 0.873986C100.084 0.888724 100.04 0.962415 99.9957 1.02628C100.001 1.06558 100.005 1.13436 100.005 1.17366C100.438 1.35543 100.899 1.4586 101.337 1.63546C101.573 1.7288 101.646 1.98426 101.749 2.19059L101.784 2.22498C101.818 2.48045 101.794 2.74082 101.803 2.99628C101.789 3.76267 101.818 4.53396 101.784 5.30035C100.354 5.30035 98.9247 5.29052 97.495 5.30035C97.4704 5.38878 97.5146 5.46247 97.608 5.4379C99.1506 5.42808 100.688 5.44773 102.231 5.42316C104.525 5.42316 106.815 5.42808 109.109 5.42316L109.143 5.40843C109.246 5.43299 109.349 5.42316 109.457 5.42316C113.614 5.42316 117.77 5.42808 121.931 5.42316C123.238 5.42808 124.549 5.42316 125.861 5.42316C128.023 5.42316 130.189 5.44282 132.351 5.43299C132.415 5.41825 132.434 5.37404 132.41 5.29543ZM106.859 2.36254C106.957 2.08743 107.222 1.90074 107.502 1.83688C108.043 1.70915 108.647 2.19059 108.603 2.75556C108.608 3.3107 108.023 3.76267 107.488 3.63493C107.271 3.56124 107.065 3.44825 106.933 3.25666C106.761 2.99628 106.721 2.64748 106.859 2.36254ZM121.518 2.14638C121.744 1.89583 122.103 1.75336 122.437 1.84179C122.688 1.91548 122.933 2.0776 123.041 2.32324C123.257 2.74573 123.09 3.31561 122.668 3.53668C122.294 3.74301 121.823 3.64476 121.538 3.34508C121.248 3.01593 121.228 2.47553 121.518 2.14638Z" fill="white" fill-opacity="0.8" stroke="white" stroke-opacity="0.8" stroke-width="0.0162035"/>
<path d="M121.328 14.9688C122.788 14.114 124.478 13.7013 126.158 13.6227C126.703 13.5736 127.253 13.5883 127.794 13.6571C128.147 13.7406 128.511 13.8388 128.791 14.0796C128.649 14.0894 128.511 14.0255 128.369 14.0059C127.966 13.9273 127.548 13.9567 127.14 13.9469C125.956 13.9469 124.763 14.0403 123.618 14.3645C123.019 14.5463 122.419 14.7575 121.874 15.0719C120.931 15.5927 120.081 16.2805 119.393 17.1058C118.165 18.5158 117.443 20.304 117.094 22.1266C116.927 23.1042 116.735 24.0769 116.583 25.0594C116.337 25.084 116.087 25.0693 115.841 25.0693C114.76 25.0644 113.679 25.0594 112.599 25.0497C112.368 25.0594 112.142 25.0055 111.911 25.0201C109.946 25.0299 107.981 25.0152 106.016 25.0152L106.055 25.0004C107.514 24.848 108.978 24.6761 110.437 24.5337C112.289 24.524 114.136 24.5287 115.988 24.5337C116.047 24.524 116.151 24.5533 116.16 24.4698C116.313 23.674 116.46 22.8782 116.612 22.0822C116.824 20.977 117.158 19.8863 117.674 18.8792C118.484 17.258 119.766 15.8825 121.328 14.9688Z" fill="#1B45A5" stroke="#1B45A5" stroke-width="0.0162035"/>
<path d="M123.619 14.3648C124.763 14.0406 125.957 13.9473 127.141 13.9473C127.549 13.9571 127.966 13.9276 128.369 14.0062C128.512 14.0259 128.649 14.0897 128.792 14.0799C129.023 14.2666 129.16 14.5417 129.263 14.8168C129.489 15.4702 129.617 16.1482 129.725 16.831C129.73 17.1061 129.779 17.4156 129.632 17.6662C129.494 17.9118 129.219 18.0297 128.959 18.1034C128.011 18.3491 127.018 18.1181 126.07 18.3491C125.289 18.5161 124.562 18.9484 124.066 19.5723C123.481 20.2994 123.172 21.2032 123 22.1073C122.867 22.913 122.7 23.7186 122.567 24.5292C122.508 24.711 122.474 24.9075 122.44 25.0992C123.368 25.114 124.297 25.0992 125.225 25.109C125.579 25.0992 125.932 25.1187 126.286 25.0942C126.483 25.5462 126.439 26.0572 126.375 26.5337C126.296 27.0691 126.168 27.5997 125.928 28.0909C125.726 28.5085 125.392 28.8918 124.935 29.0391C124.699 29.1325 124.444 29.1128 124.193 29.1128C123.368 29.1128 122.543 29.1226 121.717 29.1128C121.585 29.7171 121.496 30.3361 121.378 30.9502C121.162 32.1439 120.951 33.3426 120.735 34.5414C120.73 34.5807 120.725 34.6642 120.725 34.7084V34.7133C118.578 34.7133 116.436 34.7183 114.289 34.7133C114.294 34.6938 114.299 34.6593 114.304 34.6396C114.309 34.6151 114.314 34.561 114.319 34.5316C114.324 34.571 114.329 34.6447 114.334 34.679C114.466 34.6938 114.707 34.7625 114.741 34.571C115.076 32.763 115.385 30.9453 115.729 29.1374C115.596 29.1079 115.459 29.1079 115.321 29.1325C115.302 29.2013 115.282 29.27 115.257 29.3388L115.287 29.1177C113.951 29.1127 112.609 29.1177 111.273 29.1127C110.949 29.103 110.615 29.1127 110.291 29.0734C109.735 29.0489 109.175 29.0685 108.62 29.0144C107.933 29.0144 107.25 28.9506 106.562 28.9506C106.021 28.8966 105.476 28.9162 104.931 28.8916C104.577 28.8475 104.214 28.867 103.855 28.8524C103.27 28.7884 102.676 28.8328 102.091 28.7688C101.472 28.7738 100.853 28.7197 100.234 28.705C100.239 28.7001 100.244 28.6804 100.244 28.6755C100.451 28.6804 100.652 28.6656 100.858 28.6607C101.315 28.6018 101.777 28.6411 102.234 28.5772C102.71 28.5772 103.182 28.5133 103.659 28.5133C104.081 28.4544 104.508 28.4888 104.931 28.4299C105.427 28.4299 105.913 28.366 106.41 28.3611C106.817 28.307 107.23 28.3365 107.638 28.2825C108.114 28.2874 108.586 28.2137 109.063 28.2186C109.529 28.1644 110.006 28.1792 110.472 28.1301C110.428 27.9484 110.394 27.7666 110.355 27.5848C110.32 27.4717 110.183 27.4963 110.094 27.4816C109.028 27.3292 107.967 27.177 106.906 27.0296C106.975 26.9755 107.068 27 107.147 26.9903C107.972 26.9263 108.792 26.8526 109.618 26.7938C109.804 26.784 109.986 26.7496 110.173 26.7447C110.089 26.4892 110.04 26.2092 109.927 25.9734C108.164 25.7032 106.4 25.4624 104.641 25.1726C105.098 25.0989 105.56 25.0645 106.017 25.0154C107.982 25.0154 109.947 25.0302 111.912 25.0203C112.143 25.0056 112.369 25.0596 112.6 25.0499C113.68 25.0596 114.761 25.0647 115.842 25.0694C116.088 25.0694 116.338 25.0842 116.584 25.0596C116.736 24.0771 116.928 23.1043 117.095 22.1268C117.444 20.3041 118.166 18.5159 119.394 17.106C120.082 16.2807 120.932 15.5929 121.875 15.0721C122.42 14.7579 123.019 14.5466 123.619 14.3648Z" fill="#1C47AB" stroke="#1C47AB" stroke-width="0.0162035"/>
<path d="M122.565 24.5293C123.498 24.5343 124.437 24.5244 125.375 24.5343C125.748 24.5343 126.131 24.7406 126.284 25.0943C125.93 25.1188 125.576 25.0993 125.223 25.109C124.294 25.0993 123.366 25.1141 122.437 25.0993C122.472 24.9076 122.506 24.7111 122.565 24.5293ZM115.319 29.1326C115.456 29.108 115.594 29.108 115.726 29.1375C115.382 30.9454 115.073 32.7631 114.739 34.571C114.705 34.7625 114.464 34.6939 114.331 34.6791C114.326 34.6447 114.321 34.571 114.316 34.5317C114.626 32.8025 114.925 31.0682 115.255 29.339C115.279 29.2701 115.299 29.2014 115.319 29.1326Z" fill="#0D69B3" stroke="#0D69B3" stroke-width="0.0162035"/>
<path d="M122.997 7.59247C122.958 7.51878 122.953 7.43035 122.953 7.34684L122.914 7.35175C122.855 7.13559 122.673 6.92925 122.437 6.91943C122.26 6.90469 122.039 6.9096 121.936 7.07664C121.74 7.34192 121.833 7.6809 121.823 7.98058C121.823 8.00023 121.828 8.03462 121.828 8.05427C121.828 8.25569 121.804 8.4522 121.769 8.64871C121.74 8.70766 121.725 8.77152 121.725 8.8403C121.642 9.3021 121.475 9.75898 121.249 10.1766C121.204 10.2355 121.17 10.2994 121.155 10.3682C121.008 10.6236 120.831 10.8594 120.649 11.0952C120.62 11.1198 120.595 11.1493 120.571 11.1788C120.443 11.336 120.305 11.4686 120.163 11.6062C120.128 11.6258 120.104 11.6504 120.074 11.67C119.907 11.8321 119.721 11.9844 119.519 12.1073C119.495 12.122 119.47 12.1417 119.441 12.1613C118.183 12.9916 116.655 13.3354 115.167 13.3502C113.904 13.3895 112.632 13.1193 111.492 12.574C111.472 12.5641 111.423 12.5445 111.403 12.5347C111.212 12.4315 111.015 12.3431 110.838 12.2153C110.799 12.1957 110.76 12.1711 110.716 12.1515C110.534 12.0434 110.362 11.9255 110.2 11.7879C110.146 11.7388 110.087 11.6995 110.028 11.6553C109.851 11.5128 109.669 11.3605 109.517 11.1886C109.478 11.1444 109.438 11.1051 109.399 11.0658C108.864 10.5106 108.446 9.83267 108.225 9.09576C108.014 8.51115 108.043 7.8725 108.019 7.25841C107.842 6.98821 107.468 6.83591 107.174 7.00295C107.051 7.09137 107.036 7.25349 106.943 7.36649C106.79 8.98768 107.483 10.604 108.589 11.7732C108.589 11.8125 108.608 11.8371 108.643 11.8518C108.839 12.0336 109.031 12.2203 109.227 12.3971C109.262 12.4315 109.301 12.4659 109.345 12.4954C109.542 12.6575 109.753 12.8049 109.959 12.9572C109.999 12.9866 110.038 13.0112 110.082 13.0358C110.352 13.193 110.608 13.3797 110.898 13.4877C110.917 13.5025 110.952 13.527 110.971 13.5369C111.905 13.9839 112.912 14.2885 113.943 14.3868C114.056 14.3868 114.169 14.3966 114.282 14.4212C114.774 14.4506 115.265 14.4359 115.756 14.4261C117.274 14.2934 118.841 13.925 120.109 13.0309L120.124 13.0505C120.163 13.0161 120.197 12.9866 120.237 12.9572C120.438 12.8098 120.635 12.6526 120.831 12.4905C120.875 12.4561 120.924 12.4168 120.969 12.3725C121.185 12.1367 121.435 11.9206 121.617 11.6504L121.647 11.6651C121.661 11.6406 121.686 11.5914 121.701 11.5669C121.868 11.3409 122.02 11.1051 122.168 10.8693C122.177 10.8545 122.202 10.83 122.212 10.8152L122.192 10.7956C122.207 10.7759 122.241 10.7366 122.256 10.717C122.526 10.1667 122.767 9.59195 122.85 8.98277C122.885 8.96803 122.904 8.93856 122.904 8.90417C122.909 8.70766 122.978 8.52098 122.959 8.32447C123.002 8.08374 123.007 7.83811 122.997 7.59247Z" fill="white" fill-opacity="0.8" stroke="white" stroke-opacity="0.8" stroke-width="0.0162035"/>
<mask id="mask0_20084_3380" style="mask-type:luminance" maskUnits="userSpaceOnUse" x="106" y="6" width="17" height="9">
<path d="M122.431 7.00293V7.00391H122.434C122.619 7.01163 122.778 7.17804 122.831 7.37207L122.851 7.44434L122.872 7.44141C122.877 7.49566 122.887 7.55304 122.911 7.60742C122.92 7.84517 122.915 8.0791 122.874 8.30664L122.872 8.31934L122.873 8.33105C122.882 8.41737 122.871 8.50367 122.855 8.59863C122.848 8.64462 122.839 8.69355 122.832 8.74414L122.818 8.90039L122.816 8.90137L122.771 8.9209L122.765 8.96875C122.683 9.56038 122.45 10.122 122.183 10.667C122.177 10.6747 122.169 10.6865 122.158 10.6992C122.147 10.7131 122.132 10.7302 122.123 10.7422L122.078 10.8018L122.096 10.8193L122.095 10.8213C121.948 11.0565 121.797 11.2905 121.632 11.5137L121.701 11.5645L121.631 11.5137L121.627 11.5205C121.622 11.5287 121.616 11.5385 121.61 11.5488L121.588 11.5371L121.546 11.6006C121.459 11.7296 121.354 11.8469 121.243 11.9629C121.135 12.0753 121.016 12.1925 120.908 12.3096C120.868 12.3498 120.822 12.3867 120.778 12.4209L120.776 12.4219C120.58 12.5835 120.385 12.7398 120.186 12.8857L120.185 12.8867C120.168 12.899 120.153 12.9114 120.138 12.9238L120.128 12.9102L120.06 12.958C118.966 13.7294 117.642 14.1068 116.316 14.2773L115.749 14.3379C115.258 14.3477 114.773 14.3621 114.288 14.333C114.175 14.3093 114.062 14.2992 113.95 14.2988H113.951C113.058 14.2138 112.183 13.9722 111.358 13.6162L111.009 13.457C110.997 13.4506 110.969 13.432 110.949 13.417L110.939 13.4092L110.928 13.4053L110.724 13.3145C110.524 13.2127 110.336 13.0816 110.125 12.959L110.124 12.958L110.011 12.8867V12.8857L109.699 12.6582L109.4 12.4268L109.393 12.4219L109.288 12.334L109.285 12.3311L108.701 11.7861L108.69 11.7764L108.677 11.7705L108.675 11.7695V11.7373L108.651 11.7119C107.563 10.5612 106.883 8.9758 107.026 7.38965C107.07 7.32804 107.101 7.26085 107.125 7.20996C107.154 7.14763 107.18 7.10355 107.221 7.07324C107.458 6.94238 107.77 7.05667 107.933 7.28711C107.955 7.88279 107.93 8.53113 108.144 9.12305V9.12207C108.369 9.87208 108.794 10.5609 109.337 11.124L109.338 11.125C109.377 11.1646 109.415 11.2022 109.452 11.2441C109.61 11.422 109.797 11.5781 109.974 11.7207L109.976 11.7227C110.039 11.7706 110.092 11.8042 110.142 11.8496L110.144 11.8516C110.31 11.9929 110.487 12.1137 110.672 12.2236L110.671 12.2246L110.681 12.2285C110.699 12.2368 110.718 12.2461 110.737 12.2568C110.754 12.2659 110.773 12.2764 110.792 12.2861C110.974 12.4167 111.179 12.5099 111.362 12.6084L111.365 12.6104C111.378 12.6166 111.398 12.6251 111.414 12.6318C111.432 12.6396 111.446 12.646 111.453 12.6494H111.454C112.606 13.2006 113.893 13.4743 115.169 13.4346L115.168 13.4336C116.574 13.4196 118.02 13.1154 119.246 12.3838L119.488 12.2314C119.505 12.2206 119.52 12.2089 119.532 12.2002C119.545 12.1913 119.555 12.185 119.563 12.1797L119.564 12.1787C119.77 12.0534 119.959 11.8986 120.128 11.7354C120.144 11.7242 120.159 11.7126 120.17 11.7041C120.183 11.6936 120.194 11.6853 120.206 11.6787L120.215 11.6738L120.223 11.666C120.365 11.529 120.505 11.3923 120.637 11.2305C120.662 11.2004 120.682 11.1777 120.704 11.1592L120.712 11.1533L120.718 11.1455C120.899 10.9098 121.079 10.6699 121.229 10.4092L121.236 10.3975L121.239 10.3838C121.25 10.3314 121.278 10.2791 121.317 10.2266L121.249 10.1748L121.318 10.2266L121.324 10.2158C121.554 9.79097 121.724 9.32511 121.81 8.85352L121.812 8.8457V8.83789C121.812 8.78206 121.824 8.73182 121.847 8.68555L121.852 8.67383L121.854 8.66113C121.889 8.46236 121.914 8.26072 121.914 8.05273C121.914 8.03812 121.912 8.01976 121.911 8.00781C121.91 7.99274 121.909 7.98347 121.909 7.97852C121.912 7.90019 121.908 7.81984 121.903 7.74316C121.899 7.6644 121.894 7.58855 121.896 7.51465C121.898 7.36752 121.923 7.23768 122.006 7.12598L122.01 7.12012C122.045 7.06242 122.102 7.02871 122.178 7.01172C122.255 6.9944 122.345 6.99575 122.431 7.00293Z" fill="white" stroke="white" stroke-width="0.172378"/>
</mask>
<g mask="url(#mask0_20084_3380)">
<path d="M106.562 7.42395C106.961 7.54888 107.876 7.23456 108.135 7.5222L106.562 7.42395ZM106.792 8.63572C107.173 8.50293 107.992 8.18851 108.331 8.37372L106.792 8.63572ZM107.185 9.84754C107.369 9.90728 107.733 9.58318 107.914 9.48822C108.182 9.34688 108.458 9.23856 108.757 9.19252M107.774 11.1248C107.965 10.8544 108.192 10.6299 108.467 10.4378C108.74 10.2475 109.485 9.73897 109.805 9.91302M108.331 12.0419C108.547 11.8702 108.635 11.5665 108.862 11.3861C109.136 11.1679 109.556 11.1287 109.838 10.9938M109.256 12.7214C109.321 12.2465 109.803 11.6733 110.263 11.7143L109.256 12.7214ZM109.969 13.3847C110.212 13.3603 110.418 12.816 110.582 12.6315C110.828 12.3552 111.084 12.2702 111.41 12.1729M111.377 13.9742C111.361 13.6305 111.716 12.6451 112.13 12.6969L111.377 13.9742ZM112.425 14.3018C112.408 13.8956 112.618 12.6738 113.113 12.6314L112.425 14.3018ZM113.506 14.9568C113.412 14.3888 113.418 13.5671 113.866 13.1554L113.506 14.9568ZM114.849 15.0878C114.799 14.6143 114.328 13.6572 114.849 13.2864V15.0878ZM116.29 14.7603C116.065 14.4998 115.934 13.4726 116.028 13.1882L116.29 14.7603ZM117.665 14.531C117.492 14.2164 117.277 13.921 117.212 13.5559C117.172 13.3376 117.241 13.0268 117.207 12.8607M118.812 14.0397C118.436 13.7939 118.331 12.8906 118.451 12.5004L118.812 14.0397ZM119.925 13.5484C119.658 12.9751 119.373 12.5305 119.368 11.8781L119.925 13.5484ZM121.006 12.5004C120.591 12.221 120.061 11.7131 120.122 11.1576L121.006 12.5004ZM122.152 11.6161C121.521 11.4763 120.764 10.9117 120.384 10.4043L122.152 11.6161ZM122.676 10.5353C122.221 10.4377 120.717 9.85088 120.809 9.25801L122.676 10.5353ZM123.167 9.38903C122.533 9.15651 121.611 8.94748 121.104 8.50474L123.167 9.38903ZM123.495 8.34095C123.095 8.37515 122.523 8.18173 122.117 8.11168C121.666 8.03391 121.248 7.88196 120.809 7.78415M123.102 7.32569C122.331 7.37182 121.608 7.10816 120.908 6.86719L123.102 7.32569Z" fill="#1B44A4"/>
<path d="M106.562 7.42395C106.961 7.54888 107.876 7.23456 108.135 7.5222M106.792 8.63572C107.173 8.50293 107.992 8.18851 108.331 8.37372M107.185 9.84754C107.369 9.90728 107.733 9.58318 107.914 9.48822C108.182 9.34688 108.458 9.23856 108.757 9.19253M107.774 11.1248C107.965 10.8544 108.192 10.6299 108.467 10.4378C108.74 10.2475 109.485 9.73897 109.805 9.91302M108.331 12.0419C108.547 11.8702 108.635 11.5665 108.862 11.3861C109.136 11.1679 109.556 11.1287 109.838 10.9938M109.256 12.7214C109.321 12.2465 109.803 11.6733 110.263 11.7143M109.969 13.3847C110.212 13.3603 110.418 12.816 110.582 12.6315C110.828 12.3552 111.084 12.2702 111.41 12.1729M111.377 13.9742C111.361 13.6305 111.716 12.6451 112.13 12.6969M112.425 14.3018C112.408 13.8956 112.618 12.6738 113.113 12.6314M113.506 14.9568C113.412 14.3888 113.418 13.5671 113.866 13.1554M114.849 15.0878C114.799 14.6143 114.328 13.6572 114.849 13.2864M116.29 14.7603C116.065 14.4998 115.934 13.4726 116.028 13.1882M117.665 14.531C117.492 14.2164 117.277 13.921 117.212 13.5559C117.172 13.3376 117.241 13.0268 117.207 12.8607M118.812 14.0397C118.436 13.7939 118.331 12.8906 118.451 12.5004M119.925 13.5484C119.658 12.9751 119.373 12.5305 119.368 11.8781M121.006 12.5004C120.591 12.221 120.061 11.7131 120.122 11.1576M122.152 11.6161C121.521 11.4763 120.764 10.9117 120.384 10.4043M122.676 10.5353C122.221 10.4377 120.717 9.85088 120.809 9.25801M123.167 9.38903C122.533 9.15651 121.611 8.94748 121.104 8.50474M123.495 8.34095C123.095 8.37515 122.523 8.18173 122.117 8.11168C121.666 8.03391 121.248 7.88196 120.809 7.78415M123.102 7.32569C122.331 7.37182 121.608 7.10816 120.908 6.86719" stroke="#1B45A5" stroke-width="0.344756"/>
</g>
<path d="M24.5051 9.69083C25.2171 9.58339 26.0364 9.51624 26.6408 9.95946C27.0169 10.2415 27.1512 10.7518 27.1243 11.2086C27.1512 11.9608 26.802 12.7667 26.1305 13.1563C25.5394 13.4786 24.8276 13.5054 24.1693 13.4383C23.7261 13.3846 23.2829 13.1429 23.0545 12.7399C22.544 11.5713 23.1754 9.91918 24.5051 9.69083ZM3.20209 10.5371C3.24233 10.1341 3.60503 9.7714 4.02138 9.78491C7.12426 9.78491 10.2136 9.79828 13.3029 9.78491C13.6387 9.75804 14.0014 9.90572 14.1625 10.2012C14.3908 10.6042 14.1894 11.0474 14.1625 11.4639C14.0686 12.0279 14.0954 12.7802 13.4373 12.995C11.1807 13.0622 8.92409 12.995 6.66748 13.0219C6.4526 14.4456 6.25113 15.856 6.03615 17.2663C6.03615 17.32 6.04965 17.441 6.04965 17.4946C7.70175 17.4812 9.35385 17.4946 11.006 17.4812C11.4627 17.4544 11.9461 17.844 11.9059 18.3274C11.8656 18.8245 11.7581 19.308 11.691 19.805C11.6372 20.1407 11.3686 20.4497 11.0194 20.5169C9.17915 20.5571 7.31208 20.4766 5.47206 20.5571C5.17647 22.5854 4.82722 24.6135 4.51826 26.6418C4.47807 27.0448 4.1556 27.394 3.75266 27.4073C2.98712 27.4208 2.22141 27.4208 1.45587 27.4073C0.958896 27.4208 0.555903 26.8699 0.690167 26.3999C1.50976 21.1079 2.35592 15.8293 3.20209 10.5371ZM16.8488 9.81164C17.5474 9.75799 18.2592 9.79828 18.9577 9.78491C19.3876 9.75804 19.8174 10.0938 19.8576 10.5371C19.8576 10.8862 19.7636 11.2355 19.7233 11.5847C19.1592 15.1845 18.5816 18.7843 18.0174 22.384C17.9368 22.9616 17.7891 23.5794 17.9637 24.1704C18.1652 24.7614 19.065 24.5062 19.28 25.124C19.4143 25.621 19.2665 26.1448 19.2262 26.6553C19.186 27.3269 18.4203 27.4745 17.8966 27.6225C16.7549 27.8373 15.3713 27.6762 14.552 26.7358C13.961 26.0509 13.9206 25.0837 14.0416 24.2242C14.7535 19.6574 15.4653 15.0906 16.1907 10.5102C16.2311 10.1743 16.4997 9.86543 16.8488 9.81164ZM43.5112 10.5371C43.5514 10.1341 43.9142 9.78491 44.3171 9.78491H46.3588C46.8692 9.7714 47.2857 10.3222 47.1647 10.8056C46.6946 13.7876 46.2111 16.7695 45.741 19.7512C46.4529 19.6438 47.2588 19.5095 47.7558 18.932C48.5885 17.9916 49.2736 16.9038 49.784 15.7621C49.9585 15.3188 50.0526 14.6741 50.6302 14.5935C51.3958 14.5666 52.1748 14.58 52.9404 14.5935C53.4643 14.58 53.8538 15.171 53.6792 15.6545C53.4778 16.3666 53.142 17.0246 52.7928 17.656C52.0137 18.9186 51.1541 20.1677 50.0257 21.1616C50.5227 22.6526 51.1541 24.1032 51.7048 25.5674C51.8659 26.0509 52.2556 26.615 51.8928 27.0852C51.4763 27.6493 50.6973 27.3671 50.1198 27.4343C49.5153 27.3671 48.6423 27.6761 48.3064 26.9911C47.6751 25.5269 47.1513 24.0227 46.5065 22.5586C46.1304 22.5719 45.741 22.5854 45.3648 22.5452C45.3381 22.5989 45.2843 22.7063 45.2573 22.7601C45.0558 24.1032 44.841 25.4465 44.626 26.7896C44.5454 27.1119 44.2902 27.3941 43.941 27.4209C43.2292 27.4478 42.5038 27.4343 41.7785 27.4343C41.4695 27.4343 41.1875 27.2328 41.0531 26.9642C40.9188 26.6954 40.9993 26.3867 41.0398 26.0912C41.8725 20.9064 42.6918 15.7217 43.5112 10.5371ZM80.8385 12.0011C80.9325 11.6249 81.2951 11.3698 81.6713 11.3832C82.2086 11.3967 82.7593 11.3698 83.3099 11.3967C83.7532 11.41 84.1024 11.8533 84.0486 12.2831C83.9681 13.0488 83.78 13.8144 83.7263 14.5799C84.2501 14.5799 84.7874 14.5666 85.3113 14.5799C85.7814 14.5799 86.171 15.0635 86.0903 15.5201C86.0231 15.9367 85.9291 16.3397 85.8619 16.7559C85.7948 17.1052 85.4994 17.3873 85.1636 17.4409C84.5188 17.4812 83.8876 17.4141 83.2562 17.4812C82.9876 19.281 82.6921 21.0808 82.41 22.8809C82.3696 23.2973 82.3428 23.7673 82.5846 24.13C82.9473 24.5733 83.5785 24.412 84.089 24.4658C84.492 24.5866 84.7471 25.03 84.6799 25.4331C84.6128 25.8896 84.5993 26.3463 84.492 26.7895C84.3308 27.2864 83.7532 27.3806 83.3099 27.5014C82.0876 27.8238 80.6772 27.8238 79.5894 27.1119C78.582 26.4268 78.4207 25.0971 78.5282 23.9688C78.8102 21.7928 79.2536 19.6303 79.4953 17.4409C79.1192 17.4543 78.6625 17.5081 78.3805 17.1722C78.0581 16.8365 78.2193 16.3395 78.273 15.923C78.3537 15.4797 78.3401 14.9022 78.8238 14.6604C79.2132 14.5126 79.6566 14.6202 80.0729 14.5664C80.3281 13.7069 80.5698 12.8473 80.8385 12.0011ZM73.2494 16.353C74.0957 15.5068 75.1164 14.8083 76.285 14.4592C76.7954 14.2308 77.4536 14.6606 77.4402 15.2248C77.3462 15.9635 77.1716 16.6888 77.0507 17.4141C76.9968 17.7768 76.688 18.0857 76.3252 18.126C75.0089 18.3543 73.8673 19.1466 72.9539 20.087C72.7256 20.3692 72.3898 20.6378 72.3495 21.0272C72.0675 22.9077 71.7719 24.7882 71.4764 26.6686C71.4362 27.0715 71.0868 27.4612 70.6705 27.4343H68.6288C68.1587 27.4612 67.7424 26.9911 67.7961 26.5209C68.3871 22.8002 68.9782 19.0931 69.5557 15.3724C69.5825 14.9964 69.8512 14.6337 70.2406 14.5934C70.7377 14.5665 71.2346 14.5799 71.7451 14.5799C72.148 14.5799 72.524 14.9426 72.524 15.359C72.524 15.9366 72.4704 16.5275 72.4569 17.1185C72.7793 16.9172 72.9808 16.5948 73.2494 16.353ZM23.041 14.6471C23.7663 14.4995 24.5185 14.6204 25.2438 14.58C25.6603 14.5263 26.1035 14.7949 26.1706 15.2114C26.2244 15.5874 26.1168 15.9501 26.0765 16.3128C25.5259 19.7649 24.9751 23.2168 24.4378 26.6688C24.3975 27.0584 24.0753 27.4479 23.6588 27.4344C22.9335 27.4344 22.2082 27.4479 21.4695 27.421C21.0128 27.3672 20.6769 26.8435 20.7979 26.4001C21.3755 22.8139 21.9262 19.241 22.5038 15.6546C22.5307 15.2651 22.6381 14.8083 23.041 14.6471ZM66.5066 14.8219C64.5052 14.4457 62.4637 14.177 60.4353 14.3785C58.6221 14.6069 56.7953 15.4263 55.6806 16.9172C54.1359 18.8782 53.612 21.5109 53.9611 23.9556C54.1493 25.1241 54.6596 26.3061 55.6134 27.0314C56.4998 27.7165 57.6953 27.8104 58.7699 27.6358C60.2741 27.3403 61.5501 26.3734 62.5979 25.2987C62.6516 25.7554 62.5441 26.2121 62.571 26.6554C62.5979 27.0716 62.974 27.4612 63.3903 27.4343H64.7605C65.1634 27.4343 65.4993 27.0584 65.5261 26.6687C66.1037 23.0287 66.6812 19.402 67.2454 15.7755C67.3259 15.3188 66.9634 14.8755 66.5066 14.8219ZM62.7323 21.1482C62.195 22.1556 61.4427 23.069 60.5965 23.8479C60.1131 24.2509 59.4951 24.6674 58.8371 24.5331C58.1923 24.3988 57.8833 23.7272 57.7357 23.1496C57.3999 21.6453 57.7088 20.0065 58.5549 18.7037C58.931 18.0991 59.5354 17.6425 60.2339 17.4544C61.2144 17.2126 62.2488 17.3335 63.2025 17.6021L63.2561 17.656C63.1353 18.8245 62.9069 19.9796 62.7323 21.1482ZM40.1399 19.1335C40.1264 17.7902 39.7637 16.3799 38.8235 15.3725C38.1789 14.6606 37.2117 14.298 36.2715 14.3113C34.7133 14.2577 33.2493 15.0233 32.1076 16.0441C31.8523 16.2456 31.6777 16.5411 31.3958 16.7023C31.3958 16.2589 31.436 15.8157 31.4225 15.3591C31.436 14.9426 31.0464 14.58 30.6435 14.58H29.2734C28.8437 14.58 28.4944 14.9561 28.4675 15.3724C27.6213 20.7452 26.7617 26.118 25.9155 31.4908C25.7947 31.9877 26.2245 32.4982 26.7349 32.4847C27.4871 32.4713 28.2527 32.5385 28.9914 32.4309C29.5825 32.2697 29.569 31.5847 29.663 31.0877C29.8779 29.9057 30.0257 28.7237 30.16 27.5282C32.8061 28.0386 35.882 27.6895 37.8565 25.6881C39.4682 23.9286 40.2204 21.4974 40.1399 19.1335ZM36.3789 20.49C36.2984 21.7258 35.8551 22.975 34.9955 23.8748C33.8807 24.936 32.1881 24.7882 30.8181 24.4257C30.7914 24.3853 30.751 24.3047 30.7376 24.2645C30.9524 23.0959 31.0599 21.9138 31.3286 20.7587C32.0808 19.5231 32.9941 18.2738 34.297 17.5888C34.7805 17.3605 35.4387 17.4142 35.7879 17.8575C36.3789 18.5962 36.4327 19.5902 36.3789 20.49Z" fill="white" fill-opacity="0.8" stroke="white" stroke-opacity="0.8" stroke-width="0.0174102"/>
</g>
<defs>
<clipPath id="clip0_20084_3380">
<rect width="131.822" height="34.7525" fill="white" transform="translate(0.664062)"/>
</clipPath>
</defs>
</svg>
