<svg width="96" height="35" viewBox="0 0 96 35" fill="none" xmlns="http://www.w3.org/2000/svg">
<g clip-path="url(#clip0_20084_3373)">
<path fill-rule="evenodd" clip-rule="evenodd" d="M21.1591 22.9634V32.2599H23.5993C23.5993 32.2599 24.9489 32.2451 25.7311 31.8843C26.5133 31.5236 27.7367 30.6921 27.7367 27.8502C27.7367 24.8656 27.0233 23.9375 25.5392 23.2585C24.7767 22.9142 23.4271 22.9552 23.4271 22.9552L21.1591 22.9634ZM18.8633 21.0742H24.7455C24.7455 21.0742 26.5199 21.2087 27.6973 22.0581C28.8748 22.9076 30.0407 24.4917 30.0407 27.6452C30.0407 30.7987 28.6763 32.5649 27.3841 33.352C26.0919 34.1392 24.6176 34.1588 23.9896 34.1588H18.8633V21.0742Z" fill="white" fill-opacity="0.8"/>
<path d="M31.5156 21.0747H40.9236V23.0836H33.7869V26.4683H40.3923V28.3345H33.7869V32.1505H41.0433V34.1511H31.5156V21.0747ZM43.0014 21.0747H46.1155L49.6544 31.3584L53.1063 21.0747H56.1877V34.1511H54.0361V24.0117L50.4973 34.1511H48.7L45.1119 24.0363V34.1511H43.0014V21.0747ZM65.025 28.9494L63.0096 23.2426L61.0073 28.9494H65.025ZM61.8616 21.078H64.2542L69.2788 34.1511H66.86L65.6301 30.6713H60.4021L59.1804 34.1511H56.8157L61.8616 21.078ZM67.5979 21.0749H78.1998V23.0837H74.0345V34.1513H71.7157V23.0836H67.5979V21.0749ZM79.6855 21.0749H82.006V34.1513H79.6855V21.0749ZM93.7508 24.3202C93.2172 23.6315 92.4939 23.1139 91.6698 22.8312C90.4153 22.4376 88.882 22.5787 87.8472 23.556C86.8125 24.5334 86.409 25.988 86.3631 27.2523C86.3172 28.5167 86.6025 30.4534 87.6291 31.4783C88.0325 31.8941 88.529 32.2079 89.0776 32.3941C89.6261 32.5803 90.2111 32.6334 90.7842 32.5491C91.6924 32.4227 92.5458 32.0398 93.2441 31.4455C93.473 31.2516 93.6783 31.0315 93.8557 30.7895L95.3546 31.9375C95.3546 31.9375 95.043 32.4622 94.1739 33.1772C93.4556 33.7692 92.0142 34.4449 90.3841 34.4416C88.6393 34.4416 87.1995 33.9119 86.0745 32.7935C84.9495 31.6751 84.0066 29.8565 84.0935 27.4245C84.1804 24.9926 85.1463 23.3248 86.1237 22.3917C87.1011 21.4586 88.4999 20.801 90.3136 20.7912C92.065 20.7797 93.1998 21.2946 94.0214 21.8719C94.5382 22.2217 94.9834 22.667 95.3333 23.1838L93.7508 24.3202Z" fill="white" fill-opacity="0.8"/>
<path d="M0.898438 0.308594H5.44911V34.4395H0.898438V0.308594Z" fill="white" fill-opacity="0.8"/>
</g>
<defs>
<clipPath id="clip0_20084_3373">
<rect width="95.0786" height="34.7525" fill="white" transform="translate(0.585938)"/>
</clipPath>
</defs>
</svg>
