<svg width="156" height="34" viewBox="0 0 156 34" fill="none" xmlns="http://www.w3.org/2000/svg">
<g clip-path="url(#clip0_20548_5723)">
<path d="M28.9081 28.8843H5.13421V5.16278H22.3319L28.0318 0.046875H1.7823C0.795441 0.046875 0 0.840138 0 1.82005V32.227C0 33.207 0.795441 34.0045 1.7823 34.0045H32.1409C33.1958 34.0045 34.0466 33.1518 34.0466 32.104V28.8885H28.9081V28.8843Z" fill="#D2DBF0"/>
<path d="M30.1918 0.0429688L23.1094 6.38059V13.8551L28.9072 9.13792V34.0005H32.1783C33.2119 34.0005 34.0499 33.1649 34.0499 32.134V0.0429688H30.1918Z" fill="#D2DBF0"/>
<path d="M44.4519 34.0002C44.1754 34.0002 43.899 33.9281 43.6267 33.7797C43.3758 33.6439 43.1461 33.4742 42.9461 33.2749C42.7462 33.0755 42.5761 32.8506 42.4399 32.5961C42.2911 32.3289 42.2188 32.0489 42.2188 31.7732V20.939C42.2188 20.6633 42.2911 20.3875 42.4399 20.116C42.5761 19.8657 42.7462 19.6367 42.9461 19.4373C43.1461 19.2379 43.3758 19.0682 43.6267 18.9325C43.899 18.7883 44.1754 18.7119 44.4519 18.7119H55.9412C56.2177 18.7119 56.4941 18.784 56.7664 18.9325C57.0174 19.0682 57.2471 19.2379 57.447 19.4373C57.6469 19.6409 57.8171 19.8657 57.9532 20.116C58.102 20.3833 58.1744 20.6633 58.1744 20.939V31.7732C58.1744 32.0489 58.102 32.3246 57.9532 32.5961C57.8171 32.8464 57.6469 33.0755 57.447 33.2749C57.2471 33.4742 57.0174 33.6439 56.7664 33.7797C56.4941 33.9239 56.2177 34.0002 55.9412 34.0002H44.4519ZM55.3669 31.4593V21.2571H45.0219V31.4593H55.3669Z" fill="#D2DBF0"/>
<path d="M76.1683 34.0002C75.9897 34.0002 75.794 33.9493 75.5728 33.8433C75.3559 33.7415 75.173 33.6057 75.0326 33.4403L62.9861 19.6452C62.85 19.5137 62.7734 19.3313 62.7734 19.1446C62.7734 18.9325 62.9223 18.7162 63.2626 18.7162H65.4192C65.6319 18.7162 65.8446 18.8264 66.053 19.0343L75.4282 29.8812V19.5434C75.4282 19.3143 75.5133 19.1107 75.6706 18.9537C75.8323 18.7968 76.0365 18.7119 76.2662 18.7119H77.2232C77.4529 18.7119 77.6571 18.7968 77.8145 18.9537C77.9761 19.1107 78.0612 19.3143 78.0612 19.5434V33.1985C78.0612 33.4318 77.9719 33.6312 77.8102 33.7839C77.6529 33.9281 77.4572 34.0002 77.2317 34.0002H76.1726H76.1683ZM63.6072 34.0002C63.3775 34.0002 63.1818 33.9239 63.0329 33.7712C62.884 33.6227 62.8075 33.4318 62.8075 33.1985V22.4534C62.8075 22.1352 63.0074 21.9953 63.2073 21.9953C63.3775 21.9953 63.5434 22.1013 63.7645 22.3473L65.113 23.9211C65.2959 24.1587 65.3809 24.3623 65.3809 24.5659V33.2027C65.3809 33.4318 65.3044 33.6269 65.1555 33.7754C65.0066 33.9239 64.811 34.0002 64.5813 34.0002H63.6072Z" fill="#D2DBF0"/>
<path d="M83.5145 33.9999C83.3061 33.9999 83.1104 33.9151 82.953 33.7581C82.7957 33.6012 82.7148 33.4103 82.7148 33.1982V19.5473C82.7148 19.3182 82.7999 19.1146 82.9573 18.9576C83.1147 18.8007 83.3104 18.7158 83.5188 18.7158H95.2079C95.4376 18.7158 95.6418 18.8007 95.7992 18.9576C95.9566 19.1146 96.0417 19.3182 96.0417 19.5473V20.4593C96.0417 20.6672 95.9566 20.8623 95.7992 21.0193C95.6461 21.1762 95.4419 21.261 95.2122 21.261H85.4968V31.4632H95.3568C95.5653 31.4632 95.7567 31.548 95.9183 31.705C96.08 31.8662 96.1608 32.0655 96.1608 32.2946V33.2066C96.1608 33.4145 96.0757 33.6096 95.9226 33.7666C95.7652 33.9236 95.5695 34.0084 95.3611 34.0084H83.5273L83.5145 33.9999ZM87.4535 27.272C87.2238 27.272 87.0238 27.1914 86.875 27.043C86.7261 26.8945 86.6495 26.6951 86.6495 26.4703V25.5879C86.6495 25.3631 86.7261 25.1637 86.875 25.0153C87.0238 24.8668 87.2238 24.7862 87.4535 24.7862H94.4636C94.6677 24.7862 94.8591 24.8625 95.0165 25.0025C95.1782 25.151 95.2675 25.3546 95.2675 25.5837V26.466C95.2675 26.6994 95.1782 26.8987 95.0165 27.0514C94.8634 27.1914 94.672 27.2678 94.4678 27.2678H87.4577L87.4535 27.272Z" fill="#D2DBF0"/>
<path d="M143.362 15.2844C143.154 15.2844 142.958 15.1996 142.801 15.0426C142.643 14.8857 142.562 14.6948 142.562 14.4827V0.827535C142.562 0.598464 142.648 0.394846 142.805 0.23789C142.962 0.0809347 143.158 -0.00390625 143.366 -0.00390625H155.056C155.285 -0.00390625 155.489 0.0809347 155.647 0.23789C155.804 0.394846 155.889 0.598464 155.889 0.827535V1.73957C155.889 1.94743 155.804 2.14257 155.647 2.29952C155.494 2.45648 155.29 2.54132 155.06 2.54132H145.344V12.7434H155.204C155.413 12.7434 155.604 12.8283 155.766 12.9852C155.928 13.1464 156.008 13.3458 156.008 13.5749V14.4869C156.008 14.6948 155.923 14.8899 155.77 15.0469C155.613 15.2038 155.417 15.2887 155.209 15.2887H143.375L143.362 15.2844ZM147.318 8.55654C147.088 8.55654 146.889 8.47594 146.74 8.32747C146.591 8.179 146.514 7.97962 146.514 7.7548V6.87245C146.514 6.64762 146.591 6.44825 146.74 6.29977C146.889 6.1513 147.088 6.0707 147.318 6.0707H154.311C154.515 6.0707 154.707 6.14706 154.864 6.28705C155.026 6.43552 155.115 6.63914 155.115 6.86821V7.75055C155.115 7.98387 155.026 8.18324 154.864 8.33596C154.711 8.47594 154.52 8.5523 154.315 8.5523H147.322L147.318 8.55654Z" fill="#D2DBF0"/>
<path d="M46.8039 15.2841C46.2552 15.2841 45.7022 15.178 45.1662 14.9659C44.6345 14.7538 44.1411 14.4611 43.7114 14.0878C43.2776 13.7145 42.916 13.2649 42.6438 12.7516C42.363 12.2256 42.2227 11.6614 42.2227 11.0633C42.2227 10.6984 42.4609 10.4609 42.8267 10.4609H44.2261C44.592 10.4609 44.8302 10.6857 44.8302 11.0336C44.894 11.4875 45.0982 11.8947 45.447 12.2425C45.7873 12.5777 46.2169 12.7431 46.7741 12.7431H52.2316C52.8016 12.7431 53.2525 12.5522 53.6183 12.1535C53.9884 11.7462 54.1713 11.2881 54.1713 10.7493C54.1713 10.2106 53.9926 9.76519 53.6226 9.37916C53.2567 8.99738 52.8016 8.81073 52.2316 8.81073H47.0293C46.4211 8.81073 45.8425 8.69195 45.3108 8.45864C44.7876 8.22957 44.3197 7.91141 43.9241 7.5169C43.5243 7.12239 43.2138 6.64729 42.9883 6.11279C42.7671 5.57405 42.6523 4.99713 42.6523 4.39052C42.6523 3.7839 42.7671 3.21123 42.9883 2.68097C43.2095 2.15496 43.5243 1.68833 43.9241 1.29382C44.3197 0.899314 44.7834 0.58116 45.3108 0.35209C45.8425 0.118777 46.4168 0 47.0293 0H52.1167C52.6272 0 53.1461 0.101809 53.6651 0.305427C54.1798 0.504803 54.6477 0.784778 55.0603 1.13687C55.4772 1.4932 55.8217 1.9174 56.0854 2.401C56.3534 2.89732 56.4895 3.44454 56.4895 4.02146C56.4895 4.36931 56.2513 4.59414 55.8855 4.59414H54.6562C54.3159 4.59414 54.0862 4.38628 54.0564 4.04691C53.9926 3.63119 53.8097 3.27062 53.4992 2.97367C53.2014 2.68521 52.8101 2.54099 52.3124 2.54099H46.9102C46.3785 2.54099 45.9617 2.70643 45.6341 3.05003C45.3023 3.39788 45.1407 3.80511 45.1407 4.30568C45.1407 4.80624 45.2981 5.20075 45.6256 5.56981C45.9446 5.92614 46.3658 6.10006 46.9145 6.10006H52.1848C52.8101 6.10006 53.4141 6.21884 53.9714 6.45215C54.5286 6.68546 55.022 7.0121 55.4389 7.42782C55.8557 7.84354 56.1875 8.33138 56.43 8.88284C56.6725 9.44279 56.8001 10.0494 56.8001 10.6942C56.8001 11.339 56.6767 11.9498 56.43 12.5056C56.1875 13.0613 55.8515 13.5491 55.4346 13.9521C55.022 14.3551 54.5286 14.6817 53.9756 14.9235C53.4184 15.1653 52.8144 15.2883 52.1848 15.2883H46.7996L46.8039 15.2841Z" fill="#D2DBF0"/>
<path d="M83.98 15.2844C83.4653 15.2844 83.0186 15.102 82.6613 14.7457C82.304 14.3894 82.1211 13.9482 82.1211 13.4307V0.827535C82.1211 0.598464 82.2062 0.394846 82.3636 0.23789C82.5209 0.0809347 82.7166 -0.00390625 82.925 -0.00390625H84.1246C84.6265 -0.00390625 84.9285 0.305763 84.9285 0.823293V12.7434H93.9591V0.827535C93.9591 0.310005 94.2569 0.000335796 94.7588 0.000335796H95.9584C96.1668 0.000335796 96.3625 0.0851767 96.5199 0.242132C96.6772 0.399088 96.7623 0.602706 96.7623 0.831777V13.4307C96.7623 13.9439 96.5794 14.3851 96.2221 14.7457C95.8648 15.102 95.4181 15.2844 94.9034 15.2844H83.9842H83.98Z" fill="#D2DBF0"/>
<path d="M116.327 15.2847C116.063 15.2847 115.851 15.1447 115.727 14.8945L114.175 11.662H107.645C107.352 11.662 107.156 11.4669 107.156 11.1742C107.156 11.0724 107.177 10.9833 107.216 10.9027L107.807 9.68099C107.918 9.40102 108.203 9.20164 108.53 9.20164H112.988L109.947 2.6604L103.979 14.886C103.851 15.1363 103.638 15.2762 103.375 15.2762H101.945C101.597 15.2762 101.371 15.0641 101.371 14.7333C101.371 14.6824 101.384 14.623 101.443 14.4406L108.237 0.70482C108.334 0.509686 108.475 0.344247 108.653 0.216985C108.845 0.0769976 109.053 0.00488281 109.266 0.00488281H110.61C110.823 0.00488281 111.031 0.0769976 111.223 0.216985C111.401 0.348489 111.542 0.513928 111.64 0.70482L118.416 14.4194C118.492 14.6399 118.501 14.6951 118.501 14.746C118.501 15.0769 118.275 15.289 117.926 15.289H116.327V15.2847Z" fill="#D2DBF0"/>
<path d="M135.7 15.3141C135.517 15.3141 135.326 15.2547 135.139 15.1444C134.96 15.0384 134.811 14.9026 134.692 14.7372L130.894 9.58312H127.793C127.563 9.58312 127.367 9.50676 127.218 9.35405C127.069 9.20558 126.993 9.0062 126.993 8.78137V7.89903C126.993 7.6742 127.069 7.47482 127.218 7.32635C127.367 7.17788 127.567 7.09728 127.793 7.09728H132.153C132.808 7.09728 133.352 6.88093 133.829 6.43552C134.297 5.99435 134.526 5.46409 134.526 4.8193C134.526 4.17451 134.297 3.64425 133.829 3.20308C133.356 2.75767 132.808 2.54132 132.153 2.54132H125.836V14.4827C125.836 14.716 125.747 14.9154 125.585 15.0681C125.432 15.2081 125.228 15.2844 125.006 15.2844H123.862C123.632 15.2844 123.437 15.2081 123.288 15.0554C123.139 14.9069 123.062 14.716 123.062 14.4827V0.827535C123.062 0.598464 123.135 0.407572 123.279 0.246374C123.428 0.0851767 123.632 -0.00390625 123.862 -0.00390625H132.438C133.105 -0.00390625 133.735 0.123355 134.314 0.377878C134.888 0.628159 135.398 0.976006 135.828 1.4087C136.262 1.84138 136.606 2.35043 136.861 2.92311C137.112 3.50002 137.244 4.12785 137.244 4.79385C137.244 5.35804 137.151 5.90102 136.972 6.40158C136.793 6.90214 136.534 7.36029 136.211 7.76752C135.887 8.17052 135.5 8.52261 135.058 8.81107C134.73 9.02317 134.39 9.19285 134.033 9.31587L137.848 14.5166C137.925 14.6312 137.959 14.7542 137.959 14.8857C137.959 15.0978 137.819 15.3141 137.5 15.3141H135.7Z" fill="#D2DBF0"/>
<path d="M78.7802 14.6351L77.4361 13.2606V2.22707C77.4361 1.93861 77.3765 1.65864 77.2532 1.39563C77.1341 1.13687 76.9682 0.903556 76.764 0.699938C76.5598 0.496319 76.3216 0.33088 76.0579 0.203618C75.7814 0.0678727 75.4921 0 75.2029 0H63.7137C63.1394 0 62.6205 0.22907 62.1653 0.682969C61.7102 1.13687 61.4805 1.6544 61.4805 2.22707V13.057C61.4805 13.6255 61.7102 14.1472 62.1653 14.6011C62.6205 15.055 63.1394 15.2841 63.7137 15.2841H72.489C72.8931 15.2841 73.0335 15.0211 73.0335 14.7963C73.0335 14.6181 72.9399 14.4399 72.7528 14.2575L71.6043 13.057C71.5362 12.9891 71.4639 12.9255 71.3831 12.8704C71.2682 12.7898 71.1406 12.7473 71.0045 12.7473H64.2879V2.54099H74.6329V10.393L74.148 9.89669C74.0586 9.80761 73.9353 9.75246 73.8119 9.75246H70.7237C70.3962 9.75246 70.2346 10.147 70.4643 10.376L75.3433 15.2035C75.4326 15.2926 75.5517 15.3392 75.6793 15.3392L78.4995 15.318C78.8568 15.318 79.0355 14.8896 78.7845 14.6351H78.7802Z" fill="#D2DBF0"/>
</g>
<defs>
<clipPath id="clip0_20548_5723">
<rect width="156" height="34" fill="white"/>
</clipPath>
</defs>
</svg>
