<svg width="78" height="34" viewBox="0 0 78 34" fill="none" xmlns="http://www.w3.org/2000/svg">
<path d="M1.99167 20.7881C1.99167 20.7881 2.4088 16.6639 6.91245 14.2397C6.91245 14.2397 12.2029 11.0879 12.0232 8.31348C12.0232 8.31348 14.3665 11.5911 11.389 14.9775C11.389 14.9775 9.71367 16.9665 6.80732 17.5275C6.80732 17.5275 3.98237 17.8845 1.98828 20.7915L1.99167 20.7881Z" fill="#D2DBF0"/>
<path d="M4.6987 19.0365C4.6987 19.0365 8.35453 17.0645 12.8955 19.4207C12.8955 19.4207 18.4844 22.0183 20.6819 20.3115C20.6819 20.3115 19.2779 24.0855 14.7946 23.5313C14.7946 23.5313 12.2037 23.2661 10.1078 21.1819C10.1078 21.1819 8.22566 19.0501 4.69531 19.0365H4.6987Z" fill="#D2DBF0"/>
<path d="M2.04688 20.4783C2.04688 20.4783 2.77261 16.3983 7.44583 14.3141C7.44583 14.3141 12.9601 11.5669 12.9872 8.78906C12.9872 8.78906 15.0763 12.2333 11.8545 15.3851C11.8545 15.3851 10.0334 17.2449 7.09653 17.5849C7.09653 17.5849 4.25122 17.7311 2.04688 20.4783Z" fill="#D2DBF0"/>
<path d="M4.87891 18.9344C4.87891 18.9344 8.67378 17.2446 13.0248 19.9272C13.0248 19.9272 18.4 22.9328 20.7231 21.3994C20.7231 21.3994 19.0376 25.0578 14.6119 24.1704C14.6119 24.1704 12.0481 23.7114 10.1151 21.4776C10.1151 21.4776 8.39908 19.2132 4.87891 18.9344Z" fill="#D2DBF0"/>
<path d="M7.92338 22.5621C7.92338 24.2893 6.51938 25.6867 4.78982 25.6867C3.06025 25.6867 1.65625 24.2893 1.65625 22.5621C1.65625 20.8349 3.06025 19.4375 4.78982 19.4375C6.51938 19.4375 7.92338 20.8349 7.92338 22.5621Z" fill="#D2DBF0"/>
<path d="M22.4622 18.2924C22.3266 18.221 22.3164 18.1802 22.3164 17.9116C22.3164 17.4084 22.3571 17.0072 22.3639 16.8474C22.3741 16.7386 22.3944 16.6876 22.4419 16.6876C22.4995 16.6876 22.5097 16.7182 22.5097 16.7998C22.5097 16.8916 22.5097 17.031 22.5402 17.1704C22.6861 17.915 23.3304 18.1972 23.9815 18.1972C24.9175 18.1972 25.3754 17.5036 25.3754 16.861C25.3754 16.1674 25.0939 15.7662 24.2562 15.0522L23.8188 14.6816C22.7844 13.8078 22.5504 13.1822 22.5504 12.5022C22.5504 11.4278 23.3304 10.6934 24.5682 10.6934C24.9481 10.6934 25.2295 10.7342 25.4737 10.7954C25.6602 10.8362 25.7382 10.8464 25.8162 10.8464C25.8942 10.8464 25.9146 10.8668 25.9146 10.9178C25.9146 10.9688 25.8773 11.2986 25.8773 11.982C25.8773 12.1418 25.8569 12.2132 25.8094 12.2132C25.7518 12.2132 25.7416 12.1622 25.7314 12.084C25.7213 11.965 25.6636 11.693 25.606 11.5808C25.5483 11.472 25.2838 11.047 24.3885 11.047C23.717 11.047 23.188 11.4788 23.188 12.2132C23.188 12.7844 23.4423 13.1482 24.3783 13.903L24.6496 14.124C25.7993 15.059 26.074 15.6812 26.074 16.487C26.074 16.8984 25.918 17.6634 25.2465 18.1564C24.826 18.459 24.3003 18.578 23.7747 18.578C23.3168 18.578 22.8692 18.5066 22.469 18.306L22.4622 18.2924Z" fill="#D2DBF0"/>
<path fill-rule="evenodd" clip-rule="evenodd" d="M29.9283 11.7983C29.8707 11.7983 29.83 11.8493 29.7249 12.1281L27.707 17.4763C27.5409 17.9081 27.3747 18.2107 26.9847 18.2583C26.9169 18.2685 26.7914 18.2787 26.7303 18.2787C26.6896 18.2787 26.6523 18.3093 26.6523 18.3501C26.6523 18.4011 26.71 18.4215 26.8185 18.4215C27.0525 18.4215 27.3204 18.4079 27.5002 18.3977C27.5883 18.3943 27.6562 18.3909 27.6867 18.3909C27.7274 18.3909 27.8291 18.3943 27.9478 18.4011C28.1208 18.4113 28.3344 18.4215 28.4565 18.4215C28.5345 18.4215 28.582 18.4011 28.582 18.3501C28.582 18.3093 28.5616 18.2787 28.4938 18.2787H28.4158C28.27 18.2787 28.1242 18.2175 28.1242 18.0475C28.1242 17.8979 28.1717 17.6871 28.2497 17.4763L28.738 16.1095C28.755 16.0585 28.7855 16.0381 28.8262 16.0381H30.8033C30.8508 16.0381 30.861 16.0483 30.8813 16.0891L31.6511 18.0509C31.7088 18.1937 31.624 18.2617 31.5731 18.2821C31.5663 18.2855 31.5596 18.2889 31.5528 18.2923C31.5256 18.3059 31.5121 18.3093 31.5121 18.3433C31.5121 18.3875 31.6172 18.3943 31.7529 18.4011C31.7732 18.4011 31.7936 18.4011 31.8139 18.4045C32.4074 18.4249 33.0416 18.4249 33.1704 18.4249C33.2688 18.4249 33.3637 18.4045 33.3637 18.3535C33.3637 18.3025 33.3061 18.2821 33.2586 18.2821C33.1704 18.2821 33.045 18.2719 32.9161 18.2311C32.7296 18.1699 32.4956 18.0611 32.1836 17.2961C31.9089 16.6229 31.4103 15.3513 30.9661 14.2293C30.5557 13.1889 30.1996 12.2811 30.125 12.1077C30.1081 12.0703 30.0911 12.0363 30.0776 12.0023C30.0233 11.8731 29.9894 11.7949 29.9182 11.7949L29.9283 11.7983ZM30.7083 15.6267C30.7185 15.6675 30.7185 15.6879 30.6778 15.6879H28.9415C28.911 15.6879 28.9042 15.6675 28.911 15.6267L29.7113 13.2841C29.7588 13.1549 29.8096 13.1549 29.8571 13.2841L30.705 15.6267H30.7083Z" fill="#D2DBF0"/>
<path d="M41.1485 17.326C41.179 17.6286 41.2366 18.091 41.5859 18.21C41.8301 18.2916 42.0539 18.2916 42.1421 18.2916C42.1828 18.2916 42.2099 18.312 42.2099 18.3528C42.2099 18.4038 42.1319 18.4344 42.0336 18.4344C41.8403 18.4344 40.8839 18.4242 40.5719 18.3936C40.3685 18.3732 40.3278 18.3426 40.3278 18.3018C40.3278 18.2712 40.3481 18.2406 40.3854 18.2304C40.4329 18.2202 40.4431 18.091 40.4261 17.9278L40.0158 13.586H39.9954L37.9267 17.9482C37.7504 18.3188 37.7029 18.4004 37.6249 18.4004C37.5469 18.4004 37.4994 18.3188 37.3332 18.0094C37.1094 17.5878 36.5431 16.493 36.3294 16.0272C36.0751 15.4832 35.3832 14.0484 35.2374 13.6948H35.2001L34.8678 17.5538C34.8576 17.683 34.8576 17.8462 34.8576 17.9856C34.8576 18.1148 34.9356 18.1964 35.0611 18.227C35.2069 18.2678 35.3358 18.278 35.3934 18.278C35.4205 18.278 35.4612 18.3086 35.4612 18.3392C35.4612 18.4004 35.4036 18.4208 35.3052 18.4208C34.9831 18.4208 34.5727 18.3902 34.5049 18.3902C34.4269 18.3902 34.0165 18.4208 33.7825 18.4208C33.6944 18.4208 33.6367 18.4004 33.6367 18.3392C33.6367 18.3086 33.6774 18.278 33.7249 18.278C33.7927 18.278 33.8504 18.2678 33.9792 18.2474C34.2641 18.1964 34.2709 17.887 34.3116 17.564L34.9356 11.9846C34.9458 11.8928 34.9831 11.835 35.0339 11.835C35.0916 11.835 35.1628 11.8656 35.2103 11.9642L37.8046 17.2716L40.3006 11.9744C40.3379 11.8928 40.3786 11.835 40.4363 11.835C40.4939 11.835 40.5448 11.9064 40.5618 12.0662L41.1451 17.3226L41.1485 17.326Z" fill="#D2DBF0"/>
<path d="M45.6146 17.3057C46.1131 16.1599 47.2323 13.2461 47.4188 12.6307C47.4595 12.5015 47.4968 12.3791 47.4968 12.3077C47.4968 12.2363 47.4663 12.1581 47.3815 12.1275C47.2831 12.0969 47.1848 12.0969 47.0898 12.0969C47.0424 12.0969 46.9915 12.0663 46.9915 12.0255C46.9915 11.9745 47.0491 11.9541 47.1882 11.9541C47.5307 11.9541 47.9207 11.9745 48.0258 11.9745C48.0733 11.9745 48.4464 11.9541 48.6973 11.9541C48.7855 11.9541 48.833 11.9745 48.833 12.0153C48.833 12.0561 48.8024 12.0969 48.7346 12.0969C48.677 12.0969 48.4803 12.0969 48.3243 12.1989C48.209 12.2805 48.0699 12.3995 47.8461 12.9843C47.7477 13.2257 47.3306 14.2525 46.8897 15.2963C46.3641 16.5441 45.9843 17.4689 45.7876 17.8905C45.5536 18.4039 45.5061 18.5331 45.4179 18.5331C45.3196 18.5331 45.2619 18.4243 45.0957 18.0095L42.9897 12.7735C42.7964 12.2907 42.6777 12.2023 42.3963 12.1309C42.2606 12.1003 42.1148 12.1003 42.0639 12.1003C42.013 12.1003 41.9961 12.0493 41.9961 12.0187C41.9961 11.9677 42.0843 11.9575 42.2199 11.9575C42.6303 11.9575 43.1152 11.9779 43.2237 11.9779C43.3119 11.9779 43.6917 11.9575 44.0241 11.9575C44.1801 11.9575 44.2581 11.9779 44.2581 12.0187C44.2581 12.0595 44.231 12.1003 44.1699 12.1003C44.0716 12.1003 43.9359 12.1105 43.8579 12.1411C43.7697 12.1819 43.7596 12.2329 43.7596 12.2907C43.7596 12.3995 43.8681 12.6613 43.9936 13.0047L45.6112 17.3057H45.6146Z" fill="#D2DBF0"/>
<path d="M50.1002 14.4294C50.1002 13.1034 50.1002 12.862 50.0799 12.59C50.0595 12.2976 50.012 12.1582 49.7306 12.1174C49.6627 12.1072 49.5169 12.097 49.4389 12.097C49.4084 12.097 49.3711 12.0562 49.3711 12.0256C49.3711 11.9746 49.4118 11.9542 49.5067 11.9542C49.8967 11.9542 50.4529 11.9746 50.5004 11.9746C50.5581 11.9746 52.352 11.9848 52.5487 11.9746C52.7149 11.9644 52.8709 11.9338 52.9387 11.9236C52.9794 11.9134 53.0167 11.8828 53.0574 11.8828C53.0846 11.8828 53.0947 11.9236 53.0947 11.9644C53.0947 12.0256 53.0473 12.1242 53.0269 12.3656C53.0167 12.4472 52.9964 12.828 52.9761 12.93C52.9659 12.9708 52.9354 13.0218 52.898 13.0218C52.8506 13.0218 52.8302 12.981 52.8302 12.913C52.8302 12.8518 52.82 12.7124 52.7827 12.6104C52.7251 12.471 52.6369 12.4098 52.1689 12.3486C52.0231 12.3282 51.0294 12.318 50.9311 12.318C50.8938 12.318 50.8836 12.3486 50.8836 12.4098V14.732C50.8836 14.7932 50.8836 14.8238 50.9311 14.8238C51.0396 14.8238 52.1689 14.8238 52.3656 14.8034C52.5691 14.783 52.698 14.7728 52.7861 14.6844C52.8438 14.6232 52.8845 14.5756 52.9116 14.5756C52.9387 14.5756 52.9591 14.596 52.9591 14.647C52.9591 14.698 52.9116 14.8374 52.8913 15.1196C52.8709 15.2896 52.854 15.6126 52.854 15.6738C52.854 15.7452 52.8336 15.8336 52.776 15.8336C52.7353 15.8336 52.7183 15.803 52.7183 15.752C52.7183 15.6704 52.7183 15.582 52.681 15.4698C52.6505 15.3508 52.5725 15.2488 52.2401 15.208C52.0061 15.1774 51.0905 15.1672 50.9447 15.1672C50.8972 15.1672 50.887 15.1978 50.887 15.2284V15.9424C50.887 16.2348 50.8768 17.2276 50.887 17.401C50.9074 17.9722 51.0634 18.0844 51.9112 18.0844C52.135 18.0844 52.5454 18.0844 52.7692 17.9926C52.993 17.8906 53.1117 17.741 53.1592 17.401C53.1795 17.299 53.1999 17.2718 53.2474 17.2718C53.2948 17.2718 53.305 17.3432 53.305 17.401C53.305 17.4588 53.2372 18.0436 53.1897 18.2238C53.132 18.4448 53.0439 18.4448 52.7115 18.4448C52.0672 18.4448 51.572 18.4244 51.2194 18.4142C50.8599 18.3938 50.6327 18.3938 50.5072 18.3938C50.4868 18.3938 50.3207 18.3938 50.1375 18.404C49.9714 18.4142 49.778 18.4244 49.639 18.4244C49.5508 18.4244 49.5034 18.404 49.5034 18.353C49.5034 18.3224 49.5237 18.2816 49.5712 18.2816C49.6492 18.2816 49.7577 18.251 49.8357 18.2408C50.0019 18.2102 50.0222 18.0402 50.0595 17.7886C50.107 17.435 50.107 16.7618 50.107 15.939V14.4328L50.1002 14.4294Z" fill="#D2DBF0"/>
<path fill-rule="evenodd" clip-rule="evenodd" d="M55.451 12.5899C55.4713 12.8619 55.4713 13.1033 55.4713 14.4293V15.9355C55.4713 16.7617 55.4713 17.4315 55.4204 17.7851C55.4204 17.7919 55.4204 17.7987 55.4204 17.8089C55.3831 18.0469 55.3594 18.1999 55.2 18.2373C55.122 18.2577 55.0135 18.2781 54.9355 18.2781C54.888 18.2781 54.8677 18.3189 54.8677 18.3495C54.8677 18.4005 54.9185 18.4209 55.0033 18.4209C55.139 18.4209 55.3425 18.4107 55.5188 18.4005C55.6511 18.4005 55.7731 18.3937 55.8308 18.3937C55.8511 18.3937 55.8647 18.3937 55.8681 18.3937C55.9088 18.3937 56.2004 18.4141 56.5701 18.4447C56.6413 18.4481 56.7159 18.4515 56.7939 18.4583C57.1161 18.4753 57.4722 18.4957 57.7706 18.4957C59.2323 18.4957 60.0021 17.9007 60.3751 17.5097C60.8533 17.0065 61.301 16.1837 61.301 15.1059C61.301 14.0927 60.8906 13.3753 60.4633 12.9333C59.5138 11.9439 58.0758 11.9541 57.1907 11.9575C57.1331 11.9575 57.0754 11.9575 57.0211 11.9575C56.6684 11.9575 56.2988 11.9677 56.0716 11.9745C55.9732 11.9745 55.902 11.9779 55.8715 11.9779C55.8579 11.9779 55.8104 11.9779 55.7426 11.9745C55.5459 11.9677 55.1661 11.9575 54.8778 11.9575C54.7795 11.9575 54.7422 11.9779 54.7422 12.0289C54.7422 12.0595 54.7829 12.1003 54.81 12.1003C54.888 12.1003 55.0338 12.1105 55.1017 12.1207C55.3831 12.1615 55.434 12.3009 55.4544 12.5933L55.451 12.5899ZM56.2615 17.2139C56.2513 17.0541 56.2513 16.2585 56.2513 15.3541V12.4981C56.2513 12.3961 56.2784 12.3553 56.3564 12.3281C56.4344 12.2975 56.7091 12.2669 56.8753 12.2669C57.8995 12.2669 58.8457 12.3757 59.6528 13.2223C60.0021 13.5827 60.4633 14.2763 60.4633 15.3643C60.4633 16.1497 60.2395 16.9623 59.7918 17.3941C59.2764 17.8973 58.5744 18.1693 57.7842 18.1693C56.7702 18.1693 56.4684 17.9891 56.3598 17.8293C56.292 17.7375 56.2717 17.4281 56.2615 17.2173V17.2139Z" fill="#D2DBF0"/>
<path d="M63.6312 17.2551C63.6516 17.9589 63.7296 18.1697 63.9636 18.2309C64.1196 18.2717 64.3163 18.2819 64.3943 18.2819C64.435 18.2819 64.4621 18.3125 64.4621 18.3533C64.4621 18.4043 64.4011 18.4247 64.3061 18.4247C63.8178 18.4247 63.4786 18.3941 63.4006 18.3941C63.3226 18.3941 62.9632 18.4247 62.5732 18.4247C62.485 18.4247 62.4375 18.4145 62.4375 18.3533C62.4375 18.3125 62.468 18.2819 62.5053 18.2819C62.5732 18.2819 62.7292 18.2717 62.858 18.2309C63.0717 18.1697 63.1022 17.9385 63.1022 17.1667V12.2707C63.1022 11.9273 63.1497 11.8389 63.2209 11.8389C63.3192 11.8389 63.4651 12.0089 63.5532 12.1007C63.6889 12.2401 64.9369 13.6069 66.2629 15.0145C67.1107 15.9189 68.0264 16.9355 68.2909 17.2177L68.2027 12.9337C68.1925 12.3795 68.1451 12.1891 67.8805 12.1415C67.7245 12.1109 67.5312 12.1007 67.4634 12.1007C67.4058 12.1007 67.3956 12.0497 67.3956 12.0191C67.3956 11.9681 67.4634 11.9579 67.5618 11.9579C67.9518 11.9579 68.3621 11.9783 68.4571 11.9783C68.552 11.9783 68.8369 11.9579 69.1896 11.9579C69.2778 11.9579 69.3456 11.9681 69.3456 12.0191C69.3456 12.0497 69.3083 12.1007 69.2472 12.1007C69.2099 12.1007 69.1387 12.1007 69.0438 12.1211C68.7623 12.1823 68.7419 12.3523 68.7419 12.8657L68.7216 17.8705C68.7216 18.4349 68.7114 18.4825 68.6538 18.4825C68.5656 18.4825 68.4774 18.4111 68.0026 17.9589C67.9145 17.8773 66.6766 16.6227 65.7712 15.6469C64.7775 14.5725 63.811 13.5253 63.5465 13.2261L63.6448 17.2551H63.6312Z" fill="#D2DBF0"/>
<path fill-rule="evenodd" clip-rule="evenodd" d="M72.9044 11.7979C72.8467 11.7979 72.806 11.8489 72.6975 12.1277L70.6797 17.4759C70.5135 17.9077 70.3473 18.2103 69.9573 18.2579C69.8895 18.2681 69.7607 18.2783 69.703 18.2783C69.6623 18.2783 69.625 18.3089 69.625 18.3497C69.625 18.4007 69.6826 18.4211 69.7912 18.4211C70.0252 18.4211 70.2931 18.4075 70.4728 18.3973C70.561 18.3939 70.6288 18.3905 70.6593 18.3905C70.7 18.3905 70.8018 18.3939 70.9205 18.4007C71.0934 18.4109 71.3071 18.4211 71.4292 18.4211C71.5072 18.4211 71.5547 18.4007 71.5547 18.3497C71.5547 18.3089 71.5343 18.2783 71.4665 18.2783H71.3885C71.2427 18.2783 71.0968 18.2171 71.0968 18.0471C71.0968 17.8975 71.1443 17.6867 71.2223 17.4759L71.7106 16.1091C71.731 16.0581 71.7581 16.0377 71.7988 16.0377H73.776C73.8268 16.0377 73.8336 16.0479 73.854 16.0887L74.6238 18.0505C74.6814 18.1933 74.5933 18.2613 74.5458 18.2817C74.539 18.2851 74.5322 18.2885 74.5254 18.2919C74.4983 18.3055 74.4847 18.3089 74.4847 18.3429C74.4847 18.3871 74.5899 18.3939 74.7255 18.4007C74.7459 18.4007 74.7662 18.4007 74.7866 18.4041C75.38 18.4245 76.0142 18.4245 76.1431 18.4245C76.2414 18.4245 76.3364 18.4041 76.3364 18.3531C76.3364 18.3021 76.2787 18.2817 76.2279 18.2817C76.1397 18.2817 76.0142 18.2715 75.8853 18.2307C75.7022 18.1695 75.4682 18.0607 75.1562 17.2957C74.8815 16.6225 74.383 15.3509 73.9421 14.2289C73.5318 13.1885 73.1757 12.2807 73.1011 12.1073C73.0841 12.0699 73.0672 12.0325 73.0536 12.0019C72.9993 11.8727 72.9654 11.7979 72.8942 11.7979H72.9044ZM73.6844 15.6263C73.6946 15.6671 73.6946 15.6875 73.6573 15.6875H71.9209C71.8904 15.6875 71.8836 15.6671 71.8904 15.6263L72.6907 13.2837C72.7382 13.1545 72.7891 13.1545 72.8366 13.2837L73.6844 15.6263Z" fill="#D2DBF0"/>
<path d="M68.6657 21.0558C68.4453 21.0558 68.2723 21.168 68.1502 21.3924C68.0281 21.5896 67.9671 21.8344 67.9671 22.1302C67.9671 22.3716 68.0349 22.5824 68.174 22.7592C68.313 22.936 68.4961 23.0244 68.7234 23.0244C68.9811 23.0244 69.1846 22.9326 69.3338 22.7456C69.3982 22.6708 69.4525 22.6334 69.4932 22.6334C69.5474 22.6334 69.5712 22.664 69.5712 22.7218C69.5712 22.8068 69.5067 22.9088 69.3813 23.0244C69.1744 23.2216 68.9336 23.3202 68.6589 23.3202C68.4385 23.3202 68.2452 23.2692 68.079 23.1638C67.9128 23.0584 67.7874 22.9156 67.7026 22.732C67.6144 22.5484 67.5703 22.3444 67.5703 22.1166C67.5703 21.8888 67.6212 21.6678 67.7229 21.4638C67.8247 21.2632 67.9671 21.1034 68.1502 20.981C68.3334 20.862 68.5402 20.8008 68.7708 20.8008C68.9709 20.8008 69.1507 20.8586 69.3134 20.9742C69.4457 21.066 69.5135 21.1714 69.5135 21.287C69.5135 21.3346 69.4966 21.3788 69.4627 21.4196C69.4287 21.4604 69.3914 21.4842 69.3474 21.4842C69.2965 21.4842 69.2626 21.4774 69.2422 21.4604C69.2253 21.4434 69.188 21.4026 69.1337 21.3312C69.0557 21.2326 68.9879 21.1612 68.9268 21.1204C68.8658 21.0796 68.781 21.0592 68.6725 21.0592L68.6657 21.0558Z" fill="#D2DBF0"/>
<path fill-rule="evenodd" clip-rule="evenodd" d="M71.8371 22.9399C71.8168 22.8923 71.8066 22.7869 71.8066 22.6203V21.7975C71.8066 21.4609 71.7015 21.2093 71.4878 21.0427C71.2877 20.8795 71.0402 20.7979 70.7485 20.7979C70.5281 20.7979 70.3246 20.8455 70.1415 20.9373C70.0092 20.9985 69.9448 21.0699 69.9448 21.1515C69.9448 21.2399 69.9922 21.2807 70.0872 21.2807C70.1177 21.2807 70.1855 21.2467 70.3008 21.1821C70.4535 21.0869 70.5993 21.0427 70.7485 21.0427C70.9282 21.0427 71.0842 21.1005 71.2165 21.2127C71.3488 21.3249 71.42 21.4745 71.4335 21.6581L71.1317 21.6445C70.7756 21.6445 70.4738 21.7193 70.2364 21.8757C69.9549 22.0661 69.8125 22.3041 69.8125 22.5965C69.8125 22.8243 69.8973 23.0045 70.0601 23.1303C70.2262 23.2561 70.4229 23.3207 70.6569 23.3207C71.0096 23.3207 71.2843 23.1609 71.4742 22.8447V22.9773C71.4742 23.0827 71.4844 23.1541 71.5048 23.1915C71.5251 23.2289 71.576 23.2493 71.6574 23.2493H71.8778C72.0067 23.2493 72.0711 23.2119 72.0711 23.1337C72.0711 23.0827 72.0372 23.0487 71.966 23.0249C71.9015 23.0045 71.8608 22.9773 71.8405 22.9433L71.8371 22.9399ZM70.7485 21.9437C70.9011 21.8995 71.0571 21.8757 71.2165 21.8757L71.4335 21.8825V22.3007C71.4335 22.5523 71.3691 22.7291 71.2436 22.8413C71.1012 22.9739 70.9181 23.0385 70.6942 23.0385C70.5688 23.0385 70.4501 22.9875 70.3382 22.8889C70.2534 22.8141 70.2093 22.7087 70.2093 22.5693C70.2093 22.4027 70.2602 22.2701 70.3653 22.1647C70.4704 22.0627 70.5959 21.9879 70.7519 21.9403L70.7485 21.9437Z" fill="#D2DBF0"/>
<path d="M72.9793 22.8243C72.9793 22.8923 72.9895 22.9331 73.0167 22.9535C73.0438 22.9739 73.0811 22.9943 73.1286 23.0113C73.1862 23.0419 73.2167 23.0793 73.2167 23.1201C73.2167 23.2017 73.1591 23.2425 73.0506 23.2425H72.5249C72.413 23.2425 72.3587 23.2017 72.3587 23.1201C72.3587 23.0759 72.3859 23.0453 72.4401 23.0215C72.491 23.0045 72.5317 22.9875 72.5622 22.9637C72.5927 22.9399 72.6063 22.8957 72.6063 22.8243V21.6037C72.6063 21.4269 72.5385 21.3045 72.3994 21.2331C72.318 21.2059 72.2773 21.1719 72.2773 21.1277C72.2773 21.0801 72.3248 21.0223 72.413 20.9543C72.5385 20.8489 72.63 20.7979 72.6809 20.7979C72.7657 20.7979 72.8233 20.8591 72.8573 20.9781C72.8912 21.0971 72.9217 21.2535 72.9522 21.4473C73.0099 21.2977 73.1048 21.1515 73.2303 21.0121C73.3558 20.8693 73.4846 20.8013 73.6135 20.8013C73.8 20.8013 73.8916 20.9067 73.8916 21.1141C73.8916 21.2399 73.8543 21.3011 73.7797 21.3011C73.7526 21.3011 73.7051 21.2841 73.6373 21.2467C73.5694 21.2127 73.5152 21.1923 73.4779 21.1923C73.3626 21.1923 73.2405 21.2977 73.1218 21.5119C73.0268 21.6649 72.9793 21.8417 72.9793 22.0457V22.8243Z" fill="#D2DBF0"/>
<path fill-rule="evenodd" clip-rule="evenodd" d="M74.7679 22.8481C74.6153 22.7257 74.5203 22.5625 74.483 22.3585L74.578 22.3483C75.0663 22.2871 75.3987 22.2191 75.5784 22.1409C75.9752 21.9913 76.1753 21.7601 76.1753 21.4439C76.1753 21.2297 76.0735 21.0597 75.8667 20.9373C75.731 20.8455 75.5648 20.7979 75.3648 20.7979C75.1274 20.7979 74.9069 20.8591 74.7068 20.9815C74.5068 21.1039 74.3508 21.2705 74.2355 21.4813C74.1202 21.6887 74.0625 21.9165 74.0625 22.1579C74.0625 22.4945 74.1744 22.7699 74.3982 22.9875C74.6221 23.2051 74.8968 23.3139 75.2223 23.3139C75.4801 23.3139 75.7141 23.2391 75.9277 23.0827C76.1346 22.9331 76.2363 22.8039 76.2363 22.6917C76.2363 22.6305 76.2058 22.6033 76.1482 22.6033C76.1176 22.6033 76.0566 22.6441 75.9718 22.7291C75.887 22.8141 75.7921 22.8855 75.6903 22.9433C75.5886 23.0011 75.4597 23.0283 75.2969 23.0283C75.0935 23.0283 74.9137 22.9671 74.7611 22.8447L74.7679 22.8481ZM75.7785 21.4405C75.7785 21.8349 75.341 22.0661 74.4695 22.1375H74.4525C74.4525 21.8349 74.5305 21.5765 74.6831 21.3691C74.8391 21.1583 75.0562 21.0563 75.3444 21.0563C75.4733 21.0563 75.5784 21.0903 75.6598 21.1515C75.7412 21.2161 75.7819 21.3113 75.7819 21.4405H75.7785Z" fill="#D2DBF0"/>
<path d="M66.195 22.1816H23.3086V22.5828H66.1984V22.1816H66.195Z" fill="#D2DBF0"/>
</svg>
