<svg width="53" height="52" viewBox="0 0 53 52" fill="none" xmlns="http://www.w3.org/2000/svg">
<g clip-path="url(#clip0_20663_5624)">
<rect width="63.1075" height="106.63" rx="10.8806" transform="matrix(1 0 0 -1 0.476562 52.0508)" fill="#D68AF4"/>
<g filter="url(#filter0_f_20663_5624)">
<path d="M45.8139 45.9698C49.2179 47.2766 48.1952 19.8699 47.4455 10.336C46.5754 -0.728122 14.1442 4.4555 8.54727 4.89563C2.95034 5.33576 37.5853 3.47633 40.9171 12.7838C40.9171 42.4335 40.2169 46.4099 45.8139 45.9698Z" fill="white"/>
</g>
<g filter="url(#filter1_f_20663_5624)">
<path d="M4.76376 50.7192C7.96362 50.7093 12.4178 29.8071 12.3485 7.19613C12.2791 -15.4148 7.71248 -31.1721 4.51262 -31.1623C1.31276 -31.1525 -1.22502 -12.8147 -1.15567 9.79621C-1.08632 32.4071 1.5639 50.729 4.76376 50.7192Z" fill="#BE41FE" fill-opacity="0.85"/>
</g>
<g filter="url(#filter2_f_20663_5624)">
<path d="M44.0979 54.77C48.4278 54.7568 52.104 85.891 52.0347 63.2801C51.9653 40.6691 48.4278 26.033 44.0979 26.0463C39.7679 26.0595 36.314 44.4001 36.3834 67.011C36.4527 89.622 39.7679 54.7833 44.0979 54.77Z" fill="#F66AE3" fill-opacity="0.7"/>
</g>
<g clip-path="url(#clip1_20663_5624)">
<path d="M29.8182 32.6979C29.8184 32.6979 29.8185 32.6977 29.8185 32.6977C29.2106 31.1441 27.7134 30.1016 26.0011 30.1016C24.2887 30.1016 22.7915 31.1441 22.1836 32.6976C22.1838 32.6977 22.1839 32.698 22.1841 32.6981C23.3102 33.3423 24.6134 33.7109 26.0011 33.7109C27.3889 33.7109 28.6921 33.3422 29.8182 32.6979Z" fill="white"/>
<path d="M26 26.8203C25.7901 26.8203 25.5801 26.7402 25.42 26.58C25.0996 26.2597 25.0996 25.7403 25.42 25.4199L27.0604 23.7795C26.739 23.6255 26.3794 23.5391 26 23.5391C24.643 23.5391 23.5391 24.643 23.5391 26C23.5391 27.357 24.643 28.4609 26 28.4609C27.357 28.4609 28.4609 27.357 28.4609 26C28.4609 25.6205 28.3745 25.261 28.2204 24.9397L26.5801 26.58C26.4199 26.7402 26.2099 26.8203 26 26.8203Z" fill="white"/>
<path d="M29.5803 20.1744L29.4919 19.1262C28.4429 18.5911 27.2561 18.2891 26 18.2891C21.7482 18.2891 18.2891 21.7482 18.2891 26C18.2891 28.263 19.2691 30.3013 20.8268 31.7132C21.199 30.9429 21.7418 30.2559 22.4159 29.7167C22.704 29.4863 23.0136 29.2866 23.3384 29.1169C22.4581 28.3641 21.8984 27.2465 21.8984 26C21.8984 23.7384 23.7384 21.8984 26 21.8984C26.8348 21.8984 27.6117 22.1497 28.2602 22.5797L29.811 21.029C29.6862 20.7669 29.606 20.4789 29.5803 20.1744Z" fill="white"/>
<path d="M32.8724 22.5086L31.8243 22.4202C31.5197 22.3945 31.2317 22.3142 30.9696 22.1895L29.4188 23.7402C29.8488 24.3888 30.1001 25.1657 30.1001 26.0004C30.1001 27.2469 29.5405 28.3644 28.6602 29.1173C28.9849 29.2869 29.2946 29.4867 29.5827 29.7171C30.2568 30.2564 30.7996 30.9433 31.1718 31.7136C32.7295 30.3017 33.7095 28.2634 33.7095 26.0004C33.7095 24.7443 33.4075 23.5575 32.8724 22.5086Z" fill="white"/>
<path d="M35.2422 22.6991C35.174 22.6991 35.105 22.6962 35.0368 22.6906L34.7365 22.6653C35.1334 23.7016 35.3516 24.8257 35.3516 26C35.3516 31.1565 31.1565 35.3516 26 35.3516C20.8435 35.3516 16.6484 31.1565 16.6484 26C16.6484 20.8435 20.8435 16.6484 26 16.6484C27.1743 16.6484 28.2984 16.8666 29.3348 17.2636L29.3096 16.9647C29.2485 16.241 29.5081 15.5312 30.0218 15.0176L31.7922 13.2473C29.9966 12.4307 28.0315 12 26 12C22.2605 12 18.7448 13.4563 16.1005 16.1005C13.4563 18.7448 12 22.2605 12 26C12 29.7395 13.4563 33.2552 16.1005 35.8995C18.7448 38.5437 22.2605 40 26 40C29.7395 40 33.2552 38.5437 35.8995 35.8995C38.5437 33.2552 40 29.7395 40 26C40 23.9685 39.5693 22.0034 38.7527 20.2078L36.9822 21.9783C36.5174 22.4431 35.8995 22.6991 35.2422 22.6991Z" fill="url(#paint0_linear_20663_5624)"/>
<path d="M35.2421 21.0583C35.2192 21.0583 31.9635 20.7847 31.9635 20.7847C31.5649 20.7511 31.2487 20.4349 31.215 20.0362L30.9443 16.8267C30.924 16.5859 31.0108 16.3485 31.1817 16.1777L34.662 12.6974C34.8877 12.4716 35.224 12.3972 35.5238 12.5071C35.8237 12.6167 36.0326 12.8904 36.0594 13.2085L36.2719 15.7278L38.7912 15.9403C39.1093 15.9672 39.383 16.1762 39.4927 16.476C39.6024 16.7758 39.5281 17.112 39.3023 17.3378L35.822 20.818C35.6676 20.9724 35.4586 21.0583 35.2421 21.0583Z" fill="white"/>
</g>
</g>
<defs>
<filter id="filter0_f_20663_5624" x="-2.9431" y="-7.57982" width="62.019" height="64.4761" filterUnits="userSpaceOnUse" color-interpolation-filters="sRGB">
<feFlood flood-opacity="0" result="BackgroundImageFix"/>
<feBlend mode="normal" in="SourceGraphic" in2="BackgroundImageFix" result="shape"/>
<feGaussianBlur stdDeviation="5.4403" result="effect1_foregroundBlur_20663_5624"/>
</filter>
<filter id="filter1_f_20663_5624" x="-14.8364" y="-44.8423" width="40.8643" height="109.241" filterUnits="userSpaceOnUse" color-interpolation-filters="sRGB">
<feFlood flood-opacity="0" result="BackgroundImageFix"/>
<feBlend mode="normal" in="SourceGraphic" in2="BackgroundImageFix" result="shape"/>
<feGaussianBlur stdDeviation="6.84009" result="effect1_foregroundBlur_20663_5624"/>
</filter>
<filter id="filter2_f_20663_5624" x="22.7026" y="12.3667" width="43.0127" height="75.9561" filterUnits="userSpaceOnUse" color-interpolation-filters="sRGB">
<feFlood flood-opacity="0" result="BackgroundImageFix"/>
<feBlend mode="normal" in="SourceGraphic" in2="BackgroundImageFix" result="shape"/>
<feGaussianBlur stdDeviation="6.84009" result="effect1_foregroundBlur_20663_5624"/>
</filter>
<linearGradient id="paint0_linear_20663_5624" x1="13.3424" y1="12" x2="38.6576" y2="40" gradientUnits="userSpaceOnUse">
<stop offset="0.601572" stop-color="white"/>
<stop offset="1" stop-color="#999999" stop-opacity="0"/>
</linearGradient>
<clipPath id="clip0_20663_5624">
<rect x="0.476562" width="52" height="52" rx="10.8806" fill="white"/>
</clipPath>
<clipPath id="clip1_20663_5624">
<rect width="28" height="28" fill="white" transform="translate(12 12)"/>
</clipPath>
</defs>
</svg>
