<svg width="52" height="52" viewBox="0 0 52 52" fill="none" xmlns="http://www.w3.org/2000/svg">
<g clip-path="url(#clip0_20663_5693)">
<rect width="65.3091" height="110.35" rx="11.2602" transform="matrix(1 0 0 -1 0 51.7969)" fill="#6688EF"/>
<g filter="url(#filter0_f_20663_5693)">
<path d="M45.8861 47.5745C49.4089 48.9269 48.3504 20.5641 47.5746 10.6976C46.6741 -0.752514 13.1115 4.61194 7.31936 5.06743C1.52717 5.52291 37.3704 3.59861 40.8185 13.2308C40.8185 43.9148 40.0939 48.03 45.8861 47.5745Z" fill="white"/>
</g>
<g filter="url(#filter1_f_20663_5693)">
<path d="M1.61566 50.428C6.09666 50.4142 12.3576 28.7777 12.2858 5.37793C12.2141 -18.0218 5.83676 -34.3238 1.35576 -34.31C-3.12523 -34.2963 -6.69962 -15.3159 -6.62785 8.08386C-6.55608 31.4836 -2.86533 50.4417 1.61566 50.428Z" fill="#2544B3"/>
</g>
<g filter="url(#filter2_f_20663_5693)">
<path d="M45.1448 54.6111C49.6258 54.5974 53.4303 86.8178 53.3585 63.418C53.2868 40.0183 49.6258 24.8715 45.1448 24.8853C40.6638 24.899 37.0894 43.8794 37.1612 67.2791C37.233 90.6789 40.6638 54.6249 45.1448 54.6111Z" fill="#2544B3" fill-opacity="0.7"/>
</g>
<path d="M37.375 23.375H36.1616C35.9172 22.4197 35.543 21.5139 35.0439 20.6688L35.8993 19.8126C36.2411 19.4708 36.2411 18.9171 35.8993 18.5753L33.4247 16.1007C33.0829 15.7589 32.5292 15.7589 32.1874 16.1007L31.3312 16.9561C30.4861 16.457 29.5803 16.0828 28.625 15.8384V14.625C28.625 14.1414 28.2336 13.75 27.75 13.75H24.25C23.7664 13.75 23.375 14.1414 23.375 14.625V15.8384C22.4197 16.0828 21.5139 16.457 20.6688 16.9561L19.8126 16.1007C19.4708 15.7589 18.9171 15.7589 18.5753 16.1007L16.1007 18.5753C15.7589 18.9171 15.7589 19.4708 16.1007 19.8126L16.9561 20.6688C16.457 21.5139 16.0828 22.4197 15.8384 23.375H14.625C14.1414 23.375 13.75 23.7664 13.75 24.25V27.75C13.75 28.2336 14.1414 28.625 14.625 28.625H15.8384C16.0828 29.5803 16.457 30.4861 16.9561 31.3312L16.1007 32.1874C15.7589 32.5292 15.7589 33.0829 16.1007 33.4247L18.5753 35.8993C18.9171 36.2411 19.4708 36.2411 19.8126 35.8993L20.6688 35.0439C21.5139 35.543 22.4197 35.9172 23.375 36.1616V37.375C23.375 37.8586 23.7664 38.25 24.25 38.25H27.75C28.2336 38.25 28.625 37.8586 28.625 37.375V36.1616C29.5803 35.9172 30.4861 35.543 31.3312 35.0439L32.1874 35.8993C32.5292 36.2411 33.0829 36.2411 33.4247 35.8993L35.8993 33.4247C36.2411 33.0829 36.2411 32.5292 35.8993 32.1874L35.0439 31.3312C35.543 30.4861 35.9172 29.5803 36.1616 28.625H37.375C37.8586 28.625 38.25 28.2336 38.25 27.75V24.25C38.25 23.7664 37.8586 23.375 37.375 23.375ZM31.25 27.75C31.25 28.4165 30.88 29.0164 30.2836 29.3146L25.9999 31.6002L21.6968 29.3052C21.1204 29.0164 20.75 28.4165 20.75 27.75V22.7945C20.75 22.4605 20.9401 22.1557 21.2399 22.0088L25.2173 20.0596C25.4591 19.9391 25.7296 19.875 26 19.875C26.2704 19.875 26.5409 19.9391 26.7827 20.0596L30.7624 22.0247C31.061 22.1721 31.25 22.4763 31.25 22.8093V27.75Z" fill="url(#paint0_linear_20663_5693)"/>
<path d="M29.8924 22.5923L26.3924 20.8423C26.1463 20.7192 25.8557 20.7192 25.6096 20.8423L22.1096 22.5923C22.0793 22.6075 22.0554 22.6307 22.0273 22.649L26.001 24.6358L29.9747 22.649C29.9466 22.6307 29.9227 22.6075 29.8924 22.5923Z" fill="white"/>
<path d="M21.625 27.7491C21.625 28.0806 21.8121 28.3835 22.1086 28.5318L25.5625 30.3741V25.3945L21.625 23.4258V27.7491Z" fill="white"/>
<path d="M26.4375 30.3741L29.8914 28.5318C30.1879 28.3835 30.375 28.0806 30.375 27.7491V23.4258L26.4375 25.3945V30.3741Z" fill="white"/>
</g>
<defs>
<filter id="filter0_f_20663_5693" x="-4.57269" y="-7.84222" width="64.1844" height="66.7235" filterUnits="userSpaceOnUse" color-interpolation-filters="sRGB">
<feFlood flood-opacity="0" result="BackgroundImageFix"/>
<feBlend mode="normal" in="SourceGraphic" in2="BackgroundImageFix" result="shape"/>
<feGaussianBlur stdDeviation="5.6301" result="effect1_foregroundBlur_20663_5693"/>
</filter>
<filter id="filter1_f_20663_5693" x="-20.7863" y="-48.468" width="47.2289" height="113.053" filterUnits="userSpaceOnUse" color-interpolation-filters="sRGB">
<feFlood flood-opacity="0" result="BackgroundImageFix"/>
<feBlend mode="normal" in="SourceGraphic" in2="BackgroundImageFix" result="shape"/>
<feGaussianBlur stdDeviation="7.07872" result="effect1_foregroundBlur_20663_5693"/>
</filter>
<filter id="filter2_f_20663_5693" x="23.0027" y="10.7273" width="44.5141" height="78.6059" filterUnits="userSpaceOnUse" color-interpolation-filters="sRGB">
<feFlood flood-opacity="0" result="BackgroundImageFix"/>
<feBlend mode="normal" in="SourceGraphic" in2="BackgroundImageFix" result="shape"/>
<feGaussianBlur stdDeviation="7.07872" result="effect1_foregroundBlur_20663_5693"/>
</filter>
<linearGradient id="paint0_linear_20663_5693" x1="13.7548" y1="13.75" x2="38.2451" y2="38.25" gradientUnits="userSpaceOnUse">
<stop offset="0.63783" stop-color="white"/>
<stop offset="1" stop-color="#999999" stop-opacity="0"/>
</linearGradient>
<clipPath id="clip0_20663_5693">
<rect width="52" height="52" rx="11.2602" fill="white"/>
</clipPath>
</defs>
</svg>
