<svg width="52" height="52" viewBox="0 0 52 52" fill="none" xmlns="http://www.w3.org/2000/svg">
<g clip-path="url(#clip0_20663_5710)">
<rect width="58.5196" height="98.878" rx="10.0896" transform="matrix(1 0 0 -1 0 52.4121)" fill="#EF8F66"/>
<g filter="url(#filter0_f_20663_5710)">
<path d="M47.1445 43.1258C50.3011 44.3376 49.3527 18.9233 48.6575 10.0826C47.8507 -0.177199 17.7772 4.62957 12.5872 5.03771C7.39714 5.44584 39.5141 3.72159 42.6038 12.3524C42.6038 39.8466 41.9545 43.5339 47.1445 43.1258Z" fill="white"/>
</g>
<g filter="url(#filter1_f_20663_5710)">
<path d="M1.44829 51.1857C5.46344 51.1734 11.0735 31.7862 11.0092 10.819C10.9449 -10.1481 5.23056 -24.7553 1.21541 -24.743C-2.79975 -24.7307 -6.00254 -7.72346 -5.93823 13.2437C-5.87392 34.2108 -2.56687 51.198 1.44829 51.1857Z" fill="#D84E14" fill-opacity="0.55"/>
</g>
<g filter="url(#filter2_f_20663_5710)">
<path d="M40.4498 54.9336C44.4649 54.9213 47.8739 83.7921 47.8096 62.8249C47.7453 41.8578 44.4649 28.2857 40.4498 28.298C36.4346 28.3103 33.2318 45.3175 33.2961 66.2846C33.3604 87.2518 36.4346 54.9459 40.4498 54.9336Z" fill="#D84E14" fill-opacity="0.4"/>
</g>
<path d="M29.2643 19.0807C28.1659 17.9823 26.7225 17.4329 25.2796 17.4329C23.8364 17.4329 22.3937 17.982 21.2949 19.0808C20.2305 20.1451 19.6443 21.5602 19.6443 23.0655C19.6443 24.5707 20.2305 25.9859 21.2949 27.0503C22.3593 28.1147 23.7744 28.7008 25.2796 28.7008C26.7848 28.7008 28.2 28.1147 29.2643 27.0503C30.3287 25.9859 30.9149 24.5708 30.9149 23.0655C30.9149 21.5603 30.3287 20.1451 29.2643 19.0807ZM22.504 25.3365C22.504 25.5997 22.2906 25.8131 22.0274 25.8131C21.7642 25.8131 21.5508 25.5997 21.5508 25.3365V23.3285C21.5508 23.0653 21.7642 22.8519 22.0274 22.8519C22.2906 22.8519 22.504 23.0653 22.504 23.3285V25.3365ZM24.6324 25.3365C24.6324 25.5997 24.419 25.8131 24.1558 25.8131C23.8926 25.8131 23.6792 25.5997 23.6792 25.3365V20.1158C23.6792 19.8526 23.8926 19.6392 24.1558 19.6392C24.419 19.6392 24.6324 19.8526 24.6324 20.1158V25.3365ZM26.7609 25.3365C26.7609 25.5997 26.5475 25.8131 26.2843 25.8131C26.0211 25.8131 25.8077 25.5997 25.8077 25.3365V22.5253C25.8077 22.2621 26.0211 22.0488 26.2843 22.0488C26.5475 22.0488 26.7609 22.2621 26.7609 22.5253V25.3365ZM28.8894 25.3365C28.8894 25.5997 28.676 25.8131 28.4128 25.8131C28.1496 25.8131 27.9362 25.5997 27.9362 25.3365V21.3206C27.9362 21.0574 28.1496 20.844 28.4128 20.844C28.676 20.844 28.8894 21.0574 28.8894 21.3206V25.3365ZM38.4213 14.4434H13.5787C12.7082 14.4434 12 15.1516 12 16.0221V31.5013C12 32.3718 12.7082 33.08 13.5787 33.08H24.5106V36.2602H19.2368C18.8806 36.2602 18.5892 36.5516 18.5892 36.9078C18.5892 37.2639 18.8806 37.5553 19.2368 37.5553H32.7058C33.0619 37.5553 33.3533 37.2639 33.3533 36.9078C33.3533 36.5516 33.0619 36.2602 32.7058 36.2602H27.4894V33.08H38.4213C39.2918 33.08 40 32.3718 40 31.5013V16.0221C40 15.1516 39.2918 14.4434 38.4213 14.4434ZM33.1933 30.9628C33.1002 31.0558 32.9783 31.1024 32.8563 31.1024C32.7343 31.1024 32.6124 31.0558 32.5193 30.9628L29.598 28.0415C28.3999 29.0845 26.8836 29.654 25.2796 29.654C23.5198 29.654 21.8653 28.9687 20.6209 27.7243C19.3764 26.4799 18.6911 24.8254 18.6911 23.0655C18.6911 21.3056 19.3764 19.6511 20.6209 18.4067C23.1898 15.8379 27.3696 15.8379 29.9383 18.4067C31.1828 19.6511 31.8681 21.3057 31.8681 23.0655C31.8681 24.6616 31.3043 26.171 30.271 27.3665L33.1933 30.2888C33.3794 30.4749 33.3794 30.7767 33.1933 30.9628ZM37.76 31.869H35.5676C35.3044 31.869 35.091 31.6557 35.091 31.3924C35.091 31.1292 35.3044 30.9159 35.5676 30.9159H37.76C38.0232 30.9159 38.2366 31.1292 38.2366 31.3924C38.2366 31.6557 38.0232 31.869 37.76 31.869Z" fill="url(#paint0_linear_20663_5710)"/>
</g>
<defs>
<filter id="filter0_f_20663_5710" x="1.92994" y="-6.531" width="57.5112" height="59.7886" filterUnits="userSpaceOnUse" color-interpolation-filters="sRGB">
<feFlood flood-opacity="0" result="BackgroundImageFix"/>
<feBlend mode="normal" in="SourceGraphic" in2="BackgroundImageFix" result="shape"/>
<feGaussianBlur stdDeviation="5.0448" result="effect1_foregroundBlur_20663_5710"/>
</filter>
<filter id="filter1_f_20663_5710" x="-18.6231" y="-37.4278" width="42.3166" height="101.299" filterUnits="userSpaceOnUse" color-interpolation-filters="sRGB">
<feFlood flood-opacity="0" result="BackgroundImageFix"/>
<feBlend mode="normal" in="SourceGraphic" in2="BackgroundImageFix" result="shape"/>
<feGaussianBlur stdDeviation="6.34282" result="effect1_foregroundBlur_20663_5710"/>
</filter>
<filter id="filter2_f_20663_5710" x="20.6112" y="15.6132" width="39.883" height="70.4338" filterUnits="userSpaceOnUse" color-interpolation-filters="sRGB">
<feFlood flood-opacity="0" result="BackgroundImageFix"/>
<feBlend mode="normal" in="SourceGraphic" in2="BackgroundImageFix" result="shape"/>
<feGaussianBlur stdDeviation="6.34282" result="effect1_foregroundBlur_20663_5710"/>
</filter>
<linearGradient id="paint0_linear_20663_5710" x1="14.1253" y1="14.4434" x2="37.8747" y2="37.5553" gradientUnits="userSpaceOnUse">
<stop offset="0.655894" stop-color="white"/>
<stop offset="1" stop-color="#999999" stop-opacity="0"/>
</linearGradient>
<clipPath id="clip0_20663_5710">
<rect width="52" height="52" rx="10.0896" fill="white"/>
</clipPath>
</defs>
</svg>
