<svg width="52" height="52" viewBox="0 0 52 52" fill="none" xmlns="http://www.w3.org/2000/svg">
<g clip-path="url(#clip0_20145_48341)">
<rect width="65.3091" height="110.35" rx="11.2602" transform="matrix(1 0 0 -1 0 51.7969)" fill="#6688EF"/>
<g filter="url(#filter0_f_20145_48341)">
<path d="M45.8861 47.5745C49.4089 48.9269 48.3504 20.5641 47.5746 10.6976C46.6741 -0.752514 13.1115 4.61194 7.31936 5.06743C1.52717 5.52291 37.3704 3.59861 40.8185 13.2308C40.8185 43.9148 40.0939 48.03 45.8861 47.5745Z" fill="white"/>
</g>
<g filter="url(#filter1_f_20145_48341)">
<path d="M1.61566 50.428C6.09666 50.4142 12.3576 28.7777 12.2858 5.37793C12.2141 -18.0218 5.83676 -34.3238 1.35576 -34.31C-3.12523 -34.2963 -6.69962 -15.3159 -6.62785 8.08386C-6.55608 31.4836 -2.86533 50.4417 1.61566 50.428Z" fill="#2544B3"/>
</g>
<g filter="url(#filter2_f_20145_48341)">
<path d="M45.1448 54.6121C49.6258 54.5983 53.4303 86.8187 53.3585 63.419C53.2868 40.0193 49.6258 24.8725 45.1448 24.8862C40.6638 24.9 37.0894 43.8804 37.1612 67.2801C37.233 90.6799 40.6638 54.6258 45.1448 54.6121Z" fill="#2544B3" fill-opacity="0.7"/>
</g>
<g clip-path="url(#clip1_20145_48341)">
<path d="M12.0064 24.1986C11.9456 24.688 12.3272 25.1201 12.8204 25.1201H16.1578C16.5583 25.1201 16.9004 24.8308 16.9667 24.4356C17.609 20.6105 20.6105 17.609 24.4356 16.9668C24.8307 16.9004 25.1201 16.5584 25.1201 16.1578V12.8204C25.1201 12.3272 24.688 11.9456 24.1986 12.0064C21.1213 12.3888 18.2142 13.8117 16.013 16.013C13.8117 18.2142 12.3888 21.1213 12.0064 24.1986Z" fill="white"/>
<path d="M31.2268 33.3655C29.6698 34.4771 27.8442 35.0647 25.9473 35.0647C21.4836 35.0647 17.7068 31.866 16.9668 27.4589C16.9004 27.0638 16.5584 26.7744 16.1578 26.7744H12.8204C12.3272 26.7744 11.9456 27.2064 12.0064 27.6958V27.6959C12.8782 34.7104 18.8714 40.0001 25.9473 40.0001C29.0994 40.0001 32.0805 38.977 34.5681 37.0413C34.9575 36.7384 34.9932 36.1627 34.6444 35.8139L32.2835 33.453C32 33.1695 31.5531 33.1325 31.2268 33.3655Z" fill="url(#paint0_linear_20145_48341)"/>
<path d="M27.458 16.9668C31.8651 17.7068 35.0638 21.4836 35.0638 25.9473C35.0638 27.8442 34.4762 29.6698 33.3646 31.2268C33.1316 31.5531 33.1686 32 33.4521 32.2835L35.8131 34.6444C36.162 34.9933 36.7376 34.9575 37.0405 34.5681L37.0406 34.5681C38.9761 32.0806 39.9992 29.0995 39.9992 25.9473C39.9992 18.8714 34.7095 12.8782 27.695 12.0064H27.6949C27.2055 11.9456 26.7734 12.3272 26.7734 12.8204V16.1578C26.7735 16.5584 27.0628 16.9004 27.458 16.9668Z" fill="url(#paint1_linear_20145_48341)"/>
<path d="M26.4967 20.3105H25.4023C24.9493 20.3105 24.582 20.6778 24.582 21.1309V30.7011H27.3171V21.1309C27.3171 20.6778 26.9498 20.3105 26.4967 20.3105Z" fill="white"/>
<path d="M28.957 30.7011H30.8718C31.3248 30.7011 31.6921 30.3338 31.6921 29.8808V23.3184C31.6921 22.8653 31.3248 22.498 30.8718 22.498H28.957V30.7011Z" fill="white"/>
<path d="M22.94 24.6855H21.0273C20.5743 24.6855 20.207 25.0528 20.207 25.5059V29.8808C20.207 30.3338 20.5743 30.7011 21.0273 30.7011H22.94V24.6855Z" fill="white"/>
</g>
</g>
<defs>
<filter id="filter0_f_20145_48341" x="-4.57269" y="-7.8432" width="64.1844" height="66.7245" filterUnits="userSpaceOnUse" color-interpolation-filters="sRGB">
<feFlood flood-opacity="0" result="BackgroundImageFix"/>
<feBlend mode="normal" in="SourceGraphic" in2="BackgroundImageFix" result="shape"/>
<feGaussianBlur stdDeviation="5.6301" result="effect1_foregroundBlur_20145_48341"/>
</filter>
<filter id="filter1_f_20145_48341" x="-20.7863" y="-48.467" width="47.2289" height="113.052" filterUnits="userSpaceOnUse" color-interpolation-filters="sRGB">
<feFlood flood-opacity="0" result="BackgroundImageFix"/>
<feBlend mode="normal" in="SourceGraphic" in2="BackgroundImageFix" result="shape"/>
<feGaussianBlur stdDeviation="7.07872" result="effect1_foregroundBlur_20145_48341"/>
</filter>
<filter id="filter2_f_20145_48341" x="23.0027" y="10.7293" width="44.5141" height="78.6059" filterUnits="userSpaceOnUse" color-interpolation-filters="sRGB">
<feFlood flood-opacity="0" result="BackgroundImageFix"/>
<feBlend mode="normal" in="SourceGraphic" in2="BackgroundImageFix" result="shape"/>
<feGaussianBlur stdDeviation="7.07872" result="effect1_foregroundBlur_20145_48341"/>
</filter>
<linearGradient id="paint0_linear_20145_48341" x1="21.9167" y1="26.583" x2="34.8847" y2="39.1007" gradientUnits="userSpaceOnUse">
<stop offset="0.366965" stop-color="white"/>
<stop offset="1" stop-color="white" stop-opacity="0"/>
</linearGradient>
<linearGradient id="paint1_linear_20145_48341" x1="32.5046" y1="11.6688" x2="45.6192" y2="15.897" gradientUnits="userSpaceOnUse">
<stop offset="0.366965" stop-color="white"/>
<stop offset="1" stop-color="white" stop-opacity="0"/>
</linearGradient>
<clipPath id="clip0_20145_48341">
<rect width="52" height="52" rx="11.2602" fill="white"/>
</clipPath>
<clipPath id="clip1_20145_48341">
<rect width="28" height="28" fill="white" transform="translate(12 12)"/>
</clipPath>
</defs>
</svg>
