<svg width="52" height="52" viewBox="0 0 52 52" fill="none" xmlns="http://www.w3.org/2000/svg">
<g clip-path="url(#clip0_20382_27787)">
<rect width="58.5196" height="98.878" rx="10.0896" transform="matrix(1 0 0 -1 0 52.4121)" fill="#EF8F66"/>
<g filter="url(#filter0_f_20382_27787)">
<path d="M47.1445 43.1258C50.3011 44.3376 49.3527 18.9233 48.6575 10.0826C47.8507 -0.177199 17.7772 4.62957 12.5872 5.03771C7.39714 5.44584 39.5141 3.72159 42.6038 12.3524C42.6038 39.8466 41.9545 43.5339 47.1445 43.1258Z" fill="white"/>
</g>
<g filter="url(#filter1_f_20382_27787)">
<path d="M1.44829 51.1847C5.46344 51.1724 11.0735 31.7852 11.0092 10.8181C10.9449 -10.1491 5.23056 -24.7563 1.21541 -24.7439C-2.79975 -24.7316 -6.00254 -7.72444 -5.93823 13.2427C-5.87392 34.2098 -2.56687 51.197 1.44829 51.1847Z" fill="#D84E14" fill-opacity="0.55"/>
</g>
<g filter="url(#filter2_f_20382_27787)">
<path d="M40.4498 54.9345C44.4649 54.9222 47.8739 83.793 47.8096 62.8259C47.7453 41.8588 44.4649 28.2867 40.4498 28.299C36.4346 28.3113 33.2318 45.3185 33.2961 66.2856C33.3604 87.2527 36.4346 54.9469 40.4498 54.9345Z" fill="#D84E14" fill-opacity="0.4"/>
</g>
<path d="M40.1158 29.0747C39.4869 28.0964 38.8579 27.1529 38.2289 26.1745C38.0891 25.9649 38.0891 25.8251 38.2289 25.6154C38.8579 24.672 39.4519 23.7285 40.0809 22.7851C40.8147 21.6669 40.4303 20.5837 39.1724 20.1295C38.1241 19.7451 37.0758 19.3258 36.0275 18.9414C35.8179 18.8715 35.7131 18.7318 35.7131 18.4872C35.6781 17.3341 35.6082 16.181 35.5383 15.0628C35.4685 13.8398 34.525 13.141 33.337 13.4554C32.2188 13.735 31.1007 14.0495 30.0174 14.3639C29.7728 14.4338 29.6331 14.3639 29.4583 14.1892C28.7595 13.2807 28.0257 12.4072 27.3269 11.5336C26.5581 10.5552 25.3701 10.5552 24.5664 11.5336C23.8675 12.4072 23.1337 13.2807 22.4698 14.1543C22.2951 14.3989 22.1204 14.4338 21.8409 14.3639C20.7577 14.0495 19.6744 13.7699 18.9057 13.5603C17.4032 13.2108 16.4947 13.8049 16.4248 15.0628C16.3549 16.2159 16.285 17.369 16.2501 18.557C16.2501 18.8016 16.1452 18.9065 15.9356 19.0113C14.8524 19.4306 13.7692 19.8499 12.6859 20.2692C11.5678 20.7235 11.2184 21.8067 11.8823 22.82C12.5112 23.7984 13.1402 24.7419 13.7692 25.7203C13.9089 25.9299 13.9089 26.0697 13.7692 26.3143C13.1052 27.2927 12.4763 28.2711 11.8473 29.2844C11.2533 30.2279 11.6377 31.346 12.6859 31.7653C13.7692 32.1846 14.8873 32.6039 15.9705 33.0233C16.2151 33.0932 16.285 33.2329 16.285 33.4775C16.32 34.5957 16.4597 35.6789 16.4597 36.7971C16.4597 37.9152 17.4381 38.9285 18.8009 38.5092C19.8841 38.1598 20.9673 37.9152 22.0505 37.6007C22.2602 37.5308 22.3999 37.5658 22.5397 37.7754C23.2735 38.6839 23.9724 39.5575 24.7062 40.466C25.5098 41.4444 26.6629 41.4444 27.4317 40.466C28.1655 39.5575 28.8643 38.6839 29.5981 37.7754C29.7379 37.6007 29.8427 37.5308 30.0873 37.6007C31.2055 37.9152 32.3236 38.1947 33.4418 38.5092C34.5949 38.8237 35.5733 38.1249 35.6082 36.9368C35.6781 35.7837 35.748 34.6306 35.7829 33.4426C35.7829 33.163 35.9227 33.0582 36.1324 32.9883C37.1806 32.6039 38.2638 32.1846 39.3121 31.7653C40.4303 31.2062 40.7797 30.0881 40.1158 29.0747ZM31.7646 23.3442L24.7761 30.3327C24.6013 30.5074 24.3567 30.6472 24.1121 30.6821C24.0423 30.6821 23.9374 30.7171 23.8675 30.7171C23.5531 30.7171 23.2036 30.5773 22.959 30.3327L20.0938 27.4674C19.6046 26.9782 19.6046 26.1745 20.0938 25.6853C20.5829 25.1961 21.3866 25.1961 21.8758 25.6853L23.8326 27.6421L29.9126 21.5621C30.4018 21.0729 31.2055 21.0729 31.6947 21.5621C32.2537 22.0513 32.2537 22.855 31.7646 23.3442Z" fill="url(#paint0_linear_20382_27787)"/>
</g>
<defs>
<filter id="filter0_f_20382_27787" x="1.93385" y="-6.53002" width="57.5073" height="59.7876" filterUnits="userSpaceOnUse" color-interpolation-filters="sRGB">
<feFlood flood-opacity="0" result="BackgroundImageFix"/>
<feBlend mode="normal" in="SourceGraphic" in2="BackgroundImageFix" result="shape"/>
<feGaussianBlur stdDeviation="5.0448" result="effect1_foregroundBlur_20382_27787"/>
</filter>
<filter id="filter1_f_20382_27787" x="-18.6231" y="-37.4298" width="42.3166" height="101.3" filterUnits="userSpaceOnUse" color-interpolation-filters="sRGB">
<feFlood flood-opacity="0" result="BackgroundImageFix"/>
<feBlend mode="normal" in="SourceGraphic" in2="BackgroundImageFix" result="shape"/>
<feGaussianBlur stdDeviation="6.34282" result="effect1_foregroundBlur_20382_27787"/>
</filter>
<filter id="filter2_f_20382_27787" x="20.6112" y="15.6132" width="39.8869" height="70.4338" filterUnits="userSpaceOnUse" color-interpolation-filters="sRGB">
<feFlood flood-opacity="0" result="BackgroundImageFix"/>
<feBlend mode="normal" in="SourceGraphic" in2="BackgroundImageFix" result="shape"/>
<feGaussianBlur stdDeviation="6.34282" result="effect1_foregroundBlur_20382_27787"/>
</filter>
<linearGradient id="paint0_linear_20382_27787" x1="10.0029" y1="8.42924" x2="39.4483" y2="40.698" gradientUnits="userSpaceOnUse">
<stop offset="0.48531" stop-color="white"/>
<stop offset="1" stop-color="white" stop-opacity="0"/>
</linearGradient>
<clipPath id="clip0_20382_27787">
<rect width="52" height="52" rx="10.0896" fill="white"/>
</clipPath>
</defs>
</svg>
