<svg width="52" height="52" viewBox="0 0 52 52" fill="none" xmlns="http://www.w3.org/2000/svg">
<g clip-path="url(#clip0_20382_27680)">
<rect width="65.3091" height="110.35" rx="11.2602" transform="matrix(1 0 0 -1 0 51.7969)" fill="#6688EF"/>
<g filter="url(#filter0_f_20382_27680)">
<path d="M45.8861 47.5745C49.4089 48.9269 48.3504 20.5641 47.5746 10.6976C46.6741 -0.752514 13.1115 4.61194 7.31936 5.06743C1.52717 5.52291 37.3704 3.59861 40.8185 13.2308C40.8185 43.9148 40.0939 48.03 45.8861 47.5745Z" fill="white"/>
</g>
<g filter="url(#filter1_f_20382_27680)">
<path d="M1.61566 50.428C6.09666 50.4142 12.3576 28.7777 12.2858 5.37793C12.2141 -18.0218 5.83676 -34.3238 1.35576 -34.31C-3.12523 -34.2963 -6.69962 -15.3159 -6.62785 8.08386C-6.55608 31.4836 -2.86533 50.4417 1.61566 50.428Z" fill="#2544B3"/>
</g>
<g filter="url(#filter2_f_20382_27680)">
<path d="M45.1448 54.6121C49.6258 54.5983 53.4303 86.8187 53.3585 63.419C53.2868 40.0193 49.6258 24.8725 45.1448 24.8862C40.6638 24.9 37.0894 43.8804 37.1612 67.2801C37.233 90.6799 40.6638 54.6258 45.1448 54.6121Z" fill="#2544B3" fill-opacity="0.7"/>
</g>
<g clip-path="url(#clip1_20382_27680)">
<path d="M40.8093 13.1429L38.5344 13.468L38.8594 11.1931C39.0007 10.2043 37.7964 9.59988 37.0889 10.308L32.9153 14.4816C32.7557 14.6413 32.6521 14.8484 32.6202 15.0719L32.1477 18.3794L26.9948 23.5324C26.5867 23.3371 26.1354 23.2188 25.6536 23.2188C23.9276 23.2188 22.5234 24.6229 22.5234 26.3489C22.5234 28.075 23.9276 29.4791 25.6536 29.4791C27.3797 29.4791 28.7838 28.075 28.7838 26.3489C28.7838 25.8672 28.6654 25.4159 28.4702 25.0078L33.6231 19.8549L36.9306 19.3824C37.1541 19.3504 37.3613 19.2469 37.5209 19.0873L41.6946 14.9136C42.3998 14.2082 41.8027 13.0038 40.8093 13.1429Z" fill="white"/>
<path d="M34.1134 22.3103L30.8078 25.6156C30.8418 25.8558 30.8654 26.0992 30.8654 26.3486C30.8654 29.2254 28.5252 31.5656 25.6484 31.5656C22.7716 31.5656 20.4314 29.2254 20.4314 26.3486C20.4314 23.4718 22.7716 21.1316 25.6484 21.1316C25.8977 21.1316 26.1411 21.1552 26.3812 21.1892L29.6868 17.8836C28.4614 17.2966 27.0954 16.958 25.6484 16.958C20.4705 16.958 16.2578 21.1707 16.2578 26.3486C16.2578 31.5266 20.4705 35.7393 25.6484 35.7393C30.8264 35.7393 35.0391 31.5266 35.0391 26.3486C35.039 24.9016 34.7005 23.5356 34.1134 22.3103Z" fill="white"/>
<path d="M39.8275 19.7294L38.9938 20.5631C38.5183 21.0389 37.8893 21.3534 37.2233 21.4485L36.092 21.6102C36.7514 23.0569 37.1285 24.6584 37.1285 26.3493C37.1285 32.678 31.9797 37.8267 25.6511 37.8267C19.3224 37.8267 14.1736 32.678 14.1736 26.3493C14.1736 20.0206 19.3224 14.8719 25.6511 14.8719C27.342 14.8719 28.9434 15.2489 30.3902 15.9084L30.5518 14.7771C30.6469 14.1111 30.9614 13.4821 31.4373 13.0062L32.2708 12.1728C30.2147 11.2099 27.9732 10.6982 25.651 10.6982C17.0209 10.6982 10 17.7192 10 26.3493C10 34.9794 17.0209 42.0004 25.6511 42.0004C34.2812 42.0004 41.3021 34.9794 41.3021 26.3493C41.3021 24.0271 40.7905 21.7854 39.8275 19.7294Z" fill="url(#paint0_linear_20382_27680)"/>
</g>
</g>
<defs>
<filter id="filter0_f_20382_27680" x="-4.57269" y="-7.8432" width="64.1844" height="66.7245" filterUnits="userSpaceOnUse" color-interpolation-filters="sRGB">
<feFlood flood-opacity="0" result="BackgroundImageFix"/>
<feBlend mode="normal" in="SourceGraphic" in2="BackgroundImageFix" result="shape"/>
<feGaussianBlur stdDeviation="5.6301" result="effect1_foregroundBlur_20382_27680"/>
</filter>
<filter id="filter1_f_20382_27680" x="-20.7902" y="-48.467" width="47.2367" height="113.052" filterUnits="userSpaceOnUse" color-interpolation-filters="sRGB">
<feFlood flood-opacity="0" result="BackgroundImageFix"/>
<feBlend mode="normal" in="SourceGraphic" in2="BackgroundImageFix" result="shape"/>
<feGaussianBlur stdDeviation="7.07872" result="effect1_foregroundBlur_20382_27680"/>
</filter>
<filter id="filter2_f_20382_27680" x="22.9988" y="10.7293" width="44.518" height="78.6049" filterUnits="userSpaceOnUse" color-interpolation-filters="sRGB">
<feFlood flood-opacity="0" result="BackgroundImageFix"/>
<feBlend mode="normal" in="SourceGraphic" in2="BackgroundImageFix" result="shape"/>
<feGaussianBlur stdDeviation="7.07872" result="effect1_foregroundBlur_20382_27680"/>
</filter>
<linearGradient id="paint0_linear_20382_27680" x1="14.3873" y1="10.6982" x2="36.9148" y2="42.0004" gradientUnits="userSpaceOnUse">
<stop offset="0.265865" stop-color="white"/>
<stop offset="1" stop-color="white" stop-opacity="0"/>
</linearGradient>
<clipPath id="clip0_20382_27680">
<rect width="52" height="52" rx="11.2602" fill="white"/>
</clipPath>
<clipPath id="clip1_20382_27680">
<rect width="32" height="32" fill="white" transform="translate(10 10)"/>
</clipPath>
</defs>
</svg>
