<svg width="53" height="52" viewBox="0 0 53 52" fill="none" xmlns="http://www.w3.org/2000/svg">
<g clip-path="url(#clip0_20382_27797)">
<rect width="63.1075" height="106.63" rx="10.8806" transform="matrix(1 0 0 -1 0.476562 52.0508)" fill="#54D66E"/>
<g filter="url(#filter0_f_20382_27797)">
<path d="M45.8139 45.9698C49.2179 47.2766 48.1952 19.8699 47.4455 10.336C46.5754 -0.728122 14.1442 4.4555 8.54727 4.89563C2.95034 5.33576 37.5853 3.47633 40.9171 12.7838C40.9171 42.4335 40.2169 46.4099 45.8139 45.9698Z" fill="white"/>
</g>
<g filter="url(#filter1_f_20382_27797)">
<path d="M4.76376 50.7192C7.96362 50.7093 12.4178 29.8071 12.3485 7.19613C12.2791 -15.4148 7.71248 -31.1721 4.51262 -31.1623C1.31276 -31.1525 -1.22502 -12.8147 -1.15567 9.79621C-1.08632 32.4071 1.5639 50.729 4.76376 50.7192Z" fill="#009B63" fill-opacity="0.85"/>
</g>
<g filter="url(#filter2_f_20382_27797)">
<path d="M44.0979 54.771C48.4278 54.7577 52.104 85.892 52.0347 63.281C51.9653 40.6701 48.4278 26.034 44.0979 26.0472C39.7679 26.0605 36.314 44.4011 36.3834 67.012C36.4527 89.6229 39.7679 54.7843 44.0979 54.771Z" fill="#009B63" fill-opacity="0.7"/>
</g>
<path d="M36 12.5H16C13.24 12.5 11 14.74 11 17.5V29.5C11 32.26 13.24 34.5 16 34.5H17.5L15.5 39.5L22.5 34.5H36C38.76 34.5 41 32.26 41 29.5V17.5C41 14.74 38.76 12.5 36 12.5ZM17 20.645L15.375 21.5L15.685 19.69L14.37 18.41L16.185 18.145L16.995 16.5L17.805 18.145L19.62 18.41L18.305 19.69L18.615 21.5L16.99 20.645H17ZM23.125 30.5L21.5 29.645L19.875 30.5L20.185 28.69L18.87 27.41L20.685 27.145L21.495 25.5L22.305 27.145L24.12 27.41L22.805 28.69L23.115 30.5H23.125ZM26 20.645L24.375 21.5L24.685 19.69L23.37 18.41L25.185 18.145L25.995 16.5L26.805 18.145L28.62 18.41L27.305 19.69L27.615 21.5L25.99 20.645H26ZM32.125 30.5L30.5 29.645L28.875 30.5L29.185 28.69L27.87 27.41L29.685 27.145L30.495 25.5L31.305 27.145L33.12 27.41L31.805 28.69L32.115 30.5H32.125ZM36.625 21.5L35 20.645L33.375 21.5L33.685 19.69L32.37 18.41L34.185 18.145L34.995 16.5L35.805 18.145L37.62 18.41L36.305 19.69L36.615 21.5H36.625Z" fill="url(#paint0_linear_20382_27797)"/>
</g>
<defs>
<filter id="filter0_f_20382_27797" x="-2.9431" y="-7.57982" width="62.019" height="64.4751" filterUnits="userSpaceOnUse" color-interpolation-filters="sRGB">
<feFlood flood-opacity="0" result="BackgroundImageFix"/>
<feBlend mode="normal" in="SourceGraphic" in2="BackgroundImageFix" result="shape"/>
<feGaussianBlur stdDeviation="5.4403" result="effect1_foregroundBlur_20382_27797"/>
</filter>
<filter id="filter1_f_20382_27797" x="-14.8364" y="-44.8423" width="40.8682" height="109.241" filterUnits="userSpaceOnUse" color-interpolation-filters="sRGB">
<feFlood flood-opacity="0" result="BackgroundImageFix"/>
<feBlend mode="normal" in="SourceGraphic" in2="BackgroundImageFix" result="shape"/>
<feGaussianBlur stdDeviation="6.84009" result="effect1_foregroundBlur_20382_27797"/>
</filter>
<filter id="filter2_f_20382_27797" x="22.7026" y="12.3667" width="43.0166" height="75.9561" filterUnits="userSpaceOnUse" color-interpolation-filters="sRGB">
<feFlood flood-opacity="0" result="BackgroundImageFix"/>
<feBlend mode="normal" in="SourceGraphic" in2="BackgroundImageFix" result="shape"/>
<feGaussianBlur stdDeviation="6.84009" result="effect1_foregroundBlur_20382_27797"/>
</filter>
<linearGradient id="paint0_linear_20382_27797" x1="11" y1="12.636" x2="41" y2="39.364" gradientUnits="userSpaceOnUse">
<stop offset="0.49915" stop-color="white"/>
<stop offset="1" stop-color="white" stop-opacity="0"/>
</linearGradient>
<clipPath id="clip0_20382_27797">
<rect x="0.476562" width="52" height="52" rx="10.8806" fill="white"/>
</clipPath>
</defs>
</svg>
