<svg width="19" height="19" viewBox="0 0 19 19" fill="none" xmlns="http://www.w3.org/2000/svg">
<g clip-path="url(#clip0_20800_13999)">
<path d="M9.5 19C14.7467 19 19 14.7467 19 9.5C19 4.25329 14.7467 0 9.5 0C4.25329 0 0 4.25329 0 9.5C0 14.7467 4.25329 19 9.5 19Z" fill="#F0F0F0"/>
<path d="M9.08594 9.49976H18.999C18.999 8.64231 18.8847 7.81165 18.6717 7.02148H9.08594V9.49976Z" fill="#D80027"/>
<path d="M9.08594 4.5437H17.6046C17.0231 3.59474 16.2795 2.75596 15.4126 2.06543H9.08594V4.5437Z" fill="#D80027"/>
<path d="M9.49954 18.9998C11.7353 18.9998 13.7903 18.227 15.4131 16.9346H3.58594C5.20873 18.227 7.26374 18.9998 9.49954 18.9998Z" fill="#D80027"/>
<path d="M1.39521 14.4568H17.6065C18.0734 13.695 18.4355 12.8622 18.6736 11.9785H0.328125C0.566256 12.8622 0.928332 13.695 1.39521 14.4568Z" fill="#D80027"/>
<path d="M4.40058 1.48356H5.2663L4.46103 2.06859L4.76863 3.01521L3.96339 2.43018L3.15816 3.01521L3.42386 2.19743C2.71485 2.78803 2.09341 3.47997 1.5813 4.25095H1.8587L1.34611 4.62335C1.26625 4.75657 1.18965 4.89191 1.11625 5.02925L1.36102 5.78261L0.904356 5.45081C0.790838 5.69132 0.687006 5.93724 0.593676 6.18828L0.86335 7.01835H1.8587L1.05342 7.60338L1.36102 8.55L0.555787 7.96497L0.0734394 8.31543C0.0251602 8.70352 0 9.09881 0 9.5H9.5C9.5 4.25333 9.5 3.63479 9.5 0C7.6233 0 5.87386 0.544395 4.40058 1.48356ZM4.76863 8.55L3.96339 7.96497L3.15816 8.55L3.46576 7.60338L2.66048 7.01835H3.65583L3.96339 6.07172L4.27096 7.01835H5.2663L4.46103 7.60338L4.76863 8.55ZM4.46103 4.83598L4.76863 5.78261L3.96339 5.19758L3.15816 5.78261L3.46576 4.83598L2.66048 4.25095H3.65583L3.96339 3.30433L4.27096 4.25095H5.2663L4.46103 4.83598ZM8.17623 8.55L7.371 7.96497L6.56576 8.55L6.87336 7.60338L6.06809 7.01835H7.06344L7.371 6.07172L7.67856 7.01835H8.67391L7.86863 7.60338L8.17623 8.55ZM7.86863 4.83598L8.17623 5.78261L7.371 5.19758L6.56576 5.78261L6.87336 4.83598L6.06809 4.25095H7.06344L7.371 3.30433L7.67856 4.25095H8.67391L7.86863 4.83598ZM7.86863 2.06859L8.17623 3.01521L7.371 2.43018L6.56576 3.01521L6.87336 2.06859L6.06809 1.48356H7.06344L7.371 0.536936L7.67856 1.48356H8.67391L7.86863 2.06859Z" fill="#0052B4"/>
</g>
<defs>
<clipPath id="clip0_20800_13999">
<rect width="19" height="19" fill="white"/>
</clipPath>
</defs>
</svg>
