<svg width="19" height="19" viewBox="0 0 19 19" fill="none" xmlns="http://www.w3.org/2000/svg">
<g clip-path="url(#clip0_21094_5423)">
<path d="M9.5 19C14.7467 19 19 14.7467 19 9.5C19 4.25329 14.7467 0 9.5 0C4.25329 0 0 4.25329 0 9.5C0 14.7467 4.25329 19 9.5 19Z" fill="#F0F0F0"/>
<path d="M0 9.50004C0 4.25333 4.25333 0 9.5 0C14.7467 0 19 4.25333 19 9.50004" fill="#D80027"/>
<path d="M5.78603 4.95572C5.78603 3.57161 6.75878 2.41536 8.05776 2.13166C7.85811 2.08809 7.651 2.06445 7.43818 2.06445C5.84132 2.06445 4.54688 3.3589 4.54688 4.95576C4.54688 6.55261 5.84132 7.84706 7.43818 7.84706C7.65093 7.84706 7.85807 7.82342 8.05776 7.77982C6.75878 7.49612 5.78603 6.33986 5.78603 4.95572Z" fill="#F0F0F0"/>
<path d="M9.50921 2.27051L9.71427 2.90155H10.3778L9.84097 3.29161L10.046 3.92265L9.50921 3.53267L8.97238 3.92265L9.17745 3.29161L8.64062 2.90155H9.30414L9.50921 2.27051Z" fill="#F0F0F0"/>
<path d="M7.89991 3.50977L8.10494 4.14085H8.76849L8.23166 4.53087L8.43673 5.16191L7.89991 4.77193L7.36301 5.16191L7.56811 4.53087L7.03125 4.14085H7.6948L7.89991 3.50977Z" fill="#F0F0F0"/>
<path d="M11.1108 3.50977L11.3159 4.14085H11.9794L11.4425 4.53087L11.6476 5.16191L11.1108 4.77193L10.5739 5.16191L10.779 4.53087L10.2422 4.14085H10.9057L11.1108 3.50977Z" fill="#F0F0F0"/>
<path d="M10.5014 5.36816L10.7065 5.99925H11.37L10.8332 6.38927L11.0382 7.02031L10.5014 6.63033L9.96457 7.02031L10.1696 6.38927L9.63281 5.99925H10.2963L10.5014 5.36816Z" fill="#F0F0F0"/>
<path d="M8.51706 5.36816L8.72209 5.99925H9.38568L8.84881 6.38927L9.05392 7.02031L8.51706 6.63033L7.9802 7.02031L8.18526 6.38927L7.64844 5.99925H8.31199L8.51706 5.36816Z" fill="#F0F0F0"/>
</g>
<defs>
<clipPath id="clip0_21094_5423">
<rect width="19" height="19" fill="white"/>
</clipPath>
</defs>
</svg>
