<svg width="19" height="19" viewBox="0 0 19 19" fill="none" xmlns="http://www.w3.org/2000/svg">
<g clip-path="url(#clip0_20800_5898)">
<path d="M9.4996 19.0002C14.7461 19.0002 18.9992 14.7471 18.9992 9.50058C18.9992 4.25409 14.7461 0.000976562 9.4996 0.000976562C4.25312 0.000976562 0 4.25409 0 9.50058C0 14.7471 4.25312 19.0002 9.4996 19.0002Z" fill="white"/>
<path d="M9.4996 19.0002C14.7461 19.0002 18.9992 14.7471 18.9992 9.50058C18.9992 4.25409 14.7461 0.000976562 9.4996 0.000976562C4.25312 0.000976562 0 4.25409 0 9.50058C0 14.7471 4.25312 19.0002 9.4996 19.0002Z" fill="white"/>
<path d="M18.4554 6.33263C18.4544 6.32962 18.4535 6.3271 18.4524 6.32437C17.2366 2.89612 14.1092 0.373873 10.3516 0.0390625C11.8055 0.836158 12.2301 3.36158 12.6022 6.33259C12.8563 8.36195 12.8579 10.598 12.607 12.6299C12.2381 15.617 11.8117 18.1602 10.3516 18.9606C14.116 18.6252 17.2478 16.0943 18.4589 12.6569C18.4621 12.6477 18.4648 12.6387 18.4681 12.6299C18.8101 11.6496 18.9983 10.597 18.9983 9.50015C18.9983 8.38895 18.8059 7.32335 18.4554 6.33263Z" fill="#EFECEC"/>
<path d="M13.0929 6.33256C12.721 3.3615 11.8072 0.836124 10.3531 0.0390285C10.0719 0.0141192 9.78748 0 9.4998 0C5.36716 0 1.85263 2.63941 0.545837 6.32429C0.544794 6.32698 0.543871 6.32955 0.542829 6.33256C0.192455 7.32327 0 8.38887 0 9.50008C0 10.597 0.188243 11.6496 0.530234 12.6298C0.533402 12.6387 0.53625 12.6477 0.539379 12.6568C1.84108 16.3512 5.36038 18.9998 9.49976 18.9998C9.78748 18.9998 10.0719 18.9857 10.3531 18.9605C11.8132 18.1601 12.7288 15.6169 13.0976 12.6298C13.3486 10.5978 13.347 8.36188 13.0929 6.33256Z" fill="#F3F2F2"/>
<path d="M9.49973 13.0004C11.4326 13.0004 12.9995 11.4335 12.9995 9.5007C12.9995 7.56786 11.4326 6.00098 9.49973 6.00098C7.56688 6.00098 6 7.56786 6 9.5007C6 11.4335 7.56688 13.0004 9.49973 13.0004Z" fill="#EC1C24"/>
</g>
<defs>
<clipPath id="clip0_20800_5898">
<rect width="19" height="19" fill="white"/>
</clipPath>
</defs>
</svg>
