<svg width="19" height="19" viewBox="0 0 19 19" fill="none" xmlns="http://www.w3.org/2000/svg">
<g clip-path="url(#clip0_20800_6118)">
<path d="M0.59375 12.8046C1.93603 16.4221 5.41819 19.0002 9.50286 19.0002C13.5875 19.0002 17.0697 16.4221 18.412 12.8046L9.50286 11.9785L0.59375 12.8046Z" fill="#FFDA44"/>
<path d="M9.50286 0C5.41819 0 1.93603 2.57806 0.59375 6.19567L9.50286 7.02172L18.412 6.19563C17.0697 2.57806 13.5875 0 9.50286 0Z" fill="black"/>
<path d="M0.590893 6.19531C0.209037 7.22447 0 8.3376 0 9.49964C0 10.6617 0.209037 11.7748 0.590893 12.804H18.4091C18.791 11.7748 19 10.6617 19 9.49964C19 8.3376 18.791 7.22447 18.4091 6.19531H0.590893Z" fill="#D80027"/>
</g>
<defs>
<clipPath id="clip0_20800_6118">
<rect width="19" height="19" fill="white"/>
</clipPath>
</defs>
</svg>
