<svg width="19" height="19" viewBox="0 0 19 19" fill="none" xmlns="http://www.w3.org/2000/svg">
<g clip-path="url(#clip0_20800_6031)">
<path d="M19 9.5C19 10.1058 18.9426 10.7009 18.8315 11.2745H11.5111V18.7849C10.8623 18.9247 10.1919 19 9.5 19C8.80811 19 8.13415 18.9247 7.48528 18.7849V11.2745H0.168491C0.0573585 10.7009 0 10.1058 0 9.5C0 8.89415 0.0573585 8.29906 0.168491 7.72547H7.48528V0.215094C8.13415 0.075283 8.80811 0 9.5 0C10.1919 0 10.8623 0.075283 11.5111 0.215094V7.72547H18.8315C18.9426 8.29906 19 8.89415 19 9.5Z" fill="#F30040"/>
<path d="M6.90291 0.390625V6.01176L2.50781 3.06855C3.65857 1.821 5.13555 0.881757 6.80611 0.390625H6.90291Z" fill="#14439E"/>
<path d="M2.30405 7.00809H0.335938C0.43273 6.63526 0.554617 6.27677 0.698013 5.93262L2.30405 7.00809Z" fill="#14439E"/>
<path d="M6.32284 7.00834H3.92454L1.07812 5.10834C1.26812 4.73551 1.48322 4.38061 1.72699 4.04004L6.32284 7.00834Z" fill="#F30040"/>
<path d="M6.90291 12.9844V18.6091H6.80611C5.13555 18.1144 3.65498 17.1751 2.50781 15.9276L6.90291 12.9844Z" fill="#14439E"/>
<path d="M2.30405 11.9912L0.698013 13.0667C0.554617 12.7225 0.43273 12.364 0.335938 11.9912H2.30405Z" fill="#14439E"/>
<path d="M6.32284 11.9912L1.72699 14.9595C1.48322 14.6189 1.26812 14.2605 1.07812 13.8876L3.92454 11.9912H6.32284Z" fill="#F30040"/>
<path d="M16.4967 3.06855L12.1016 6.01176V0.390625H12.1984C13.8689 0.881757 15.3459 1.821 16.4967 3.06855Z" fill="#14439E"/>
<path d="M18.6677 7.00809H16.7031L18.3092 5.93262C18.449 6.27677 18.5709 6.63526 18.6677 7.00809Z" fill="#14439E"/>
<path d="M17.9208 5.10834L15.0744 7.00834H12.6797L17.272 4.04004C17.5157 4.38061 17.7308 4.73551 17.9208 5.10834Z" fill="#F30040"/>
<path d="M16.4967 15.9276C15.3495 17.1751 13.8689 18.1144 12.1984 18.6091H12.1016V12.9844L16.4967 15.9276Z" fill="#14439E"/>
<path d="M18.6677 11.9912C18.5709 12.3605 18.449 12.7189 18.3092 13.0631L16.7031 11.9912H18.6677Z" fill="#14439E"/>
<path d="M17.9208 13.8876C17.7308 14.2605 17.5157 14.6189 17.272 14.9595L12.6797 11.9912H15.0744L17.9208 13.8876Z" fill="#F30040"/>
<path d="M18.8282 7.72522H11.5078V0.214844C11.7408 0.265032 11.9703 0.318806 12.1925 0.390504H12.0957V6.01164L16.4908 3.06843C16.7705 3.37315 17.0322 3.69579 17.2688 4.03994L12.6765 7.00824H15.0712L17.9176 5.10824C18.0646 5.37711 18.1901 5.64956 18.3048 5.93277L16.6988 7.00824H18.6633C18.7278 7.24126 18.7852 7.48145 18.8282 7.72522Z" fill="white"/>
<path d="M7.48867 0.214844V7.72522H0.171875C0.214894 7.48145 0.272252 7.24126 0.336781 7.00824H2.30489L0.698856 5.93277C0.809988 5.64956 0.93546 5.37711 1.08244 5.10824L3.92886 7.00824H6.32716L1.73131 4.03994C1.96791 3.69579 2.22961 3.37315 2.50923 3.06843L6.90433 6.01164V0.390504H6.80754C7.0298 0.318806 7.25565 0.265032 7.48867 0.214844Z" fill="white"/>
<path d="M7.48867 11.2744V18.7848C7.25565 18.7346 7.0298 18.6808 6.80754 18.6091H6.90433V12.9844L2.50923 15.9276C2.22961 15.6229 1.96791 15.3003 1.73131 14.9597L6.32716 11.9914H3.92886L1.08244 13.8878C0.93546 13.6225 0.809988 13.3501 0.698856 13.0669L2.30489 11.9914H0.336781C0.272252 11.7584 0.214894 11.5182 0.171875 11.2744H7.48867Z" fill="white"/>
<path d="M18.6633 11.9914H16.6988L18.3048 13.0633C18.1901 13.3501 18.0646 13.6189 17.9176 13.8878L15.0712 11.9914H12.6765L17.2688 14.9597C17.0322 15.3003 16.7705 15.6229 16.4908 15.9276L12.0957 12.9844V18.6091H12.1925C11.9703 18.6808 11.7408 18.7346 11.5078 18.7848V11.2744H18.8282C18.7852 11.5182 18.7278 11.7584 18.6633 11.9914Z" fill="white"/>
</g>
<defs>
<clipPath id="clip0_20800_6031">
<rect width="19" height="19" fill="white"/>
</clipPath>
</defs>
</svg>
