<svg width="19" height="19" viewBox="0 0 19 19" fill="none" xmlns="http://www.w3.org/2000/svg">
<g clip-path="url(#clip0_21094_5252)">
<path d="M9.5 19C14.7467 19 19 14.7467 19 9.5C19 4.25329 14.7467 0 9.5 0C4.25329 0 0 4.25329 0 9.5C0 14.7467 4.25329 19 9.5 19Z" fill="#F7931E"/>
<path d="M19 9.5C19 14.7567 14.7567 19 9.5 19C4.24333 19 0 14.7567 0 9.5H19Z" fill="#009245"/>
<path d="M19 9.49967C19 8.42301 18.81 7.34634 18.43 6.33301H0.57C-0.19 8.35967 -0.19 10.6397 0.57 12.6663H18.4933C18.81 11.653 19 10.5763 19 9.49967Z" fill="#F0F0F0"/>
<path d="M9.50208 6.9668C8.10875 6.9668 6.96875 8.1068 6.96875 9.50013C6.96875 10.8935 8.10875 12.0335 9.50208 12.0335C10.8954 12.0335 12.0354 10.8935 12.0354 9.50013C12.0354 8.1068 10.8954 6.9668 9.50208 6.9668ZM9.50208 11.4001C8.42542 11.4001 7.60208 10.5768 7.60208 9.50013C7.60208 8.42346 8.42542 7.60013 9.50208 7.60013C10.5788 7.60013 11.4021 8.42346 11.4021 9.50013C11.4021 10.5768 10.5788 11.4001 9.50208 11.4001Z" fill="#0071BC"/>
<path d="M9.50104 10.7667C10.2006 10.7667 10.7677 10.1996 10.7677 9.50007C10.7677 8.8005 10.2006 8.2334 9.50104 8.2334C8.80148 8.2334 8.23438 8.8005 8.23438 9.50007C8.23438 10.1996 8.80148 10.7667 9.50104 10.7667Z" fill="#0071BC"/>
</g>
<defs>
<clipPath id="clip0_21094_5252">
<rect width="19" height="19" fill="white"/>
</clipPath>
</defs>
</svg>
