<svg width="19" height="19" viewBox="0 0 19 19" fill="none" xmlns="http://www.w3.org/2000/svg">
<g clip-path="url(#clip0_20800_5824)">
<mask id="mask0_20800_5824" style="mask-type:luminance" maskUnits="userSpaceOnUse" x="0" y="0" width="19" height="19">
<path d="M18.4017 9.49865C18.4019 10.6681 18.1718 11.8261 17.7244 12.9066C17.2771 13.9871 16.6213 14.9689 15.7944 15.7959C14.9676 16.6229 13.9859 17.279 12.9055 17.7266C11.8251 18.1741 10.6671 18.4045 9.4977 18.4045C8.32826 18.4045 7.17027 18.1741 6.08986 17.7266C5.00946 17.279 4.02781 16.6229 3.20098 15.7959C2.37414 14.9689 1.71833 13.9871 1.27097 12.9066C0.82362 11.8261 0.593498 10.6681 0.59375 9.49865C0.593498 8.3292 0.82362 7.17116 1.27097 6.09066C1.71833 5.01016 2.37414 4.02837 3.20098 3.20136C4.02781 2.37435 5.00946 1.71832 6.08986 1.27073C7.17027 0.823145 8.32826 0.592773 9.4977 0.592773C10.6671 0.592773 11.8251 0.823145 12.9055 1.27073C13.9859 1.71832 14.9676 2.37435 15.7944 3.20136C16.6213 4.02837 17.2771 5.01016 17.7244 6.09066C18.1718 7.17116 18.4019 8.3292 18.4017 9.49865Z" fill="white"/>
</mask>
<g mask="url(#mask0_20800_5824)">
<path d="M-3.86719 14.2937H22.8516V12.9229H-3.86719V14.2937Z" fill="white"/>
<path d="M-3.86719 12.9231H22.8516V11.5527H-3.86719V12.9231Z" fill="#E74C3C"/>
<path d="M-3.86719 17.0335H22.8516V15.6631H-3.86719V17.0335Z" fill="white"/>
<path d="M-3.86719 18.4051H22.8516V17.0342H-3.86719V18.4051Z" fill="#E74C3C"/>
<path d="M-3.86719 15.6633H22.8516V14.2939H-3.86719V15.6633Z" fill="#E74C3C"/>
<path d="M-3.86719 11.4875H22.8516V10.1182H-3.86719V11.4875Z" fill="white"/>
<path d="M-3.86719 7.4416H22.8516V6.07227H-3.86719V7.4416Z" fill="#E74C3C"/>
<path d="M-3.86719 3.33183H22.8516V1.96094H-3.86719V3.33183Z" fill="white"/>
<path d="M-3.86719 4.70144H22.8516V3.33105H-3.86719V4.70144Z" fill="#E74C3C"/>
<path d="M-3.86719 10.1835H22.8516V8.81152H-3.86719V10.1835Z" fill="#E74C3C"/>
<path d="M-3.86719 1.96055H22.8516V0.592773H-3.86719V1.96055Z" fill="#E74C3C"/>
<path d="M-3.86719 6.07306H22.8516V4.70215H-3.86719V6.07306Z" fill="white"/>
<path d="M-3.86719 8.81172H22.8516V7.44238H-3.86719V8.81172Z" fill="white"/>
</g>
<mask id="mask1_20800_5824" style="mask-type:luminance" maskUnits="userSpaceOnUse" x="0" y="0" width="19" height="19">
<path d="M18.4008 9.49918C18.401 10.6686 18.1709 11.8265 17.7236 12.907C17.2762 13.9874 16.6205 14.9692 15.7937 15.7961C14.9669 16.6231 13.9853 17.2791 12.9049 17.7267C11.8246 18.1742 10.6666 18.4046 9.49726 18.4046C8.32787 18.4046 7.16994 18.1742 6.08959 17.7267C5.00924 17.2791 4.02764 16.6231 3.20085 15.7961C2.37406 14.9692 1.71827 13.9874 1.27094 12.907C0.823609 11.8265 0.593498 10.6686 0.59375 9.49918C0.593498 8.32979 0.823609 7.17181 1.27094 6.09136C1.71827 5.01092 2.37406 4.02918 3.20085 3.20221C4.02764 2.37523 5.00924 1.71924 6.08959 1.27167C7.16994 0.82411 8.32787 0.59375 9.49726 0.59375C10.6666 0.59375 11.8246 0.82411 12.9049 1.27167C13.9853 1.71924 14.9669 2.37523 15.7937 3.20221C16.6205 4.02918 17.2762 5.01092 17.7236 6.09136C18.1709 7.17181 18.401 8.32979 18.4008 9.49918Z" fill="white"/>
</mask>
<g mask="url(#mask1_20800_5824)">
<path d="M1.8019 0.59375C1.12802 0.59375 0.585938 1.24132 0.585938 2.04456V11.6297H9.49219V0.59375H1.8019Z" fill="#3C3B6E"/>
</g>
<path d="M4.87429 4.97656C3.85696 4.97656 3.03125 5.95415 3.03125 7.15859C3.03125 8.36303 3.85696 9.34062 4.87429 9.34062C5.24184 9.34062 5.58428 9.21287 5.8719 8.99308C5.70441 9.06173 5.52466 9.09929 5.33753 9.09929C4.43544 9.09929 3.70331 8.23249 3.70331 7.16448C3.70331 6.09647 4.43544 5.22967 5.33753 5.22967C5.53689 5.22967 5.72785 5.27197 5.90454 5.34945C5.61038 5.1141 5.25578 4.97656 4.87429 4.97656Z" fill="#FFCC00"/>
<path d="M7.92872 8.29343L7.15225 7.81238L7.38183 8.79689L6.86249 7.97334L6.70046 8.9757L6.54111 7.97277L6.01958 8.79446L6.25178 7.81078L5.47403 8.28904L6.05179 7.51945L5.17188 7.55957L5.98076 7.15648L5.17295 6.75051L6.05276 6.79378L5.47705 6.02212L6.25352 6.50317L6.02394 5.51866L6.54329 6.34221L6.70531 5.33984L6.86466 6.34278L7.38619 5.52109L7.15399 6.50477L7.93174 6.02651L7.35398 6.7961L8.2339 6.75598L7.42501 7.15906L8.23282 7.56504L7.35301 7.52177L7.92872 8.29343Z" fill="#FFCC00"/>
</g>
<defs>
<clipPath id="clip0_20800_5824">
<rect width="19" height="19" fill="white"/>
</clipPath>
</defs>
</svg>
