<svg width="19" height="19" viewBox="0 0 19 19" fill="none" xmlns="http://www.w3.org/2000/svg">
<g clip-path="url(#clip0_20800_5726)">
<path d="M9.5 19C14.7467 19 19 14.7467 19 9.5C19 4.25329 14.7467 0 9.5 0C4.25329 0 0 4.25329 0 9.5C0 14.7467 4.25329 19 9.5 19Z" fill="#012169"/>
<path d="M8.30933 0.0823333L4.75 3.6423L3.363 2.25467C2.96414 2.59326 2.59366 2.96394 2.2553 3.363L3.6423 4.75L0.0823333 8.30933C0.0301894 8.70413 0.00269166 9.10179 0 9.5H1.1077L4.75 5.8577L8.3923 9.5H9.5V8.3923L5.8577 4.75L9.5 1.1077V0C9.10179 0.00269166 8.70413 0.0301894 8.30933 0.0823333Z" fill="white"/>
<path d="M5.70242 0.795898C5.02784 1.09324 4.39021 1.46816 3.80242 1.9131V3.1671H2.43569C1.60763 4.08949 0.968566 5.16536 0.554688 6.33377H3.80242V9.50043H5.70242V6.33377H9.50242V3.1671H5.70242V0.795898Z" fill="white"/>
<path d="M9.5 0C9.23717 0 8.9794 0.0183667 8.72163 0.0392667L4.38077 4.38077L2.78223 2.78223C2.65937 2.9089 2.54727 3.03937 2.43073 3.1692L4.38077 5.11923L0 9.5H0.738467L5.11923 5.11923L9.5 9.5V8.7609L5.11923 4.38077L9.5 0Z" fill="#C8102E"/>
<path d="M5.32141 0.979492C4.92672 1.16925 4.54579 1.38638 4.18141 1.62929V3.80036H1.91408C1.46914 4.38815 1.09421 5.02578 0.796875 5.70036H4.18141V9.50036H5.32141V5.70036H9.50141V3.80036H5.32141V0.979492Z" fill="#C8102E"/>
<path d="M5.03271 13.8378L5.61031 14.4458L5.49504 13.6155L6.33041 13.5427L5.60904 13.1146L6.07327 12.4166L5.28921 12.713L5.03271 11.915L4.77558 12.713L3.99151 12.4166L4.45574 13.1146L3.73438 13.5427L4.56974 13.6155L4.45511 14.4458L5.03271 13.8378Z" fill="white"/>
<path d="M11.3005 9.4945L11.6672 9.88084L11.5944 9.35327L12.1251 9.30704L11.6672 9.03534L11.9617 8.59137L11.4639 8.7801L11.3005 8.27344L11.1378 8.7801L10.6393 8.59137L10.9345 9.03534L10.4766 9.30704L11.0067 9.35327L10.9338 9.88084L11.3005 9.4945Z" fill="white"/>
<path d="M14.2615 6.28811L14.6288 6.67381L14.5553 6.14624L15.0861 6.10001L14.6282 5.82831L14.9227 5.38497L14.4249 5.57371L14.2615 5.06641L14.0987 5.57371L13.6009 5.38497L13.8954 5.82831L13.4375 6.10001L13.9682 6.14624L13.8948 6.67381L14.2615 6.28811Z" fill="white"/>
<path d="M16.8865 8.7051L17.2538 9.09143L17.1803 8.56387L17.7111 8.51763L17.2532 8.24593L17.5477 7.80197L17.0499 7.9907L16.8865 7.4834L16.7237 7.9907L16.2259 7.80197L16.5204 8.24593L16.0625 8.51763L16.5932 8.56387L16.5198 9.09143L16.8865 8.7051Z" fill="white"/>
<path d="M14.2615 14.1801L14.6288 14.5664L14.5553 14.0388L15.0861 13.9926L14.6282 13.7209L14.9227 13.2776L14.4249 13.4657L14.2615 12.959L14.0987 13.4657L13.6009 13.2776L13.8954 13.7209L13.4375 13.9926L13.9682 14.0388L13.8948 14.5664L14.2615 14.1801Z" fill="white"/>
<path d="M15.4459 10.5709L15.7353 10.7508L15.6542 10.4195L15.9145 10.1991L15.5744 10.1744L15.4459 9.8584L15.3167 10.1744L14.9766 10.1991L15.2375 10.4195L15.1558 10.7508L15.4459 10.5709Z" fill="white"/>
</g>
<defs>
<clipPath id="clip0_20800_5726">
<rect width="19" height="19" fill="white"/>
</clipPath>
</defs>
</svg>
