<svg width="19" height="19" viewBox="0 0 19 19" fill="none" xmlns="http://www.w3.org/2000/svg">
<g clip-path="url(#clip0_20800_5934)">
<mask id="mask0_20800_5934" style="mask-type:luminance" maskUnits="userSpaceOnUse" x="0" y="0" width="19" height="19">
<path d="M18.4119 9.49797C18.4119 10.6679 18.1815 11.8264 17.7338 12.9073C17.2861 13.9882 16.6298 14.9704 15.8025 15.7977C14.9752 16.6249 13.9931 17.2812 12.9122 17.7289C11.8313 18.1766 10.6728 18.4071 9.50285 18.4071C8.33289 18.4071 7.17439 18.1766 6.09348 17.7289C5.01258 17.2812 4.03045 16.6249 3.20316 15.7977C2.37588 14.9704 1.71964 13.9882 1.27191 12.9073C0.824189 11.8264 0.59375 10.6679 0.59375 9.49797C0.59375 8.32801 0.824189 7.1695 1.27191 6.0886C1.71964 5.0077 2.37588 4.02557 3.20316 3.19828C4.03045 2.371 5.01258 1.71476 6.09348 1.26703C7.17439 0.819308 8.33289 0.588867 9.50285 0.588867C10.6728 0.588867 11.8313 0.819308 12.9122 1.26703C13.9931 1.71476 14.9752 2.371 15.8025 3.19828C16.6298 4.02557 17.2861 5.0077 17.7338 6.0886C18.1815 7.1695 18.4119 8.32801 18.4119 9.49797Z" fill="white"/>
</mask>
<g mask="url(#mask0_20800_5934)">
<path d="M1.44042 0.217773C0.763373 0.217773 0.21875 0.763605 0.21875 1.44065V17.5567C0.21875 18.2338 0.763373 18.7784 1.44042 18.7784H17.5565C18.2335 18.7784 18.7794 18.2338 18.7794 17.5567V1.44065C18.7794 0.763605 18.2335 0.217773 17.5565 0.217773H1.44042Z" fill="#479951"/>
<path fill-rule="evenodd" clip-rule="evenodd" d="M7.76607 5.05861C7.75321 5.05823 7.73399 5.0654 7.70704 5.08139C7.64645 5.12201 7.52638 5.2471 7.52271 5.39103C7.51903 5.47223 7.50371 5.47191 7.55688 5.52358C7.59529 5.57897 7.63365 5.57352 7.71118 5.5329C7.7557 5.5001 7.77074 5.47918 7.78574 5.42417C7.80421 5.33192 7.68866 5.46782 7.6739 5.36514C7.64808 5.26982 7.72184 5.23061 7.79195 5.13835C7.79356 5.0949 7.79434 5.05944 7.76607 5.05861ZM8.89483 5.06482C8.87317 5.06774 8.84668 5.09548 8.80991 5.16217C8.78356 5.23201 8.66988 5.33771 8.75192 5.55568C8.81902 5.6939 8.84658 5.91852 8.81612 6.16875C8.76963 6.23986 8.75903 6.26436 8.69807 6.33547C8.61243 6.42756 8.51967 6.40402 8.44849 6.36965C8.38199 6.32482 8.32973 6.30181 8.29937 6.15942C8.30485 5.93246 8.31807 5.56097 8.27659 5.48214C8.21543 5.36006 8.11463 5.40384 8.07154 5.44071C7.86452 5.63 7.76227 5.94962 7.69976 6.20393C7.64235 6.38927 7.58117 6.33567 7.53821 6.26088C7.43364 6.16288 7.42629 5.39653 7.30003 5.52253C7.09782 6.10046 7.41608 6.73357 7.63659 6.67203C7.79568 6.7379 7.89662 6.43508 7.96176 6.10351C8.00632 6.01045 8.04037 5.99976 8.06324 6.04759C8.05736 6.48853 8.09486 6.58688 8.20822 6.7207C8.46111 6.9158 8.67027 6.74541 8.68668 6.72898C8.70308 6.71258 8.88344 6.53222 8.88344 6.53222C8.92726 6.48613 8.98517 6.48332 9.04706 6.52394C9.10721 6.57862 9.09949 6.6728 9.22829 6.7383C9.33668 6.78166 9.56812 6.74885 9.6218 6.65546C9.69405 6.53164 9.71157 6.48909 9.74504 6.44213C9.79661 6.37349 9.88484 6.40388 9.88484 6.42556C9.87663 6.46384 9.82478 6.5016 9.85999 6.57054C9.92132 6.61653 9.93556 6.58697 9.97183 6.57675C10.1001 6.51543 10.1966 6.23708 10.1966 6.23708C10.2022 6.13327 10.1432 6.14115 10.1054 6.16252C10.0562 6.19262 10.0532 6.20285 10.0039 6.23294C9.94121 6.24226 9.81969 6.28364 9.75954 6.19049C9.69811 6.07849 9.69776 5.92236 9.6508 5.80939C9.6508 5.80118 9.56874 5.63177 9.64459 5.62092C9.68287 5.62803 9.76519 5.6493 9.77818 5.58053C9.81833 5.51349 9.69155 5.32332 9.60524 5.22741C9.53032 5.14517 9.42687 5.13515 9.32667 5.21912C9.25649 5.28368 9.2669 5.35579 9.25314 5.42417C9.23527 5.50269 9.23869 5.59996 9.31838 5.70377C9.38842 5.84189 9.51567 6.01909 9.47372 6.26918C9.47372 6.26918 9.39978 6.3882 9.26971 6.37274C9.2155 6.36091 9.12716 6.33745 9.0802 5.99062C9.04466 5.72808 9.08911 5.36026 8.97768 5.18804C8.95252 5.12305 8.93092 5.05996 8.89483 5.06482ZM8.53759 5.09266C8.50389 5.0956 8.46655 5.13486 8.43611 5.21071C8.40999 5.2684 8.37808 5.57007 8.38329 5.57007C8.36245 5.65985 8.4771 5.6979 8.52931 5.58249C8.60757 5.37093 8.60794 5.28079 8.61319 5.19106C8.601 5.12271 8.5713 5.08972 8.53759 5.09266ZM9.8569 5.11648C9.82228 5.11961 9.79471 5.13988 9.78441 5.19104C9.77062 5.31132 9.77767 5.37672 9.79787 5.47686C9.81337 5.54363 9.91056 5.65542 9.95839 5.72022C10.1869 6.02739 10.4068 6.33603 10.6191 6.65535C10.6525 6.89246 10.6769 7.12439 10.6926 7.3554C10.727 7.86189 10.7375 8.49238 10.7061 9.02578C10.801 9.02952 10.953 8.87255 11.0064 8.64263C11.0411 8.32458 10.9941 7.67565 10.9909 7.48796C10.9886 7.41003 10.9838 7.31706 10.9785 7.21974C11.2254 7.62333 11.465 8.05092 11.7002 8.52042C11.786 8.47967 11.767 7.9969 11.7168 7.9291C11.5286 7.52392 11.2685 7.12397 11.1856 6.97014C11.1556 6.91459 11.0537 6.75956 10.9329 6.58077C10.9106 6.32565 10.8865 6.10957 10.8708 6.04432C10.8319 5.77464 10.9816 6.07473 10.9608 5.91798C10.9123 5.64866 10.7636 5.46564 10.588 5.21896C10.5314 5.13873 10.5325 5.12236 10.4451 5.23863C10.3929 5.35716 10.3936 5.45578 10.4089 5.54827C10.3859 5.51486 10.3575 5.47524 10.3167 5.42607C10.1651 5.29598 10.1557 5.28886 10.0299 5.18271C9.99018 5.15455 9.91462 5.1112 9.85692 5.11643L9.8569 5.11648ZM13.7672 5.15687C13.7504 5.15424 13.732 5.16253 13.7113 5.19311C13.6718 5.22778 13.6292 5.29057 13.6305 5.37123C13.6402 5.51336 13.6655 5.65887 13.6751 5.801C13.6785 5.82002 13.682 5.83894 13.6854 5.85796C13.6702 5.83848 13.6568 5.82327 13.6492 5.81551C13.3722 5.52448 13.7765 5.76794 13.5964 5.54315C13.4441 5.37591 13.3995 5.32269 13.2691 5.22212C13.2038 5.17987 13.1643 5.09913 13.1428 5.23662C13.1342 5.3574 13.1253 5.49726 13.1335 5.59908C13.133 5.65567 13.1916 5.76218 13.2422 5.82484C13.427 6.05189 13.6158 6.29348 13.8056 6.5456C13.8455 7.05978 13.8561 7.53111 13.8967 8.04614C13.8909 8.26643 13.8232 8.55899 13.759 8.5867C13.759 8.5867 13.6609 8.64305 13.5953 8.58048C13.5477 8.56135 13.3571 8.26256 13.3571 8.26256C13.2596 8.17315 13.1946 8.1987 13.1252 8.26256C12.9338 8.44737 12.8472 8.79354 12.7172 9.032C12.6836 9.08521 12.5892 9.1305 12.4842 9.02786C12.2175 8.66347 12.3734 8.14479 12.3402 8.2781C12.1027 8.54582 12.2079 8.98942 12.2615 9.08483C12.3399 9.24151 12.4032 9.34182 12.5556 9.41932C12.6944 9.5215 12.8025 9.45773 12.8622 9.38619C13.0018 9.24142 13.0037 8.87122 13.0693 8.79798C13.1153 8.66344 13.2305 8.68658 13.2867 8.7462C13.3412 8.82453 13.4055 8.87549 13.4856 8.91811C13.6159 9.03304 13.7714 9.05392 13.9247 8.94917C14.0294 8.89042 14.0974 8.81406 14.1587 8.66335C14.2245 8.48737 14.192 7.56508 14.1773 7.052C14.2757 7.19062 14.3729 7.33224 14.4694 7.47554C14.5117 7.92592 14.531 8.36948 14.517 8.79485C14.507 8.87942 14.8121 8.54235 14.8101 8.38267C14.8087 8.24297 14.8103 8.11635 14.8101 7.99846C14.9581 8.23476 15.1013 8.475 15.2367 8.7182C15.3206 8.67374 15.2919 8.19865 15.2388 8.13311C15.097 7.89522 14.9155 7.63815 14.7749 7.43925C14.7471 7.18823 14.7092 6.89207 14.692 6.80134C14.6652 6.65985 14.6383 6.44732 14.5978 6.27941C14.5867 6.21384 14.5531 6.00441 14.5636 5.98427C14.5801 5.93741 14.6426 5.98577 14.6734 5.93145C14.7194 5.88125 14.5137 5.34828 14.4093 5.19618C14.3718 5.12801 14.3039 5.1516 14.2198 5.26245C14.1418 5.3354 14.1704 5.50183 14.2001 5.66012C14.2774 6.06354 14.3464 6.47439 14.401 6.88418C14.2999 6.73392 14.1766 6.5521 14.0551 6.37677C14.0519 6.35986 14.0396 6.29789 14.0396 6.29703C14.0396 6.28978 14.0229 5.967 14.0085 5.89006C14.006 5.85883 13.9986 5.84984 14.0313 5.85381C14.066 5.883 14.0707 5.88458 14.0924 5.8942C14.1274 5.90061 14.1581 5.84138 14.1369 5.7865C14.0286 5.58659 13.9202 5.38579 13.8118 5.18586C13.7987 5.17302 13.7841 5.15949 13.7672 5.15687ZM3.67559 5.16722C3.61553 5.1655 3.54927 5.20273 3.57514 5.27492C3.56007 5.31427 3.6927 5.44727 3.71598 5.52035C3.73685 5.57239 3.69527 5.73996 3.73876 5.75543C3.77874 5.77276 3.8338 5.63943 3.85474 5.51621C3.86633 5.44871 3.85756 5.21769 3.70044 5.17031C3.6924 5.16849 3.68417 5.16747 3.67559 5.16722ZM15.1716 5.16855C15.158 5.16991 15.1413 5.19203 15.1157 5.24622C15.0543 5.34689 15.0331 5.52714 15.0577 5.68633C15.2057 6.68721 15.3157 7.65638 15.3384 8.54349C15.3256 8.6277 15.3219 8.67249 15.2825 8.77857C15.1951 8.89053 15.0988 9.03089 15.008 9.09856C14.9173 9.1662 14.7242 9.23069 14.6611 9.28082C14.4608 9.39659 14.4598 9.52973 14.6217 9.53454C14.9008 9.50214 15.231 9.47924 15.4585 9.13585C15.5194 9.03962 15.591 8.77875 15.5942 8.61909C15.6154 7.68303 15.5822 6.76778 15.4419 6.09125C15.4329 6.02535 15.4038 5.87388 15.415 5.85411C15.4331 5.80778 15.5244 5.85875 15.5569 5.80543C15.6046 5.75673 15.3207 5.39332 15.2213 5.23794C15.2015 5.19891 15.1892 5.1668 15.1716 5.16855ZM12.2451 5.18408C12.2336 5.18607 12.2166 5.20361 12.1851 5.24518C12.1071 5.50007 12.0797 5.70822 12.1095 5.86653C12.3097 6.91151 12.5149 7.86355 12.4823 8.8583C12.5772 8.85893 12.687 8.64107 12.7339 8.42545C12.7596 8.12841 12.7168 7.94762 12.7091 7.77302C12.7014 7.59843 12.5114 6.18191 12.473 6.04982C12.4265 5.80004 12.6577 6.01696 12.6324 5.8717C12.5525 5.68856 12.3531 5.42188 12.2907 5.26278C12.2672 5.22017 12.2643 5.18077 12.2451 5.18408ZM5.11936 5.20376C5.09475 5.20802 5.07101 5.2283 5.06241 5.26175C5.05699 5.28366 5.07189 5.32011 5.05205 5.33113C5.04066 5.34262 4.99743 5.3349 4.99923 5.27418C4.99923 5.25484 4.98503 5.23465 4.97645 5.2224C4.96783 5.21675 4.96202 5.21515 4.94642 5.21515C4.92741 5.21592 4.92784 5.22093 4.91742 5.23689C4.91278 5.25313 4.90682 5.26904 4.90682 5.2876C4.90445 5.30921 4.89579 5.31653 4.87989 5.3197C4.86212 5.3197 4.86633 5.32163 4.85193 5.31245C4.84338 5.3031 4.83329 5.29942 4.83329 5.28345C4.83329 5.26692 4.82895 5.24053 4.82397 5.2296C4.81642 5.21965 4.8045 5.21447 4.79083 5.21096C4.71638 5.21123 4.71096 5.29679 4.71524 5.32902C4.70966 5.3351 4.7069 5.48673 4.80844 5.52888C4.94475 5.59388 5.20037 5.5664 5.18953 5.34662C5.18953 5.32718 5.18526 5.2619 5.18332 5.2441C5.16941 5.2117 5.14372 5.19945 5.11911 5.20371L5.11936 5.20376ZM6.94821 5.20583C6.9011 5.20823 6.85951 5.22173 6.82394 5.24C6.73359 5.32651 6.7124 5.4652 6.78355 5.55171C6.85279 5.58441 6.92188 5.6541 6.87571 5.69255C6.67991 5.90169 6.1703 6.25116 6.14461 6.31492C6.14442 6.31544 6.14369 6.31651 6.14358 6.31699C6.14351 6.31745 6.14359 6.31865 6.14358 6.31906C6.1436 6.31926 6.14355 6.31991 6.14358 6.32009C6.14375 6.32062 6.14429 6.32174 6.14461 6.32217C6.14475 6.3223 6.1455 6.32308 6.14565 6.3232C6.14581 6.3233 6.1465 6.3231 6.14668 6.3232C6.14688 6.3233 6.14749 6.32416 6.14772 6.32423C6.14795 6.3243 6.14849 6.32417 6.14875 6.32423C6.14882 6.3243 6.1497 6.32519 6.14978 6.32527C6.17568 6.34264 6.49456 6.34223 6.52985 6.3263C6.53011 6.32617 6.53067 6.3254 6.53088 6.32527C6.53098 6.3252 6.53183 6.32533 6.53192 6.32527C6.53198 6.3252 6.53185 6.3243 6.53192 6.32423C6.64151 6.28385 7.16155 5.68943 7.16155 5.68943C7.13459 5.66635 7.10976 5.64934 7.08284 5.62626C7.05398 5.60128 7.05689 5.57672 7.08284 5.5517C7.21164 5.47675 7.17083 5.31184 7.10355 5.23689C7.04779 5.21189 6.99532 5.20342 6.94821 5.20583ZM11.7284 5.2079C11.7147 5.20926 11.6981 5.23035 11.6725 5.28453C11.611 5.3852 11.5693 5.56052 11.5741 5.72464C11.7073 6.64636 11.7481 7.45295 11.8351 8.37469C11.8422 8.46384 11.8291 8.59334 11.7698 8.64498C11.5507 8.87384 11.2346 9.1561 10.8907 9.28601C10.8536 9.32756 10.9827 9.50468 11.1495 9.50451C11.4286 9.47211 11.6739 9.31549 11.9014 8.90285C11.9622 8.80662 12.0691 8.60064 12.0723 8.44097C12.0935 7.50491 12.0251 6.77712 11.8848 6.10057C11.8758 6.03467 11.8819 5.95672 11.8931 5.93694C11.9112 5.91537 11.9725 5.93744 12.0049 5.88413C12.0526 5.83543 11.8776 5.43162 11.7782 5.27624C11.7583 5.23721 11.746 5.20615 11.7284 5.2079ZM4.32298 5.23607C4.28446 5.24057 4.24823 5.27193 4.23082 5.31374C4.22437 5.46157 4.2235 5.60933 4.24014 5.74556C4.30737 5.98452 4.32867 6.19469 4.3613 6.43942C4.37035 6.76719 4.17202 6.5812 4.18111 6.4187C4.2269 6.20764 4.21454 5.87537 4.17386 5.79113C4.14159 5.70692 4.10423 5.68614 4.02577 5.7C3.96347 5.69619 3.80254 5.87154 3.75755 6.16188C3.75755 6.16188 3.72007 6.31089 3.7037 6.44356C3.68169 6.5935 3.58236 6.69968 3.51316 6.42285C3.45333 6.22164 3.41657 5.72588 3.3164 5.8419C3.2877 6.22899 3.25364 6.91011 3.58254 6.98C3.98037 7.01825 3.76061 6.30749 3.9046 6.17845C3.93183 6.11469 3.98227 6.11355 3.98642 6.19398V6.79773C3.98278 6.994 4.11193 7.05232 4.21217 7.09287C4.31648 7.08482 4.38565 7.08767 4.42654 7.18918C4.44284 7.5372 4.45994 7.88608 4.47625 8.23407C4.47625 8.23407 4.7174 8.30337 4.72893 7.64689C4.74048 7.26142 4.65217 6.93796 4.70407 6.86296C4.70591 6.78928 4.80036 6.78564 4.86562 6.82154C4.9696 6.89489 5.01573 6.98516 5.17733 6.94892C5.42323 6.88118 5.57135 6.76182 5.57499 6.573C5.56063 6.39356 5.53987 6.21394 5.46211 6.0345C5.47297 6.00186 5.41505 5.91697 5.42587 5.88434C5.47006 5.95355 5.53691 5.9478 5.55221 5.88434C5.51035 5.74642 5.4452 5.61428 5.33992 5.5571C5.2529 5.48044 5.12558 5.49665 5.07895 5.65651C5.05734 5.84072 5.14571 6.05904 5.27985 6.23746C5.30834 6.30717 5.3482 6.42311 5.33059 6.52742C5.25921 6.56814 5.18844 6.5512 5.12866 6.48807C5.12866 6.48807 4.93293 6.34155 4.93293 6.30892C4.98487 5.97637 4.94412 5.9383 4.91533 5.84601C4.89522 5.71861 4.83485 5.67827 4.78588 5.59126C4.73692 5.53935 4.67049 5.53935 4.63883 5.59126C4.55232 5.74123 4.59291 6.06321 4.6554 6.20743C4.70056 6.34007 4.76981 6.42283 4.73721 6.42283C4.71036 6.49778 4.65436 6.48035 4.61398 6.39384C4.55633 6.21504 4.54459 5.94855 4.54459 5.82843C4.52729 5.67949 4.508 5.36134 4.40997 5.28062C4.38381 5.24499 4.35294 5.23257 4.32298 5.23607ZM5.71996 5.23814C5.70022 5.24063 5.6784 5.25187 5.65265 5.25781C5.56808 5.28474 5.4889 5.35785 5.51389 5.50014C5.61386 6.10763 5.67902 6.57127 5.77899 7.1788C5.79436 7.24994 5.73472 7.34372 5.65783 7.33414C5.5271 7.24569 5.49465 7.06656 5.27157 7.0742C5.11007 7.07614 4.9259 7.25188 4.90291 7.42113C4.87598 7.55564 4.8664 7.70149 4.90291 7.81879C5.01641 7.95527 5.15236 7.94072 5.27157 7.90992C5.3696 7.86957 5.45026 7.77296 5.4849 7.79601C5.485 7.79611 5.48585 7.79588 5.48593 7.79601C5.48603 7.79614 5.48583 7.7969 5.48593 7.79704C5.50731 7.83441 5.48392 8.1504 5.02405 8.39456C4.74144 8.52146 4.5165 8.55178 4.39545 8.32104C4.32046 8.17684 4.4009 7.62765 4.21629 7.75457C3.67034 9.16186 5.49537 9.3583 5.69924 7.81256C5.71244 7.76895 5.75266 7.7252 5.78105 7.73593C5.79351 7.74123 5.80491 7.75815 5.80901 7.78978C5.76669 9.18938 4.39712 9.28532 4.16452 8.84504C4.10687 8.74126 4.08952 8.51024 4.08374 8.37179C4.0732 8.28803 4.05218 8.23972 4.02782 8.22059C3.97233 8.1789 3.89776 8.28763 3.88181 8.47638C3.85873 8.62826 3.86524 8.66995 3.86524 8.81605C3.93829 9.92152 5.70071 9.44654 5.98713 8.53334C6.12891 8.06125 5.98424 7.70511 6.03166 7.6614C6.03207 7.66106 6.03329 7.66067 6.03373 7.66037C6.03418 7.6601 6.03532 7.65957 6.0358 7.65933C6.03629 7.65914 6.03735 7.65847 6.03787 7.6583C6.03948 7.65787 6.04219 7.65729 6.04408 7.65727C6.21904 7.84572 6.46454 7.68121 6.51836 7.61584C6.54144 7.58314 6.59918 7.56217 6.63952 7.60445C6.776 7.70255 7.01521 7.65631 7.06515 7.48329C7.09401 7.31411 7.1184 7.13994 7.12418 6.95931C7.03528 6.98691 6.96354 7.00757 6.93467 7.03801C6.92779 7.04552 6.9227 7.05385 6.9212 7.06286C6.91349 7.11287 6.90614 7.16302 6.89842 7.21302C6.8976 7.21715 6.89627 7.22097 6.89428 7.22441C6.89049 7.23055 6.88423 7.23621 6.87771 7.23994C6.84628 7.25711 6.79148 7.24729 6.78865 7.20163C6.74636 7.00937 6.57234 6.98436 6.46658 7.28241C6.39544 7.34006 6.26571 7.35131 6.25222 7.2648C6.26952 7.06486 6.18896 7.03802 6.0275 7.13225C5.97559 6.73621 5.9241 6.3581 5.87216 5.96206C5.93947 5.96012 6.00118 6.00892 6.06271 5.93203C5.99613 5.72496 5.85524 5.30363 5.77586 5.26409C5.77523 5.26379 5.7744 5.2633 5.77378 5.26306C5.77018 5.25873 5.76592 5.25475 5.76239 5.25167C5.76093 5.25042 5.75867 5.24857 5.75722 5.24752C5.75576 5.24651 5.75349 5.24525 5.75204 5.24442C5.74885 5.24267 5.74486 5.24124 5.74168 5.24028C5.73444 5.23823 5.72741 5.23726 5.71993 5.23821L5.71996 5.23814ZM11.1659 5.24124C11.0961 5.23917 11.0188 5.28319 11.0489 5.37069C11.0314 5.41842 11.199 5.58032 11.226 5.66893C11.2746 5.80508 11.1889 5.93495 11.2395 5.95372C11.286 5.97473 11.3508 5.81316 11.3751 5.66376C11.4032 5.54298 11.3171 5.29546 11.1949 5.24436C11.1856 5.24215 11.1759 5.24154 11.1659 5.24124ZM6.92322 5.39037C6.95503 5.38712 6.99346 5.41635 7.01228 5.45768C7.03236 5.50176 7.02229 5.54388 6.9895 5.55192C6.95671 5.55995 6.9143 5.53076 6.89423 5.48667C6.87415 5.44259 6.88422 5.39943 6.91701 5.3914C6.91906 5.3909 6.9211 5.39058 6.92322 5.39037ZM14.7936 5.59437C14.7299 5.59214 14.6605 5.64049 14.688 5.73521C14.672 5.78688 14.8239 5.96238 14.8485 6.05831C14.8706 6.12658 14.8148 6.34661 14.8609 6.36691C14.9034 6.38966 14.963 6.2149 14.9852 6.05313C14.9975 5.96459 14.9319 5.65385 14.8205 5.59851C14.812 5.59612 14.8027 5.59469 14.7936 5.59437ZM10.4422 5.70207C10.448 5.72804 10.4538 5.75418 10.4577 5.78078C10.4708 5.83816 10.482 5.89516 10.494 5.95164C10.4437 5.88243 10.4021 5.8265 10.3842 5.80666C10.2705 5.67149 10.3868 5.7179 10.4422 5.70207ZM11.4446 6.19501C11.42 6.19927 11.3963 6.22058 11.3877 6.25403C11.3823 6.27594 11.3982 6.31136 11.3784 6.32238C11.367 6.33387 11.3227 6.32718 11.3245 6.26646C11.3245 6.24712 11.3103 6.22591 11.3017 6.21364C11.2931 6.208 11.2873 6.2064 11.2717 6.2064C11.2527 6.20716 11.2531 6.21218 11.2427 6.22814C11.2383 6.24441 11.2323 6.26045 11.2323 6.27888C11.23 6.30049 11.2223 6.30781 11.2064 6.31099C11.1887 6.31099 11.1918 6.31292 11.1775 6.30374C11.1689 6.29439 11.1588 6.29071 11.1588 6.27474C11.1588 6.25821 11.1545 6.23181 11.1495 6.22089C11.1419 6.21094 11.13 6.20679 11.1164 6.20329C11.0419 6.20355 11.0375 6.28807 11.0418 6.3203C11.0362 6.32638 11.0324 6.47905 11.134 6.52121C11.2703 6.5862 11.5269 6.55769 11.5161 6.33791C11.5161 6.31847 11.5108 6.25319 11.5088 6.23539C11.4949 6.20299 11.4692 6.19075 11.4446 6.19501ZM6.86755 6.24057C6.85074 6.23886 6.82871 6.24503 6.80334 6.26025C6.6828 6.32545 6.63612 6.51886 6.71118 6.63203C6.78129 6.7317 6.89214 6.6952 6.9069 6.6952C7.02501 6.70996 7.09538 6.47358 7.09538 6.47358C7.09537 6.47358 7.09893 6.40712 6.95868 6.53261C6.89966 6.54367 6.89163 6.52235 6.87687 6.48912C6.86458 6.42762 6.86722 6.36527 6.89551 6.30375C6.90858 6.26686 6.89558 6.24343 6.86755 6.24057ZM13.3378 6.2706C13.2709 6.26735 13.1997 6.31069 13.1815 6.40212C13.1817 6.45607 13.2058 6.48571 13.2011 6.53468C13.1942 6.56267 13.1653 6.58108 13.0965 6.54814C13.1073 6.53825 13.052 6.46012 13.052 6.46012C12.9984 6.42745 12.9267 6.46189 12.8801 6.49222C12.8545 6.53885 12.8355 6.61877 12.8646 6.70037C12.9416 6.84263 13.2057 7.08537 13.3316 7.08769C13.334 6.95943 13.3464 6.78887 13.3534 6.68277C13.3563 6.64273 13.3657 6.59859 13.4041 6.58853C13.4425 6.57851 13.509 6.62711 13.5097 6.58543C13.5028 6.50383 13.4865 6.38342 13.4404 6.32654C13.4167 6.29155 13.378 6.27256 13.3378 6.2706ZM7.98199 6.71695C7.98022 6.7176 7.97845 6.71912 7.97682 6.72005C7.97602 6.72054 7.97452 6.72154 7.97371 6.72212C7.96038 6.73213 7.94466 6.75522 7.90951 6.78011C7.85022 6.84755 7.83959 6.89451 7.84323 7.02969C7.8466 7.04398 7.95578 7.34755 8.04827 7.56093C8.11063 7.78272 8.16833 8.03666 8.12594 8.27652C7.97995 8.5936 7.68643 8.87798 7.40313 9.03247C7.25879 9.0787 7.13413 9.06296 7.10074 9.03144C7.10047 9.03118 7.09994 9.03066 7.09971 9.03041C7.01681 8.97468 7.01491 8.87547 7.01997 8.8585C7.01997 8.8584 7.01997 8.85758 7.01997 8.85747C7.02017 8.85727 7.02081 8.85661 7.021 8.85643C7.26006 8.68993 7.53312 8.55516 7.74693 8.10565C7.81006 7.93387 7.82933 7.83072 7.76661 7.56509C7.74216 7.46612 7.71195 7.38467 7.64441 7.31449C7.64458 7.31429 7.64527 7.31363 7.64544 7.31345C7.68614 7.29398 7.79172 7.37176 7.80803 7.32277C7.78304 7.19595 7.69714 7.02568 7.59988 6.93856C7.51471 6.86121 7.42205 6.85225 7.34409 6.92303C7.25628 6.9719 7.2376 7.1474 7.27988 7.30101C7.32685 7.41664 7.45364 7.43693 7.54396 7.66967C7.54396 7.6699 7.54395 7.67063 7.54396 7.67071C7.54584 7.6853 7.57495 7.84443 7.52946 7.90889C7.49254 8.02402 7.01833 8.39798 6.98473 8.42048C6.98436 8.42085 6.98198 8.4222 6.98162 8.42255C6.98143 8.42275 6.98077 8.42341 6.98059 8.42359C6.98049 8.42365 6.97978 8.4244 6.97956 8.42462C6.97946 8.42472 6.97862 8.42555 6.97852 8.42565C6.97842 8.42565 6.9776 8.42566 6.97749 8.42565C6.97742 8.42565 6.97669 8.42565 6.97645 8.42565C6.97626 8.42549 6.9756 8.42481 6.97542 8.42462C6.97543 8.42452 6.97542 8.42368 6.97542 8.42359C6.97522 8.42323 6.97457 8.42189 6.97439 8.42151C6.97296 8.41218 6.97547 8.38841 6.97439 8.35006C6.97127 8.27999 7.00027 8.12148 6.99821 8.09427C6.99821 8.09417 6.9982 8.09334 6.99821 8.09324C6.99801 8.09304 6.99736 8.09239 6.99717 8.0922C6.99717 8.09211 6.99717 8.09128 6.99717 8.09117C6.99694 8.09118 6.99617 8.09117 6.99614 8.09117C6.83939 8.19238 6.78762 8.50262 6.75899 8.59448C6.36216 8.86867 5.91151 9.07267 5.65197 9.35043C5.51679 9.56153 6.58329 9.10803 6.70723 9.05322C6.70829 9.05402 6.70935 9.05531 6.71034 9.05633C6.73389 9.08225 6.73591 9.17265 6.80664 9.25412C6.9175 9.4043 7.15314 9.49677 7.38242 9.43949C7.76693 9.30051 7.98846 9.03845 8.214 8.74773C8.24623 8.70083 8.29675 8.66388 8.34344 8.70009C8.49843 9.04705 8.94527 9.29393 9.52297 9.31938C9.65665 9.15682 9.59272 9.07688 9.53851 9.04288C9.52181 9.03178 9.2512 8.92629 9.20919 8.82127C9.18274 8.72354 9.24706 8.63686 9.37592 8.5717C9.74684 8.52684 10.1115 8.47701 10.4643 8.36355C10.4679 8.245 10.5377 8.06773 10.5844 7.99074C10.6169 7.93732 10.6378 7.93203 10.6455 7.92446C10.6458 7.9242 10.6464 7.9237 10.6466 7.92343C10.6467 7.92329 10.6475 7.92254 10.6476 7.92239C10.6478 7.92223 10.6485 7.92154 10.6486 7.92136C10.6487 7.921 10.6487 7.91966 10.6486 7.91929C10.6488 7.91694 10.6486 7.9129 10.6476 7.90893L10.5876 7.87372L9.40388 7.86855C9.38926 7.86292 9.37839 7.85727 9.37178 7.85198C9.37127 7.85155 9.37016 7.85032 9.36971 7.8499C9.36951 7.84971 9.36887 7.84908 9.36867 7.84887C9.36847 7.84867 9.36781 7.84804 9.36764 7.84784C9.36747 7.84748 9.36677 7.84613 9.3666 7.84577C9.3665 7.84567 9.36569 7.84484 9.36557 7.84473C9.36557 7.84463 9.36556 7.84381 9.36557 7.8437C9.36547 7.8436 9.36466 7.84277 9.36454 7.84266C9.36454 7.84256 9.36453 7.84174 9.36454 7.84163C9.36454 7.84153 9.36453 7.84071 9.36454 7.8406C9.36454 7.8405 9.36453 7.83967 9.36454 7.83956C9.36452 7.8394 9.36454 7.83868 9.36454 7.83853C9.36454 7.83846 9.36454 7.83771 9.36454 7.83749C9.36453 7.83739 9.36454 7.83657 9.36454 7.83646C9.36453 7.83636 9.36454 7.83554 9.36454 7.83543C9.36453 7.83533 9.36454 7.8345 9.36454 7.83439C9.36473 7.83419 9.36538 7.83354 9.36557 7.83336C9.36584 7.83281 9.36625 7.83183 9.3666 7.83129C9.37238 7.8235 9.38639 7.81616 9.40388 7.80954C9.68653 7.77103 10.1887 7.68872 10.222 7.20579C10.2168 6.95424 10.1144 6.78954 9.80572 6.74391C9.57893 6.76144 9.41717 6.98082 9.44325 7.22236C9.4324 7.28739 9.46526 7.41501 9.39872 7.42948C8.96368 7.46922 8.48884 7.74181 8.4729 7.93689C8.4728 7.93687 8.47196 7.9369 8.47187 7.93689C8.4717 7.93709 8.47101 7.93774 8.47083 7.93793C8.4705 7.93809 8.46931 7.93869 8.46876 7.93896C8.4684 7.93895 8.46705 7.93897 8.46669 7.93896C8.46599 7.93919 8.4643 7.93981 8.46358 7.93999C8.46339 7.94001 8.46282 7.93999 8.46255 7.93999C8.46196 7.93998 8.46087 7.93999 8.46048 7.93999C8.46028 7.93999 8.45971 7.93999 8.45944 7.93999C8.45901 7.94 8.45774 7.94001 8.45737 7.93999C8.45625 7.93976 8.45421 7.9392 8.45323 7.93896C8.42494 7.9311 8.38849 7.88441 8.39421 7.81883C8.37764 7.48158 8.26788 7.09996 8.09596 6.80606C8.03461 6.74472 8.00788 6.71987 7.99033 6.717C7.98976 6.71693 7.98881 6.71702 7.98826 6.717C7.98754 6.71699 7.98609 6.717 7.98516 6.717C7.98499 6.717 7.98428 6.71698 7.98412 6.717C7.98402 6.71699 7.98318 6.717 7.98309 6.717C7.98295 6.71703 7.98218 6.71696 7.98205 6.717L7.98199 6.71695ZM9.11493 6.89507C9.09032 6.89933 9.06658 6.91961 9.05797 6.95306C9.05256 6.97497 9.06849 7.01142 9.04865 7.02244C9.03726 7.03393 8.993 7.02725 8.9948 6.96652C8.9948 6.94718 8.98061 6.92597 8.97202 6.91371C8.9634 6.90806 8.95862 6.90646 8.94303 6.90646C8.92402 6.90723 8.92341 6.91224 8.91299 6.9282C8.90858 6.94447 8.90264 6.96051 8.90264 6.97894C8.90026 7.00056 8.89265 7.00787 8.87675 7.01105C8.85898 7.01105 8.86318 7.01298 8.84879 7.0038C8.84024 6.99445 8.82911 6.99077 8.82911 6.9748C8.82911 6.95827 8.8258 6.93187 8.82083 6.92095C8.81328 6.911 8.80031 6.90685 8.78665 6.90335C8.7122 6.90361 8.70782 6.98814 8.71209 7.02037C8.70652 7.02645 8.70272 7.17912 8.80426 7.22127C8.94057 7.28627 9.26541 7.248 9.18638 7.03797C9.18638 7.01853 9.18107 6.95325 9.17913 6.93545C9.16522 6.90305 9.13954 6.8908 9.11493 6.89507ZM13.687 7.0825C13.6836 7.08189 13.6797 7.08212 13.6757 7.08354C13.6757 7.08354 13.0441 7.53286 13.0284 7.5485C12.9658 7.60418 12.9971 7.79998 13.0284 7.77736C13.0737 7.79476 13.7096 7.36386 13.6974 7.31342C13.7251 7.31505 13.7384 7.09177 13.687 7.0825ZM9.71176 7.14911C9.73753 7.14638 9.77135 7.15512 9.80392 7.17396C9.85107 7.20124 9.88013 7.24242 9.87641 7.27235C9.87628 7.27316 9.87658 7.27466 9.87641 7.27545C9.87621 7.27624 9.87458 7.27779 9.87434 7.27856C9.87407 7.27932 9.87361 7.28092 9.87331 7.28166C9.87311 7.28215 9.87251 7.28325 9.87227 7.28373C9.87204 7.28421 9.87151 7.28534 9.87124 7.2858C9.86969 7.28833 9.86714 7.29099 9.86502 7.29305C9.84236 7.31422 9.79005 7.31121 9.74076 7.2827C9.69404 7.25567 9.66517 7.21417 9.66827 7.18432C9.66836 7.1835 9.66915 7.18201 9.6693 7.18121C9.67008 7.17751 9.67155 7.17413 9.67344 7.17085C9.67412 7.16968 9.67471 7.16779 9.67551 7.16671C9.67568 7.16651 9.67638 7.16588 9.67655 7.16568C9.67794 7.16405 9.68004 7.16188 9.68172 7.1605C9.68924 7.15459 9.69988 7.15037 9.71176 7.14911ZM4.18062 7.26302C3.85335 7.269 3.37409 7.692 3.36147 7.92682C3.7068 7.76098 4.04601 7.60136 4.39704 7.42974C4.34039 7.34517 4.39362 7.26897 4.18062 7.26302ZM5.24105 7.41008C5.27313 7.41044 5.30696 7.42628 5.32493 7.47118C5.34109 7.51236 5.32569 7.55543 5.30629 7.57681C5.30619 7.57697 5.30639 7.57768 5.30629 7.57784C5.30599 7.57832 5.30557 7.57946 5.30525 7.57991C5.29152 7.59761 5.24329 7.59027 5.20895 7.59027C5.16739 7.58843 5.14691 7.58161 5.12196 7.54781C5.11003 7.51023 5.14635 7.47331 5.16235 7.44529C5.16251 7.44502 5.16322 7.44451 5.16338 7.44425C5.16512 7.44164 5.16795 7.43851 5.17063 7.43597C5.18306 7.42459 5.20455 7.41395 5.22759 7.41111C5.23207 7.41056 5.23646 7.41002 5.24105 7.41008ZM13.5641 7.54031C13.5059 7.54749 13.4506 7.60251 13.4761 7.69047C13.4601 7.74214 13.555 7.92282 13.5796 8.01874C13.6018 8.08702 13.5511 8.28011 13.5972 8.30042C13.6397 8.32317 13.7513 8.18578 13.7474 8.01357C13.7597 7.92502 13.7158 7.59877 13.6045 7.5434C13.5917 7.53982 13.5775 7.53865 13.5641 7.54031ZM6.49534 7.85927C6.44391 7.86286 6.39801 7.89035 6.4187 7.96283C6.4156 8.0154 6.56402 8.07933 6.573 8.20101C6.59421 8.25118 6.54127 8.41183 6.58543 8.42676C6.62598 8.44346 6.68225 8.31571 6.70349 8.19687C6.71524 8.13177 6.65256 7.90406 6.54608 7.86343C6.52974 7.85991 6.51248 7.85807 6.49534 7.85927ZM8.61103 8.1482C8.61493 8.14793 8.61837 8.14822 8.62242 8.1482C8.6231 8.14819 8.62381 8.14819 8.62449 8.1482C8.75636 8.18403 8.95075 8.18775 9.11951 8.20515C9.25696 8.21387 9.32488 8.32148 9.19615 8.3667C9.06915 8.41019 8.94714 8.44416 8.94657 8.62767C8.96327 8.71857 8.95973 8.76627 8.94554 8.78819C8.94443 8.78983 8.94263 8.79201 8.9414 8.79336C8.94123 8.79356 8.94054 8.79422 8.94036 8.7944C8.94017 8.79456 8.93952 8.79526 8.93933 8.79543C8.93913 8.7956 8.93849 8.79631 8.9383 8.79646L8.93726 8.7975C8.9369 8.79766 8.93556 8.79836 8.93519 8.79853C8.93335 8.79968 8.93099 8.8009 8.92898 8.80164C8.9272 8.80224 8.92465 8.80236 8.92276 8.80267C8.89258 8.8071 8.84873 8.77831 8.8161 8.76125C8.73781 8.70503 8.51808 8.56886 8.48678 8.2766C8.48233 8.21065 8.53168 8.15378 8.61103 8.1482ZM3.44342 8.37291C3.43518 8.37318 3.4187 8.39779 3.39682 8.42573C3.20212 8.7359 3.18481 9.19888 3.29223 9.33704C3.34931 9.4023 3.44343 9.431 3.5128 9.41056C3.63512 9.35752 3.68888 9.10977 3.65986 9.01913C3.61904 8.95524 3.58669 8.94511 3.54594 8.99946C3.45987 9.17421 3.42405 9.05467 3.4165 8.957C3.4033 8.77179 3.42124 8.60123 3.44135 8.46615C3.45206 8.39693 3.45166 8.37269 3.44342 8.37295L3.44342 8.37291ZM10.0764 8.78019C10.0619 8.77941 10.0465 8.78167 10.0308 8.78951C10.0278 8.78951 9.89147 8.88168 9.84755 8.94588C9.82076 8.96625 9.8238 8.98397 9.83202 9.01941C9.85289 9.0674 9.88968 9.05234 9.93143 9.02976C9.98685 9.02221 10.0136 9.0585 10.0091 9.12504C9.98352 9.208 10.0205 9.23892 10.0205 9.24413C10.0205 9.24934 10.0738 9.29514 10.1365 9.25863C10.2687 9.20816 10.3511 9.15907 10.5362 9.11882C10.5848 9.11785 10.582 8.98781 10.5051 8.98316C10.4049 8.9882 10.3123 8.99333 10.2121 9.07222C10.1504 9.08648 10.1398 9.04893 10.1261 9.01526C10.1104 8.93173 10.1614 8.87285 10.151 8.81022C10.1537 8.81297 10.1198 8.78251 10.0764 8.78019ZM14.3234 8.93863C14.2988 8.9394 14.2729 8.9428 14.2354 8.94588C14.1948 8.95449 14.1807 8.97227 14.1733 9.02147C14.1762 9.09609 14.2218 9.09239 14.2685 9.12192C14.2956 9.15636 14.3132 9.18753 14.2665 9.24412C14.2222 9.2847 14.1906 9.3071 14.1464 9.34768C14.1254 9.38335 14.1124 9.43814 14.1764 9.45538C14.2945 9.48858 14.5678 9.311 14.5678 9.30729C14.6121 9.27409 14.5974 9.21098 14.5937 9.21098C14.5679 9.18145 14.5096 9.19919 14.4705 9.19441C14.4518 9.19441 14.3906 9.18535 14.4197 9.13124C14.444 9.09757 14.453 9.07745 14.4694 9.03597C14.4879 8.99539 14.4717 8.96802 14.4052 8.94587C14.3714 8.93973 14.348 8.93786 14.3234 8.93863ZM12.5492 12.5308C12.5489 12.531 12.5484 12.5317 12.5482 12.5319C12.3517 12.5823 12.3578 12.7862 12.484 12.8757C10.4097 12.8757 7.22655 12.8405 6.5439 12.8405C6.16197 12.8405 4.95368 12.7949 4.93045 12.7949C5.18958 13.1739 5.56495 13.2511 6.05613 13.2588C6.97745 13.2588 11.2463 13.2475 12.4611 13.2475C12.3748 13.4008 12.469 13.6476 12.5367 13.6928C12.5382 13.6937 12.5405 13.6951 12.5419 13.6959C12.5444 13.6971 12.5478 13.6984 12.5502 13.699C12.551 13.6992 12.5525 13.6989 12.5533 13.699C12.6337 13.7179 12.6691 13.6597 12.6962 13.6172C12.8267 13.6287 13.561 13.6393 13.6282 13.6161C13.6285 13.616 13.629 13.6152 13.6293 13.6151C13.6747 13.682 13.7198 13.7452 13.8063 13.7342C13.9577 13.7017 14.077 13.6852 14.0808 13.378C14.0808 13.378 14.0653 12.8543 13.7214 12.8871C13.64 12.8994 13.4118 12.9223 13.4118 12.9223C13.1476 12.8909 12.9538 12.8877 12.6568 12.8767C12.6843 12.8419 12.7327 12.701 12.6734 12.65C12.658 12.6371 12.6349 12.63 12.603 12.6324C12.6028 12.6324 12.6022 12.6323 12.602 12.6324C12.6015 12.6323 12.6003 12.6324 12.5999 12.6324C12.5997 12.6323 12.5991 12.6314 12.5989 12.6313C12.598 12.631 12.5966 12.6308 12.5958 12.6303C12.5941 12.6292 12.592 12.6269 12.5906 12.6251C12.5902 12.6246 12.5889 12.6235 12.5885 12.623C12.5735 12.6012 12.5653 12.5476 12.5554 12.534C12.5552 12.5338 12.5544 12.5331 12.5543 12.5329C12.5542 12.5328 12.5534 12.532 12.5533 12.5319C12.5529 12.5317 12.5516 12.531 12.5512 12.5309C12.5511 12.5309 12.5503 12.5309 12.5502 12.5309C12.5501 12.5309 12.5493 12.5308 12.5492 12.5309L12.5492 12.5308ZM12.69 13.2796C12.6904 13.2794 12.6907 13.2797 12.6911 13.2796C12.9937 13.2943 13.278 13.2824 13.5806 13.2972C13.6286 13.3379 13.6046 13.4313 13.5734 13.4484C13.572 13.4491 13.5696 13.4501 13.5682 13.4504C13.5671 13.4507 13.5652 13.4504 13.5641 13.4504C13.5629 13.4504 13.5611 13.4507 13.5599 13.4504C13.4615 13.448 13.4046 13.4457 13.3062 13.4432C13.3061 13.4383 13.3055 13.433 13.3041 13.4287C13.2808 13.3596 13.1119 13.3642 13.0722 13.4183C13.0716 13.4191 13.0706 13.4206 13.0701 13.4214C13.0695 13.4225 13.0686 13.4245 13.068 13.4256C13.0674 13.427 13.0664 13.4293 13.066 13.4308C13.0653 13.4328 13.0652 13.4359 13.0649 13.438C13.0647 13.4405 13.0637 13.4437 13.0639 13.4463C12.9311 13.4623 12.8115 13.4419 12.6787 13.437C12.6397 13.3885 12.6442 13.3007 12.69 13.2796Z" fill="white"/>
</g>
</g>
<defs>
<clipPath id="clip0_20800_5934">
<rect width="19" height="19" fill="white"/>
</clipPath>
</defs>
</svg>
