<svg width="19" height="19" viewBox="0 0 19 19" fill="none" xmlns="http://www.w3.org/2000/svg">
<path fill-rule="evenodd" clip-rule="evenodd" d="M9.5 1.1875C14.0909 1.1875 17.8125 4.90913 17.8125 9.5C17.8125 14.0909 14.0909 17.8125 9.5 17.8125C4.90913 17.8125 1.1875 14.0909 1.1875 9.5C1.1875 4.90913 4.90913 1.1875 9.5 1.1875Z" fill="#FBFBFB"/>
<path fill-rule="evenodd" clip-rule="evenodd" d="M17.3726 6.82812H1.625C2.73772 3.54798 5.84257 1.1875 9.49877 1.1875C13.155 1.1875 16.2598 3.54798 17.3726 6.82812Z" fill="#32AB45"/>
<path fill-rule="evenodd" clip-rule="evenodd" d="M17.3726 12.1719C16.2598 15.452 13.155 17.8125 9.49877 17.8125C5.84257 17.8125 2.73772 15.452 1.625 12.1719H17.3726Z" fill="#1D1D1D"/>
<path fill-rule="evenodd" clip-rule="evenodd" d="M5.64062 2.13574V16.8641C2.99321 15.4738 1.1875 12.6977 1.1875 9.49992C1.1875 6.3021 2.99321 3.52604 5.64062 2.13574Z" fill="#E92B2B"/>
</svg>
