<svg width="44" height="44" viewBox="0 0 44 44" fill="none" xmlns="http://www.w3.org/2000/svg">
<g clip-path="url(#clip0_20639_5925)">
<g filter="url(#filter0_f_20639_5925)">
<path d="M38.2013 46.2097C41.9929 46.1981 45.2121 73.4615 45.1513 53.6617C45.0906 33.8619 41.9929 21.0454 38.2013 21.0571C34.4096 21.0687 31.3852 37.129 31.4459 56.9288C31.5066 76.7286 34.4096 46.2213 38.2013 46.2097Z" fill="#2544B3" fill-opacity="0.7"/>
</g>
<rect width="55.2616" height="93.373" rx="9.52785" transform="matrix(1 0 0 -1 0 43.8281)" fill="#6688EF"/>
<g filter="url(#filter1_f_20639_5925)">
<path d="M38.8285 40.2555C41.8093 41.3998 40.9137 17.4005 40.2572 9.052C39.4953 -0.636593 11.0962 3.90257 6.1951 4.28797C1.29403 4.67338 31.6229 3.04513 34.5405 11.1954C34.5405 37.1588 33.9274 40.6409 38.8285 40.2555Z" fill="white"/>
</g>
<g filter="url(#filter2_f_20639_5925)">
<path d="M1.3665 42.6696C5.15811 42.658 10.4558 24.3501 10.3951 4.55033C10.3344 -15.2495 4.93819 -29.0434 1.14658 -29.0318C-2.64503 -29.0201 -5.66951 -12.9598 -5.60878 6.83996C-5.54805 26.6397 -2.42511 42.6812 1.3665 42.6696Z" fill="#2544B3"/>
</g>
<g clip-path="url(#clip1_20639_5925)">
<path fill-rule="evenodd" clip-rule="evenodd" d="M18.1984 29.1891V32.5021H15.0244C14.0463 32.5021 13.2461 33.1414 13.2461 33.9229V34.7969C13.2461 35.0981 13.4918 35.3438 13.793 35.3438H31.1289C31.4301 35.3438 31.6758 35.0981 31.6758 34.7969V33.9229C31.6758 33.1415 30.8756 32.5021 29.8975 32.5021H26.7234V29.1891H33.9382C35.0851 29.1891 36.0234 28.2507 36.0234 27.1038V12.7582C36.0234 11.6113 35.0851 10.6729 33.9382 10.6729H29.505L30.2913 12.181V12.2882C30.2913 12.3313 30.29 12.3741 30.2876 12.4167H33.9905C34.1496 12.4167 34.2797 12.5468 34.2797 12.7059V25.6765H10.6422V12.7059C10.6422 12.5468 10.7724 12.4167 10.9314 12.4167H14.6343C14.6319 12.3741 14.6306 12.3313 14.6306 12.2882V12.181L15.417 10.6729H10.9837C9.83682 10.6729 8.89844 11.6113 8.89844 12.7582V27.1038C8.89844 28.2507 9.83682 29.1891 10.9837 29.1891H18.1984V29.1891ZM28.5958 14.4968V21.889H29.8289C29.9124 21.889 29.9805 21.9571 29.9805 22.0406V23.1063C29.9805 23.1898 29.9124 23.2579 29.8289 23.2579H15.093C15.0095 23.2579 14.9414 23.1898 14.9414 23.1063V22.0406C14.9414 21.9571 15.0095 21.889 15.093 21.889H16.326V14.4968C16.5184 14.5481 16.7167 14.5739 16.9163 14.5739C17.6758 14.5739 18.3488 14.2033 18.7645 13.6331C19.1802 14.2033 19.8532 14.5739 20.6127 14.5739C21.3722 14.5739 22.0453 14.2033 22.4609 13.6331C22.8766 14.2033 23.5497 14.5739 24.3092 14.5739C25.0687 14.5739 25.7417 14.2033 26.1574 13.6331C26.5731 14.2033 27.2461 14.5739 28.0056 14.5739C28.2051 14.5739 28.4035 14.5481 28.5958 14.4968ZM18.4274 11.8507H15.7896L17.4553 8.65625H19.2693L18.4274 11.8507ZM25.5897 11.8507H22.8984V8.65625H24.7478L25.5897 11.8507ZM26.4945 11.8507L25.6526 8.65625H27.4666L29.1323 11.8507H26.4945ZM19.3323 11.8507L20.1741 8.65625H22.0234V11.8507H19.3323ZM29.3469 12.7257C29.2111 13.1418 28.8859 13.4808 28.4562 13.6255C28.3109 13.6745 28.1589 13.6989 28.0056 13.6989C27.379 13.6989 26.8481 13.2907 26.664 12.7257L29.3469 12.7257ZM25.6507 12.7257C25.4667 13.2907 24.9357 13.6989 24.3092 13.6989C23.6826 13.6989 23.1516 13.2907 22.9676 12.7257H25.6507ZM21.9543 12.7257C21.7702 13.2907 21.2393 13.6989 20.6127 13.6989C19.9862 13.6989 19.4552 13.2907 19.2711 12.7257H21.9543ZM18.2579 12.7257C18.0738 13.2907 17.5428 13.6989 16.9163 13.6989C16.763 13.6989 16.611 13.6744 16.4657 13.6255C16.036 13.4808 15.7108 13.1417 15.575 12.7256L18.2579 12.7257ZM23.4721 19.1664H26.7336C26.9006 19.1664 27.0368 19.3026 27.0368 19.4696V19.8022C27.0368 19.9692 26.9005 20.1054 26.7336 20.1054H23.4721C23.3051 20.1054 23.1689 19.9692 23.1689 19.8022V19.4696C23.1689 19.3026 23.3051 19.1664 23.4721 19.1664ZM23.4721 15.6563H26.7336C26.9006 15.6563 27.0368 15.7925 27.0368 15.9595V17.8124C27.0368 17.9794 26.9005 18.1156 26.7336 18.1156H23.4721C23.3051 18.1156 23.1689 17.9794 23.1689 17.8124V15.9595C23.1689 15.7925 23.3051 15.6563 23.4721 15.6563ZM18.3187 15.6563H21.0883C21.2553 15.6563 21.3915 15.7925 21.3915 15.9595V21.889H18.0155V15.9595C18.0155 15.7925 18.1517 15.6563 18.3187 15.6563Z" fill="white"/>
</g>
</g>
<defs>
<filter id="filter0_f_20639_5925" x="19.4659" y="9.07727" width="37.6619" height="66.5134" filterUnits="userSpaceOnUse" color-interpolation-filters="sRGB">
<feFlood flood-opacity="0" result="BackgroundImageFix"/>
<feBlend mode="normal" in="SourceGraphic" in2="BackgroundImageFix" result="shape"/>
<feGaussianBlur stdDeviation="5.98968" result="effect1_foregroundBlur_20639_5925"/>
</filter>
<filter id="filter1_f_20639_5925" x="-3.86379" y="-6.63625" width="54.3057" height="56.459" filterUnits="userSpaceOnUse" color-interpolation-filters="sRGB">
<feFlood flood-opacity="0" result="BackgroundImageFix"/>
<feBlend mode="normal" in="SourceGraphic" in2="BackgroundImageFix" result="shape"/>
<feGaussianBlur stdDeviation="4.76393" result="effect1_foregroundBlur_20639_5925"/>
</filter>
<filter id="filter2_f_20639_5925" x="-17.5887" y="-41.0116" width="39.9665" height="95.6609" filterUnits="userSpaceOnUse" color-interpolation-filters="sRGB">
<feFlood flood-opacity="0" result="BackgroundImageFix"/>
<feBlend mode="normal" in="SourceGraphic" in2="BackgroundImageFix" result="shape"/>
<feGaussianBlur stdDeviation="5.98968" result="effect1_foregroundBlur_20639_5925"/>
</filter>
<clipPath id="clip0_20639_5925">
<rect width="44" height="44" rx="9.52785" fill="white"/>
</clipPath>
<clipPath id="clip1_20639_5925">
<rect width="28" height="28" fill="white" transform="translate(8.46094 8)"/>
</clipPath>
</defs>
</svg>
