<svg width="44" height="44" viewBox="0 0 44 44" fill="none" xmlns="http://www.w3.org/2000/svg">
<g clip-path="url(#clip0_20639_6004)">
<g filter="url(#filter0_f_20639_6004)">
<path d="M36.9073 46.3439C40.5711 46.3327 43.6818 72.6771 43.6231 53.5447C43.5644 34.4124 40.5711 22.028 36.9073 22.0392C33.2435 22.0505 30.321 37.5694 30.3797 56.7017C30.4384 75.834 33.2435 46.3552 36.9073 46.3439Z" fill="#009B63" fill-opacity="0.7"/>
</g>
<rect width="53.3987" height="90.2253" rx="9.20667" transform="matrix(1 0 0 -1 0 44.043)" fill="#54D66E"/>
<g filter="url(#filter1_f_20639_6004)">
<path d="M38.3659 38.8978C41.2463 40.0036 40.3809 16.8133 39.7465 8.74619C39.0103 -0.615803 11.5685 3.77034 6.83266 4.14276C2.0968 4.51517 31.4033 2.94181 34.2226 10.8174C34.2226 35.9055 33.6301 39.2702 38.3659 38.8978Z" fill="white"/>
</g>
<g filter="url(#filter2_f_20639_6004)">
<path d="M3.63063 42.9158C6.33821 42.9075 10.1071 25.2209 10.0485 6.08858C9.98978 -13.0437 6.1257 -26.3768 3.41813 -26.3685C0.710557 -26.3602 -1.43679 -10.8437 -1.37811 8.28865C-1.31943 27.421 0.92306 42.9241 3.63063 42.9158Z" fill="#009B63" fill-opacity="0.85"/>
</g>
<g clip-path="url(#clip1_20639_6004)">
<path d="M35.7745 22.9674L34.2137 27.5639C33.3458 30.1216 30.6158 31.8438 27.9678 31.5977C27.9678 31.5884 27.9695 31.5807 27.9695 31.5714V30.7358C27.9695 30.2414 27.6534 29.8072 27.1836 29.6552L26.8812 29.5562C26.8161 29.3653 26.7368 29.1777 26.6488 28.9951L26.7932 28.7113C26.8303 28.6385 26.8599 28.5625 26.8801 28.4848L29.8907 29.1127C30.1307 29.1624 30.3664 29.0087 30.4162 28.7687C30.466 28.5286 30.3123 28.2945 30.0722 28.2448L27.818 27.775L28.891 27.1548C28.9063 27.1472 28.9205 27.1395 28.9358 27.1302L33.1495 24.6966C33.3617 24.5741 33.4333 24.3029 33.3108 24.0907C33.1883 23.8802 32.9171 23.8069 32.7049 23.9294L29.4772 25.7926L30.198 23.6067C30.2757 23.3727 30.1482 23.1216 29.9158 23.0456C29.6818 22.9696 29.4307 23.0954 29.3547 23.3295L28.3222 26.4592L26.628 27.4392C26.6138 27.4239 26.6001 27.408 26.5848 27.3944L25.9942 26.8021C25.6453 26.4532 25.1153 26.3695 24.6768 26.5943L24.3929 26.7387C24.2097 26.649 24.0227 26.5713 23.8302 26.5063L23.7323 26.2022C23.7246 26.182 23.7181 26.1601 23.7104 26.1404L23.921 25.5186C24.8479 22.7853 27.9033 21.0058 30.711 21.5641L35.5164 22.519C35.617 22.5392 35.6963 22.5966 35.7471 22.6847C35.798 22.7738 35.8073 22.8695 35.7745 22.9674ZM17.8168 28.9945L17.6724 28.7107C17.6352 28.638 17.6057 28.562 17.5854 28.4843L14.5749 29.1121C14.3348 29.1619 14.1007 29.0082 14.0493 28.7681C13.9996 28.528 14.1549 28.294 14.3933 28.2442L16.6486 27.7745L15.5746 27.1543C15.5593 27.1466 15.545 27.139 15.5314 27.1297L11.3166 24.6961C11.1044 24.5736 11.0328 24.3023 11.1553 24.0902C11.2778 23.8796 11.549 23.8063 11.7612 23.9288L14.9889 25.792L14.2681 23.6062C14.1921 23.3721 14.3178 23.1211 14.5519 23.0451C14.7843 22.9691 15.0353 23.0948 15.1114 23.3289L16.1439 26.4587L17.8381 27.4387C17.8523 27.4234 17.866 27.4075 17.8813 27.3938L18.4719 26.8016C18.8208 26.4527 19.3507 26.369 19.7893 26.5938L20.0732 26.7381C20.2564 26.6484 20.4434 26.5708 20.6359 26.5057L20.7338 26.2016C20.7414 26.1814 20.748 26.1595 20.7573 26.1398L20.5451 25.518C19.6182 22.7848 16.5628 21.0052 13.7551 21.5636L8.94972 22.5184C8.8491 22.5387 8.7698 22.5961 8.71894 22.6841C8.66754 22.7738 8.65824 22.8701 8.69105 22.968L10.2518 27.5645C11.1197 30.1222 13.8497 31.8443 16.4977 31.5982V30.7363C16.4977 30.242 16.8121 29.8077 17.2819 29.6557L17.5843 29.5567C17.6494 29.3648 17.7287 29.1772 17.8168 28.9945ZM22.2333 30.0473C21.9282 30.0473 21.6503 30.1714 21.4507 30.371C21.2511 30.5706 21.127 30.8468 21.127 31.1525C21.127 31.4577 21.2511 31.7338 21.4507 31.934C21.6509 32.1358 21.9282 32.2577 22.2333 32.2577C22.5385 32.2577 22.8146 32.1352 23.0148 31.934C23.215 31.7338 23.3386 31.4582 23.3386 31.1525C23.3386 30.8473 23.2144 30.5712 23.0148 30.371C22.8152 30.1709 22.539 30.0473 22.2333 30.0473ZM27.0797 30.7352V31.5709C27.0797 31.6791 27.013 31.771 26.9091 31.8049L26.2873 32.0067C26.2053 32.0346 26.1478 32.0953 26.126 32.179C26.0314 32.5339 25.8919 32.8702 25.7103 33.1787C25.6671 33.2547 25.6655 33.3384 25.7043 33.416L26.0002 33.999C26.05 34.0952 26.033 34.2084 25.9553 34.2845L25.3647 34.8767C25.2871 34.9527 25.1739 34.9713 25.0782 34.9216L24.4952 34.6241C24.4192 34.5852 24.3339 34.5885 24.2595 34.6317C23.9494 34.8116 23.6147 34.9527 23.2598 35.0457C23.1761 35.0687 23.1143 35.1261 23.0875 35.2087L22.8846 35.8305C22.8518 35.9344 22.7589 36.0011 22.6506 36.0011H21.815C21.7067 36.0011 21.6132 35.9344 21.5809 35.8305L21.378 35.2087C21.3518 35.1266 21.2911 35.0692 21.2074 35.0457C20.8525 34.9527 20.5161 34.8116 20.2061 34.6317C20.1317 34.5885 20.0464 34.5852 19.9703 34.6241L19.3874 34.9216C19.2911 34.9713 19.1779 34.9527 19.1008 34.8767L18.5102 34.2845C18.4325 34.2084 18.4156 34.0952 18.4653 33.999L18.7612 33.416C18.8017 33.3384 18.7984 33.2547 18.7552 33.1787C18.5736 32.8702 18.4342 32.5339 18.3396 32.179C18.3177 32.0953 18.2603 32.0346 18.1782 32.0067L17.5564 31.8049C17.4525 31.771 17.3858 31.6791 17.3858 31.5709V30.7352C17.3858 30.6253 17.4525 30.5334 17.5564 30.4995L18.1782 30.2977C18.2603 30.2715 18.3177 30.2091 18.3396 30.1255C18.4342 29.7705 18.5736 29.4359 18.7552 29.1258C18.7984 29.0514 18.8017 28.9661 18.7612 28.8884L18.4653 28.3071C18.4156 28.2092 18.4325 28.0977 18.5102 28.0205L19.1008 27.4299C19.1785 27.3523 19.2917 27.3353 19.3874 27.3834L19.9703 27.6809C20.0464 27.7198 20.1317 27.7181 20.2061 27.6749C20.5161 27.4934 20.8525 27.3523 21.2074 27.2593C21.2911 27.2374 21.3518 27.1789 21.378 27.0963L21.5809 26.4745C21.6137 26.3723 21.7067 26.3055 21.815 26.3055H22.6506C22.7589 26.3055 22.8524 26.3723 22.8846 26.4745L23.0875 27.0963C23.1138 27.1784 23.1761 27.2374 23.2598 27.2593C23.6147 27.3523 23.9494 27.4934 24.2595 27.6749C24.3339 27.7181 24.4192 27.7198 24.4952 27.6809L25.0782 27.3834C25.1744 27.3353 25.2876 27.3523 25.3647 27.4299L25.9553 28.0205C26.033 28.0982 26.05 28.2098 26.0002 28.3071L25.7043 28.8884C25.6655 28.9661 25.6671 29.0514 25.7103 29.1258C25.8919 29.4359 26.033 29.7705 26.126 30.1255C26.1478 30.2091 26.2053 30.2709 26.2873 30.2977L26.9091 30.4995C27.013 30.534 27.0797 30.6253 27.0797 30.7352ZM24.2272 31.1525C24.2272 30.6023 24.0041 30.103 23.6426 29.7416C23.2817 29.3817 22.784 29.1586 22.2333 29.1586C21.6815 29.1586 21.1839 29.3817 20.8224 29.7416C20.4614 30.1025 20.2378 30.6018 20.2378 31.1525C20.2378 31.7032 20.4609 32.202 20.8224 32.5634C21.1833 32.9244 21.681 33.148 22.2333 33.148C22.7835 33.148 23.2811 32.9249 23.6426 32.5634C24.0041 32.202 24.2272 31.7027 24.2272 31.1525ZM22.2333 18.022C24.0626 18.022 25.5556 16.5291 25.5556 14.6987C25.5556 12.8683 24.0626 11.3753 22.2333 11.3753C20.4024 11.3753 18.91 12.8683 18.91 14.6987C18.91 16.5291 20.4029 18.022 22.2333 18.022ZM22.2333 10.4123C22.4783 10.4123 22.6768 10.2121 22.6768 9.96711V8.44352C22.6768 8.19852 22.4783 8 22.2333 8C21.9867 8 21.7882 8.19852 21.7882 8.44352V9.96711C21.7887 10.2121 21.9872 10.4123 22.2333 10.4123ZM25.8919 11.6679L26.9693 10.5905C27.1426 10.4172 27.1426 10.135 26.9693 9.96109C26.7959 9.78719 26.5148 9.78773 26.3414 9.96109L25.2641 11.0384C25.0907 11.2118 25.0907 11.494 25.2641 11.6679C25.4375 11.8418 25.7202 11.8418 25.8919 11.6679ZM26.5197 14.6987C26.5197 14.9437 26.7182 15.1438 26.9649 15.1438H28.4874C28.734 15.1438 28.9325 14.9437 28.9325 14.6987C28.9325 14.4537 28.734 14.2535 28.4874 14.2535H26.9649C26.7182 14.2535 26.5197 14.4537 26.5197 14.6987ZM25.2641 17.7305C25.0907 17.9039 25.0907 18.185 25.2641 18.3584L26.3414 19.4357C26.5148 19.6091 26.7959 19.6091 26.9693 19.4357C27.1426 19.2623 27.1426 18.9802 26.9693 18.8063L25.8919 17.7305C25.7202 17.5572 25.438 17.5572 25.2641 17.7305ZM21.7887 19.4297V20.9533C21.7887 21.1983 21.9872 21.3984 22.2339 21.3984C22.4789 21.3984 22.6774 21.1983 22.6774 20.9533V19.4297C22.6774 19.1847 22.4789 18.9862 22.2339 18.9862C21.9872 18.9862 21.7887 19.1847 21.7887 19.4297ZM18.5736 17.7305L17.4963 18.8063C17.3229 18.9796 17.3229 19.2618 17.4963 19.4357C17.6696 19.6096 17.9507 19.6091 18.1241 19.4357L19.2014 18.3584C19.3748 18.185 19.3748 17.9039 19.2014 17.7305C19.0281 17.5572 18.747 17.5572 18.5736 17.7305ZM15.9787 15.1433H17.5012C17.7478 15.1433 17.9464 14.9431 17.9464 14.6981C17.9464 14.4531 17.7478 14.253 17.5012 14.253H15.9787C15.7321 14.253 15.5336 14.4531 15.5336 14.6981C15.5336 14.9437 15.7321 15.1433 15.9787 15.1433ZM18.5736 11.6679C18.747 11.8412 19.0281 11.8412 19.2014 11.6679C19.3748 11.4945 19.3748 11.2123 19.2014 11.0384L18.1241 9.96109C17.9507 9.78773 17.6696 9.78773 17.4963 9.96109C17.3229 10.1345 17.3229 10.4166 17.4963 10.5905L18.5736 11.6679Z" fill="white"/>
</g>
</g>
<defs>
<filter id="filter0_f_20639_6004" x="18.7995" y="10.4635" width="36.4011" height="64.2702" filterUnits="userSpaceOnUse" color-interpolation-filters="sRGB">
<feFlood flood-opacity="0" result="BackgroundImageFix"/>
<feBlend mode="normal" in="SourceGraphic" in2="BackgroundImageFix" result="shape"/>
<feGaussianBlur stdDeviation="5.78777" result="effect1_foregroundBlur_20639_6004"/>
</filter>
<filter id="filter1_f_20639_6004" x="-2.89417" y="-6.41272" width="52.4836" height="54.5559" filterUnits="userSpaceOnUse" color-interpolation-filters="sRGB">
<feFlood flood-opacity="0" result="BackgroundImageFix"/>
<feBlend mode="normal" in="SourceGraphic" in2="BackgroundImageFix" result="shape"/>
<feGaussianBlur stdDeviation="4.60333" result="effect1_foregroundBlur_20639_6004"/>
</filter>
<filter id="filter2_f_20639_6004" x="-12.9584" y="-37.9437" width="34.5808" height="92.4353" filterUnits="userSpaceOnUse" color-interpolation-filters="sRGB">
<feFlood flood-opacity="0" result="BackgroundImageFix"/>
<feBlend mode="normal" in="SourceGraphic" in2="BackgroundImageFix" result="shape"/>
<feGaussianBlur stdDeviation="5.78777" result="effect1_foregroundBlur_20639_6004"/>
</filter>
<clipPath id="clip0_20639_6004">
<rect width="44" height="44" rx="9.20667" fill="white"/>
</clipPath>
<clipPath id="clip1_20639_6004">
<rect width="28" height="28" fill="white" transform="translate(8.23438 8)"/>
</clipPath>
</defs>
</svg>
