<svg width="44" height="44" viewBox="0 0 44 44" fill="none" xmlns="http://www.w3.org/2000/svg">
<g clip-path="url(#clip0_20639_5983)">
<g filter="url(#filter0_f_20639_5983)">
<path d="M38.2013 46.2097C41.9929 46.1981 45.2121 73.4615 45.1513 53.6617C45.0906 33.8619 41.9929 21.0454 38.2013 21.0571C34.4096 21.0687 31.3852 37.129 31.4459 56.9288C31.5066 76.7286 34.4096 46.2213 38.2013 46.2097Z" fill="#2544B3" fill-opacity="0.7"/>
</g>
<rect width="55.2616" height="93.373" rx="9.52785" transform="matrix(1 0 0 -1 0 43.8281)" fill="#6688EF"/>
<g filter="url(#filter1_f_20639_5983)">
<path d="M38.8285 40.2555C41.8093 41.3998 40.9137 17.4005 40.2572 9.052C39.4953 -0.636593 11.0962 3.90257 6.1951 4.28797C1.29403 4.67338 31.6229 3.04513 34.5405 11.1954C34.5405 37.1588 33.9274 40.6409 38.8285 40.2555Z" fill="white"/>
</g>
<g filter="url(#filter2_f_20639_5983)">
<path d="M1.3665 42.6696C5.15811 42.658 10.4558 24.3501 10.3951 4.55033C10.3344 -15.2495 4.93819 -29.0434 1.14658 -29.0318C-2.64503 -29.0201 -5.66951 -12.9598 -5.60878 6.83996C-5.54805 26.6397 -2.42511 42.6812 1.3665 42.6696Z" fill="#2544B3"/>
</g>
<path d="M16.9076 15.8212L22.5066 17.8899L20.8357 20.6747C20.6734 20.9447 20.6691 21.2814 20.8246 21.5565C20.9797 21.8308 21.2707 22 21.586 22H23.336C23.568 22 23.7906 21.9077 23.9546 21.7437L26.38 19.3183C26.3828 19.3194 26.3845 19.3218 26.3874 19.3229L32.6897 21.6505C32.8529 21.7078 33.0225 21.736 33.1917 21.736C33.5023 21.736 33.8108 21.6411 34.0705 21.4565C34.4717 21.1729 34.711 20.7089 34.711 20.2175C34.711 17.7677 33.0456 15.6648 30.6611 15.1042L19.4976 12.4775L17.939 10.1396C17.7767 9.89612 17.5036 9.75 17.211 9.75H16.336C16.0737 9.75 15.8254 9.86792 15.6592 10.0704C15.493 10.2729 15.4264 10.5396 15.4781 10.7968L16.3531 15.1718C16.4125 15.47 16.6227 15.7152 16.9076 15.8212Z" fill="white"/>
<path d="M20.8574 25.8896L19.3672 28.125H25.0854V25.5H21.5855C21.2929 25.5 21.0197 25.6462 20.8574 25.8896Z" fill="white"/>
<path d="M33.8359 24.625H26.8359C26.3527 24.625 25.9609 25.0167 25.9609 25.5V30.75H25.0859V29H18.9609V31.625C18.9609 32.1082 19.3527 32.5 19.8359 32.5H20.7109C20.7109 33.4651 21.4958 34.25 22.4609 34.25C23.4261 34.25 24.2109 33.4651 24.2109 32.5H29.4609C29.4609 33.4651 30.2458 34.25 31.2109 34.25C32.1761 34.25 32.9609 33.4651 32.9609 32.5H33.8359C34.3192 32.5 34.7109 32.1082 34.7109 31.625V25.5C34.7109 25.0167 34.3192 24.625 33.8359 24.625ZM22.4609 33.375C21.9786 33.375 21.5859 32.9824 21.5859 32.5C21.5859 32.0176 21.9786 31.625 22.4609 31.625C22.9433 31.625 23.3359 32.0176 23.3359 32.5C23.3359 32.9824 22.9433 33.375 22.4609 33.375ZM31.2109 33.375C30.7286 33.375 30.3359 32.9824 30.3359 32.5C30.3359 32.0176 30.7286 31.625 31.2109 31.625C31.6933 31.625 32.0859 32.0176 32.0859 32.5C32.0859 32.9824 31.6933 33.375 31.2109 33.375Z" fill="white"/>
<path d="M18.4744 19.4673L14.9744 17.7173C14.7283 17.5942 14.4378 17.5942 14.1917 17.7173L10.6917 19.4673C10.6613 19.4825 10.6374 19.5057 10.6094 19.524L14.583 21.5108L18.5567 19.524C18.5286 19.5057 18.5048 19.4825 18.4744 19.4673Z" fill="white"/>
<path d="M10.2109 24.6251C10.2109 24.9566 10.3981 25.2595 10.6946 25.4078L14.1484 27.2501V22.2705L10.2109 20.3018V24.6251Z" fill="white"/>
<path d="M18.9609 20.3018L15.0234 22.2705V27.2501L18.4773 25.4078C18.7738 25.2595 18.9609 24.9566 18.9609 24.6251V20.3018Z" fill="white"/>
<path d="M22.7834 12.3519L27.6825 13.5045L25.7857 10.9753C25.6208 10.7549 25.3614 10.625 25.0859 10.625H23.3359C23.0325 10.625 22.751 10.7822 22.5916 11.0403C22.4322 11.2983 22.4177 11.6205 22.5532 11.8914L22.7834 12.3519Z" fill="white"/>
</g>
<defs>
<filter id="filter0_f_20639_5983" x="19.4659" y="9.07727" width="37.6619" height="66.5134" filterUnits="userSpaceOnUse" color-interpolation-filters="sRGB">
<feFlood flood-opacity="0" result="BackgroundImageFix"/>
<feBlend mode="normal" in="SourceGraphic" in2="BackgroundImageFix" result="shape"/>
<feGaussianBlur stdDeviation="5.98968" result="effect1_foregroundBlur_20639_5983"/>
</filter>
<filter id="filter1_f_20639_5983" x="-3.86379" y="-6.63625" width="54.3057" height="56.459" filterUnits="userSpaceOnUse" color-interpolation-filters="sRGB">
<feFlood flood-opacity="0" result="BackgroundImageFix"/>
<feBlend mode="normal" in="SourceGraphic" in2="BackgroundImageFix" result="shape"/>
<feGaussianBlur stdDeviation="4.76393" result="effect1_foregroundBlur_20639_5983"/>
</filter>
<filter id="filter2_f_20639_5983" x="-17.5887" y="-41.0116" width="39.9665" height="95.6609" filterUnits="userSpaceOnUse" color-interpolation-filters="sRGB">
<feFlood flood-opacity="0" result="BackgroundImageFix"/>
<feBlend mode="normal" in="SourceGraphic" in2="BackgroundImageFix" result="shape"/>
<feGaussianBlur stdDeviation="5.98968" result="effect1_foregroundBlur_20639_5983"/>
</filter>
<clipPath id="clip0_20639_5983">
<rect width="44" height="44" rx="9.52785" fill="white"/>
</clipPath>
</defs>
</svg>
