<svg width="44" height="44" viewBox="0 0 44 44" fill="none" xmlns="http://www.w3.org/2000/svg">
<g clip-path="url(#clip0_20639_5955)">
<rect width="49.5166" height="83.666" rx="8.53735" transform="matrix(1 0 0 -1 0 44.3486)" fill="#EF8F66"/>
<g filter="url(#filter0_f_20639_5955)">
<path d="M39.8939 36.4913C42.5649 37.5166 41.7624 16.0123 41.1741 8.53166C40.4914 -0.149713 15.0447 3.91756 10.6531 4.2629C6.26152 4.60824 33.4374 3.14926 36.0517 10.4523C36.0517 33.7165 35.5023 36.8366 39.8939 36.4913Z" fill="white"/>
</g>
<g filter="url(#filter1_f_20639_5955)">
<path d="M1.22367 43.3105C4.62111 43.3001 9.36809 26.8955 9.31368 9.15412C9.25926 -8.5873 4.42406 -20.9472 1.02662 -20.9368C-2.37082 -20.9264 -5.08088 -6.53569 -5.02646 11.2057C-4.97205 28.9471 -2.17377 43.321 1.22367 43.3105Z" fill="#D84E14" fill-opacity="0.55"/>
</g>
<path fill-rule="evenodd" clip-rule="evenodd" d="M25.4557 21.2541L24.8104 21.8993C24.633 22.0767 24.633 22.367 24.8104 22.5445L27.9371 25.6712C28.1145 25.8486 28.4048 25.8486 28.5823 25.6712L29.2275 25.0259C29.405 24.8485 29.405 24.5582 29.2275 24.3808L26.1008 21.2541C25.9234 21.0766 25.633 21.0766 25.4557 21.2541ZM20.3127 26.397L19.6675 27.0422C19.4901 27.2196 19.4901 27.5099 19.6675 27.6873L22.7942 30.814C22.9716 30.9915 23.2619 30.9915 23.4394 30.814L24.0846 30.1688C24.262 29.9914 24.262 29.7012 24.0846 29.5237L20.9579 26.3969C20.7805 26.2195 20.4902 26.2195 20.3127 26.397ZM26.2531 26.5476C25.7605 26.9661 25.3795 27.3471 24.961 27.8397C24.7759 28.0577 24.5834 28.2975 24.3706 28.5722L21.9093 26.1109C23.0793 25.2046 23.6181 24.6658 24.5244 23.4958L26.9857 25.9571C26.711 26.1699 26.4712 26.3624 26.2531 26.5476ZM25.5658 28.4799L32.1125 35.3484C32.2379 35.48 32.39 35.5516 32.5644 35.5614C32.7389 35.5711 32.8871 35.5162 33.0051 35.3982L33.8116 34.5916C33.9296 34.4736 33.9845 34.3254 33.9748 34.1509C33.9651 33.9765 33.8934 33.8244 33.7618 33.699L26.8933 27.1523C26.8687 27.173 26.8442 27.1937 26.8197 27.2145C26.3828 27.5856 25.9991 27.9694 25.6279 28.4063C25.6071 28.4307 25.5864 28.4553 25.5658 28.4799ZM24.6307 34.912L24.2823 33.3647C24.2366 33.1619 24.0474 33.0332 23.8395 33.0332H18.8578C18.6499 33.0332 18.4607 33.1619 18.4151 33.3647L18.0666 34.912H24.6307ZM10.5678 11.2949L22.3743 11.3566V15.244C22.3743 15.304 22.4046 15.3554 22.4571 15.3843C22.5096 15.4132 22.5693 15.4114 22.62 15.3794L24.0824 14.4551C24.1373 14.4204 24.2037 14.4214 24.2575 14.4577L25.5701 15.3426C25.6205 15.3765 25.6812 15.3797 25.7348 15.3512C25.7884 15.3226 25.8198 15.2705 25.8198 15.2098V11.3746L27.7242 11.3846C28.0172 11.3861 28.2552 11.6253 28.2552 11.9183V22.171L26.7195 20.6353C26.2005 20.1164 25.3558 20.1164 24.837 20.6353L24.1917 21.2805C23.7766 21.6957 23.6935 22.3194 23.9427 22.818L23.8327 22.9599C23.4762 23.4201 23.1091 23.8714 22.697 24.2834C22.285 24.6954 21.8336 25.0627 21.3734 25.4191L21.2315 25.5291C20.7329 25.2799 20.1092 25.363 19.694 25.7781L19.0488 26.4234C18.5299 26.9423 18.5299 27.787 19.0488 28.3059L22.1755 31.4327C22.6944 31.9515 23.5392 31.9515 24.058 31.4327L24.7033 30.7875C25.1185 30.3723 25.2015 29.7486 24.9524 29.25L25.0145 29.1697L28.2553 32.5697V34.3781C28.2553 34.6721 28.0155 34.9119 27.7215 34.9119H25.5276L25.1359 33.1724C24.9996 32.5673 24.454 32.1582 23.8395 32.1582H18.8578C18.2433 32.1582 17.6977 32.5673 17.5615 33.1724L17.1698 34.9119H10.5651C10.2711 34.9119 10.0312 34.6721 10.0312 34.3781V11.8287C10.0312 11.6812 10.084 11.5543 10.1886 11.4502C10.2931 11.3462 10.4204 11.2941 10.5678 11.2949ZM28.2553 26.679V27.2416L27.5832 26.6011L27.6635 26.5389C27.8491 26.6317 28.0521 26.6784 28.2553 26.679ZM13.7502 31.7434H18.1701C18.4059 31.7434 18.5971 31.5522 18.5971 31.3164C18.5971 31.0805 18.4059 30.8893 18.1701 30.8893H13.7502C13.5144 30.8893 13.3232 31.0805 13.3232 31.3164C13.3232 31.5522 13.5144 31.7434 13.7502 31.7434ZM13.7502 19.0287H24.5363C24.7722 19.0287 24.9634 18.8375 24.9634 18.6016C24.9634 18.3658 24.7722 18.1746 24.5363 18.1746H13.7502C13.5144 18.1746 13.3232 18.3658 13.3232 18.6016C13.3232 18.8375 13.5144 19.0287 13.7502 19.0287ZM13.7502 15.85H18.1701C18.4059 15.85 18.5971 15.6588 18.5971 15.4229C18.5971 15.187 18.4059 14.9959 18.1701 14.9959H13.7502C13.5144 14.9959 13.3232 15.187 13.3232 15.4229C13.3232 15.6588 13.5144 15.85 13.7502 15.85ZM13.7502 22.2074H21.8737C22.1095 22.2074 22.3007 22.0162 22.3007 21.7803C22.3007 21.5445 22.1095 21.3533 21.8737 21.3533H13.7502C13.5144 21.3533 13.3232 21.5445 13.3232 21.7803C13.3232 22.0161 13.5144 22.2074 13.7502 22.2074ZM13.7502 25.386H18.1701C18.4059 25.386 18.5971 25.1949 18.5971 24.959C18.5971 24.7231 18.4059 24.5319 18.1701 24.5319H13.7502C13.5144 24.5319 13.3232 24.7231 13.3232 24.959C13.3232 25.1949 13.5144 25.386 13.7502 25.386ZM13.7502 28.5648H18.1701C18.4059 28.5648 18.5971 28.3736 18.5971 28.1377C18.5971 27.9019 18.4059 27.7106 18.1701 27.7106H13.7502C13.5144 27.7106 13.3232 27.9018 13.3232 28.1377C13.3232 28.3735 13.5144 28.5648 13.7502 28.5648ZM13.4252 8.43751L30.5816 8.52725C30.8746 8.52878 31.1126 8.76804 31.1126 9.06106V29.9651L29.1303 28.0757V26.3556C29.1544 26.3348 29.1781 26.3129 29.201 26.2899L29.8463 25.6447C30.3652 25.1257 30.3652 24.281 29.8463 23.7621L29.1303 23.0461V11.9184C29.1303 11.1442 28.503 10.5137 27.7288 10.5096L12.8886 10.432V8.97131C12.8886 8.82382 12.9414 8.69689 13.046 8.59288C13.1505 8.48886 13.2777 8.43674 13.4252 8.43751Z" fill="white"/>
<g filter="url(#filter2_f_20639_5955)">
<path d="M34.2297 46.4818C37.6272 46.4714 40.5117 70.9005 40.4573 53.1591C40.4029 35.4177 37.6272 23.9336 34.2297 23.944C30.8323 23.9544 28.1222 38.3451 28.1767 56.0866C28.2311 73.828 30.8323 46.4922 34.2297 46.4818Z" fill="#D84E14" fill-opacity="0.4"/>
</g>
</g>
<defs>
<filter id="filter0_f_20639_5955" x="1.63453" y="-5.52563" width="48.6684" height="50.5893" filterUnits="userSpaceOnUse" color-interpolation-filters="sRGB">
<feFlood flood-opacity="0" result="BackgroundImageFix"/>
<feBlend mode="normal" in="SourceGraphic" in2="BackgroundImageFix" result="shape"/>
<feGaussianBlur stdDeviation="4.26867" result="effect1_foregroundBlur_20639_5955"/>
</filter>
<filter id="filter1_f_20639_5955" x="-15.7574" y="-31.6705" width="35.8039" height="85.7151" filterUnits="userSpaceOnUse" color-interpolation-filters="sRGB">
<feFlood flood-opacity="0" result="BackgroundImageFix"/>
<feBlend mode="normal" in="SourceGraphic" in2="BackgroundImageFix" result="shape"/>
<feGaussianBlur stdDeviation="5.367" result="effect1_foregroundBlur_20639_5955"/>
</filter>
<filter id="filter2_f_20639_5955" x="17.4457" y="13.2103" width="33.7493" height="59.5979" filterUnits="userSpaceOnUse" color-interpolation-filters="sRGB">
<feFlood flood-opacity="0" result="BackgroundImageFix"/>
<feBlend mode="normal" in="SourceGraphic" in2="BackgroundImageFix" result="shape"/>
<feGaussianBlur stdDeviation="5.367" result="effect1_foregroundBlur_20639_5955"/>
</filter>
<clipPath id="clip0_20639_5955">
<rect width="44" height="44" rx="8.53735" fill="white"/>
</clipPath>
</defs>
</svg>
