<svg width="44" height="44" viewBox="0 0 44 44" fill="none" xmlns="http://www.w3.org/2000/svg">
<g clip-path="url(#clip0_20630_6427)">
<rect width="59.8667" height="101.154" rx="10.3218" transform="matrix(1 0 0 -1 0 43.8145)" fill="#6688EF"/>
<g filter="url(#filter0_f_20630_6427)">
<path d="M42.0629 39.9428C45.2921 41.1825 44.3219 15.1833 43.6107 6.13902C42.7853 -4.35696 12.0196 0.560461 6.71006 0.977988C1.40056 1.39551 34.2569 -0.368426 37.4176 8.46108C37.4176 36.5881 36.7534 40.3604 42.0629 39.9428Z" fill="white"/>
</g>
<g filter="url(#filter1_f_20630_6427)">
<path d="M1.48037 42.5599C5.58795 42.5474 11.3272 22.7138 11.2614 1.26408C11.1956 -20.1857 5.34971 -35.1291 1.24213 -35.1165C-2.86545 -35.1039 -6.14197 -17.7053 -6.07618 3.74452C-6.01039 25.1943 -2.6272 42.5725 1.48037 42.5599Z" fill="#2544B3"/>
</g>
<g filter="url(#filter2_f_20630_6427)">
<path d="M41.3827 46.3938C45.4903 46.3812 48.9778 75.9166 48.912 54.4669C48.8462 33.0171 45.4903 19.1326 41.3827 19.1452C37.2752 19.1578 33.9986 36.5564 34.0644 58.0062C34.1302 79.456 37.2752 46.4064 41.3827 46.3938Z" fill="#2544B3" fill-opacity="0.7"/>
</g>
<path d="M8.782 23.7868L10.6092 24.0863C10.8979 25.4854 11.4503 26.8168 12.237 28.0092L11.155 29.5194C10.9305 29.825 10.9343 30.2421 11.1645 30.5436C11.4373 30.8771 11.7272 31.1963 12.033 31.4999C12.3415 31.8089 12.6595 32.0936 12.9869 32.3688C13.2886 32.5995 13.7062 32.6033 14.0121 32.3783L15.5213 31.2958C16.7126 32.083 18.043 32.6358 19.4414 32.9246L19.7404 34.7532C19.7974 35.1273 20.0958 35.418 20.4713 35.4651C20.7313 35.4945 20.9933 35.5125 21.261 35.5259C21.391 35.5322 21.518 35.4853 21.6125 35.3959C21.7071 35.3065 21.7612 35.1824 21.7622 35.0522V31.2489C21.7608 30.9925 21.5571 30.7829 21.3009 30.7743C16.5049 30.5256 12.7437 26.5644 12.7437 21.762C12.7437 16.9596 16.5049 12.9984 21.3009 12.7498C21.5571 12.7411 21.7608 12.5316 21.7622 12.2752V8.47513C21.7615 8.34505 21.7078 8.22085 21.6135 8.13124C21.5191 8.04163 21.3923 7.99446 21.2624 8.00052C20.9957 8.01159 20.732 8.03028 20.4712 8.05651C20.0957 8.10768 19.7984 8.39957 19.7404 8.77409L19.4414 10.6027C18.043 10.8919 16.7126 11.4448 15.5212 12.232L14.012 11.149C13.7062 10.9239 13.2885 10.9278 12.9869 11.1585C12.6543 11.4317 12.3359 11.7217 12.033 12.0274C11.7249 12.3288 11.4349 12.6481 11.1644 12.9837C10.9333 13.2855 10.9295 13.7037 11.1549 14.0098L12.237 15.5199C11.4505 16.712 10.898 18.0428 10.6091 19.4415L8.78195 19.7405C8.4078 19.7976 8.1171 20.0963 8.07007 20.4719C7.97664 21.3236 7.97664 22.1829 8.07007 23.0346C8.11228 23.4164 8.40307 23.7237 8.782 23.7868Z" fill="white"/>
<path d="M21.3095 14.6586C17.5601 14.8961 14.6406 18.0063 14.6406 21.7632C14.6406 25.5201 17.5601 28.6303 21.3095 28.8678C21.4287 28.8728 21.5448 28.8285 21.6306 28.7455C21.7164 28.6624 21.7643 28.5477 21.7632 28.4284V15.098C21.7643 14.9786 21.7164 14.864 21.6306 14.7809C21.5448 14.6979 21.4287 14.6536 21.3095 14.6586Z" fill="white"/>
<path d="M25.0839 15.1189H22.7109V16.0681H25.0839C25.8693 16.0658 26.5053 15.4297 26.5076 14.6443V11.7095C27.1614 11.4783 27.5536 10.8098 27.4363 10.1264C27.3191 9.44291 26.7265 8.94336 26.033 8.94336C25.3396 8.94336 24.747 9.44291 24.6298 10.1264C24.5125 10.8098 24.9047 11.4783 25.5584 11.7095V14.6443C25.5584 14.9065 25.346 15.1189 25.0839 15.1189Z" fill="white"/>
<path d="M22.7109 17.9668H27.4569C27.719 17.9668 27.9315 17.7543 27.9315 17.4922C27.9315 17.2301 27.719 17.0176 27.4569 17.0176H22.7109V17.9668Z" fill="white"/>
<path d="M22.7109 28.4082H25.0839C25.346 28.4082 25.5585 28.6206 25.5585 28.8828V31.8176C24.9047 32.0487 24.5125 32.7173 24.6298 33.4007C24.7471 34.0842 25.3396 34.5837 26.0331 34.5837C26.7265 34.5837 27.3191 34.0842 27.4364 33.4007C27.5536 32.7173 27.1615 32.0487 26.5077 31.8176V28.8828C26.5054 28.0974 25.8693 27.4613 25.0839 27.459H22.711V28.4082H22.7109Z" fill="white"/>
<path d="M29.8298 23.6621H22.7109V24.6113H29.8298C30.0919 24.6113 30.3044 24.8238 30.3044 25.0859V27.5462C29.6506 27.7773 29.2585 28.4458 29.3757 29.1293C29.493 29.8127 30.0855 30.3123 30.779 30.3123C31.4724 30.3123 32.065 29.8127 32.1823 29.1293C32.2996 28.4458 31.9074 27.7773 31.2536 27.5462V25.0859C31.2512 24.3005 30.6152 23.6645 29.8298 23.6621Z" fill="white"/>
<path d="M34.5757 20.3398C33.9745 20.3423 33.4397 20.7222 33.2393 21.289H22.7109V22.2382H33.2393C33.4818 22.919 34.1966 23.3095 34.9005 23.1456C35.6045 22.9817 36.0733 22.3157 35.9902 21.5978C35.9071 20.8799 35.2984 20.3386 34.5757 20.3398Z" fill="white"/>
<path d="M27.9315 26.0352C27.9315 25.773 27.719 25.5605 27.4569 25.5605H22.7109V26.5097H27.4569C27.719 26.5098 27.9315 26.2973 27.9315 26.0352Z" fill="white"/>
<path d="M31.2536 18.4412V15.981C31.9074 15.7498 32.2996 15.0813 32.1823 14.3978C32.065 13.7144 31.4725 13.2148 30.779 13.2148C30.0856 13.2148 29.493 13.7144 29.3757 14.3978C29.2585 15.0813 29.6506 15.7498 30.3044 15.981V18.4412C30.3044 18.7034 30.0919 18.9159 29.8298 18.9159H22.7109V19.865H29.8298C30.6152 19.8626 31.2513 19.2266 31.2536 18.4412Z" fill="white"/>
</g>
<defs>
<filter id="filter0_f_20630_6427" x="-4.18903" y="-10.856" width="58.8312" height="61.1632" filterUnits="userSpaceOnUse" color-interpolation-filters="sRGB">
<feFlood flood-opacity="0" result="BackgroundImageFix"/>
<feBlend mode="normal" in="SourceGraphic" in2="BackgroundImageFix" result="shape"/>
<feGaussianBlur stdDeviation="5.16092" result="effect1_foregroundBlur_20630_6427"/>
</filter>
<filter id="filter1_f_20630_6427" x="-19.0558" y="-48.0939" width="43.299" height="103.631" filterUnits="userSpaceOnUse" color-interpolation-filters="sRGB">
<feFlood flood-opacity="0" result="BackgroundImageFix"/>
<feBlend mode="normal" in="SourceGraphic" in2="BackgroundImageFix" result="shape"/>
<feGaussianBlur stdDeviation="6.48882" result="effect1_foregroundBlur_20630_6427"/>
</filter>
<filter id="filter2_f_20630_6427" x="21.0849" y="6.16786" width="40.8069" height="72.0549" filterUnits="userSpaceOnUse" color-interpolation-filters="sRGB">
<feFlood flood-opacity="0" result="BackgroundImageFix"/>
<feBlend mode="normal" in="SourceGraphic" in2="BackgroundImageFix" result="shape"/>
<feGaussianBlur stdDeviation="6.48882" result="effect1_foregroundBlur_20630_6427"/>
</filter>
<clipPath id="clip0_20630_6427">
<rect width="44" height="44" rx="10.3218" fill="white"/>
</clipPath>
</defs>
</svg>
