<svg width="44" height="44" viewBox="0 0 44 44" fill="none" xmlns="http://www.w3.org/2000/svg">
<g clip-path="url(#clip0_20639_5871)">
<rect width="49.5166" height="83.666" rx="8.53735" transform="matrix(1 0 0 -1 0 44.3486)" fill="#EF8F66"/>
<g filter="url(#filter0_f_20639_5871)">
<path d="M39.8939 36.4913C42.5649 37.5166 41.7624 16.0123 41.1741 8.53166C40.4914 -0.149713 15.0447 3.91756 10.6531 4.2629C6.26152 4.60824 33.4374 3.14926 36.0517 10.4523C36.0517 33.7165 35.5023 36.8366 39.8939 36.4913Z" fill="white"/>
</g>
<g filter="url(#filter1_f_20639_5871)">
<path d="M1.22367 43.3105C4.62111 43.3001 9.36809 26.8955 9.31368 9.15412C9.25926 -8.5873 4.42406 -20.9472 1.02662 -20.9368C-2.37082 -20.9264 -5.08088 -6.53569 -5.02646 11.2057C-4.97205 28.9471 -2.17377 43.321 1.22367 43.3105Z" fill="#D84E14" fill-opacity="0.55"/>
</g>
<path fill-rule="evenodd" clip-rule="evenodd" d="M16.9151 10.3418V16.4804C17.2359 16.4623 17.5803 16.3582 17.956 16.1669C18.08 16.1039 18.218 16.0734 18.357 16.0785C18.496 16.0836 18.6314 16.1241 18.7505 16.1961C18.8695 16.268 18.9682 16.3692 19.0373 16.4899C19.1064 16.6106 19.1435 16.747 19.1453 16.8861C19.147 17.0309 19.1441 17.1704 19.1374 17.3075H32.0242C32.1434 17.3089 32.2572 17.3571 32.341 17.4419C32.4249 17.5266 32.4719 17.641 32.4719 17.7602C32.4719 17.8794 32.4249 17.9937 32.341 18.0785C32.2572 18.1632 32.1434 18.2115 32.0242 18.2128H19.0158C18.8818 18.7938 18.6448 19.2819 18.3049 19.677H18.629C18.9124 19.6774 19.1839 19.7901 19.3843 19.9905C19.5846 20.1908 19.6974 20.4624 19.6978 20.7457V20.7542H32.0242C32.1442 20.7542 32.2593 20.8019 32.3442 20.8868C32.4291 20.9717 32.4768 21.0868 32.4768 21.2068C32.4768 21.3269 32.4291 21.442 32.3442 21.5269C32.2593 21.6117 32.1442 21.6594 32.0242 21.6594H19.6172C19.5189 21.8981 19.3376 22.0932 19.1068 22.2088C19.6859 22.8124 20.193 23.4811 20.618 24.2015H32.0242C32.1442 24.2015 32.2593 24.2491 32.3442 24.334C32.4291 24.4189 32.4768 24.534 32.4768 24.654C32.4768 24.7741 32.4291 24.8892 32.3442 24.9741C32.2593 25.059 32.1442 25.1066 32.0242 25.1066H21.1086C21.3556 25.6102 21.5686 26.1299 21.7461 26.662L24.5988 27.8715C24.6742 27.9035 24.7396 27.9553 24.7879 28.0215C24.8362 28.0877 24.8657 28.1657 24.8731 28.2472C25.0236 29.9004 24.6429 31.8817 23.6963 33.4268H34.1823C34.7024 33.4268 35.1249 32.943 35.125 32.349V16.8099H28.7244C28.6045 16.8099 28.4896 16.7624 28.4047 16.6777C28.3199 16.5931 28.272 16.4782 28.2717 16.3584L28.2498 9.26367H17.8577C17.3378 9.26367 16.9151 9.74738 16.9151 10.3421V10.3418ZM19.568 13.8603H25.9397C26.0588 13.8616 26.1727 13.9099 26.2565 13.9946C26.3403 14.0794 26.3873 14.1938 26.3873 14.3129C26.3873 14.4321 26.3403 14.5465 26.2565 14.6312C26.1727 14.716 26.0588 14.7643 25.9397 14.7656H19.568C19.5081 14.7662 19.4487 14.755 19.3932 14.7325C19.3377 14.7101 19.2872 14.6769 19.2447 14.6348C19.2021 14.5927 19.1683 14.5426 19.1453 14.4873C19.1222 14.4321 19.1103 14.3728 19.1103 14.3129C19.1103 14.2531 19.1222 14.1938 19.1453 14.1386C19.1683 14.0833 19.2021 14.0332 19.2447 13.9911C19.2872 13.949 19.3377 13.9158 19.3932 13.8933C19.4487 13.8709 19.5082 13.8597 19.568 13.8603ZM28.5976 30.116H31.6058C31.7259 30.116 31.841 30.1636 31.9259 30.2485C32.0107 30.3334 32.0584 30.4485 32.0584 30.5686C32.0584 30.6886 32.0107 30.8037 31.9259 30.8886C31.841 30.9735 31.7259 31.0211 31.6058 31.0211H28.5976C28.4775 31.0211 28.3624 30.9735 28.2776 30.8886C28.1927 30.8037 28.145 30.6886 28.145 30.5686C28.145 30.4485 28.1927 30.3334 28.2776 30.2485C28.3624 30.1636 28.4775 30.116 28.5976 30.116H28.5976ZM29.1573 9.98309L34.5529 15.9044H29.1753L29.1573 9.98309ZM19.8474 31.1173C19.7349 30.9906 19.6189 30.8593 19.504 30.7451C19.4208 30.6598 19.3746 30.5452 19.3754 30.4261C19.3762 30.307 19.4239 30.193 19.5082 30.1088C19.5924 30.0246 19.7065 29.977 19.8256 29.9763C19.9447 29.9757 20.0593 30.022 20.1445 30.1052C20.278 30.2388 20.4031 30.3802 20.5247 30.5165C20.6276 30.6325 20.725 30.7428 20.8171 30.8362C21.0429 30.6105 21.2677 30.3842 21.4915 30.1573C21.7235 29.9231 21.955 29.6889 22.1886 29.4552C22.2735 29.3703 22.3887 29.3227 22.5087 29.3227C22.6288 29.3228 22.7439 29.3705 22.8287 29.4555C22.9136 29.5404 22.9612 29.6556 22.9612 29.7756C22.9611 29.8957 22.9134 30.0108 22.8284 30.0956C22.5965 30.3276 22.3653 30.5603 22.1348 30.7938C21.9043 31.0273 21.6733 31.26 21.4418 31.492C21.2759 31.6572 21.0513 31.75 20.8172 31.75C20.583 31.75 20.3584 31.6572 20.1926 31.492C20.0766 31.376 19.9601 31.2447 19.8474 31.1174V31.1173ZM23.9906 28.5969C24.0964 30.7179 23.2375 33.446 21.3564 34.5617C21.2482 34.6259 21.1365 34.6841 21.0219 34.736C19.8333 34.1663 19.0672 33.4698 18.6191 32.5567C18.0777 31.4523 17.9793 29.9564 17.951 28.5918L20.9688 27.3154L23.9906 28.5969ZM17.8067 32.955C17.9045 33.1538 18.0155 33.3458 18.1389 33.5298C18.0891 33.5352 18.0393 33.5416 17.9889 33.5462L11.9405 33.5196C10.7863 33.3725 9.9439 32.8644 9.43754 32.009C8.62937 30.6458 8.69615 28.3734 9.61101 26.0786C10.1688 24.6786 11.0277 23.4484 12.2311 22.3231H17.9022C19.0315 23.2662 20.0651 24.7938 20.7051 26.4441L17.3172 27.8766C17.2343 27.9118 17.1637 27.9708 17.1145 28.0461C17.0652 28.1215 17.0395 28.2098 17.0405 28.2998C17.0624 29.8415 17.1419 31.6 17.8066 32.955H17.8067ZM15.1504 30.9024C15.091 30.9024 15.0321 30.8907 14.9772 30.8679C14.9223 30.8452 14.8724 30.8119 14.8304 30.7698C14.7883 30.7278 14.755 30.6779 14.7322 30.623C14.7095 30.5681 14.6978 30.5092 14.6978 30.4498V30.1646C14.0505 30.0106 13.5628 29.5603 13.4163 28.9232C13.3906 28.8067 13.4119 28.6847 13.4756 28.5838C13.5394 28.483 13.6404 28.4114 13.7566 28.3846C13.8729 28.3578 13.9951 28.378 14.0965 28.4408C14.198 28.5036 14.2705 28.604 14.2983 28.72C14.4273 29.2796 15.0576 29.3509 15.4095 29.3052C15.7072 29.2669 15.8672 29.1151 15.9176 28.9861C15.9623 28.8718 15.9362 28.7512 15.841 28.6375C15.6725 28.4352 15.5033 28.4016 15.1672 28.3512C14.9493 28.3253 14.7348 28.2762 14.5274 28.2047L14.5132 28.1997C13.9265 27.962 13.5814 27.4975 13.5893 26.9567C13.5978 26.4073 13.9673 25.9176 14.5308 25.7085C14.5862 25.6882 14.6422 25.6707 14.6977 25.6554V25.3589C14.697 25.2991 14.7082 25.2397 14.7307 25.1842C14.7531 25.1287 14.7864 25.0782 14.8284 25.0357C14.8705 24.9931 14.9206 24.9593 14.9759 24.9363C15.0311 24.9132 15.0904 24.9013 15.1502 24.9013C15.2101 24.9013 15.2693 24.9132 15.3246 24.9363C15.3798 24.9593 15.4299 24.9931 15.472 25.0357C15.5141 25.0782 15.5473 25.1287 15.5698 25.1842C15.5922 25.2397 15.6035 25.2991 15.6028 25.3589V25.6447C16.1289 25.7832 16.5714 26.1781 16.795 26.7671C16.8375 26.8793 16.8337 27.0039 16.7845 27.1133C16.7352 27.2228 16.6444 27.3081 16.5322 27.3507C16.4766 27.3718 16.4175 27.3817 16.3581 27.3799C16.2987 27.3781 16.2402 27.3646 16.186 27.3402C16.0766 27.2909 15.9912 27.2001 15.9486 27.0879C15.7585 26.5877 15.3257 26.3795 14.8454 26.5574C14.6061 26.6463 14.4968 26.829 14.4946 26.9704C14.4918 27.1786 14.7101 27.302 14.8465 27.358C14.9946 27.4055 15.1469 27.4384 15.3014 27.4565C15.6754 27.5125 16.1399 27.5822 16.5373 28.0585C16.8421 28.4249 16.9256 28.8952 16.7606 29.3163C16.5813 29.7745 16.1513 30.097 15.6031 30.1909V30.4501C15.6031 30.5095 15.5914 30.5684 15.5686 30.6233C15.5459 30.6782 15.5125 30.7281 15.4705 30.7702C15.4285 30.8122 15.3786 30.8455 15.3236 30.8683C15.2687 30.891 15.2099 30.9027 15.1504 30.9027V30.9024ZM11.5878 21.4179C11.5446 21.4173 11.5034 21.3998 11.4728 21.3693C11.4423 21.3388 11.4249 21.2975 11.4243 21.2543V20.7458C11.4249 20.7026 11.4423 20.6613 11.4729 20.6308C11.5034 20.6003 11.5447 20.5829 11.5879 20.5823H18.6293C18.6725 20.583 18.7137 20.6004 18.7442 20.6309C18.7747 20.6614 18.7922 20.7026 18.7929 20.7458V21.2543C18.7923 21.2975 18.7748 21.3387 18.7443 21.3692C18.7138 21.3997 18.6726 21.4172 18.6294 21.4179H11.5878ZM13.5087 19.677C12.7572 19.2654 12.3771 18.4204 12.3504 17.0971C13.2811 17.5542 14.2515 17.4699 15.2375 16.8464C15.8559 17.3075 16.8608 17.686 18.2406 17.0354C18.2265 18.3966 17.7508 19.2612 16.7907 19.6768L13.5087 19.677Z" fill="white"/>
<g filter="url(#filter2_f_20639_5871)">
<path d="M34.2297 46.4818C37.6272 46.4714 40.5117 70.9005 40.4573 53.1591C40.4029 35.4177 37.6272 23.9336 34.2297 23.944C30.8323 23.9544 28.1222 38.3451 28.1767 56.0866C28.2311 73.828 30.8323 46.4922 34.2297 46.4818Z" fill="#D84E14" fill-opacity="0.4"/>
</g>
</g>
<defs>
<filter id="filter0_f_20639_5871" x="1.63453" y="-5.52563" width="48.6684" height="50.5893" filterUnits="userSpaceOnUse" color-interpolation-filters="sRGB">
<feFlood flood-opacity="0" result="BackgroundImageFix"/>
<feBlend mode="normal" in="SourceGraphic" in2="BackgroundImageFix" result="shape"/>
<feGaussianBlur stdDeviation="4.26867" result="effect1_foregroundBlur_20639_5871"/>
</filter>
<filter id="filter1_f_20639_5871" x="-15.7574" y="-31.6705" width="35.8039" height="85.7151" filterUnits="userSpaceOnUse" color-interpolation-filters="sRGB">
<feFlood flood-opacity="0" result="BackgroundImageFix"/>
<feBlend mode="normal" in="SourceGraphic" in2="BackgroundImageFix" result="shape"/>
<feGaussianBlur stdDeviation="5.367" result="effect1_foregroundBlur_20639_5871"/>
</filter>
<filter id="filter2_f_20639_5871" x="17.4457" y="13.2103" width="33.7493" height="59.5979" filterUnits="userSpaceOnUse" color-interpolation-filters="sRGB">
<feFlood flood-opacity="0" result="BackgroundImageFix"/>
<feBlend mode="normal" in="SourceGraphic" in2="BackgroundImageFix" result="shape"/>
<feGaussianBlur stdDeviation="5.367" result="effect1_foregroundBlur_20639_5871"/>
</filter>
<clipPath id="clip0_20639_5871">
<rect width="44" height="44" rx="8.53735" fill="white"/>
</clipPath>
</defs>
</svg>
