<svg width="44" height="44" viewBox="0 0 44 44" fill="none" xmlns="http://www.w3.org/2000/svg">
<g clip-path="url(#clip0_20639_5911)">
<g filter="url(#filter0_f_20639_5911)">
<path d="M36.9073 46.3439C40.5711 46.3327 43.6818 72.6771 43.6231 53.5447C43.5644 34.4124 40.5711 22.028 36.9073 22.0392C33.2435 22.0505 30.321 37.5694 30.3797 56.7017C30.4384 75.834 33.2435 46.3552 36.9073 46.3439Z" fill="#009B63" fill-opacity="0.7"/>
</g>
<rect width="53.3987" height="90.2253" rx="9.20667" transform="matrix(1 0 0 -1 0 44.043)" fill="#54D66E"/>
<g filter="url(#filter1_f_20639_5911)">
<path d="M38.3659 38.8978C41.2463 40.0036 40.3809 16.8133 39.7465 8.74619C39.0103 -0.615803 11.5685 3.77034 6.83266 4.14276C2.0968 4.51517 31.4033 2.94181 34.2226 10.8174C34.2226 35.9055 33.6301 39.2702 38.3659 38.8978Z" fill="white"/>
</g>
<g filter="url(#filter2_f_20639_5911)">
<path d="M3.63063 42.9158C6.33821 42.9075 10.1071 25.2209 10.0485 6.08858C9.98978 -13.0437 6.1257 -26.3768 3.41813 -26.3685C0.710557 -26.3602 -1.43679 -10.8437 -1.37811 8.28865C-1.31943 27.421 0.92306 42.9241 3.63063 42.9158Z" fill="#009B63" fill-opacity="0.85"/>
</g>
<g clip-path="url(#clip1_20639_5911)">
<path fill-rule="evenodd" clip-rule="evenodd" d="M22.1729 28.118C22.1278 27.8217 22.0742 27.5435 22.0124 27.2889C22.3482 27.3259 22.6839 27.3203 23.0171 27.2719C23.0811 27.5038 23.138 27.7659 23.1865 28.0516C22.8395 27.9968 22.4944 28.0231 22.1729 28.118H22.1729ZM21.1513 31.9549L19.8986 34.1235L20.418 34.0634C20.5857 34.0442 20.7465 34.1368 20.8135 34.2918L21.0204 34.771L22.273 32.5995C22.2575 32.5957 22.2419 32.5928 22.2263 32.5885C21.8103 32.4771 21.4418 32.2579 21.1514 31.9549H21.1513ZM23.9885 32.3569C23.7959 32.468 23.5918 32.5488 23.3819 32.6008L24.6338 34.771L24.8407 34.2919C24.9077 34.1369 25.0683 34.0441 25.2361 34.0634L25.7555 34.1236L24.5028 31.9549C24.3529 32.1104 24.1807 32.246 23.9885 32.3569L23.9885 32.3569ZM22.4245 31.8492C22.0221 31.7414 21.686 31.4839 21.4781 31.124C21.2702 30.7641 21.2149 30.3444 21.3226 29.9424C21.509 29.2478 22.1395 28.7886 22.8266 28.7886C22.9597 28.7886 23.0949 28.8059 23.2295 28.842C24.0582 29.0643 24.5525 29.92 24.3315 30.7488C24.2238 31.1504 23.9661 31.486 23.6059 31.6939C23.2457 31.9017 22.8262 31.957 22.4245 31.8492ZM22.6719 30.9268C22.9921 31.0122 23.3221 30.8218 23.4075 30.5016C23.4928 30.1814 23.3024 29.8514 22.9822 29.766C22.6621 29.679 22.3321 29.8694 22.2467 30.1896C22.1613 30.5114 22.3518 30.8398 22.6719 30.9268ZM22.7004 33.3905C22.7901 33.3963 22.8796 33.405 22.9689 33.4169L22.8271 33.171L22.7004 33.3905ZM12.8525 29.812C12.8525 30.097 12.8245 30.3751 12.7701 30.6375C13.2125 30.5858 13.5964 30.5641 13.9876 30.5678C13.9899 30.4951 13.9914 30.4218 13.9914 30.3472C13.9914 28.4829 13.2595 27.1718 12.5007 26.9363C12.4132 26.9239 12.3255 26.9118 12.238 26.899C11.9801 26.9058 11.7174 27.0427 11.4775 27.2903C11.7337 27.328 11.9747 27.4531 12.1693 27.6553C12.5905 28.092 12.8525 28.9186 12.8525 29.812ZM12.2899 31.4758C12.2705 31.4788 12.251 31.4803 12.2316 31.4803C12.115 31.4803 12.0034 31.427 11.9303 31.3335C11.845 31.2245 11.8251 31.0779 11.8784 30.9501C12.0149 30.6232 12.0869 30.2297 12.0869 29.812C12.0869 29.1305 11.8985 28.4772 11.6179 28.1864C11.5087 28.0728 11.3797 28.0257 11.2443 28.0496C11.0756 28.0796 10.9188 28.2163 10.835 28.4065L10.8324 28.4054C10.6425 28.9415 10.5244 29.5995 10.5244 30.3472C10.5244 32.3941 11.4065 33.7736 12.2379 33.7954C12.3258 33.7826 12.4139 33.7702 12.5019 33.7578C13.1181 33.5656 13.7158 32.664 13.9184 31.3331C13.4254 31.3324 12.9346 31.3765 12.2899 31.4758ZM20.5832 29.7441C20.7251 29.2151 21.0401 28.7781 21.4506 28.4766C21.4107 28.169 21.3615 27.8822 21.3038 27.6213C18.8459 27.5883 16.3572 27.4196 13.8803 27.1183C14.4194 27.8856 14.757 29.0374 14.757 30.3472C14.757 31.6569 14.4191 32.8101 13.8794 33.5774C15.7572 33.3513 17.6702 33.2012 19.5885 33.1298L20.6821 31.2368C20.4851 30.7659 20.4488 30.2459 20.5832 29.7441ZM32.2358 26.8984C29.4672 27.3026 26.6596 27.541 23.8825 27.6086C23.9292 27.8394 23.9702 28.0861 24.0048 28.3452C24.8806 28.8618 25.3454 29.9174 25.071 30.9466C25.0442 31.0463 25.0107 31.1429 24.972 31.2368L26.0984 33.1867C28.157 33.2989 30.2204 33.5032 32.2357 33.796C33.0657 33.769 33.9443 32.3901 33.9443 30.3472C33.9443 28.3044 33.0657 26.9256 32.2358 26.8984ZM22.2343 19.3839C22.1913 19.3839 22.1483 19.3766 22.1071 19.3621L14.1063 16.5427V19.548C16.953 21.202 19.6139 22.0275 22.2343 22.0698C24.8547 22.0276 27.5155 21.202 30.3623 19.548V16.5427L22.3615 19.3621C22.3203 19.3766 22.2773 19.3839 22.2343 19.3839ZM35.5234 13.9124L22.2344 9.22949L8.94531 13.9124L22.2344 18.5953L35.5234 13.9124L35.5234 13.9124ZM22.2343 22.8354C22.2323 22.8354 22.2303 22.8354 22.2283 22.8354C19.5911 22.794 16.9282 22.006 14.1063 20.4295V21.8276C16.9551 23.4828 19.6157 24.3084 22.2343 24.3506C24.8529 24.3084 27.5135 23.4828 30.3623 21.8276V20.4295C27.5404 22.006 24.8776 22.794 22.2403 22.8354C22.2383 22.8354 22.2363 22.8354 22.2343 22.8354ZM33.5149 21.7352C33.7058 21.5224 33.8221 21.2413 33.8221 20.9334C33.8221 20.4056 33.4795 19.9567 33.0051 19.7966V15.6116L32.2396 15.8814V19.7966C31.7651 19.9568 31.4225 20.4056 31.4225 20.9334C31.4225 21.2413 31.5389 21.5224 31.7297 21.7352L30.9885 23.9175C30.9254 24.1022 30.9348 24.299 31.0148 24.4707C31.1056 24.6684 31.2645 24.7817 31.4508 24.7817H33.7938C33.98 24.7817 34.139 24.6684 34.2294 24.4716C34.3098 24.299 34.3192 24.1023 34.2562 23.9179L33.5149 21.7352H33.5149Z" fill="white"/>
</g>
</g>
<defs>
<filter id="filter0_f_20639_5911" x="18.7995" y="10.4635" width="36.4011" height="64.2702" filterUnits="userSpaceOnUse" color-interpolation-filters="sRGB">
<feFlood flood-opacity="0" result="BackgroundImageFix"/>
<feBlend mode="normal" in="SourceGraphic" in2="BackgroundImageFix" result="shape"/>
<feGaussianBlur stdDeviation="5.78777" result="effect1_foregroundBlur_20639_5911"/>
</filter>
<filter id="filter1_f_20639_5911" x="-2.89417" y="-6.41272" width="52.4836" height="54.5559" filterUnits="userSpaceOnUse" color-interpolation-filters="sRGB">
<feFlood flood-opacity="0" result="BackgroundImageFix"/>
<feBlend mode="normal" in="SourceGraphic" in2="BackgroundImageFix" result="shape"/>
<feGaussianBlur stdDeviation="4.60333" result="effect1_foregroundBlur_20639_5911"/>
</filter>
<filter id="filter2_f_20639_5911" x="-12.9584" y="-37.9437" width="34.5808" height="92.4353" filterUnits="userSpaceOnUse" color-interpolation-filters="sRGB">
<feFlood flood-opacity="0" result="BackgroundImageFix"/>
<feBlend mode="normal" in="SourceGraphic" in2="BackgroundImageFix" result="shape"/>
<feGaussianBlur stdDeviation="5.78777" result="effect1_foregroundBlur_20639_5911"/>
</filter>
<clipPath id="clip0_20639_5911">
<rect width="44" height="44" rx="9.20667" fill="white"/>
</clipPath>
<clipPath id="clip1_20639_5911">
<rect width="28" height="28" fill="white" transform="translate(8.23438 8)"/>
</clipPath>
</defs>
</svg>
