<svg width="44" height="44" viewBox="0 0 44 44" fill="none" xmlns="http://www.w3.org/2000/svg">
<g clip-path="url(#clip0_20639_5893)">
<rect width="49.5166" height="83.666" rx="8.53735" transform="matrix(1 0 0 -1 0 44.3486)" fill="#D68AF4"/>
<g filter="url(#filter0_f_20639_5893)">
<path d="M39.8939 36.4913C42.5649 37.5166 41.7624 16.0123 41.1741 8.53166C40.4914 -0.149713 15.0447 3.91756 10.6531 4.2629C6.26152 4.60824 33.4374 3.14926 36.0517 10.4523C36.0517 33.7165 35.5023 36.8366 39.8939 36.4913Z" fill="white"/>
</g>
<g filter="url(#filter1_f_20639_5893)">
<path d="M1.22367 43.3105C4.62111 43.3001 9.36809 26.8955 9.31368 9.15412C9.25926 -8.5873 4.42406 -20.9472 1.02662 -20.9368C-2.37082 -20.9264 -5.08088 -6.53569 -5.02646 11.2057C-4.97205 28.9471 -2.17377 43.321 1.22367 43.3105Z" fill="#E422FE" fill-opacity="0.55"/>
</g>
<g clip-path="url(#clip1_20639_5893)">
<path d="M34.7188 9.64062C35.1722 9.64062 35.5391 9.27373 35.5391 8.82031C35.5391 8.3669 35.1722 8 34.7188 8H21.5391C21.0856 8 20.7188 8.3669 20.7188 8.82031C20.7188 9.27373 21.0856 9.64062 21.5391 9.64062H25.6406V14.6172H24.8203C24.6024 14.6172 24.3941 14.7037 24.2404 14.8575L20.9591 18.1388C20.8053 18.2926 20.7188 18.5009 20.7188 18.7188V22C20.7188 22.2179 20.8053 22.4262 20.9591 22.58L23.1797 24.8006V22.4806L22.3594 21.6603V19.0584L25.16 16.2578H31.0978L33.8984 19.0584V21.6603L33.0781 22.4806V24.8006L35.2987 22.58C35.4525 22.4262 35.5391 22.2179 35.5391 22V18.7188C35.5391 18.5009 35.4525 18.2926 35.2987 18.1388L32.0175 14.8575C31.8637 14.7037 31.6554 14.6172 31.4375 14.6172H30.6172V9.64062H34.7188Z" fill="white"/>
<path d="M32.2031 29.4375H10.875C9.06282 29.4375 7.53906 30.9065 7.53906 32.7188C7.53906 34.5309 9.06282 36 10.875 36H32.2031C34.0153 36 35.5391 34.5309 35.5391 32.7188C35.5391 30.9065 34.0153 29.4375 32.2031 29.4375ZM11.6953 33.539C11.2422 33.539 10.875 33.1717 10.875 32.7186C10.875 32.2656 11.2422 31.8983 11.6953 31.8983C12.1483 31.8983 12.5156 32.2656 12.5156 32.7186C12.5156 33.1717 12.1483 33.539 11.6953 33.539ZM14.9766 33.539C14.5234 33.539 14.1562 33.1717 14.1562 32.7186C14.1562 32.2656 14.5234 31.8983 14.9766 31.8983C15.4296 31.8983 15.7969 32.2656 15.7969 32.7186C15.7969 33.1717 15.4296 33.539 14.9766 33.539ZM18.2578 33.539C17.8047 33.539 17.4375 33.1717 17.4375 32.7186C17.4375 32.2656 17.8047 31.8983 18.2578 31.8983C18.7108 31.8983 19.0781 32.2656 19.0781 32.7186C19.0781 33.1717 18.7108 33.539 18.2578 33.539ZM21.5391 33.539C21.0859 33.539 20.7188 33.1717 20.7188 32.7186C20.7188 32.2656 21.0859 31.8983 21.5391 31.8983C21.9921 31.8983 22.3594 32.2656 22.3594 32.7186C22.3594 33.1717 21.9921 33.539 21.5391 33.539ZM24.8203 33.539C24.3672 33.539 24 33.1717 24 32.7186C24 32.2656 24.3672 31.8983 24.8203 31.8983C25.2733 31.8983 25.6406 32.2656 25.6406 32.7186C25.6406 33.1717 25.2733 33.539 24.8203 33.539ZM28.1016 33.539C27.6484 33.539 27.2812 33.1717 27.2812 32.7186C27.2812 32.2656 27.6484 31.8983 28.1016 31.8983C28.5546 31.8983 28.9219 32.2656 28.9219 32.7186C28.9219 33.1717 28.5546 33.539 28.1016 33.539ZM31.3828 33.539C30.9297 33.539 30.5625 33.1717 30.5625 32.7186C30.5625 32.2656 30.9297 31.8983 31.3828 31.8983C31.8358 31.8983 32.2031 32.2656 32.2031 32.7186C32.2031 33.1717 31.8358 33.539 31.3828 33.539Z" fill="white"/>
<path d="M17.4375 21.1797H12.5156C12.0622 21.1797 11.6953 21.5466 11.6953 22V27.7969H18.2578V22C18.2578 21.5466 17.8909 21.1797 17.4375 21.1797Z" fill="white"/>
<path d="M30.6172 21.1797H25.6406C25.1872 21.1797 24.8203 21.5466 24.8203 22V27.7969H31.4375V22C31.4375 21.5466 31.0706 21.1797 30.6172 21.1797Z" fill="white"/>
</g>
<g filter="url(#filter2_f_20639_5893)">
<path d="M34.2297 46.4818C37.6272 46.4714 40.5117 70.9005 40.4573 53.1591C40.4029 35.4177 37.6272 23.9336 34.2297 23.944C30.8323 23.9544 28.1222 38.3451 28.1767 56.0866C28.2311 73.828 30.8323 46.4922 34.2297 46.4818Z" fill="#9200CB" fill-opacity="0.4"/>
</g>
</g>
<defs>
<filter id="filter0_f_20639_5893" x="1.63453" y="-5.52563" width="48.6684" height="50.5893" filterUnits="userSpaceOnUse" color-interpolation-filters="sRGB">
<feFlood flood-opacity="0" result="BackgroundImageFix"/>
<feBlend mode="normal" in="SourceGraphic" in2="BackgroundImageFix" result="shape"/>
<feGaussianBlur stdDeviation="4.26867" result="effect1_foregroundBlur_20639_5893"/>
</filter>
<filter id="filter1_f_20639_5893" x="-15.7574" y="-31.6705" width="35.8039" height="85.7151" filterUnits="userSpaceOnUse" color-interpolation-filters="sRGB">
<feFlood flood-opacity="0" result="BackgroundImageFix"/>
<feBlend mode="normal" in="SourceGraphic" in2="BackgroundImageFix" result="shape"/>
<feGaussianBlur stdDeviation="5.367" result="effect1_foregroundBlur_20639_5893"/>
</filter>
<filter id="filter2_f_20639_5893" x="17.4457" y="13.2103" width="33.7493" height="59.5979" filterUnits="userSpaceOnUse" color-interpolation-filters="sRGB">
<feFlood flood-opacity="0" result="BackgroundImageFix"/>
<feBlend mode="normal" in="SourceGraphic" in2="BackgroundImageFix" result="shape"/>
<feGaussianBlur stdDeviation="5.367" result="effect1_foregroundBlur_20639_5893"/>
</filter>
<clipPath id="clip0_20639_5893">
<rect width="44" height="44" rx="8.53735" fill="white"/>
</clipPath>
<clipPath id="clip1_20639_5893">
<rect width="28" height="28" fill="white" transform="translate(7.53906 8)"/>
</clipPath>
</defs>
</svg>
