<svg width="44" height="44" viewBox="0 0 44 44" fill="none" xmlns="http://www.w3.org/2000/svg">
<g clip-path="url(#clip0_20630_6447)">
<rect width="63.1075" height="106.63" rx="10.8806" transform="matrix(1 0 0 -1 0 44.0508)" fill="#54D66E"/>
<g filter="url(#filter0_f_20630_6447)">
<path d="M45.3373 37.9698C48.7414 39.2766 47.7186 11.8699 46.9689 2.33605C46.0988 -8.72812 13.6676 -3.5445 8.0707 -3.10437C2.47378 -2.66424 37.1087 -4.52367 40.4406 4.78381C40.4406 34.4335 39.7404 38.4099 45.3373 37.9698Z" fill="white"/>
</g>
<g filter="url(#filter1_f_20630_6447)">
<path d="M4.2872 42.7192C7.48706 42.7093 11.9413 21.8071 11.8719 -0.80387C11.8026 -23.4148 7.23592 -39.1721 4.03606 -39.1623C0.836198 -39.1525 -1.70158 -20.8147 -1.63223 1.79621C-1.56288 24.4071 1.08734 42.729 4.2872 42.7192Z" fill="#009B63" fill-opacity="0.85"/>
</g>
<g filter="url(#filter2_f_20630_6447)">
<path d="M43.6213 46.77C47.9512 46.7568 51.6275 77.891 51.5581 55.2801C51.4888 32.6691 47.9512 18.033 43.6213 18.0463C39.2914 18.0595 35.8375 36.4001 35.9068 59.011C35.9762 81.622 39.2914 46.7833 43.6213 46.77Z" fill="#009B63" fill-opacity="0.7"/>
</g>
<g clip-path="url(#clip1_20630_6447)">
<path d="M15.5957 33.4667L16.0901 34.2417L13.4923 35.8984L9.74219 30.0187L12.3388 28.362L15.5876 33.4539C15.5882 33.455 15.5888 33.4568 15.5894 33.458C15.5917 33.4608 15.5934 33.4638 15.5957 33.4667ZM30.6856 27.5112L26.4527 30.2242C26.3426 30.7431 26.0363 31.2014 25.6089 31.4739C25.3294 31.6521 25.0103 31.7424 24.676 31.7424C24.4675 31.7424 24.2526 31.7074 24.0378 31.6364L20.9887 30.6284C20.7721 30.5567 20.6545 30.3227 20.7261 30.1054C20.7978 29.8888 21.0313 29.7712 21.2484 29.8428L24.2975 30.8508C24.6253 30.9592 24.9165 30.9341 25.1646 30.7763C25.4313 30.6063 25.6223 30.2854 25.6624 29.9401C25.6642 29.9238 25.6671 29.9086 25.6712 29.8935C25.6852 29.4369 25.3905 29.0095 24.9537 28.8651L18.261 26.6511C17.6094 26.4356 16.9834 26.5066 16.3993 26.863L13.4923 28.6316L16.0743 32.6787L17.5098 31.8058C17.6129 31.7429 17.7392 31.7289 17.8545 31.7668L23.3651 33.5883C24.1053 33.8341 24.8436 33.7409 25.5 33.3199L31.8147 29.2727C32.2998 28.9618 32.4419 28.3125 32.1315 27.8256C31.82 27.3412 31.1712 27.1996 30.6856 27.5112ZM34.413 20.6286C34.413 21.1836 34.1982 21.7036 33.808 22.0932L30.5859 25.317L27.3639 22.0932C26.5568 21.2861 26.5568 19.9717 27.3639 19.1629C27.7529 18.7739 28.2735 18.5596 28.8285 18.5596C29.384 18.5596 29.9046 18.7739 30.2936 19.1635C30.4549 19.3248 30.7169 19.3248 30.8783 19.1635C31.6865 18.3564 33.0014 18.3564 33.8085 19.1635C34.1982 19.5531 34.413 20.0737 34.413 20.6286ZM32.2858 21.5318C32.2858 21.3029 32.1006 21.1178 31.8724 21.1178H30.9994V20.2455C30.9994 20.0172 30.8143 19.832 30.586 19.832C30.3577 19.832 30.1726 20.0172 30.1726 20.2455V21.1178H29.302C29.0731 21.1178 28.888 21.3029 28.888 21.5318C28.888 21.7601 29.0731 21.9453 29.302 21.9453H30.1726V22.8158C30.1726 23.0441 30.3577 23.2293 30.586 23.2293C30.8143 23.2293 30.9994 23.0441 30.9994 22.8158V21.9453H31.8724C32.1006 21.9453 32.2858 21.7601 32.2858 21.5318ZM18.5207 25.8661L25.2134 28.0795C25.7923 28.2711 26.2249 28.7213 26.4061 29.2716L30.1726 26.8572V26.0734L26.7788 22.6778C25.6496 21.5487 25.6496 19.7097 26.7788 18.5789V18.5782C26.8137 18.5439 26.8487 18.5101 26.8848 18.4775C26.3607 18.2929 25.8057 18.1963 25.2478 18.1963H21.4301C18.7147 18.1963 16.5054 20.405 16.5054 23.1204V25.8941C17.1488 25.6512 17.8353 25.639 18.5207 25.8661ZM23.3389 17.3688C25.9355 17.3688 28.0476 15.2567 28.0476 12.6601C28.0476 10.0647 25.9355 7.95312 23.3389 7.95312C20.7435 7.95312 18.632 10.0647 18.632 12.6601C18.632 15.2567 20.7435 17.3688 23.3389 17.3688Z" fill="white"/>
</g>
</g>
<defs>
<filter id="filter0_f_20630_6447" x="-3.41967" y="-15.5798" width="62.019" height="64.4751" filterUnits="userSpaceOnUse" color-interpolation-filters="sRGB">
<feFlood flood-opacity="0" result="BackgroundImageFix"/>
<feBlend mode="normal" in="SourceGraphic" in2="BackgroundImageFix" result="shape"/>
<feGaussianBlur stdDeviation="5.4403" result="effect1_foregroundBlur_20630_6447"/>
</filter>
<filter id="filter1_f_20630_6447" x="-15.313" y="-52.8423" width="40.8682" height="109.241" filterUnits="userSpaceOnUse" color-interpolation-filters="sRGB">
<feFlood flood-opacity="0" result="BackgroundImageFix"/>
<feBlend mode="normal" in="SourceGraphic" in2="BackgroundImageFix" result="shape"/>
<feGaussianBlur stdDeviation="6.84009" result="effect1_foregroundBlur_20630_6447"/>
</filter>
<filter id="filter2_f_20630_6447" x="22.2261" y="4.36572" width="43.0166" height="75.9561" filterUnits="userSpaceOnUse" color-interpolation-filters="sRGB">
<feFlood flood-opacity="0" result="BackgroundImageFix"/>
<feBlend mode="normal" in="SourceGraphic" in2="BackgroundImageFix" result="shape"/>
<feGaussianBlur stdDeviation="6.84009" result="effect1_foregroundBlur_20630_6447"/>
</filter>
<clipPath id="clip0_20630_6447">
<rect width="44" height="44" rx="10.8806" fill="white"/>
</clipPath>
<clipPath id="clip1_20630_6447">
<rect width="28" height="28" fill="white" transform="translate(8 8)"/>
</clipPath>
</defs>
</svg>
