<svg width="44" height="44" viewBox="0 0 44 44" fill="none" xmlns="http://www.w3.org/2000/svg">
<g clip-path="url(#clip0_20639_5939)">
<rect width="49.5166" height="83.666" rx="8.53735" transform="matrix(1 0 0 -1 0 44.3486)" fill="#D68AF4"/>
<g filter="url(#filter0_f_20639_5939)">
<path d="M39.8939 36.4913C42.5649 37.5166 41.7624 16.0123 41.1741 8.53166C40.4914 -0.149713 15.0447 3.91756 10.6531 4.2629C6.26152 4.60824 33.4374 3.14926 36.0517 10.4523C36.0517 33.7165 35.5023 36.8366 39.8939 36.4913Z" fill="white"/>
</g>
<g filter="url(#filter1_f_20639_5939)">
<path d="M1.22367 43.3105C4.62111 43.3001 9.36809 26.8955 9.31368 9.15412C9.25926 -8.5873 4.42406 -20.9472 1.02662 -20.9368C-2.37082 -20.9264 -5.08088 -6.53569 -5.02646 11.2057C-4.97205 28.9471 -2.17377 43.321 1.22367 43.3105Z" fill="#E422FE" fill-opacity="0.55"/>
</g>
<path d="M16.9434 33.1203H19.7775V27.5161H18.5042C18.0206 27.5161 17.6034 27.1922 17.4835 26.7237C17.375 26.3 17.5375 25.8635 17.8833 25.612V23.5135L19.0625 23.3317V24.9551L20.2568 24.3007V23.145L21.5855 22.9397V23.5727L22.5255 23.0577V8.67188L16.9434 11.0581V33.1203ZM21.5856 21.501L20.2569 21.751V19.3318L21.5856 19.004V21.501ZM21.5856 17.5653L20.2569 17.938V15.5169L21.5856 15.0663V17.5653ZM21.5856 11.2871V13.6296L20.2569 14.1249L20.2565 11.8574L21.5856 11.2871ZM17.8834 12.8743L19.0633 12.3685L19.0629 14.5705L17.8833 15.0079L17.8834 12.8743ZM17.8834 16.3218L19.0629 15.9223V18.2753L17.8834 18.6057V16.3218V16.3218ZM17.8834 19.9159L19.0629 19.6252V21.9782L17.8834 22.1998V19.916V19.9159ZM29.0919 11.1983V22.7497L26.9046 21.5513C26.3877 21.2681 25.7918 21.2681 25.2749 21.5513L23.1817 22.6982V8.67188L29.0919 11.1983ZM10.7928 17.7489V33.1203H16.2872V15.4001L10.7928 17.7489ZM13.1399 29.3744H12.1807V27.5341L13.1401 27.4404L13.1399 29.3744ZM13.1404 26.34L12.1807 26.4714V24.6241L13.1404 24.4269V26.34ZM13.1404 23.3288L12.1807 23.5649V21.7175L13.1404 21.4158V23.3288ZM13.1408 20.3165L12.1808 20.656V18.9306L13.1411 18.5261L13.1408 20.3165ZM15.2274 29.3744H14.1221V27.344L15.2274 27.2359V29.3744ZM15.2274 26.0519L14.1221 26.2042V24.2258L15.2274 23.9977V26.0519ZM15.2274 22.8136L14.1221 23.0859V21.1062L15.2274 20.7569V22.8136ZM15.2274 19.574L14.1218 19.9676V18.1137L15.2274 17.6452V19.574ZM33.8664 26.1139L26.5894 22.1268C26.2689 21.9513 25.9109 21.9513 25.5904 22.1268L18.3133 26.1139C18.152 26.2023 18.0736 26.3828 18.1193 26.561C18.1649 26.7393 18.3204 26.8599 18.5044 26.8599H20.4339V33.1203H21.9092V29.2151H21.4994C21.3181 29.2151 21.1712 29.0682 21.1712 28.887C21.1712 28.7058 21.3181 28.5589 21.4994 28.5589H25.1413C25.3225 28.5589 25.4694 28.7058 25.4694 28.887C25.4694 29.0682 25.3225 29.2151 25.1413 29.2151H24.7315V33.1203H31.7459V26.8599H33.6754C33.8594 26.8599 34.0148 26.7393 34.0604 26.561C34.106 26.3828 34.0277 26.2023 33.8664 26.1139ZM25.0626 24.7349C25.0626 24.1676 25.5225 23.7077 26.0898 23.7077C26.6572 23.7077 27.1171 24.1676 27.1171 24.7349C27.1171 25.3022 26.6572 25.7622 26.0898 25.7622C25.5225 25.7622 25.0626 25.3022 25.0626 24.7349ZM28.1676 28.4468H26.7209V26.86H28.1676V28.4468ZM30.2705 28.4468H28.8238V26.86H30.2705V28.4468ZM9 34.918V34.187C9 33.9612 9.18473 33.7765 9.41048 33.7765H33.1697C33.3954 33.7765 33.5802 33.9612 33.5802 34.187V34.918C33.5802 35.1438 33.3954 35.3285 33.1697 35.3285H9.41048C9.18473 35.3285 9 35.1438 9 34.918Z" fill="white"/>
<g filter="url(#filter2_f_20639_5939)">
<path d="M34.2297 46.4818C37.6272 46.4714 40.5117 70.9005 40.4573 53.1591C40.4029 35.4177 37.6272 23.9336 34.2297 23.944C30.8323 23.9544 28.1222 38.3451 28.1767 56.0866C28.2311 73.828 30.8323 46.4922 34.2297 46.4818Z" fill="#9200CB" fill-opacity="0.4"/>
</g>
</g>
<defs>
<filter id="filter0_f_20639_5939" x="1.63453" y="-5.52563" width="48.6684" height="50.5893" filterUnits="userSpaceOnUse" color-interpolation-filters="sRGB">
<feFlood flood-opacity="0" result="BackgroundImageFix"/>
<feBlend mode="normal" in="SourceGraphic" in2="BackgroundImageFix" result="shape"/>
<feGaussianBlur stdDeviation="4.26867" result="effect1_foregroundBlur_20639_5939"/>
</filter>
<filter id="filter1_f_20639_5939" x="-15.7574" y="-31.6705" width="35.8039" height="85.7151" filterUnits="userSpaceOnUse" color-interpolation-filters="sRGB">
<feFlood flood-opacity="0" result="BackgroundImageFix"/>
<feBlend mode="normal" in="SourceGraphic" in2="BackgroundImageFix" result="shape"/>
<feGaussianBlur stdDeviation="5.367" result="effect1_foregroundBlur_20639_5939"/>
</filter>
<filter id="filter2_f_20639_5939" x="17.4457" y="13.2103" width="33.7493" height="59.5979" filterUnits="userSpaceOnUse" color-interpolation-filters="sRGB">
<feFlood flood-opacity="0" result="BackgroundImageFix"/>
<feBlend mode="normal" in="SourceGraphic" in2="BackgroundImageFix" result="shape"/>
<feGaussianBlur stdDeviation="5.367" result="effect1_foregroundBlur_20639_5939"/>
</filter>
<clipPath id="clip0_20639_5939">
<rect width="44" height="44" rx="8.53735" fill="white"/>
</clipPath>
</defs>
</svg>
