<svg width="52" height="52" viewBox="0 0 52 52" fill="none" xmlns="http://www.w3.org/2000/svg">
<g clip-path="url(#clip0_20541_5892)">
<rect width="63.1075" height="106.63" rx="10.8806" transform="matrix(1 0 0 -1 0 52.0508)" fill="#54D66E"/>
<g filter="url(#filter0_f_20541_5892)">
<path d="M45.3373 45.9698C48.7414 47.2766 47.7186 19.8699 46.9689 10.336C46.0988 -0.728122 13.6676 4.4555 8.0707 4.89563C2.47378 5.33576 37.1087 3.47633 40.4406 12.7838C40.4406 42.4335 39.7404 46.4099 45.3373 45.9698Z" fill="white"/>
</g>
<g filter="url(#filter1_f_20541_5892)">
<path d="M4.2872 50.7192C7.48706 50.7093 11.9413 29.8071 11.8719 7.19613C11.8026 -15.4148 7.23592 -31.1721 4.03606 -31.1623C0.836198 -31.1525 -1.70158 -12.8147 -1.63223 9.79621C-1.56288 32.4071 1.08734 50.729 4.2872 50.7192Z" fill="#009B63" fill-opacity="0.85"/>
</g>
<g filter="url(#filter2_f_20541_5892)">
<path d="M43.6213 54.771C47.9512 54.7577 51.6275 85.892 51.5581 63.281C51.4888 40.6701 47.9512 26.034 43.6213 26.0472C39.2914 26.0605 35.8375 44.4011 35.9068 67.012C35.9762 89.6229 39.2914 54.7843 43.6213 54.771Z" fill="#009B63" fill-opacity="0.7"/>
</g>
<path d="M39.9985 17.2791V30.3025C39.9956 30.9061 39.7546 31.4841 39.3278 31.9109C38.901 32.3377 38.323 32.5787 37.7195 32.5816H37.3939V21.1861C37.3942 20.7157 37.3018 20.2499 37.1219 19.8152C36.942 19.3806 36.6782 18.9857 36.3456 18.6531C36.013 18.3204 35.6181 18.0566 35.1835 17.8768C34.7488 17.6969 34.283 17.6044 33.8127 17.6047H15.9062V17.2791C15.9091 16.6755 16.1502 16.0975 16.5769 15.6707C17.0037 15.2439 17.5817 15.0029 18.1852 15H37.7195C38.323 15.0029 38.901 15.2439 39.3278 15.6707C39.7546 16.0975 39.9956 16.6755 39.9985 17.2791Z" fill="url(#paint0_linear_20541_5892)"/>
<path d="M24.0419 29.3252C24.941 29.3252 25.6698 28.5963 25.6698 27.6973C25.6698 26.7982 24.941 26.0693 24.0419 26.0693C23.1429 26.0693 22.4141 26.7982 22.4141 27.6973C22.4141 28.5963 23.1429 29.3252 24.0419 29.3252Z" fill="white"/>
<path d="M36.0919 34.2096V31.4043C35.7724 31.3244 35.4446 31.2824 35.1152 31.2793C33.9931 31.2806 32.9173 31.7269 32.1239 32.5204C31.3304 33.3139 30.8841 34.3897 30.8828 35.5119C30.886 35.8413 30.928 36.1691 31.0078 36.4887H33.813C34.4172 36.4879 34.9964 36.2476 35.4236 35.8203C35.8509 35.3931 36.0912 34.8138 36.0919 34.2096Z" fill="url(#paint1_linear_20541_5892)"/>
<path d="M35.1155 26.0701C33.4755 26.0682 31.9032 25.4159 30.7435 24.2562C29.5839 23.0965 28.9316 21.5241 28.9297 19.884C28.9364 19.5563 28.9695 19.2296 29.0286 18.9072H19.0637C19.1228 19.2296 19.1559 19.5563 19.1626 19.884C19.1607 21.5241 18.5084 23.0965 17.3487 24.2562C16.189 25.4159 14.6167 26.0682 12.9767 26.0701C12.649 26.0634 12.3224 26.0303 12 25.9713V29.4248C12.3224 29.3657 12.649 29.3327 12.9767 29.326C14.6167 29.3278 16.189 29.9802 17.3487 31.1399C18.5084 32.2996 19.1607 33.872 19.1626 35.5121C19.1559 35.8398 19.1228 36.1664 19.0637 36.4888H29.0286C28.9695 36.1664 28.9364 35.8398 28.9297 35.5121C28.9316 33.872 29.5839 32.2996 30.7435 31.1399C31.9032 29.9802 33.4755 29.3278 35.1155 29.326C35.4432 29.3327 35.7698 29.3657 36.0922 29.4248V25.9713C35.7698 26.0303 35.4432 26.0634 35.1155 26.0701ZM24.0461 31.2795C23.3378 31.2795 22.6454 31.0694 22.0565 30.6759C21.4675 30.2824 21.0085 29.723 20.7375 29.0686C20.4664 28.4142 20.3955 27.6941 20.5337 26.9993C20.6718 26.3046 21.0129 25.6664 21.5138 25.1656C22.0146 24.6647 22.6528 24.3236 23.3475 24.1854C24.0422 24.0472 24.7622 24.1181 25.4166 24.3892C26.071 24.6603 26.6303 25.1193 27.0239 25.7083C27.4174 26.2973 27.6274 26.9897 27.6274 27.698C27.6264 28.6476 27.2488 29.558 26.5774 30.2294C25.906 30.9009 24.9956 31.2785 24.0461 31.2795Z" fill="white"/>
<path d="M12 21.1863V23.9916C12.3195 24.0715 12.6474 24.1134 12.9767 24.1166C14.0988 24.1153 15.1746 23.6689 15.9681 22.8755C16.7615 22.082 17.2078 21.0061 17.2091 19.884C17.206 19.5546 17.164 19.2268 17.0841 18.9072H14.279C13.6748 18.908 13.0955 19.1483 12.6683 19.5756C12.2411 20.0028 12.0007 20.5821 12 21.1863Z" fill="white"/>
<path d="M35.1152 24.1166C35.4446 24.1134 35.7724 24.0715 36.0919 23.9916V21.1863C36.0912 20.5821 35.8509 20.0028 35.4236 19.5756C34.9964 19.1483 34.4172 18.908 33.813 18.9072H31.0078C30.928 19.2268 30.886 19.5546 30.8828 19.884C30.8841 21.0061 31.3304 22.082 32.1239 22.8755C32.9173 23.6689 33.9931 24.1153 35.1152 24.1166Z" fill="white"/>
<path d="M12.9767 31.2793C12.6474 31.2824 12.3195 31.3244 12 31.4043V34.2096C12.0007 34.8138 12.2411 35.3931 12.6683 35.8203C13.0955 36.2476 13.6748 36.4879 14.279 36.4887H17.0841C17.164 36.1691 17.206 35.8413 17.2091 35.5119C17.2078 34.3897 16.7615 33.3139 15.9681 32.5204C15.1746 31.7269 14.0988 31.2806 12.9767 31.2793Z" fill="white"/>
</g>
<defs>
<filter id="filter0_f_20541_5892" x="-3.41967" y="-7.57982" width="62.019" height="64.4751" filterUnits="userSpaceOnUse" color-interpolation-filters="sRGB">
<feFlood flood-opacity="0" result="BackgroundImageFix"/>
<feBlend mode="normal" in="SourceGraphic" in2="BackgroundImageFix" result="shape"/>
<feGaussianBlur stdDeviation="5.4403" result="effect1_foregroundBlur_20541_5892"/>
</filter>
<filter id="filter1_f_20541_5892" x="-15.313" y="-44.8423" width="40.8682" height="109.241" filterUnits="userSpaceOnUse" color-interpolation-filters="sRGB">
<feFlood flood-opacity="0" result="BackgroundImageFix"/>
<feBlend mode="normal" in="SourceGraphic" in2="BackgroundImageFix" result="shape"/>
<feGaussianBlur stdDeviation="6.84009" result="effect1_foregroundBlur_20541_5892"/>
</filter>
<filter id="filter2_f_20541_5892" x="22.2261" y="12.3667" width="43.0166" height="75.9561" filterUnits="userSpaceOnUse" color-interpolation-filters="sRGB">
<feFlood flood-opacity="0" result="BackgroundImageFix"/>
<feBlend mode="normal" in="SourceGraphic" in2="BackgroundImageFix" result="shape"/>
<feGaussianBlur stdDeviation="6.84009" result="effect1_foregroundBlur_20541_5892"/>
</filter>
<linearGradient id="paint0_linear_20541_5892" x1="23.5072" y1="15" x2="32.3975" y2="32.5816" gradientUnits="userSpaceOnUse">
<stop offset="0.664881" stop-color="white"/>
<stop offset="1" stop-color="white" stop-opacity="0"/>
</linearGradient>
<linearGradient id="paint1_linear_20541_5892" x1="31.0078" y1="31.2793" x2="35.9669" y2="36.4887" gradientUnits="userSpaceOnUse">
<stop stop-color="white"/>
<stop offset="1" stop-color="white" stop-opacity="0"/>
</linearGradient>
<clipPath id="clip0_20541_5892">
<rect width="52" height="52" rx="10.8806" fill="white"/>
</clipPath>
</defs>
</svg>
