<svg width="52" height="52" viewBox="0 0 52 52" fill="none" xmlns="http://www.w3.org/2000/svg">
<g clip-path="url(#clip0_20419_8288)">
<rect width="58.5196" height="98.878" rx="10.0896" transform="matrix(1 0 0 -1 0 52.4121)" fill="#EF8F66"/>
<g filter="url(#filter0_f_20419_8288)">
<path d="M47.1445 43.1258C50.3011 44.3376 49.3527 18.9233 48.6575 10.0826C47.8507 -0.177199 17.7772 4.62957 12.5872 5.03771C7.39714 5.44584 39.5141 3.72159 42.6038 12.3524C42.6038 39.8466 41.9545 43.5339 47.1445 43.1258Z" fill="white"/>
</g>
<g filter="url(#filter1_f_20419_8288)">
<path d="M1.44829 51.1847C5.46344 51.1724 11.0735 31.7852 11.0092 10.8181C10.9449 -10.1491 5.23056 -24.7563 1.21541 -24.7439C-2.79975 -24.7316 -6.00254 -7.72444 -5.93823 13.2427C-5.87392 34.2098 -2.56687 51.197 1.44829 51.1847Z" fill="#D84E14" fill-opacity="0.55"/>
</g>
<g filter="url(#filter2_f_20419_8288)">
<path d="M40.4498 54.9345C44.4649 54.9222 47.8739 83.793 47.8096 62.8259C47.7453 41.8588 44.4649 28.2867 40.4498 28.299C36.4346 28.3113 33.2318 45.3185 33.2961 66.2856C33.3604 87.2527 36.4346 54.9469 40.4498 54.9345Z" fill="#D84E14" fill-opacity="0.4"/>
</g>
<path d="M18.0637 33.5949C18.1075 33.6037 18.1513 33.6037 18.195 33.6037H18.9475V29.5524C18.9475 28.3974 19.8487 27.4437 20.9863 27.3737C21.205 24.8012 23.375 22.7712 26 22.7712C28.625 22.7712 30.795 24.8012 31.0137 27.3737C32.1513 27.4437 33.0525 28.3974 33.0525 29.5524V33.6037H33.805C33.8487 33.6037 33.8925 33.6037 33.9363 33.5949C36.8938 33.1574 39.125 30.5587 39.125 27.5487C39.125 24.3199 36.605 21.6687 33.4287 21.4412C33.245 19.7787 32.5012 18.2299 31.285 17.0137C29.8675 15.5962 27.9863 14.8262 26 14.8262C22.1675 14.8262 19 17.7224 18.5713 21.4412C15.395 21.6687 12.875 24.3199 12.875 27.5487C12.875 30.5587 15.1062 33.1574 18.0637 33.5949Z" fill="url(#paint0_linear_20419_8288)"/>
<path d="M25.9978 24.084C23.9503 24.084 22.2791 25.7552 22.2791 27.8027V28.6777H21.1328C20.6516 28.6777 20.2578 29.0715 20.2578 29.5527V36.2989C20.2578 36.7889 20.6516 37.1739 21.1328 37.1739H30.8628C31.3441 37.1739 31.7378 36.7889 31.7378 36.2989V29.5527C31.7378 29.0715 31.3441 28.6777 30.8628 28.6777H29.7166V27.8027C29.7166 25.7552 28.0453 24.084 25.9978 24.084ZM27.9666 28.6777H24.0291V27.8027C24.0291 26.7177 24.9128 25.834 25.9978 25.834C27.0828 25.834 27.9666 26.7177 27.9666 27.8027V28.6777Z" fill="url(#paint1_linear_20419_8288)"/>
</g>
<defs>
<filter id="filter0_f_20419_8288" x="1.93385" y="-6.53002" width="57.5073" height="59.7876" filterUnits="userSpaceOnUse" color-interpolation-filters="sRGB">
<feFlood flood-opacity="0" result="BackgroundImageFix"/>
<feBlend mode="normal" in="SourceGraphic" in2="BackgroundImageFix" result="shape"/>
<feGaussianBlur stdDeviation="5.0448" result="effect1_foregroundBlur_20419_8288"/>
</filter>
<filter id="filter1_f_20419_8288" x="-18.6231" y="-37.4298" width="42.3166" height="101.3" filterUnits="userSpaceOnUse" color-interpolation-filters="sRGB">
<feFlood flood-opacity="0" result="BackgroundImageFix"/>
<feBlend mode="normal" in="SourceGraphic" in2="BackgroundImageFix" result="shape"/>
<feGaussianBlur stdDeviation="6.34282" result="effect1_foregroundBlur_20419_8288"/>
</filter>
<filter id="filter2_f_20419_8288" x="20.6112" y="15.6132" width="39.8869" height="70.4338" filterUnits="userSpaceOnUse" color-interpolation-filters="sRGB">
<feFlood flood-opacity="0" result="BackgroundImageFix"/>
<feBlend mode="normal" in="SourceGraphic" in2="BackgroundImageFix" result="shape"/>
<feGaussianBlur stdDeviation="6.34282" result="effect1_foregroundBlur_20419_8288"/>
</filter>
<linearGradient id="paint0_linear_20419_8288" x1="15.0348" y1="14.8262" x2="36.9652" y2="33.6037" gradientUnits="userSpaceOnUse">
<stop offset="0.629272" stop-color="white"/>
<stop offset="1" stop-color="white" stop-opacity="0"/>
</linearGradient>
<linearGradient id="paint1_linear_20419_8288" x1="21.2024" y1="24.084" x2="34.1025" y2="31.0134" gradientUnits="userSpaceOnUse">
<stop offset="0.629272" stop-color="white"/>
<stop offset="1" stop-color="white" stop-opacity="0"/>
</linearGradient>
<clipPath id="clip0_20419_8288">
<rect width="52" height="52" rx="10.0896" fill="white"/>
</clipPath>
</defs>
</svg>
