<svg width="52" height="52" viewBox="0 0 52 52" fill="none" xmlns="http://www.w3.org/2000/svg">
<g clip-path="url(#clip0_20419_8314)">
<rect width="58.5196" height="98.878" rx="10.0896" transform="matrix(1 0 0 -1 0 52.4121)" fill="#D68AF4"/>
<g filter="url(#filter0_f_20419_8314)">
<path d="M47.1445 43.1258C50.3011 44.3376 49.3527 18.9233 48.6575 10.0826C47.8507 -0.177199 17.7772 4.62957 12.5872 5.03771C7.39714 5.44584 39.5141 3.72159 42.6038 12.3524C42.6038 39.8466 41.9545 43.5339 47.1445 43.1258Z" fill="white"/>
</g>
<g filter="url(#filter1_f_20419_8314)">
<path d="M1.44829 51.1847C5.46344 51.1724 11.0735 31.7852 11.0092 10.8181C10.9449 -10.1491 5.23056 -24.7563 1.21541 -24.7439C-2.79975 -24.7316 -6.00254 -7.72444 -5.93823 13.2427C-5.87392 34.2098 -2.56687 51.197 1.44829 51.1847Z" fill="#E422FE" fill-opacity="0.55"/>
</g>
<g filter="url(#filter2_f_20419_8314)">
<path d="M40.4498 54.9345C44.4649 54.9222 47.8739 83.793 47.8096 62.8259C47.7453 41.8588 44.4649 28.2867 40.4498 28.299C36.4346 28.3113 33.2318 45.3185 33.2961 66.2856C33.3604 87.2527 36.4346 54.9469 40.4498 54.9345Z" fill="#9200CB" fill-opacity="0.4"/>
</g>
<path d="M16.6667 27.2C14.6081 27.2 12.9333 25.5257 12.9333 23.4667C12.9333 21.4077 14.6081 19.7333 16.6667 19.7333C18.7252 19.7333 20.4 21.4077 20.4 23.4667C20.4 25.5257 18.7252 27.2 16.6667 27.2ZM18.3187 27.8253C17.2546 28.2363 16.0788 28.2363 15.0146 27.8253C14.7439 27.7223 14.4359 27.7596 14.1934 27.9091C12.8212 28.7777 12 30.2516 12 31.8667V35.6C12 36.1132 12.4202 36.5333 12.9333 36.5333H17.6V31.8667C17.6 30.4202 17.9828 29.0111 18.6732 27.7788C18.552 27.7596 18.4308 27.7788 18.3187 27.8253ZM35.3333 27.2C37.3919 27.2 39.0667 25.5257 39.0667 23.4667C39.0667 21.4077 37.3919 19.7333 35.3333 19.7333C33.2748 19.7333 31.6 21.4077 31.6 23.4667C31.6 25.5257 33.2748 27.2 35.3333 27.2ZM37.8066 27.9091C37.5641 27.7596 37.2561 27.7223 36.9854 27.8253C35.9212 28.2363 34.7454 28.2363 33.6813 27.8253C33.5692 27.7788 33.448 27.7596 33.3268 27.7788C34.0172 29.0111 34.4 30.4202 34.4 31.8667V36.5333H39.0667C39.5798 36.5333 40 36.1132 40 35.6V31.8667C40 30.2516 39.1788 28.7777 37.8066 27.9091ZM26 25.3333C23.427 25.3333 21.3333 23.2397 21.3333 20.6667C21.3333 18.0936 23.427 16 26 16C28.573 16 30.6667 18.0936 30.6667 20.6667C30.6667 23.2397 28.573 25.3333 26 25.3333ZM32.5333 31.8667C32.5333 29.7849 31.5348 27.8253 29.8546 26.603C29.5747 26.397 29.2015 26.3697 28.8934 26.5182C28.2682 26.8363 27.6055 27.0323 26.9333 27.1253V31.8667C26.9333 32.3798 26.5132 32.8 26 32.8C25.4868 32.8 25.0667 32.3798 25.0667 31.8667V27.1253C24.3945 27.0323 23.7318 26.8363 23.1066 26.5182C22.7985 26.3697 22.4253 26.397 22.1454 26.603C20.4652 27.8253 19.4667 29.7849 19.4667 31.8667V36.5333H32.5333V31.8667Z" fill="url(#paint0_linear_20419_8314)"/>
</g>
<defs>
<filter id="filter0_f_20419_8314" x="1.93385" y="-6.53002" width="57.5073" height="59.7876" filterUnits="userSpaceOnUse" color-interpolation-filters="sRGB">
<feFlood flood-opacity="0" result="BackgroundImageFix"/>
<feBlend mode="normal" in="SourceGraphic" in2="BackgroundImageFix" result="shape"/>
<feGaussianBlur stdDeviation="5.0448" result="effect1_foregroundBlur_20419_8314"/>
</filter>
<filter id="filter1_f_20419_8314" x="-18.6231" y="-37.4298" width="42.3166" height="101.3" filterUnits="userSpaceOnUse" color-interpolation-filters="sRGB">
<feFlood flood-opacity="0" result="BackgroundImageFix"/>
<feBlend mode="normal" in="SourceGraphic" in2="BackgroundImageFix" result="shape"/>
<feGaussianBlur stdDeviation="6.34282" result="effect1_foregroundBlur_20419_8314"/>
</filter>
<filter id="filter2_f_20419_8314" x="20.6112" y="15.6132" width="39.8869" height="70.4338" filterUnits="userSpaceOnUse" color-interpolation-filters="sRGB">
<feFlood flood-opacity="0" result="BackgroundImageFix"/>
<feBlend mode="normal" in="SourceGraphic" in2="BackgroundImageFix" result="shape"/>
<feGaussianBlur stdDeviation="6.34282" result="effect1_foregroundBlur_20419_8314"/>
</filter>
<linearGradient id="paint0_linear_20419_8314" x1="21.8632" y1="18.8237" x2="41.1368" y2="38.1763" gradientUnits="userSpaceOnUse">
<stop offset="0.354106" stop-color="white"/>
<stop offset="1" stop-color="white" stop-opacity="0"/>
</linearGradient>
<clipPath id="clip0_20419_8314">
<rect width="52" height="52" rx="10.0896" fill="white"/>
</clipPath>
</defs>
</svg>
