<svg width="52" height="52" viewBox="0 0 52 52" fill="none" xmlns="http://www.w3.org/2000/svg">
<g clip-path="url(#clip0_20419_8298)">
<rect width="63.1075" height="106.63" rx="10.8806" transform="matrix(1 0 0 -1 0 52.0508)" fill="#54D66E"/>
<g filter="url(#filter0_f_20419_8298)">
<path d="M45.3373 45.9698C48.7414 47.2766 47.7186 19.8699 46.9689 10.336C46.0988 -0.728122 13.6676 4.4555 8.0707 4.89563C2.47378 5.33576 37.1087 3.47633 40.4406 12.7838C40.4406 42.4335 39.7404 46.4099 45.3373 45.9698Z" fill="white"/>
</g>
<g filter="url(#filter1_f_20419_8298)">
<path d="M4.2872 50.7192C7.48706 50.7093 11.9413 29.8071 11.8719 7.19613C11.8026 -15.4148 7.23592 -31.1721 4.03606 -31.1623C0.836198 -31.1525 -1.70158 -12.8147 -1.63223 9.79621C-1.56288 32.4071 1.08734 50.729 4.2872 50.7192Z" fill="#009B63" fill-opacity="0.85"/>
</g>
<g filter="url(#filter2_f_20419_8298)">
<path d="M43.6213 54.771C47.9512 54.7577 51.6275 85.892 51.5581 63.281C51.4888 40.6701 47.9512 26.034 43.6213 26.0472C39.2914 26.0605 35.8375 44.4011 35.9068 67.012C35.9762 89.6229 39.2914 54.7843 43.6213 54.771Z" fill="#009B63" fill-opacity="0.7"/>
</g>
<path fill-rule="evenodd" clip-rule="evenodd" d="M28.8806 14.9652L28.0937 12.5434C27.9866 12.2139 27.6923 12 27.3458 12H24.9985C24.6521 12 24.3577 12.2138 24.2507 12.5434L23.4638 14.9652C23.4575 14.9846 23.4432 14.9984 23.4236 15.004C22.68 15.2159 21.9719 15.5121 21.3097 15.8808C21.2919 15.8907 21.272 15.8911 21.2538 15.8818L18.9836 14.7251C18.6749 14.5678 18.3156 14.6247 18.0706 14.8697L16.4108 16.5295C16.1659 16.7745 16.109 17.1338 16.2663 17.4425L17.423 19.7127C17.4322 19.7308 17.4319 19.7508 17.422 19.7686C17.0532 20.4307 16.7572 21.1389 16.5452 21.8824C16.5396 21.9021 16.5258 21.9163 16.5064 21.9226L14.0846 22.7095C13.755 22.8166 13.5412 23.1109 13.5412 23.4574V25.8047C13.5412 26.1512 13.755 26.4455 14.0846 26.5526L16.5064 27.3395C16.5257 27.3458 16.5396 27.3601 16.5452 27.3797C16.7514 28.1036 17.0376 28.7938 17.3928 29.4407C17.4062 29.4652 17.434 29.4769 17.4609 29.4693C18.354 29.2176 19.0897 28.7405 19.9427 28.3713C19.9589 28.3643 19.9701 28.3519 19.9755 28.3351C19.981 28.3184 19.9791 28.3018 19.9702 28.2866C19.3373 27.2152 18.974 25.9656 18.974 24.6311C18.974 20.6556 22.1968 17.4328 26.1723 17.4328C30.1478 17.4328 33.3706 21.0744 33.3706 24.6311C33.3706 31.1028 25.5151 32.7408 35.1486 29.0273C35.1633 29.0217 35.174 29.012 35.1809 28.9978C35.4316 28.4816 35.6395 27.9408 35.7995 27.3798C35.8051 27.3601 35.8188 27.3459 35.8382 27.3396L38.2601 26.5527C38.5896 26.4456 38.8034 26.1513 38.8034 25.8048V23.4575C38.8034 23.111 38.5896 22.8167 38.2601 22.7096L35.8382 21.9227C35.8189 21.9164 35.8051 21.9021 35.7995 21.8825C35.5875 21.1389 35.2914 20.4307 34.9226 19.7687C34.9127 19.7508 34.9124 19.731 34.9216 19.7128L36.0784 17.4426C36.2356 17.1339 36.1787 16.7746 35.9337 16.5296L34.2739 14.8698C34.0289 14.6248 33.6697 14.5679 33.3609 14.7252L31.0907 15.8819C31.0725 15.8911 31.0526 15.8908 31.0348 15.8809C30.3727 15.5121 29.6646 15.216 28.9209 15.004C28.9012 14.9983 28.8869 14.9846 28.8806 14.9652ZM12.5505 29.7678H14.8587C15.2818 29.7678 15.628 30.114 15.628 30.5372V38.2306C15.628 38.6538 15.2819 39 14.8587 39H12.5505C12.1274 39 11.7812 38.6538 11.7812 38.2306V30.5372C11.7812 30.114 12.1274 29.7678 12.5505 29.7678ZM30.425 31.799L38.2001 28.8036C38.7971 28.5737 39.4451 28.618 39.8518 29.1118L39.9125 29.1854C40.3503 29.7169 40.3023 30.493 39.8024 30.9666C39.3994 31.3484 39.0321 31.7361 38.6055 32.0123L32.5629 35.9254C30.9451 36.973 28.8749 38.2228 26.9192 38.3821C25.3676 38.5084 23.8323 37.9408 22.2783 37.7167C20.4331 37.4507 18.4967 37.4198 16.5761 37.4325C16.5597 37.4327 16.5455 37.4268 16.5339 37.4153C16.5223 37.4037 16.5163 37.3896 16.5163 37.3732V30.6738C16.5163 30.646 16.5348 30.6226 16.5617 30.6161C16.9338 30.5261 17.3038 30.4331 17.6732 30.3324C19.5349 29.825 20.8304 28.335 22.8927 28.9567L27.5795 30.3697C29.1887 30.8548 28.3937 32.1811 27.6612 32.5743C27.4263 32.7003 27.135 32.7393 26.8431 32.678C25.7184 32.4416 24.2393 32.0168 23.184 32.0475C22.3873 32.0706 21.5689 32.2908 20.8018 32.5771C20.5728 32.6624 20.4562 32.9173 20.5415 33.1463C20.6268 33.3753 20.8816 33.4919 21.1107 33.4066C21.9246 33.1028 22.8307 32.8663 23.688 32.948C24.4952 33.0249 25.7506 33.3539 26.6627 33.5456C27.1595 33.6501 27.665 33.5786 28.0812 33.3552C29.4035 32.6454 27.974 32.7432 30.425 31.799ZM28.8005 21.9752C28.5552 21.9752 28.3563 21.7763 28.3563 21.531C28.3563 21.2857 28.5552 21.0868 28.8005 21.0868H30.7385C30.9837 21.0868 31.1828 21.2859 31.1828 21.531V23.4691C31.1828 23.7144 30.9839 23.9133 30.7385 23.9133C30.4932 23.9133 30.2943 23.7144 30.2943 23.4691V22.7468C30.2943 22.7222 30.2803 22.7013 30.2577 22.6919C30.235 22.6825 30.2103 22.6875 30.1929 22.7048L26.0974 26.8003C25.924 26.9737 25.6427 26.9737 25.4692 26.8003L24.1345 25.4656C24.1114 25.4425 24.0737 25.4425 24.0505 25.4656L21.8293 27.6868C21.6559 27.8602 21.3746 27.8602 21.2011 27.6868C21.0277 27.5134 21.0277 27.2321 21.2011 27.0587L23.7785 24.4814C23.9519 24.3079 24.2332 24.3079 24.4066 24.4814L25.7413 25.8161C25.7645 25.8392 25.8022 25.8392 25.8253 25.8161L29.5648 22.0767C29.5821 22.0593 29.587 22.0346 29.5776 22.0119C29.5682 21.9893 29.5473 21.9752 29.5228 21.9752H28.8005Z" fill="url(#paint0_linear_20419_8298)"/>
</g>
<defs>
<filter id="filter0_f_20419_8298" x="-3.41967" y="-7.57982" width="62.019" height="64.4751" filterUnits="userSpaceOnUse" color-interpolation-filters="sRGB">
<feFlood flood-opacity="0" result="BackgroundImageFix"/>
<feBlend mode="normal" in="SourceGraphic" in2="BackgroundImageFix" result="shape"/>
<feGaussianBlur stdDeviation="5.4403" result="effect1_foregroundBlur_20419_8298"/>
</filter>
<filter id="filter1_f_20419_8298" x="-15.313" y="-44.8423" width="40.8682" height="109.241" filterUnits="userSpaceOnUse" color-interpolation-filters="sRGB">
<feFlood flood-opacity="0" result="BackgroundImageFix"/>
<feBlend mode="normal" in="SourceGraphic" in2="BackgroundImageFix" result="shape"/>
<feGaussianBlur stdDeviation="6.84009" result="effect1_foregroundBlur_20419_8298"/>
</filter>
<filter id="filter2_f_20419_8298" x="22.2261" y="12.3667" width="43.0166" height="75.9561" filterUnits="userSpaceOnUse" color-interpolation-filters="sRGB">
<feFlood flood-opacity="0" result="BackgroundImageFix"/>
<feBlend mode="normal" in="SourceGraphic" in2="BackgroundImageFix" result="shape"/>
<feGaussianBlur stdDeviation="6.84009" result="effect1_foregroundBlur_20419_8298"/>
</filter>
<linearGradient id="paint0_linear_20419_8298" x1="15.7639" y1="12" x2="36.2289" y2="39" gradientUnits="userSpaceOnUse">
<stop offset="0.593849" stop-color="white"/>
<stop offset="1" stop-color="white" stop-opacity="0"/>
</linearGradient>
<clipPath id="clip0_20419_8298">
<rect width="52" height="52" rx="10.8806" fill="white"/>
</clipPath>
</defs>
</svg>
