<svg width="63" height="63" viewBox="0 0 63 63" fill="none" xmlns="http://www.w3.org/2000/svg">
<g clip-path="url(#clip0_20663_5540)">
<rect width="79.4348" height="134.217" rx="13.6957" transform="matrix(1 0 0 -1 0 63)" fill="#658DEC"/>
<g filter="url(#filter0_f_20663_5540)">
<path d="M55.8108 57.8639C60.0955 59.5088 58.8082 25.0114 57.8645 13.0109C56.7693 -0.915763 15.9475 5.60897 8.9025 6.16297C1.85752 6.71697 45.4533 4.37647 49.6472 16.092C49.6472 53.4127 48.7658 58.4179 55.8108 57.8639Z" fill="white"/>
</g>
<g filter="url(#filter1_f_20663_5540)">
<path d="M5.39805 61.3239C9.42578 61.3115 15.0324 35.0014 14.9451 6.54049C14.8578 -21.9204 9.10966 -41.7544 5.08193 -41.7421C1.0542 -41.7297 -2.14016 -18.6476 -2.05287 9.81327C-1.96557 38.2741 1.37031 61.3362 5.39805 61.3239Z" fill="#2155D0" fill-opacity="0.85"/>
</g>
<g filter="url(#filter2_f_20663_5540)">
<path d="M54.9075 66.4238C60.3577 66.4071 64.9851 105.596 64.8978 77.1356C64.8105 48.6747 60.3577 30.2518 54.9075 30.2686C49.4573 30.2853 45.1098 53.3709 45.1971 81.8318C45.2844 110.293 49.4573 66.4405 54.9075 66.4238Z" fill="#2155D0" fill-opacity="0.7"/>
</g>
<path d="M44.5625 16H19.4375C17.5421 16 16 17.5421 16 19.4375V23.5H29.8411L33.3549 21.1575C33.5089 21.0548 33.6899 21 33.8749 21H47.9999V19.4375C48 17.5421 46.4579 16 44.5625 16ZM20.6875 20.6875C20.1697 20.6875 19.75 20.2677 19.75 19.75C19.75 19.2322 20.1697 18.8125 20.6875 18.8125C21.2052 18.8125 21.625 19.2322 21.625 19.75C21.625 20.2677 21.2052 20.6875 20.6875 20.6875ZM24.4375 20.6875C23.9197 20.6875 23.5 20.2677 23.5 19.75C23.5 19.2322 23.9197 18.8125 24.4375 18.8125C24.9552 18.8125 25.375 19.2322 25.375 19.75C25.375 20.2677 24.9552 20.6875 24.4375 20.6875ZM28.1875 20.6875C27.6697 20.6875 27.25 20.2677 27.25 19.75C27.25 19.2322 27.6697 18.8125 28.1875 18.8125C28.7052 18.8125 29.125 19.2322 29.125 19.75C29.125 20.2677 28.7052 20.6875 28.1875 20.6875Z" fill="white"/>
<path d="M37.375 38.5625H42.375V40.4375H37.375V38.5625Z" fill="white" fill-opacity="0.5"/>
<path d="M37.375 29.8125H42.375V31.6875H37.375V29.8125Z" fill="white"/>
<path d="M30.645 25.2175C30.491 25.3202 30.3101 25.375 30.125 25.375H16V44.5625C16 46.4579 17.5421 48 19.4375 48H44.5625C46.4579 48 48 46.4579 48 44.5625V22.875H34.1589L30.645 25.2175ZM25.1004 39.5379L22.6004 42.0379C22.4174 42.2209 22.1774 42.3125 21.9375 42.3125C21.6976 42.3125 21.4576 42.2209 21.2746 42.0379L20.0246 40.7879C19.6585 40.4218 19.6585 39.8282 20.0246 39.4621C20.3907 39.096 20.9843 39.096 21.3504 39.4621L21.9375 40.0492L23.7746 38.2121C24.1407 37.846 24.7343 37.846 25.1004 38.2121C25.4665 38.5782 25.4665 39.1718 25.1004 39.5379ZM25.1004 30.7879L22.6004 33.2879C22.4174 33.4709 22.1774 33.5625 21.9375 33.5625C21.6976 33.5625 21.4576 33.4709 21.2746 33.2879L20.0246 32.0379C19.6585 31.6718 19.6585 31.0782 20.0246 30.7121C20.3907 30.346 20.9843 30.346 21.3504 30.7121L21.9375 31.2992L23.7746 29.4621C24.1407 29.096 24.7343 29.096 25.1004 29.4621C25.4665 29.8282 25.4665 30.4218 25.1004 30.7879ZM32.6875 41.0625H28.1875C27.6698 41.0625 27.25 40.6427 27.25 40.125C27.25 39.6073 27.6698 39.1875 28.1875 39.1875H32.6875C33.2052 39.1875 33.625 39.6073 33.625 40.125C33.625 40.6427 33.2052 41.0625 32.6875 41.0625ZM32.6875 32.3125H28.1875C27.6698 32.3125 27.25 31.8927 27.25 31.375C27.25 30.8573 27.6698 30.4375 28.1875 30.4375H32.6875C33.2052 30.4375 33.625 30.8573 33.625 31.375C33.625 31.8927 33.2052 32.3125 32.6875 32.3125ZM35.5 28.875C35.5 28.3573 35.9198 27.9375 36.4375 27.9375H43.3125C43.8302 27.9375 44.25 28.3573 44.25 28.875V32.625C44.25 33.1427 43.8302 33.5625 43.3125 33.5625H36.4375C35.9198 33.5625 35.5 33.1427 35.5 32.625V28.875ZM35.5 37.625C35.5 37.1073 35.9198 36.6875 36.4375 36.6875H43.3125C43.8302 36.6875 44.25 37.1073 44.25 37.625V41.375C44.25 41.8927 43.8302 42.3125 43.3125 42.3125H36.4375C35.9198 42.3125 35.5 41.8927 35.5 41.375V37.625Z" fill="url(#paint0_linear_20663_5540)"/>
</g>
<defs>
<filter id="filter0_f_20663_5540" x="-5.56284" y="-9.5394" width="78.0671" height="81.156" filterUnits="userSpaceOnUse" color-interpolation-filters="sRGB">
<feFlood flood-opacity="0" result="BackgroundImageFix"/>
<feBlend mode="normal" in="SourceGraphic" in2="BackgroundImageFix" result="shape"/>
<feGaussianBlur stdDeviation="6.84783" result="effect1_foregroundBlur_20663_5540"/>
</filter>
<filter id="filter1_f_20663_5540" x="-19.2742" y="-58.9617" width="51.4391" height="137.505" filterUnits="userSpaceOnUse" color-interpolation-filters="sRGB">
<feFlood flood-opacity="0" result="BackgroundImageFix"/>
<feBlend mode="normal" in="SourceGraphic" in2="BackgroundImageFix" result="shape"/>
<feGaussianBlur stdDeviation="8.60977" result="effect1_foregroundBlur_20663_5540"/>
</filter>
<filter id="filter2_f_20663_5540" x="27.9758" y="13.049" width="54.1422" height="95.607" filterUnits="userSpaceOnUse" color-interpolation-filters="sRGB">
<feFlood flood-opacity="0" result="BackgroundImageFix"/>
<feBlend mode="normal" in="SourceGraphic" in2="BackgroundImageFix" result="shape"/>
<feGaussianBlur stdDeviation="8.60977" result="effect1_foregroundBlur_20663_5540"/>
</filter>
<linearGradient id="paint0_linear_20663_5540" x1="16.6632" y1="22.875" x2="47.3368" y2="48" gradientUnits="userSpaceOnUse">
<stop offset="0.563601" stop-color="white"/>
<stop offset="1" stop-color="white" stop-opacity="0"/>
</linearGradient>
<clipPath id="clip0_20663_5540">
<rect width="63" height="63" rx="13.6957" fill="white"/>
</clipPath>
</defs>
</svg>
