<svg width="63" height="63" viewBox="0 0 63 63" fill="none" xmlns="http://www.w3.org/2000/svg">
<g clip-path="url(#clip0_20663_5549)">
<rect width="79.4348" height="134.217" rx="13.6957" transform="matrix(1 0 0 -1 0 63)" fill="#E47CED"/>
<g filter="url(#filter0_f_20663_5549)">
<path d="M55.8108 57.8639C60.0955 59.5088 58.8082 25.0114 57.8645 13.0109C56.7693 -0.915763 15.9475 5.60897 8.9025 6.16297C1.85752 6.71697 45.4533 4.37647 49.6472 16.092C49.6472 53.4127 48.7658 58.4179 55.8108 57.8639Z" fill="white"/>
</g>
<g filter="url(#filter1_f_20663_5549)">
<path d="M5.39805 61.3239C9.42578 61.3115 15.0324 35.0014 14.9451 6.54049C14.8578 -21.9204 9.10966 -41.7544 5.08193 -41.7421C1.0542 -41.7297 -2.14016 -18.6476 -2.05287 9.81327C-1.96557 38.2741 1.37031 61.3362 5.39805 61.3239Z" fill="#CC71FF" fill-opacity="0.85"/>
</g>
<g filter="url(#filter2_f_20663_5549)">
<path d="M54.9075 66.4238C60.3577 66.4071 64.9851 105.596 64.8978 77.1356C64.8105 48.6747 60.3577 30.2518 54.9075 30.2686C49.4573 30.2853 45.1098 53.3709 45.1971 81.8318C45.2844 110.293 49.4573 66.4405 54.9075 66.4238Z" fill="#AF20FF" fill-opacity="0.7"/>
</g>
<path d="M35.8711 19.695H41.4919C40.0841 17.821 37.2797 17.8199 35.8711 19.695Z" fill="white"/>
<path d="M26.0234 18.9922C26.8001 18.9922 27.4297 18.3626 27.4297 17.5859C27.4297 16.8093 26.8001 16.1797 26.0234 16.1797C25.2468 16.1797 24.6172 16.8093 24.6172 17.5859C24.6172 18.3626 25.2468 18.9922 26.0234 18.9922Z" fill="white"/>
<path d="M20.3984 16.8828C21.1751 16.8828 21.8047 16.2532 21.8047 15.4766C21.8047 14.6999 21.1751 14.0703 20.3984 14.0703C19.6218 14.0703 18.9922 14.6999 18.9922 15.4766C18.9922 16.2532 19.6218 16.8828 20.3984 16.8828Z" fill="white"/>
<path d="M43.6016 16.8828C44.3782 16.8828 45.0078 16.2532 45.0078 15.4766C45.0078 14.6999 44.3782 14.0703 43.6016 14.0703C42.8249 14.0703 42.1953 14.6999 42.1953 15.4766C42.1953 16.2532 42.8249 16.8828 43.6016 16.8828Z" fill="white"/>
<path d="M32 16.8828C32.7767 16.8828 33.4062 16.2532 33.4062 15.4766C33.4062 14.6999 32.7767 14.0703 32 14.0703C31.2233 14.0703 30.5938 14.6999 30.5938 15.4766C30.5938 16.2532 31.2233 16.8828 32 16.8828Z" fill="white"/>
<path d="M27.7801 36.0888V47.1172C27.7801 47.4277 27.9837 47.7015 28.2812 47.7906C35.6939 50.0034 35.3204 49.9297 35.5144 49.9297C35.9038 49.9297 36.2176 49.6136 36.2176 49.2266V36.0888L43.7555 25.3203H20.2422L27.7801 36.0888ZM29.7439 31.5028C30.0184 31.2283 30.4637 31.2283 30.7383 31.5028L31.2958 32.0603V27.4298C31.2958 27.0414 31.6106 26.7266 31.9989 26.7266C32.3873 26.7266 32.7021 27.0414 32.7021 27.4298V32.0603L33.2596 31.5028C33.5342 31.2283 33.9793 31.2283 34.254 31.5028C34.5286 31.7774 34.5286 32.2226 34.254 32.4973L32.4962 34.2551C32.2187 34.5317 31.7708 34.5251 31.5017 34.2551L29.7439 32.4973C29.4693 32.2226 29.4693 31.7774 29.7439 31.5028Z" fill="url(#paint0_linear_20663_5549)"/>
<path d="M45.3594 21.1016H18.6406C18.3785 21.1016 18.1381 21.2475 18.017 21.48C17.8959 21.7126 17.9143 21.9931 18.0646 22.2079L19.2588 23.9141H44.7411L45.9354 22.2079C46.2603 21.7439 45.9293 21.1016 45.3594 21.1016Z" fill="white"/>
</g>
<defs>
<filter id="filter0_f_20663_5549" x="-5.56284" y="-9.5394" width="78.0671" height="81.156" filterUnits="userSpaceOnUse" color-interpolation-filters="sRGB">
<feFlood flood-opacity="0" result="BackgroundImageFix"/>
<feBlend mode="normal" in="SourceGraphic" in2="BackgroundImageFix" result="shape"/>
<feGaussianBlur stdDeviation="6.84783" result="effect1_foregroundBlur_20663_5549"/>
</filter>
<filter id="filter1_f_20663_5549" x="-19.2742" y="-58.9617" width="51.4391" height="137.505" filterUnits="userSpaceOnUse" color-interpolation-filters="sRGB">
<feFlood flood-opacity="0" result="BackgroundImageFix"/>
<feBlend mode="normal" in="SourceGraphic" in2="BackgroundImageFix" result="shape"/>
<feGaussianBlur stdDeviation="8.60977" result="effect1_foregroundBlur_20663_5549"/>
</filter>
<filter id="filter2_f_20663_5549" x="27.9758" y="13.049" width="54.1422" height="95.607" filterUnits="userSpaceOnUse" color-interpolation-filters="sRGB">
<feFlood flood-opacity="0" result="BackgroundImageFix"/>
<feBlend mode="normal" in="SourceGraphic" in2="BackgroundImageFix" result="shape"/>
<feGaussianBlur stdDeviation="8.60977" result="effect1_foregroundBlur_20663_5549"/>
</filter>
<linearGradient id="paint0_linear_20663_5549" x1="27.7894" y1="25.3203" x2="36.2083" y2="49.93" gradientUnits="userSpaceOnUse">
<stop offset="0.240271" stop-color="white"/>
<stop offset="1" stop-color="white" stop-opacity="0"/>
</linearGradient>
<clipPath id="clip0_20663_5549">
<rect width="63" height="63" rx="13.6957" fill="white"/>
</clipPath>
</defs>
</svg>
