<svg width="1245" height="100" viewBox="0 0 1245 100" fill="none" xmlns="http://www.w3.org/2000/svg">
<path d="M0 98.2602V4.44643H39.3604C53.5656 4.44643 63.9236 7.99774 71.3221 15.3963C78.4248 22.4989 81.9761 34.9285 81.9761 51.7972C81.9761 68.0741 78.4248 79.6158 71.3221 87.0144C64.2195 94.4129 53.5656 98.2602 39.3604 98.2602H0ZM19.5322 83.1671H36.401C42.0239 83.1671 46.463 82.2793 50.3102 80.5036C54.1575 78.728 56.8209 75.7686 58.8925 71.0335C60.6682 66.5944 61.8519 60.0836 61.8519 51.5013C61.8519 42.9189 60.9641 36.7042 59.1885 31.9691C57.4128 27.5299 54.7494 24.5705 50.9021 22.7949C47.3508 21.0192 42.3198 20.4273 36.401 20.4273H19.5322V83.1671Z" fill="url(#paint0_linear_23882_4002)"/>
<path d="M115.121 99.7314C110.682 99.7314 106.835 98.8435 102.988 97.3638C99.1403 95.8841 96.1808 93.5166 93.8133 90.2612C91.4458 87.0059 90.262 83.1586 90.262 78.4235C90.262 71.6169 92.6295 66.2899 97.3646 62.1467C102.1 58.0035 109.202 55.9319 118.672 55.9319H139.092V53.8603C139.092 49.7171 137.909 46.4617 135.541 44.6861C133.174 42.9104 128.439 42.0226 121.04 42.0226C113.05 42.0226 105.651 43.2064 98.2524 45.5739V31.6646C101.508 30.4808 105.355 29.2971 110.09 28.4092C114.825 27.5214 119.856 27.2255 125.183 27.2255C135.541 27.2255 143.532 29.2971 149.45 33.4403C155.369 37.5835 158.033 44.3901 158.033 53.8603V98.2517H140.868L139.98 92.0369C137.317 94.4044 133.766 96.476 129.918 97.6598C126.071 99.1395 121.04 99.7314 115.121 99.7314ZM120.448 86.7099C124.887 86.7099 128.734 86.118 131.694 84.6383C134.949 83.1586 137.317 81.3829 139.388 79.0154V68.0655H119.56C111.866 68.0655 108.019 71.3209 108.019 77.5357C108.019 83.7505 112.162 86.7099 120.448 86.7099Z" fill="url(#paint1_linear_23882_4002)"/>
<path d="M201.538 99.7278C193.548 99.7278 187.629 97.6562 183.781 93.513C179.934 89.3698 178.159 83.7469 178.159 76.3484V44.3866H168.392V29.2935H178.159V14.4964L197.691 8.57755V29.2935H215.151L213.968 44.3866H197.691V75.1646C197.691 79.0118 198.579 81.6753 200.354 82.8591C202.13 84.3388 204.793 84.9307 208.641 84.9307C211.304 84.9307 214.264 84.3388 217.223 83.451V97.0643C215.151 97.9522 212.784 98.5441 210.12 99.1359C207.457 99.4319 204.497 99.7278 201.538 99.7278Z" fill="url(#paint2_linear_23882_4002)"/>
<path d="M248.907 99.7314C244.468 99.7314 240.62 98.8435 236.773 97.3638C232.926 95.8841 229.966 93.5166 227.599 90.2612C225.231 87.0059 224.048 83.1586 224.048 78.4235C224.048 71.6169 226.415 66.2899 231.15 62.1467C235.885 58.0035 242.988 55.9319 252.458 55.9319H272.878V53.8603C272.878 49.7171 271.694 46.4617 269.327 44.6861C266.959 42.9104 262.224 42.0226 254.826 42.0226C246.835 42.0226 239.437 43.2064 232.038 45.5739V31.6646C235.293 30.4808 239.141 29.2971 243.876 28.4092C248.611 27.5214 253.642 27.2255 258.969 27.2255C269.327 27.2255 277.317 29.2971 283.236 33.4403C289.155 37.5835 291.818 44.3901 291.818 53.8603V98.2517H274.654L273.766 92.0369C271.102 94.4044 267.551 96.476 263.704 97.6598C259.857 99.1395 254.826 99.7314 248.907 99.7314ZM254.234 86.7099C258.673 86.7099 262.52 86.118 265.48 84.6383C268.735 83.1586 271.103 81.3829 273.174 79.0154V68.0655H253.346C245.651 68.0655 241.804 71.3209 241.804 77.5357C241.508 83.7505 245.651 86.7099 254.234 86.7099Z" fill="url(#paint3_linear_23882_4002)"/>
<path d="M348.324 99.7326C343.589 99.7326 339.15 99.1407 335.598 97.661C332.047 96.4773 328.792 94.4057 325.832 91.7422L324.945 98.2529H307.78V0H327.608V32.8496C330.567 31.074 333.527 29.8902 337.078 29.0024C340.629 28.1145 344.181 27.8186 348.028 27.8186C357.794 27.8186 365.785 30.4821 371.703 36.105C377.622 41.7279 380.286 50.6062 380.286 63.0358C380.286 75.4653 377.326 84.6396 371.703 90.5584C365.785 96.7732 358.09 99.7326 348.324 99.7326ZM342.997 85.2314C349.212 85.2314 353.651 83.4558 356.314 79.6085C358.978 76.0572 360.162 70.4343 360.162 63.0358C360.162 55.3412 358.682 50.0143 356.018 46.7589C353.355 43.5035 348.916 42.0238 342.701 42.0238C339.742 42.0238 336.782 42.3198 334.119 43.2076C331.455 44.0954 329.088 45.2792 327.312 47.0549V78.7207C329.384 80.7923 331.455 82.272 334.119 83.4558C336.782 84.6396 340.038 85.2314 342.997 85.2314Z" fill="url(#paint4_linear_23882_4002)"/>
<path d="M415.491 99.7314C411.052 99.7314 407.205 98.8435 403.358 97.3638C399.51 95.8841 396.551 93.5166 394.183 90.2612C391.816 87.0059 390.632 83.1586 390.632 78.4235C390.632 71.6169 392.999 66.2899 397.735 62.1467C402.47 58.0035 409.572 55.9319 419.042 55.9319H439.462V53.8603C439.462 49.7171 438.279 46.4617 435.911 44.6861C433.544 42.9104 428.809 42.0226 421.41 42.0226C413.419 42.0226 406.021 43.2064 398.622 45.5739V31.6646C401.878 30.4808 405.725 29.2971 410.46 28.4092C415.195 27.5214 420.226 27.2255 425.553 27.2255C435.911 27.2255 443.902 29.2971 449.82 33.4403C455.739 37.5835 458.403 44.3901 458.403 53.8603V98.2517H441.238L440.35 92.0369C437.687 94.4044 434.135 96.476 430.288 97.6598C426.441 99.1395 421.41 99.7314 415.491 99.7314ZM420.818 86.7099C425.257 86.7099 429.104 86.118 432.064 84.6383C435.319 83.1586 437.687 81.3829 439.758 79.0154V68.0655H419.93C412.236 68.0655 408.388 71.3209 408.388 77.5357C408.388 83.7505 412.532 86.7099 420.818 86.7099Z" fill="url(#paint5_linear_23882_4002)"/>
<path d="M498.953 99.7269C493.922 99.7269 488.891 99.4309 484.155 98.5431C479.42 97.6553 475.869 97.0634 472.91 95.8796V79.6028C476.165 81.0825 480.012 81.9704 484.451 82.8582C488.595 83.4501 492.738 84.0419 496.289 84.0419C501.024 84.0419 504.575 83.746 506.647 83.1541C508.719 82.5622 509.606 81.3785 509.606 79.3069C509.606 76.9393 508.127 75.1637 504.871 74.2758C501.912 73.0921 497.177 71.6124 491.258 69.8367C485.043 67.7651 480.012 65.1016 476.757 62.1422C473.206 59.1828 471.726 54.7437 471.726 48.8248C471.726 42.3141 474.093 37.283 478.828 33.7317C483.564 30.1804 491.258 28.4048 502.208 28.4048C506.351 28.4048 510.494 28.7007 514.342 29.2926C518.189 29.8845 521.444 30.7723 524.108 31.6601V47.937C521.444 46.7532 518.485 45.8654 514.933 44.9775C511.382 44.3857 508.423 44.0897 505.463 44.0897C501.32 44.0897 498.065 44.3857 495.401 44.9775C493.034 45.5694 491.554 46.7532 491.554 48.8248C491.554 50.8964 493.034 52.3761 495.697 53.2639C498.361 54.1518 502.504 55.3355 508.127 57.1112C513.75 58.8868 517.893 60.6625 521.148 62.4381C524.108 64.5097 526.475 66.5813 527.659 69.2448C528.843 71.9083 529.435 75.1637 529.435 79.3069C529.435 92.6243 519.373 99.7269 498.953 99.7269Z" fill="url(#paint6_linear_23882_4002)"/>
<path d="M577.1 99.7416C565.262 99.7416 555.792 96.7822 548.689 90.8633C541.587 84.9445 538.331 75.7703 538.331 63.6367C538.331 52.6868 541.291 43.8085 547.21 37.5937C553.128 31.083 562.007 27.8276 573.549 27.8276C584.203 27.8276 592.489 30.4911 598.112 36.114C603.735 41.7369 606.694 49.1355 606.694 58.0137V70.4433H556.68C557.864 76.0662 560.231 79.9135 564.374 81.6891C568.518 83.4648 574.14 84.6486 581.539 84.6486C585.09 84.6486 588.938 84.3526 592.785 83.7607C596.632 83.1688 599.887 82.281 602.551 81.0972V95.3025C599.296 96.7822 595.744 97.966 591.305 98.5579C586.866 99.4457 582.131 99.7416 577.1 99.7416ZM556.384 58.6056H589.234V54.7584C589.234 50.9111 588.05 47.6557 585.682 45.2882C583.315 42.9207 579.467 41.7369 573.844 41.7369C567.334 41.7369 562.895 42.9207 560.231 45.5841C557.568 48.5436 556.384 52.6868 556.384 58.6056Z" fill="url(#paint7_linear_23882_4002)"/>
<path d="M632.408 3.84253H676.504C683.902 3.84253 689.821 5.32224 694.556 7.98573C699.291 10.9452 702.843 14.4965 705.21 19.5275C707.578 24.2626 708.762 29.8855 708.762 36.1003C708.762 42.3151 707.282 47.938 704.618 52.969C701.955 57.7041 698.108 61.5513 693.372 64.2148C688.341 66.8783 682.719 68.358 675.912 68.358H652.237V97.9522H632.408V3.84253ZM651.941 52.3771H671.473C677.096 52.3771 681.239 50.8974 684.198 47.938C687.158 44.9785 688.637 40.8354 688.637 35.8043C688.637 30.4774 687.158 26.3342 684.494 23.3747C681.831 20.4153 677.688 18.9356 672.361 18.9356H651.941V52.3771Z" fill="url(#paint8_linear_23882_4002)"/>
<path d="M719.431 97.6598V28.7052H737.779L738.667 35.8078C741.922 33.7362 745.77 31.9605 750.209 30.4808C754.944 29.0011 759.383 27.8174 763.822 27.2255V42.0226C761.159 42.3185 758.199 42.9104 755.24 43.7982C751.984 44.6861 749.025 45.5739 746.362 46.4617C743.402 47.3496 741.035 48.5333 739.259 49.4212V97.6598H719.431Z" fill="url(#paint9_linear_23882_4002)"/>
<path d="M805.538 99.1451C792.516 99.1451 783.046 95.8897 777.127 89.6749C771.208 83.4601 767.953 74.5818 767.953 63.0401C767.953 51.4983 770.912 42.62 777.127 36.4052C783.342 30.1905 792.516 26.9351 805.538 26.9351C818.559 26.9351 828.029 30.1905 833.948 36.4052C840.163 42.62 843.122 51.4983 843.122 63.0401C843.122 74.5818 840.163 83.4601 833.948 89.6749C828.029 95.8897 818.559 99.1451 805.538 99.1451ZM805.538 82.2763C811.753 82.2763 816.488 80.7966 819.151 77.8372C821.815 74.8778 823.294 69.8467 823.294 63.0401C823.294 56.2334 821.815 50.9064 819.151 48.2429C816.488 45.5795 812.048 43.8038 805.538 43.8038C799.323 43.8038 794.884 45.2835 792.22 48.2429C789.557 51.2024 788.077 56.2334 788.077 63.0401C788.077 69.8467 789.557 75.1737 792.22 77.8372C794.884 80.7966 799.323 82.2763 805.538 82.2763Z" fill="url(#paint10_linear_23882_4002)"/>
<path d="M873.01 97.6622L845.783 28.7076H866.203L883.368 77.8341L900.829 28.7076H921.249L894.022 97.6622H873.01Z" fill="url(#paint11_linear_23882_4002)"/>
<path d="M936.633 97.6554V43.202H926.275L928.051 28.7008H956.461V97.6554H936.633ZM934.857 15.6794V0.290372H956.165V15.6794H934.857Z" fill="url(#paint12_linear_23882_4002)"/>
<path d="M1001.74 99.1407C995.526 99.1407 990.199 97.9569 985.464 95.8853C980.729 93.8138 976.882 89.9665 974.218 85.2314C971.555 80.2004 970.075 73.6897 970.075 65.4033C970.075 57.1169 971.555 50.3102 974.514 44.6873C977.474 39.0644 981.617 34.9212 986.648 31.9618C991.679 29.0023 997.302 27.5226 1003.22 27.5226C1010.92 27.5226 1017.13 29.2983 1022.75 32.8496V0H1042.58V98.2529H1025.71L1024.53 91.7422C1021.57 94.4056 1018.31 96.4772 1014.76 97.661C1010.92 98.2529 1006.77 99.1407 1001.74 99.1407ZM1007.36 84.6395C1013.58 84.6395 1018.61 82.568 1022.75 78.4248V47.0548C1018.61 43.5035 1013.87 41.7279 1008.55 41.7279C996.414 41.7279 990.199 49.7183 990.199 65.4033C990.199 72.8018 991.679 77.8329 994.638 80.7923C997.598 83.1598 1001.74 84.6395 1007.36 84.6395Z" fill="url(#paint13_linear_23882_4002)"/>
<path d="M1093.48 99.1395C1081.64 99.1395 1072.17 96.1801 1065.07 90.2612C1057.97 84.3424 1054.71 75.1682 1054.71 63.0345C1054.71 52.0846 1057.67 43.2064 1063.59 36.9916C1069.51 30.4808 1078.39 27.2255 1089.93 27.2255C1100.58 27.2255 1108.87 29.889 1114.49 35.5119C1120.11 41.1348 1123.07 48.5333 1123.07 57.4116V69.8412H1073.06C1074.24 75.4641 1076.61 79.3113 1080.75 81.087C1084.9 82.8627 1090.52 84.0464 1097.92 84.0464C1101.47 84.0464 1105.32 83.7505 1109.16 83.1586C1113.01 82.5667 1116.27 81.6789 1118.93 80.4951V94.4044C1115.67 95.8841 1112.12 97.0679 1107.68 97.6598C1103.24 98.5476 1098.51 99.1395 1093.48 99.1395ZM1072.76 57.7076H1105.61V53.8603C1105.61 50.013 1104.43 46.7577 1102.06 44.3901C1099.69 42.0226 1095.85 40.8388 1090.22 40.8388C1083.71 40.8388 1079.27 42.0226 1076.61 44.6861C1074.24 47.6455 1072.76 51.7887 1072.76 57.7076Z" fill="url(#paint14_linear_23882_4002)"/>
<path d="M1136.68 97.6598V28.7052H1155.03L1155.92 35.8078C1159.18 33.7362 1163.02 31.9605 1167.46 30.4808C1172.2 29.0011 1176.64 27.8174 1181.08 27.2255V42.0226C1178.41 42.3185 1175.45 42.9104 1172.49 43.7982C1169.24 44.6861 1166.28 45.5739 1163.61 46.4617C1160.66 47.3496 1158.29 48.5333 1156.51 49.4212V97.6598H1136.68Z" fill="url(#paint15_linear_23882_4002)"/>
<path d="M1214.52 99.1373C1209.49 99.1373 1204.46 98.8413 1199.72 97.9535C1194.99 97.0656 1191.43 96.4738 1188.47 95.29V79.0132C1191.73 80.4929 1195.58 81.3807 1200.02 82.2686C1204.16 82.8604 1208.3 83.4523 1211.85 83.4523C1216.59 83.4523 1220.14 83.1564 1222.21 82.5645C1224.28 81.9726 1225.17 80.7888 1225.17 78.7172C1225.17 76.3497 1223.69 74.574 1220.44 73.6862C1217.48 72.5024 1212.74 71.0227 1206.82 69.2471C1200.61 67.1755 1195.58 64.512 1192.32 61.5526C1188.77 58.5931 1187.29 54.154 1187.29 48.2351C1187.29 41.7244 1189.66 36.6934 1194.39 33.1421C1199.13 29.5908 1206.82 27.8151 1217.77 27.8151C1221.92 27.8151 1226.06 28.1111 1229.91 28.703C1233.75 29.2948 1237.01 30.1827 1239.67 31.0705V47.3473C1237.01 46.1636 1234.05 45.2757 1230.5 44.3879C1226.95 43.796 1223.99 43.5001 1221.03 43.5001C1216.89 43.5001 1213.63 43.796 1210.97 44.3879C1208.6 44.9798 1207.12 46.1636 1207.12 48.2351C1207.12 50.3067 1208.6 51.7865 1211.26 52.6743C1213.93 53.5621 1218.07 54.7459 1223.69 56.5215C1229.31 58.2972 1233.46 60.0728 1236.71 61.8485C1239.67 63.9201 1242.04 65.9917 1243.22 68.6552C1244.41 71.3187 1245 74.574 1245 78.7172C1245 92.0346 1234.94 99.1373 1214.52 99.1373Z" fill="url(#paint16_linear_23882_4002)"/>
<defs>
<linearGradient id="paint0_linear_23882_4002" x1="0.362333" y1="49.8278" x2="1245.62" y2="49.8278" gradientUnits="userSpaceOnUse">
<stop stop-color="white"/>
<stop offset="1" stop-color="#264BD1"/>
</linearGradient>
<linearGradient id="paint1_linear_23882_4002" x1="0.362333" y1="49.8278" x2="1245.62" y2="49.8278" gradientUnits="userSpaceOnUse">
<stop stop-color="white"/>
<stop offset="1" stop-color="#264BD1"/>
</linearGradient>
<linearGradient id="paint2_linear_23882_4002" x1="0.362333" y1="49.8278" x2="1245.62" y2="49.8278" gradientUnits="userSpaceOnUse">
<stop stop-color="white"/>
<stop offset="1" stop-color="#264BD1"/>
</linearGradient>
<linearGradient id="paint3_linear_23882_4002" x1="0.362333" y1="49.8278" x2="1245.62" y2="49.8278" gradientUnits="userSpaceOnUse">
<stop stop-color="white"/>
<stop offset="1" stop-color="#264BD1"/>
</linearGradient>
<linearGradient id="paint4_linear_23882_4002" x1="0.362333" y1="49.8278" x2="1245.62" y2="49.8278" gradientUnits="userSpaceOnUse">
<stop stop-color="white"/>
<stop offset="1" stop-color="#264BD1"/>
</linearGradient>
<linearGradient id="paint5_linear_23882_4002" x1="0.362333" y1="49.8278" x2="1245.62" y2="49.8278" gradientUnits="userSpaceOnUse">
<stop stop-color="white"/>
<stop offset="1" stop-color="#264BD1"/>
</linearGradient>
<linearGradient id="paint6_linear_23882_4002" x1="0.362333" y1="49.8278" x2="1245.62" y2="49.8278" gradientUnits="userSpaceOnUse">
<stop stop-color="white"/>
<stop offset="1" stop-color="#264BD1"/>
</linearGradient>
<linearGradient id="paint7_linear_23882_4002" x1="0.362333" y1="49.8278" x2="1245.62" y2="49.8278" gradientUnits="userSpaceOnUse">
<stop stop-color="white"/>
<stop offset="1" stop-color="#264BD1"/>
</linearGradient>
<linearGradient id="paint8_linear_23882_4002" x1="0.362333" y1="49.8278" x2="1245.62" y2="49.8278" gradientUnits="userSpaceOnUse">
<stop stop-color="white"/>
<stop offset="1" stop-color="#264BD1"/>
</linearGradient>
<linearGradient id="paint9_linear_23882_4002" x1="0.362333" y1="49.8278" x2="1245.62" y2="49.8278" gradientUnits="userSpaceOnUse">
<stop stop-color="white"/>
<stop offset="1" stop-color="#264BD1"/>
</linearGradient>
<linearGradient id="paint10_linear_23882_4002" x1="0.362333" y1="49.8278" x2="1245.62" y2="49.8278" gradientUnits="userSpaceOnUse">
<stop stop-color="white"/>
<stop offset="1" stop-color="#264BD1"/>
</linearGradient>
<linearGradient id="paint11_linear_23882_4002" x1="0.362333" y1="49.8278" x2="1245.62" y2="49.8278" gradientUnits="userSpaceOnUse">
<stop stop-color="white"/>
<stop offset="1" stop-color="#264BD1"/>
</linearGradient>
<linearGradient id="paint12_linear_23882_4002" x1="0.362333" y1="49.8278" x2="1245.62" y2="49.8278" gradientUnits="userSpaceOnUse">
<stop stop-color="white"/>
<stop offset="1" stop-color="#264BD1"/>
</linearGradient>
<linearGradient id="paint13_linear_23882_4002" x1="0.362333" y1="49.8278" x2="1245.62" y2="49.8278" gradientUnits="userSpaceOnUse">
<stop stop-color="white"/>
<stop offset="1" stop-color="#264BD1"/>
</linearGradient>
<linearGradient id="paint14_linear_23882_4002" x1="0.362333" y1="49.8278" x2="1245.62" y2="49.8278" gradientUnits="userSpaceOnUse">
<stop stop-color="white"/>
<stop offset="1" stop-color="#264BD1"/>
</linearGradient>
<linearGradient id="paint15_linear_23882_4002" x1="0.362333" y1="49.8278" x2="1245.62" y2="49.8278" gradientUnits="userSpaceOnUse">
<stop stop-color="white"/>
<stop offset="1" stop-color="#264BD1"/>
</linearGradient>
<linearGradient id="paint16_linear_23882_4002" x1="0.362333" y1="49.8278" x2="1245.62" y2="49.8278" gradientUnits="userSpaceOnUse">
<stop stop-color="white"/>
<stop offset="1" stop-color="#264BD1"/>
</linearGradient>
</defs>
</svg>
