<svg width="24" height="24" viewBox="0 0 24 24" fill="none" xmlns="http://www.w3.org/2000/svg">
<path d="M12 0C5.37281 0 0 5.37281 0 12C0 18.6272 5.37281 24 12 24C18.6272 24 24 18.6272 24 12C24 5.37281 18.6272 0 12 0ZM18.3281 15.7069C18.3273 16.0247 18.2006 16.3293 17.9758 16.5541C17.7511 16.7789 17.4465 16.9055 17.1286 16.9064H6.87141C6.55354 16.9055 6.24893 16.7789 6.02417 16.5541C5.7994 16.3293 5.67274 16.0247 5.67188 15.7069V9.43688L11.9972 12.5925L18.3281 9.50297V15.7069ZM18.3281 8.32031L12.0028 11.4075L5.67188 8.25C5.68397 7.93992 5.81544 7.64651 6.0388 7.43109C6.26217 7.21567 6.56015 7.09491 6.87047 7.09406H17.1286C17.4464 7.09493 17.7509 7.22152 17.9757 7.44619C18.2004 7.67086 18.3271 7.97534 18.3281 8.29313V8.32031Z" fill="white"/>
</svg>
