<svg width="32" height="32" viewBox="0 0 32 32" fill="none" xmlns="http://www.w3.org/2000/svg">
<path d="M16 0C24.8364 5.7211e-05 32 7.16354 32 16C31.9997 24.8362 24.8363 31.999 16 31.999C7.16366 31.999 0.000255135 24.8363 0 16C0 7.1635 7.1635 0 16 0ZM22.0566 8.33008C22.0188 8.33014 21.9935 8.34149 21.9678 8.36914C21.3753 9.01084 20.781 9.65127 20.1875 10.292C19.1274 11.4373 18.0669 12.5832 17.0068 13.7285C16.9649 13.7738 16.9223 13.8194 16.877 13.8682C16.8619 13.8488 16.8486 13.8314 16.8359 13.8145C16.2781 13.0686 15.7199 12.323 15.1621 11.5771C14.3635 10.5096 13.5647 9.44109 12.7666 8.37305C12.7438 8.34251 12.7204 8.33013 12.6816 8.33008C11.0948 8.33105 9.50774 8.33105 7.9209 8.33105C7.90336 8.33105 7.88568 8.33252 7.85645 8.33398C9.96669 11.1551 12.0719 13.9679 14.1768 16.7832C14.1627 16.7993 14.1508 16.813 14.1387 16.8262C13.8497 17.1385 13.5599 17.4513 13.2705 17.7637C12.5144 18.5806 11.758 19.3979 11.002 20.2148C10.4261 20.8369 9.85023 21.459 9.27441 22.0811C8.80238 22.5906 8.32994 23.1008 7.85742 23.6104C7.8428 23.6259 7.82467 23.6392 7.80859 23.6533V23.6543C7.81441 23.6812 7.83541 23.6644 7.84668 23.6641C8.31777 23.665 8.78965 23.665 9.26074 23.665C9.26851 23.6514 9.27403 23.6362 9.28418 23.625C9.55459 23.3322 9.8248 23.0394 10.0957 22.7471C10.8436 21.9392 11.5919 21.1321 12.3398 20.3242C12.9648 19.6491 13.5899 18.973 14.2148 18.2979C14.4039 18.0932 14.5932 17.8887 14.7822 17.6846C14.7934 17.6724 14.8043 17.6601 14.8184 17.6436C14.8353 17.6644 14.8487 17.6803 14.8613 17.6973C15.3773 18.3876 15.8937 19.0782 16.4102 19.7686C17.0889 20.6758 17.7676 21.584 18.4463 22.4912C18.7273 22.8667 19.0085 23.2422 19.2891 23.6182C19.2997 23.6322 19.3091 23.649 19.3184 23.6641H24.1885C24.1907 23.6307 24.164 23.6122 24.1475 23.5898C23.2963 22.4503 22.4439 21.3119 21.5918 20.1729C20.5593 18.792 19.5261 17.4111 18.4932 16.0303C18.1828 15.6152 17.8719 15.2002 17.5615 14.7852C17.5479 14.7666 17.5346 14.7475 17.5205 14.7275C18.016 14.1926 18.5084 13.6609 19 13.1299C19.4931 12.5973 19.9864 12.0638 20.4795 11.5312C20.9716 10.9997 21.4644 10.4691 21.9561 9.9375C22.4481 9.40547 22.9406 8.87429 23.4395 8.33398C23.4107 8.33252 23.394 8.33105 23.3779 8.33105C22.9376 8.33057 22.497 8.33105 22.0566 8.33008ZM12.1484 9.38281C12.1849 9.38283 12.2076 9.39464 12.2295 9.42383C13.4924 11.114 14.7566 12.8035 16.0205 14.4932C16.8146 15.5552 17.6092 16.6171 18.4033 17.6787C19.5513 19.214 20.7002 20.7499 21.8486 22.2852C21.9109 22.3679 21.9733 22.4514 22.0352 22.5342C22.0491 22.5525 22.0625 22.5714 22.084 22.6016H22.0186C21.3159 22.6016 20.6137 22.6011 19.9111 22.6025C19.8683 22.6025 19.8422 22.5897 19.8164 22.5557C18.7723 21.1583 17.7273 19.7612 16.6826 18.3643C15.8494 17.2504 15.0153 16.1358 14.1816 15.0215C12.8842 13.287 11.5865 11.5519 10.2891 9.81738L10.0049 9.43652C9.99424 9.42247 9.98426 9.40803 9.96973 9.38672C9.99309 9.38575 10.0088 9.38379 10.0244 9.38379C10.7324 9.38379 11.4405 9.38379 12.1484 9.38281Z" fill="white"/>
</svg>
