<svg width="32" height="32" viewBox="0 0 32 32" fill="none" xmlns="http://www.w3.org/2000/svg">
<g clip-path="url(#clip0_25354_6998)">
<path d="M32 16C32 7.16344 24.8366 0 16 0C7.16344 0 0 7.16344 0 16C0 24.8366 7.16344 32 16 32C24.8366 32 32 24.8366 32 16Z" fill="url(#paint0_linear_25354_6998)"/>
<path opacity="0.1" d="M28.0419 5.4727C25.7093 9.75481 22.4103 14.1717 18.2882 18.2938C14.1661 22.4159 9.74929 25.7085 5.47351 28.0411C5.20543 27.8081 4.94508 27.5653 4.69245 27.3127C3.16541 25.8366 1.94752 24.0713 1.10979 22.1197C0.272062 20.1681 -0.168741 18.0692 -0.186914 15.9455C-0.205087 13.8218 0.199734 11.7157 1.00394 9.74999C1.80815 7.78433 2.99566 5.99844 4.49721 4.49646C5.99877 2.99449 7.78432 1.80649 9.74976 1.00173C11.7152 0.196971 13.8212 -0.208438 15.9449 -0.190858C18.0687 -0.173278 20.1677 0.266939 22.1195 1.10412C24.0714 1.94131 25.837 3.15871 27.3135 4.68534C27.5661 4.93797 27.8089 5.20042 28.0419 5.4727Z" fill="white"/>
<path d="M19.7887 7.57812H12.2097C10.9813 7.57812 9.80327 8.06609 8.93468 8.93468C8.06609 9.80327 7.57812 10.9813 7.57812 12.2097V19.7887C7.57812 21.017 8.06609 22.1951 8.93468 23.0637C9.80327 23.9323 10.9813 24.4202 12.2097 24.4202H19.7887C21.017 24.4202 22.1951 23.9323 23.0637 23.0637C23.9323 22.1951 24.4202 21.017 24.4202 19.7887V12.2097C24.4202 10.9813 23.9323 9.80327 23.0637 8.93468C22.1951 8.06609 21.017 7.57812 19.7887 7.57812ZM22.9465 19.1234C22.9465 20.1374 22.5438 21.1098 21.8268 21.8268C21.1098 22.5438 20.1374 22.9465 19.1234 22.9465H12.875C11.861 22.9465 10.8886 22.5438 10.1716 21.8268C9.4546 21.1098 9.05181 20.1374 9.05181 19.1234V12.875C9.05181 11.861 9.4546 10.8886 10.1716 10.1716C10.8886 9.4546 11.861 9.05181 12.875 9.05181H19.1234C20.1374 9.05181 21.1098 9.4546 21.8268 10.1716C22.5438 10.8886 22.9465 11.861 22.9465 12.875V19.1234Z" fill="white"/>
<path d="M19.0693 12.96L19.0293 12.92L18.9956 12.8863C18.1996 12.0931 17.1214 11.6479 15.9977 11.6484C15.4302 11.6523 14.869 11.7679 14.3462 11.9887C13.8234 12.2095 13.3493 12.5312 12.9508 12.9353C12.5524 13.3394 12.2375 13.8181 12.0241 14.3439C11.8107 14.8698 11.703 15.4325 11.7071 16C11.7063 17.1517 12.1603 18.2571 12.9703 19.0758C13.3671 19.4774 13.8399 19.7959 14.3611 20.0128C14.8823 20.2297 15.4415 20.3406 16.0061 20.339C16.8529 20.3212 17.6763 20.0574 18.3757 19.5798C19.0752 19.1021 19.6206 18.4312 19.9453 17.6489C20.27 16.8667 20.3601 16.0068 20.2046 15.1742C20.049 14.3416 19.6545 13.5723 19.0693 12.96ZM15.9977 18.8548C15.4314 18.8627 14.8756 18.702 14.4009 18.3932C13.9262 18.0844 13.5541 17.6414 13.3319 17.1205C13.1097 16.5996 13.0474 16.0244 13.153 15.468C13.2586 14.9116 13.5273 14.3992 13.9249 13.996C14.3225 13.5927 14.831 13.3168 15.3859 13.2034C15.9407 13.09 16.5167 13.1441 17.0407 13.359C17.5647 13.5738 18.0129 13.9396 18.3284 14.4099C18.6439 14.8802 18.8124 15.4337 18.8124 16C18.8152 16.3723 18.7446 16.7415 18.6046 17.0865C18.4646 17.4315 18.258 17.7455 17.9966 18.0107C17.7352 18.2758 17.4241 18.4868 17.0811 18.6316C16.7381 18.7765 16.37 18.8523 15.9977 18.8548Z" fill="white"/>
<path d="M21.5632 11.4495C21.5643 11.5846 21.5387 11.7186 21.488 11.8438C21.4373 11.969 21.3623 12.083 21.2675 12.1792C21.1727 12.2754 21.0598 12.352 20.9353 12.4045C20.8108 12.457 20.6772 12.4845 20.5421 12.4853C20.4082 12.4853 20.2756 12.4586 20.152 12.407C20.0284 12.3553 19.9163 12.2796 19.8221 12.1843C19.6795 12.0396 19.5825 11.8562 19.5431 11.6569C19.5037 11.4575 19.5237 11.251 19.6006 11.063C19.6775 10.8749 19.8079 10.7135 19.9756 10.5989C20.1434 10.4842 20.3411 10.4213 20.5442 10.418C20.782 10.4179 21.0122 10.5014 21.1948 10.6538L21.2158 10.6748C21.2498 10.7024 21.2808 10.7335 21.3084 10.7674L21.3316 10.7927C21.4823 10.9784 21.5641 11.2104 21.5632 11.4495Z" fill="white"/>
</g>
<defs>
<linearGradient id="paint0_linear_25354_6998" x1="4.68632" y1="4.68632" x2="27.3137" y2="27.3137" gradientUnits="userSpaceOnUse">
<stop stop-color="#FAE100"/>
<stop offset="0.15" stop-color="#FCB720"/>
<stop offset="0.3" stop-color="#FF7950"/>
<stop offset="0.5" stop-color="#FF1C74"/>
<stop offset="1" stop-color="#6C1CD1"/>
</linearGradient>
<clipPath id="clip0_25354_6998">
<rect width="32" height="32" fill="white"/>
</clipPath>
</defs>
</svg>
