<svg width="32" height="32" viewBox="0 0 32 32" fill="none" xmlns="http://www.w3.org/2000/svg">
<g clip-path="url(#clip0_25354_6988)">
<path d="M16 32C24.8366 32 32 24.8366 32 16C32 7.16344 24.8366 0 16 0C7.16344 0 0 7.16344 0 16C0 24.8366 7.16344 32 16 32Z" fill="#4875B4"/>
<path d="M24.4194 24.4208V18.244C24.4194 15.2208 23.7688 12.8945 20.2362 12.8945C18.5373 12.8945 17.3983 13.8251 16.9331 14.7093H16.8846V13.1766H13.5352V24.4208H17.0215V18.8524C17.0215 17.3787 17.2994 15.9682 19.1267 15.9682C20.9541 15.9682 20.9415 17.6524 20.9415 18.9472V24.4208H24.4194Z" fill="white"/>
<path d="M7.85547 13.1758H11.346V24.42H7.85547V13.1758Z" fill="white"/>
<path d="M9.59857 7.57814C9.19596 7.57648 8.80193 7.69448 8.46651 7.91716C8.13109 8.13985 7.86939 8.45718 7.71465 8.82886C7.5599 9.20055 7.51908 9.60984 7.59738 10.0048C7.67567 10.3997 7.86954 10.7625 8.15438 11.047C8.43922 11.3315 8.80218 11.525 9.19719 11.6029C9.5922 11.6808 10.0014 11.6395 10.373 11.4844C10.7445 11.3293 11.0615 11.0673 11.2839 10.7316C11.5062 10.396 11.6238 10.0018 11.6217 9.59919C11.6217 9.33361 11.5694 9.07063 11.4677 8.82528C11.366 8.57994 11.2169 8.35705 11.029 8.16935C10.8411 7.98165 10.6181 7.83283 10.3726 7.73138C10.1272 7.62994 9.86415 7.57787 9.59857 7.57814Z" fill="white"/>
</g>
<defs>
<clipPath id="clip0_25354_6988">
<rect width="32" height="32" fill="white"/>
</clipPath>
</defs>
</svg>
