<svg width="32" height="32" viewBox="0 0 32 32" fill="none" xmlns="http://www.w3.org/2000/svg">
<path fill-rule="evenodd" clip-rule="evenodd" d="M23.8429 21.3959V26.1713C23.8429 27.4893 22.7746 28.559 21.4552 28.559H10.54C9.22067 28.559 8.15234 27.4893 8.15234 26.1713V21.3959C8.15234 19.6768 8.83454 18.0286 10.0502 16.8129C11.2659 15.5972 12.9141 14.915 14.6332 14.915H17.362C19.0812 14.915 20.7294 15.5972 21.945 16.8129C23.1607 18.0286 23.8429 19.6768 23.8429 21.3959Z" fill="url(#paint0_linear_20827_4545)"/>
<path d="M15.9993 14.233C18.8251 14.233 21.1158 11.9423 21.1158 9.11649C21.1158 6.29073 18.8251 4 15.9993 4C13.1735 4 10.8828 6.29073 10.8828 9.11649C10.8828 11.9423 13.1735 14.233 15.9993 14.233Z" fill="white"/>
<path d="M26.2313 14.2331C28.1152 14.2331 29.6423 12.706 29.6423 10.8221C29.6423 8.93829 28.1152 7.41113 26.2313 7.41113C24.3475 7.41113 22.8203 8.93829 22.8203 10.8221C22.8203 12.706 24.3475 14.2331 26.2313 14.2331Z" fill="url(#paint1_linear_20827_4545)"/>
<path d="M5.76647 14.2331C7.65031 14.2331 9.17746 12.706 9.17746 10.8221C9.17746 8.93829 7.65031 7.41113 5.76647 7.41113C3.88262 7.41113 2.35547 8.93829 2.35547 10.8221C2.35547 12.706 3.88262 14.2331 5.76647 14.2331Z" fill="white"/>
<path fill-rule="evenodd" clip-rule="evenodd" d="M6.80463 26.5124H3.71973C3.08665 26.5124 2.47949 26.2614 2.03197 25.8125C1.58308 25.365 1.33203 24.7578 1.33203 24.1247V18.6671C1.33203 17.6725 1.72771 16.7174 2.43037 16.0134C3.1344 15.3107 4.08948 14.915 5.08413 14.915H6.44853C7.40088 14.915 8.31639 15.278 9.01087 15.9261C7.5878 17.3901 6.78963 19.3521 6.78963 21.3959V26.1713C6.78963 26.2859 6.79508 26.4005 6.80463 26.5124Z" fill="white"/>
<path fill-rule="evenodd" clip-rule="evenodd" d="M22.9844 15.9261C23.6789 15.278 24.5944 14.915 25.5467 14.915H26.9111C27.9058 14.915 28.8608 15.3107 29.5649 16.0134C30.2675 16.7174 30.6632 17.6725 30.6632 18.6671V24.1247C30.6632 24.7578 30.4122 25.365 29.9633 25.8125C29.5158 26.2614 28.9086 26.5124 28.2755 26.5124H25.1906C25.2002 26.4005 25.2056 26.2859 25.2056 26.1713V21.3959C25.2056 19.3521 24.4074 17.3901 22.9844 15.9261Z" fill="url(#paint2_linear_20827_4545)"/>
<defs>
<linearGradient id="paint0_linear_20827_4545" x1="8.15234" y1="16.6814" x2="24.1787" y2="26.2291" gradientUnits="userSpaceOnUse">
<stop offset="0.49476" stop-color="white"/>
<stop offset="1" stop-color="white" stop-opacity="0"/>
</linearGradient>
<linearGradient id="paint1_linear_20827_4545" x1="24.2943" y1="7.41113" x2="29.1659" y2="13.425" gradientUnits="userSpaceOnUse">
<stop stop-color="white"/>
<stop offset="1" stop-color="white" stop-opacity="0"/>
</linearGradient>
<linearGradient id="paint2_linear_20827_4545" x1="24.6435" y1="14.915" x2="32.9404" y2="21.6967" gradientUnits="userSpaceOnUse">
<stop stop-color="white"/>
<stop offset="0.775278" stop-color="white" stop-opacity="0"/>
</linearGradient>
</defs>
</svg>
