<svg width="32" height="32" viewBox="0 0 32 32" fill="none" xmlns="http://www.w3.org/2000/svg">
<path d="M0.00729162 13.9413C-0.0622084 14.5006 0.373979 14.9944 0.937604 14.9944H4.75173C5.20954 14.9944 5.60042 14.6637 5.67623 14.2122C6.41029 9.8406 9.84054 6.41029 14.2121 5.67629C14.6637 5.60048 14.9944 5.2096 14.9944 4.75173V0.937604C14.9944 0.373979 14.5006 -0.0622084 13.9412 0.00729162C10.4244 0.444354 7.10198 2.07054 4.58623 4.58623C2.07054 7.10198 0.444354 10.4244 0.00729162 13.9413Z" fill="white"/>
<path d="M21.9735 24.4174C20.1941 25.6879 18.1077 26.3594 15.9397 26.3594C10.8384 26.3594 6.52204 22.7038 5.67629 17.667C5.60048 17.2155 5.2096 16.8848 4.75179 16.8848H0.937604C0.373979 16.8848 -0.0622084 17.3785 0.00729162 17.9378V17.9379C1.0036 25.9545 7.85304 31.9999 15.9397 31.9999C19.5422 31.9999 22.9491 30.8306 25.7921 28.6184C26.2371 28.2721 26.278 27.6143 25.8793 27.2156L23.1812 24.5175C22.8571 24.1935 22.3464 24.1511 21.9735 24.4174Z" fill="url(#paint0_linear_20827_4523)"/>
<path d="M17.669 5.67629C22.7057 6.52204 26.3615 10.8384 26.3615 15.9397C26.3615 18.1077 25.6899 20.194 24.4195 21.9735C24.1532 22.3464 24.1955 22.8571 24.5195 23.1811L27.2178 25.8794C27.6165 26.278 28.2743 26.2371 28.6205 25.7922L28.6206 25.7921C30.8327 22.9492 32.0019 19.5423 32.0019 15.9397C32.0019 7.85304 25.9565 1.0036 17.9399 0.00729162H17.9398C17.3805 -0.0622084 16.8867 0.373979 16.8867 0.937604V4.75173C16.8868 5.2096 17.2175 5.60048 17.669 5.67629Z" fill="url(#paint1_linear_20827_4523)"/>
<path d="M16.5672 9.49805H15.3164C14.7987 9.49805 14.3789 9.9178 14.3789 10.4355V21.3729H17.5047V10.4355C17.5047 9.9178 17.0849 9.49805 16.5672 9.49805Z" fill="url(#paint2_linear_20827_4523)"/>
<path d="M19.3789 21.373H21.5672C22.0849 21.373 22.5047 20.9532 22.5047 20.4355V12.9355C22.5047 12.4178 22.0849 11.998 21.5672 11.998H19.3789V21.373Z" fill="url(#paint3_linear_20827_4523)"/>
<path d="M12.5023 14.498H10.3164C9.79866 14.498 9.37891 14.9178 9.37891 15.4355V20.4355C9.37891 20.9532 9.79866 21.373 10.3164 21.373H12.5023V14.498Z" fill="url(#paint4_linear_20827_4523)"/>
<defs>
<linearGradient id="paint0_linear_20827_4523" x1="10.5" y1="22" x2="19.6571" y2="31.9999" gradientUnits="userSpaceOnUse">
<stop stop-color="white"/>
<stop offset="1" stop-color="white" stop-opacity="0"/>
</linearGradient>
<linearGradient id="paint1_linear_20827_4523" x1="19.5924" y1="-3.35354e-08" x2="29.2962" y2="26.1539" gradientUnits="userSpaceOnUse">
<stop offset="0.351435" stop-color="white"/>
<stop offset="1" stop-color="white" stop-opacity="0"/>
</linearGradient>
<linearGradient id="paint2_linear_20827_4523" x1="14.3789" y1="13.1374" x2="18.6706" y2="21.334" gradientUnits="userSpaceOnUse">
<stop offset="0.503295" stop-color="white"/>
<stop offset="1" stop-color="white" stop-opacity="0"/>
</linearGradient>
<linearGradient id="paint3_linear_20827_4523" x1="19.3789" y1="14.8712" x2="22.2897" y2="21.913" gradientUnits="userSpaceOnUse">
<stop stop-color="white"/>
<stop offset="1" stop-color="white" stop-opacity="0"/>
</linearGradient>
<linearGradient id="paint4_linear_20827_4523" x1="9.37891" y1="16.605" x2="11.0586" y2="22.1418" gradientUnits="userSpaceOnUse">
<stop offset="0.503295" stop-color="white"/>
<stop offset="1" stop-color="white" stop-opacity="0"/>
</linearGradient>
</defs>
</svg>
