<svg width="32" height="32" viewBox="0 0 32 32" fill="none" xmlns="http://www.w3.org/2000/svg">
<g clip-path="url(#clip0_20827_4499)">
<path d="M9.4375 5.625H12.25V24.4375H19.75V5.625H22.5625L16 0L9.4375 5.625Z" fill="white"/>
<path d="M26.3125 16.9375H28.1875L23.5 11.3135L21.625 13.5632V24.4375H26.3125V16.9375Z" fill="url(#paint0_linear_20827_4499)"/>
<path d="M10.375 24.4375V13.5632L8.5 11.3135L3.8125 16.9375H5.6875V24.4375H10.375Z" fill="white"/>
<path d="M21.7344 26.3125L24.5464 32H31.9985L27.2489 26.3125H21.7344Z" fill="url(#paint1_linear_20827_4499)"/>
<path d="M12.3593 26.3125L9.54688 32H22.4496L19.6376 26.3125H12.3593Z" fill="url(#paint2_linear_20827_4499)"/>
<path d="M10.2644 26.3125H4.74956L0 32H7.45219L10.2644 26.3125Z" fill="url(#paint3_linear_20827_4499)"/>
</g>
<defs>
<linearGradient id="paint0_linear_20827_4499" x1="22.1779" y1="11.3135" x2="29" y2="27.5" gradientUnits="userSpaceOnUse">
<stop offset="0.55634" stop-color="white"/>
<stop offset="0.868177" stop-color="white" stop-opacity="0"/>
</linearGradient>
<linearGradient id="paint1_linear_20827_4499" x1="18.6667" y1="18.6667" x2="28.5238" y2="32" gradientUnits="userSpaceOnUse">
<stop offset="0.432427" stop-color="white"/>
<stop offset="0.920756" stop-color="white" stop-opacity="0"/>
</linearGradient>
<linearGradient id="paint2_linear_20827_4499" x1="16" y1="22.6667" x2="17.3895" y2="32" gradientUnits="userSpaceOnUse">
<stop offset="0.369693" stop-color="white"/>
<stop offset="1" stop-color="white" stop-opacity="0"/>
</linearGradient>
<linearGradient id="paint3_linear_20827_4499" x1="4.66667" y1="17.3333" x2="8.66667" y2="32.6667" gradientUnits="userSpaceOnUse">
<stop offset="0.524527" stop-color="white"/>
<stop offset="1" stop-color="white" stop-opacity="0"/>
</linearGradient>
<clipPath id="clip0_20827_4499">
<rect width="32" height="32" fill="white"/>
</clipPath>
</defs>
</svg>
