<svg width="32" height="32" viewBox="0 0 32 32" fill="none" xmlns="http://www.w3.org/2000/svg">
<path fill-rule="evenodd" clip-rule="evenodd" d="M0 6.59219C0 2.95143 2.95136 0 6.59204 0H25.4081C29.0488 0 32.0002 2.95143 32.0002 6.59219V11.2796C30.2812 9.98423 28.1424 9.21627 25.8241 9.21627C20.151 9.21627 15.5521 13.8153 15.5521 19.4886C15.5521 21.7798 16.3034 23.8945 17.5684 25.6008H6.59204C2.95136 25.6008 0 22.6493 0 19.0086L0 6.59219ZM4.32002 7.36022C4.32002 6.22911 5.23695 5.31216 6.36804 5.31216H13.9841C15.1152 5.31216 16.0321 6.22911 16.0321 7.36022C16.0321 8.49132 15.1152 9.40828 13.9841 9.40828H6.36804C5.23695 9.40828 4.32002 8.49132 4.32002 7.36022ZM6.40004 12.9924C5.26895 12.9924 4.35202 13.9093 4.35202 15.0404C4.35202 16.1715 5.26895 17.0885 6.40004 17.0885H9.72806C10.8591 17.0885 11.7761 16.1715 11.7761 15.0404C11.7761 13.9093 10.8591 12.9924 9.72806 12.9924H6.40004Z" fill="url(#paint0_linear_20827_4484)"/>
<path d="M31.9961 19.2516C31.872 15.95 29.1563 13.3115 25.8245 13.3115C22.4136 13.3115 19.6484 16.0767 19.6484 19.4877C19.6484 21.6868 20.7978 23.6175 22.5285 24.7118V32.0001L25.8565 28.992L29.1845 32.0001V24.6708C30.8795 23.5696 32.0005 21.6596 32.0005 19.4877C32.0005 19.4087 31.999 19.3299 31.9961 19.2516Z" fill="url(#paint1_linear_20827_4484)"/>
<defs>
<linearGradient id="paint0_linear_20827_4484" x1="6.4978" y1="8.23492e-08" x2="22.2491" y2="29.1116" gradientUnits="userSpaceOnUse">
<stop offset="0.527308" stop-color="white"/>
<stop offset="0.755712" stop-color="white" stop-opacity="0.58641"/>
<stop offset="1" stop-color="white" stop-opacity="0"/>
</linearGradient>
<linearGradient id="paint1_linear_20827_4484" x1="10.0019" y1="7.49983" x2="35.1397" y2="22.5964" gradientUnits="userSpaceOnUse">
<stop offset="0.204743" stop-color="white"/>
<stop offset="0.730769" stop-color="white" stop-opacity="0.58641"/>
<stop offset="1" stop-color="white" stop-opacity="0"/>
</linearGradient>
</defs>
</svg>
