<svg width="32" height="32" viewBox="0 0 32 32" fill="none" xmlns="http://www.w3.org/2000/svg">
<path d="M16 0C24.8363 5.72105e-05 31.9998 7.16274 32 15.999C32 24.8355 24.8364 31.999 16 31.999C7.1635 31.999 0 24.8355 0 15.999C0.00021492 7.16271 7.16364 0 16 0ZM7.91699 8.33008C7.89945 8.33008 7.88177 8.33155 7.85254 8.33301C9.96279 11.1542 12.068 13.9679 14.1729 16.7832C14.1587 16.7993 14.1469 16.813 14.1348 16.8262C13.846 17.1383 13.5568 17.4506 13.2676 17.7627C12.5114 18.5798 11.7542 19.3977 10.998 20.2148C10.4222 20.8369 9.84632 21.459 9.27051 22.0811C8.79842 22.5907 8.3261 23.1007 7.85352 23.6104C7.8389 23.6259 7.82077 23.6392 7.80469 23.6533V23.6543C7.81054 23.6809 7.83151 23.6645 7.84277 23.6641C8.31383 23.665 8.78578 23.665 9.25684 23.665C9.26456 23.6515 9.27023 23.6362 9.28027 23.625C9.55069 23.3322 9.82187 23.0394 10.0928 22.7471C10.8406 21.9393 11.5881 21.132 12.3359 20.3242C12.961 19.6489 13.5868 18.9731 14.2119 18.2979C14.4009 18.0933 14.5893 17.8887 14.7783 17.6846C14.7895 17.6724 14.8003 17.6601 14.8145 17.6436C14.8315 17.6645 14.8448 17.6803 14.8574 17.6973C15.3734 18.3876 15.8898 19.0782 16.4062 19.7686C17.085 20.6758 17.7637 21.584 18.4424 22.4912C18.7234 22.8667 19.0046 23.2422 19.2852 23.6182C19.2959 23.6323 19.3052 23.649 19.3145 23.6641H24.1846C24.187 23.6305 24.1601 23.6122 24.1436 23.5898C23.2924 22.4503 22.44 21.3119 21.5879 20.1729C20.5554 18.792 19.5222 17.4111 18.4893 16.0303C18.1789 15.6151 17.868 15.1993 17.5576 14.7842C17.5441 14.7658 17.5306 14.7473 17.5166 14.7275C18.012 14.1926 18.5046 13.6609 18.9961 13.1299C19.4891 12.5974 19.9825 12.0638 20.4756 11.5312C20.9677 10.9997 21.4605 10.4681 21.9521 9.93652C22.4441 9.4046 22.9367 8.87322 23.4355 8.33301C23.4071 8.33156 23.3909 8.3301 23.375 8.33008C22.9345 8.32959 22.4932 8.33105 22.0527 8.33008C22.0151 8.33016 21.9895 8.34078 21.9639 8.36816C21.3714 9.00983 20.778 9.6513 20.1846 10.292C19.1244 11.4375 18.0631 12.5831 17.0029 13.7285C16.9611 13.7738 16.9183 13.8185 16.873 13.8672C16.8582 13.848 16.8445 13.8313 16.832 13.8145C16.2741 13.0685 15.7161 12.3221 15.1582 11.5762C14.3597 10.5087 13.5607 9.441 12.7627 8.37305C12.7398 8.3424 12.7166 8.3301 12.6777 8.33008C11.0909 8.33105 9.50387 8.33008 7.91699 8.33008ZM12.1445 9.38281C12.1811 9.38281 12.2037 9.39459 12.2256 9.42383C13.4885 11.114 14.7527 12.8035 16.0166 14.4932C16.8107 15.5553 17.6053 16.6171 18.3994 17.6787C19.5474 19.214 20.6963 20.7499 21.8447 22.2852C21.907 22.3679 21.9694 22.4515 22.0312 22.5342L22.0811 22.6016H22.0146C21.3121 22.6016 20.6098 22.6011 19.9072 22.6025C19.8644 22.6025 19.8383 22.5888 19.8125 22.5547C18.7685 21.1575 17.7232 19.761 16.6787 18.3643C15.8456 17.2505 15.0123 16.1357 14.1787 15.0215C12.8812 13.2869 11.5827 11.5519 10.2852 9.81738L10.001 9.43652C9.99031 9.42246 9.98036 9.40804 9.96582 9.38672C9.98913 9.38575 10.005 9.3838 10.0205 9.38379C10.7285 9.38379 11.4366 9.38379 12.1445 9.38281Z" fill="url(#paint0_linear_20927_55067)"/>
<defs>
<linearGradient id="paint0_linear_20927_55067" x1="30.5" y1="31.9971" x2="5.16273" y2="-0.000750721" gradientUnits="userSpaceOnUse">
<stop stop-color="#EF8F66" stop-opacity="0"/>
<stop offset="0.688653" stop-color="#EF8F66"/>
</linearGradient>
</defs>
</svg>
