<svg width="32" height="32" viewBox="0 0 32 32" fill="none" xmlns="http://www.w3.org/2000/svg">
<g clip-path="url(#clip0_20927_55074)">
<path d="M14.0078 18.998L19.2124 16.0005L14.0078 13.0029V18.998Z" fill="#57D970"/>
<path d="M16 0.000976562C7.16479 0.000976562 0 7.16577 0 16.001C0 24.8362 7.16479 32.001 16 32.001C24.8352 32.001 32 24.8362 32 16.001C32 7.16577 24.8352 0.000976562 16 0.000976562ZM25.9976 16.0173C25.9976 16.0173 25.9976 19.2622 25.5859 20.8269C25.3552 21.6833 24.6799 22.3586 23.8235 22.5891C22.2588 23.001 16 23.001 16 23.001C16 23.001 9.75757 23.001 8.17651 22.5728C7.32007 22.3423 6.64478 21.6667 6.41406 20.8103C6.0022 19.2622 6.0022 16.001 6.0022 16.001C6.0022 16.001 6.0022 12.7563 6.41406 11.1917C6.64453 10.3352 7.33643 9.64331 8.17651 9.41284C9.74121 9.00098 16 9.00098 16 9.00098C16 9.00098 22.2588 9.00098 23.8235 9.4292C24.6799 9.65967 25.3552 10.3352 25.5859 11.1917C26.0142 12.7563 25.9976 16.0173 25.9976 16.0173Z" fill="url(#paint0_linear_20927_55074)"/>
</g>
<defs>
<linearGradient id="paint0_linear_20927_55074" x1="30.5" y1="31.999" x2="5.16178" y2="0.000978498" gradientUnits="userSpaceOnUse">
<stop stop-color="#57D970" stop-opacity="0"/>
<stop offset="0.688653" stop-color="#57D970"/>
</linearGradient>
<clipPath id="clip0_20927_55074">
<rect width="32" height="32" fill="white" transform="translate(0 0.000976562)"/>
</clipPath>
</defs>
</svg>
