<svg width="24" height="24" viewBox="0 0 24 24" fill="none" xmlns="http://www.w3.org/2000/svg">
<path fill-rule="evenodd" clip-rule="evenodd" d="M13.107 17.453L22.3287 9.92961C22.5832 9.72509 22.4766 9.57486 22.1143 9.27936L13.107 1.93076C12.5052 1.43975 11.4943 1.43975 10.8925 1.93076L1.88512 9.27936C1.52291 9.57486 1.41627 9.72509 1.6708 9.92961L10.8924 17.453C11.1818 17.6891 11.5873 17.8141 11.9997 17.8281C12.4121 17.8141 12.8176 17.6891 13.107 17.453H13.107Z" fill="#F0A800"/>
<path fill-rule="evenodd" clip-rule="evenodd" d="M13.107 17.4545L21.1892 10.8607V10.1764C21.1892 10.1039 21.1865 10.073 21.1469 10.01C21.0922 9.923 20.9858 9.82527 20.8353 9.70245L11.828 2.35381C11.5527 2.12923 11.1918 2.00745 10.8236 1.98828L1.88512 9.28077C1.52291 9.57627 1.41627 9.7265 1.6708 9.93102L10.8924 17.4545C11.1818 17.6905 11.5873 17.8155 11.9997 17.8295C12.4121 17.8155 12.8176 17.6905 13.107 17.4545H13.107Z" fill="#FFB300"/>
<path fill-rule="evenodd" clip-rule="evenodd" d="M5.42188 17.7694V1.61478C5.42188 1.13919 5.81098 0.75008 6.28658 0.75008H14.3767C14.7772 0.75008 14.9101 0.736861 15.2074 1.05116C18.3155 4.33738 15.2074 1.05116 18.3155 4.33738C18.5038 4.53655 18.5779 4.72067 18.5779 4.98088V17.7694C18.5779 18.245 18.1887 18.6341 17.7132 18.6341H6.28658C5.81098 18.6341 5.42188 18.245 5.42188 17.7694Z" fill="#E0C0C0"/>
<path fill-rule="evenodd" clip-rule="evenodd" d="M5.42188 17.7693V1.6147C5.42188 1.13911 5.81098 0.75 6.28658 0.75H13.2963C13.5997 0.751406 13.7341 0.773625 13.9965 1.05112L17.1046 4.33734C17.293 4.53647 17.367 4.72064 17.367 4.98084V17.7693C17.367 18.2449 16.9779 18.634 16.5023 18.634H6.28658C5.81098 18.634 5.42188 18.2449 5.42188 17.7693Z" fill="#FFE0E0"/>
<path fill-rule="evenodd" clip-rule="evenodd" d="M15.2064 1.05131L18.3145 4.33753C18.4997 4.53328 18.5744 4.71455 18.5769 4.96781H15.2241C14.7485 4.96781 14.3594 4.5787 14.3594 4.10311V0.750235C14.7619 0.750235 14.903 0.730548 15.2064 1.05131Z" fill="#CFA8A8"/>
<path fill-rule="evenodd" clip-rule="evenodd" d="M17.3661 4.96739H15.2241C14.7485 4.96739 14.3594 4.57828 14.3594 4.10269V1.43555L17.1037 4.33716C17.2889 4.53291 17.3636 4.71417 17.3661 4.96739Z" fill="#E0C0C0"/>
<path fill-rule="evenodd" clip-rule="evenodd" d="M12.1152 23.2486H21.7313C22.2213 23.2486 22.6224 22.8475 22.6224 22.3575V10.1373C22.6224 9.99664 22.5894 9.86333 22.5307 9.74473C22.4974 9.67752 22.4559 9.61503 22.4075 9.55859C22.506 9.69341 22.4885 9.80037 22.3288 9.92872L13.1072 17.4522C12.835 17.6742 12.4791 17.7958 12.1152 17.817V23.2487V23.2486Z" fill="#ED9600"/>
<path fill-rule="evenodd" clip-rule="evenodd" d="M1.59188 9.56055C1.45805 9.71655 1.37695 9.91886 1.37695 10.1392V22.3595C1.37695 22.8495 1.77802 23.2506 2.26805 23.2506H12.1147V17.8189C11.6741 17.8446 11.2218 17.723 10.8922 17.4541L1.67048 9.93067C1.51078 9.80238 1.49334 9.69541 1.59188 9.56055Z" fill="#FFA000"/>
<path fill-rule="evenodd" clip-rule="evenodd" d="M12.1152 23.2496H20.2983C20.7883 23.2496 21.1893 22.8485 21.1893 22.3585V10.8594L13.1072 17.4531C12.9236 17.603 12.5541 17.7058 12.1152 17.7616V23.2496Z" fill="#FFA000"/>
<path fill-rule="evenodd" clip-rule="evenodd" d="M13.1059 15.4887L22.3327 23.0116C22.1735 23.1593 21.9608 23.2499 21.7278 23.2499H2.26508C2.03211 23.2499 1.81934 23.1593 1.66016 23.0116L10.8638 15.5077C11.4867 14.9997 12.4957 14.9912 13.1059 15.4887Z" fill="#FB8C00"/>
<path d="M14.7646 12.4586C16.2929 10.9303 16.2929 8.45247 14.7646 6.92416C13.2363 5.39586 10.7584 5.39586 9.23013 6.92416C7.70183 8.45247 7.70183 10.9303 9.23013 12.4586C10.7584 13.987 13.2363 13.987 14.7646 12.4586Z" fill="#1BBD87"/>
<path fill-rule="evenodd" clip-rule="evenodd" d="M11.7093 13.5957C9.68339 13.4469 8.08594 11.7562 8.08594 9.69239C8.08594 7.62853 9.68339 5.93784 11.7093 5.78906C13.7352 5.9378 15.3327 7.62848 15.3327 9.69239C15.3327 11.7563 13.7352 13.4469 11.7093 13.5957Z" fill="#32D69F"/>
<path fill-rule="evenodd" clip-rule="evenodd" d="M11.4581 10.3119L13.3398 8.2026C13.4892 8.03507 13.747 8.01993 13.9148 8.16922C14.0826 8.31852 14.0977 8.57671 13.9482 8.74438L11.7288 11.2322C11.5444 11.4257 11.3627 11.3739 11.0635 11.0747L10.0631 10.0387C9.90689 9.87702 9.91218 9.61907 10.0741 9.4633C10.236 9.30754 10.4933 9.31283 10.6492 9.47432L11.4581 10.3118V10.3119Z" fill="#ECEFF1"/>
<path fill-rule="evenodd" clip-rule="evenodd" d="M13.3398 8.20252C13.4328 8.09822 13.4827 8.1413 13.5485 8.21747C13.6764 8.3656 13.6702 8.5936 13.5358 8.7443L11.3585 11.185C11.2696 11.2804 11.1705 11.1817 11.0635 11.0746L10.0631 10.0387C9.90689 9.87699 9.91218 9.61903 10.0741 9.46327C10.1681 9.37285 10.233 9.46927 10.2616 9.49992L11.2437 10.536L13.3398 8.20247V8.20252Z" fill="white"/>
</svg>
