<svg width="24" height="24" viewBox="0 0 24 24" fill="none" xmlns="http://www.w3.org/2000/svg">
<g clip-path="url(#clip0_24352_4798)">
<path d="M10 24C15.5228 24 20 19.5228 20 14C20 8.47715 15.5228 4 10 4C4.47715 4 0 8.47715 0 14C0 19.5228 4.47715 24 10 24Z" fill="#E93829"/>
<path opacity="0.2" d="M10 4.25C15.4599 4.25 19.8902 8.68243 19.9906 14.1863C19.9918 14.1237 20 14.0629 20 14C20 8.47711 15.5228 4 10 4C4.47717 4 0 8.47711 0 14C0 14.0629 0.0082397 14.1237 0.0093994 14.1863C0.109802 8.68243 4.5401 4.25 10 4.25Z" fill="white"/>
<path opacity="0.1" d="M10 23.7508C4.5401 23.7508 0.109802 19.3184 0.0093994 13.8145C0.0082397 13.8771 0 13.9379 0 14.0008C0 19.5237 4.47717 24.0008 10 24.0008C15.5228 24.0008 20 19.5237 20 14.0008C20 13.9379 19.9918 13.8771 19.9906 13.8145C19.8902 19.3184 15.4599 23.7508 10 23.7508Z" fill="#010101"/>
<path d="M10 21C13.866 21 17 17.866 17 14C17 10.134 13.866 7 10 7C6.13401 7 3 10.134 3 14C3 17.866 6.13401 21 10 21Z" fill="white"/>
<path d="M10 18C12.2091 18 14 16.2091 14 14C14 11.7909 12.2091 10 10 10C7.79086 10 6 11.7909 6 14C6 16.2091 7.79086 18 10 18Z" fill="#E93829"/>
<path d="M10 15C10.5523 15 11 14.5523 11 14C11 13.4477 10.5523 13 10 13C9.44772 13 9 13.4477 9 14C9 14.5523 9.44772 15 10 15Z" fill="url(#paint0_radial_24352_4798)"/>
<path d="M12.8283 11.665C12.5553 11.665 12.3345 11.4441 12.3345 11.1711V11.0312C12.2663 11.0554 12.2016 11.0909 12.1471 11.1454C12.1471 11.1454 9.83588 13.8342 10.0006 13.9989C10.1653 14.1636 12.8541 11.8524 12.8541 11.8524C12.9086 11.7979 12.9441 11.7332 12.9682 11.665H12.8283Z" fill="#C6CDD0"/>
<path d="M23.9541 4.2905C23.8848 4.13962 23.7441 4.03318 23.5811 4.00632C22.6533 3.85447 21.1943 3.48728 20.8535 3.14646C20.5127 2.80564 20.1455 1.34617 19.9932 0.419409C19.9668 0.255347 19.8604 0.115698 19.71 0.0458741C19.5576 -0.0239501 19.3838 -0.0132079 19.2412 0.0722413C19.1494 0.127417 17 1.45017 17 3.49998V5.26462C14.6758 7.19187 12 9.60544 12 10.5V11.5C12 11.7763 12.2236 12 12.5 12H13.5C14.3945 12 16.8076 9.32419 18.7354 6.99998H20.5C22.5508 6.99998 23.873 4.85007 23.9277 4.75828C24.0137 4.61619 24.0234 4.44089 23.9541 4.2905Z" fill="#C6CDD0"/>
<path opacity="0.1" d="M12.4785 11.5215L10 13.9999C10.1647 14.1646 12.8535 11.8535 12.8535 11.8535C12.908 11.799 12.9435 11.7343 12.9677 11.6661H12.8278C12.6913 11.6661 12.5678 11.6108 12.4785 11.5215Z" fill="#010101"/>
<path d="M23.9541 4.2905C23.8848 4.13962 23.7441 4.03318 23.5811 4.00632C22.6533 3.85447 21.1943 3.48728 20.8535 3.14646C20.5127 2.80564 20.1455 1.34617 19.9932 0.419409C19.9668 0.255347 19.8604 0.115698 19.71 0.0458741C19.5576 -0.0239501 19.3838 -0.0132079 19.2412 0.0722413C19.1494 0.127417 17 1.45017 17 3.49998V5.26462C14.6758 7.19187 12 9.60544 12 10.5V11.5C12 11.7763 12.2236 12 12.5 12H13.5C14.3945 12 16.8076 9.32419 18.7354 6.99998H20.5C22.5508 6.99998 23.873 4.85007 23.9277 4.75828C24.0137 4.61619 24.0234 4.44089 23.9541 4.2905Z" fill="#00B2BA"/>
<path opacity="0.1" d="M23.9542 4.29053C23.8849 4.13965 23.7443 4.0332 23.5812 4.00635C22.6534 3.85449 21.1945 3.4873 20.8536 3.14648L12.1465 11.8536C12.2369 11.9441 12.3619 12 12.5001 12H13.5001C14.3947 12 16.8077 9.32422 18.7355 7H20.5001C22.5509 7 23.8732 4.8501 23.9279 4.7583C24.0138 4.61621 24.0236 4.44092 23.9542 4.29053Z" fill="#010101"/>
<path d="M13.6875 11.8119H12.8785C12.8683 11.8247 12.8654 11.841 12.8535 11.8529C12.8535 11.8529 10.1647 14.1641 10 13.9994L17.071 21.0704C18.8807 19.2608 20 16.7608 20 13.9994C20 11.7259 19.2327 9.63715 17.9532 7.95898C16.2508 9.93445 14.4367 11.8119 13.6875 11.8119Z" fill="url(#paint1_linear_24352_4798)"/>
<path d="M23.9541 4.2905C23.8848 4.13962 23.7441 4.03318 23.5811 4.00632C22.6533 3.85447 21.1943 3.48728 20.8535 3.14646C20.5127 2.80564 20.1455 1.34617 19.9932 0.419409C19.9668 0.255347 19.8604 0.115698 19.71 0.0458741C19.5576 -0.0239501 19.3838 -0.0132079 19.2412 0.0722413C19.1494 0.127417 17 1.45017 17 3.49998V5.26462C16.6899 5.5217 16.3738 5.7877 16.0584 6.05735C14.376 4.77207 12.2806 4.00004 10 4.00004C4.47717 4.00004 0 8.47715 0 14C0 19.5229 4.47717 24 10 24C15.5228 24 20 19.5229 20 14C20 11.7193 19.2279 9.62382 17.9426 7.94144C18.2122 7.62614 18.4782 7.30997 18.7354 6.99998H20.5C22.5508 6.99998 23.873 4.85007 23.9277 4.75828C24.0137 4.61619 24.0234 4.44089 23.9541 4.2905Z" fill="url(#paint2_linear_24352_4798)"/>
</g>
<defs>
<radialGradient id="paint0_radial_24352_4798" cx="0" cy="0" r="1" gradientUnits="userSpaceOnUse" gradientTransform="translate(10.184 14.047) scale(0.797)">
<stop stop-color="#3E2823" stop-opacity="0.2"/>
<stop offset="1" stop-color="#3E2823" stop-opacity="0"/>
</radialGradient>
<linearGradient id="paint1_linear_24352_4798" x1="13.872" y1="10.8744" x2="19.47" y2="16.4724" gradientUnits="userSpaceOnUse">
<stop stop-color="#010101" stop-opacity="0.1"/>
<stop offset="1" stop-color="#010101" stop-opacity="0"/>
</linearGradient>
<linearGradient id="paint2_linear_24352_4798" x1="2.36097" y1="6.71502" x2="20.491" y2="15.169" gradientUnits="userSpaceOnUse">
<stop stop-color="white" stop-opacity="0.2"/>
<stop offset="1" stop-color="white" stop-opacity="0"/>
</linearGradient>
<clipPath id="clip0_24352_4798">
<rect width="24" height="24" fill="white"/>
</clipPath>
</defs>
</svg>
