<svg width="24" height="24" viewBox="0 0 24 24" fill="none" xmlns="http://www.w3.org/2000/svg">
<g clip-path="url(#clip0_24352_4766)">
<path d="M21.8752 10.5623C21.8752 13.3837 20.7764 16.0364 18.7814 18.0314C16.7864 20.0264 14.1337 21.1252 11.3123 21.1252C11.2917 21.1252 11.2706 21.1252 11.25 21.1247C8.4525 21.1087 5.82422 20.0119 3.84375 18.0314C1.84875 16.0364 0.75 13.3837 0.75 10.5623C0.75 7.74141 1.84875 5.08875 3.84375 3.09375C5.82422 1.11328 8.4525 0.0164062 11.25 0.00046875C11.2706 0 11.2917 0 11.3123 0C14.1337 0 16.7864 1.09875 18.7814 3.09375C20.7764 5.08875 21.8752 7.74141 21.8752 10.5623Z" fill="#FFB74F"/>
<path d="M21.8752 10.5623C21.8752 13.3837 20.7764 16.0364 18.7814 18.0314C16.7864 20.0264 14.1338 21.1252 11.3123 21.1252C11.2917 21.1252 11.2706 21.1252 11.25 21.1247V0.00046875C11.2706 0 11.2917 0 11.3123 0C14.1338 0 16.7864 1.09875 18.7814 3.09375C20.7764 5.08875 21.8752 7.74141 21.8752 10.5623Z" fill="#FF9A00"/>
<path d="M19.3989 10.5625C19.3989 15.0212 15.7712 18.6489 11.3125 18.6489C11.2919 18.6489 11.2708 18.6489 11.2502 18.6484C6.82047 18.6152 3.22656 15.0006 3.22656 10.5625C3.22656 6.12484 6.82047 2.51031 11.2502 2.47703C11.2708 2.47656 11.2919 2.47656 11.3125 2.47656C15.7712 2.47656 19.3989 6.10422 19.3989 10.5625Z" fill="#FFEC97"/>
<path d="M19.3987 10.5625C19.3987 15.0212 15.7711 18.6489 11.3123 18.6489C11.2917 18.6489 11.2706 18.6489 11.25 18.6484V2.47703C11.2706 2.47656 11.2917 2.47656 11.3123 2.47656C15.7711 2.47656 19.3987 6.10422 19.3987 10.5625Z" fill="#FFDF48"/>
<path d="M13.9983 11.8385C13.9983 12.2318 13.9247 12.5646 13.777 12.8365C13.6294 13.1088 13.4344 13.3282 13.192 13.4955C12.9492 13.6629 12.6708 13.7843 12.3558 13.8593C12.2213 13.8916 12.0848 13.9165 11.9466 13.9352V15.6499H10.5403V13.9043C10.2909 13.8654 10.0467 13.8115 9.80859 13.7412C9.55312 13.6662 9.30563 13.5757 9.06609 13.4707C8.82703 13.3662 8.60578 13.2448 8.40234 13.107L9.11062 11.7007C9.13687 11.7335 9.22219 11.7959 9.36609 11.8877C9.51047 11.9796 9.68906 12.071 9.90234 12.1629C10.1152 12.2548 10.3528 12.3368 10.6153 12.409C10.8244 12.4666 11.0363 12.5009 11.2495 12.5121C11.3034 12.5154 11.3578 12.5168 11.4117 12.5168C11.9822 12.5168 12.2677 12.3434 12.2677 11.9955C12.2677 11.8648 12.2245 11.7565 12.1397 11.6712C12.0544 11.5859 11.9363 11.509 11.7858 11.4401C11.6348 11.3712 11.4562 11.3074 11.2495 11.2484C11.0428 11.1893 10.8183 11.1237 10.5759 11.0515C10.2544 10.953 9.97594 10.8466 9.74016 10.7318C9.50391 10.6174 9.30891 10.4848 9.15469 10.3338C9.00047 10.1829 8.88609 10.009 8.81063 9.81258C8.73516 9.6157 8.69766 9.38648 8.69766 9.12398C8.69766 8.75695 8.76656 8.43211 8.90391 8.15039C9.04172 7.86867 9.22875 7.63102 9.46453 7.43742C9.70078 7.24383 9.97406 7.09805 10.2858 6.99961C10.3692 6.97336 10.4541 6.95086 10.5403 6.93164V5.34961H11.9466V6.91336C11.9616 6.91617 11.977 6.91805 11.992 6.92086C12.2283 6.9668 12.4542 7.02586 12.6708 7.09805C12.8869 7.17023 13.0889 7.25227 13.2755 7.34367C13.4625 7.43602 13.6345 7.52742 13.792 7.6193L13.0838 8.95664C13.0641 8.93086 12.9952 8.88164 12.877 8.80945C12.7594 8.73727 12.6117 8.6618 12.4345 8.58305C12.2578 8.5043 12.0642 8.43539 11.8542 8.3768C11.6527 8.32008 11.4511 8.29055 11.2495 8.28867C11.2416 8.2882 11.2331 8.2882 11.2252 8.2882C10.6481 8.2882 10.3594 8.48133 10.3594 8.86852C10.3594 8.98617 10.3908 9.08461 10.4531 9.16336C10.515 9.24211 10.6069 9.31242 10.7283 9.37477C10.8497 9.43711 11.002 9.4943 11.1858 9.5468C11.2069 9.55289 11.228 9.55898 11.2495 9.56508C11.4178 9.61289 11.61 9.66586 11.8247 9.72398C12.1594 9.81586 12.4608 9.9157 12.7298 10.024C12.9984 10.1323 13.2263 10.2663 13.4133 10.4271C13.5998 10.5879 13.7442 10.7829 13.8459 11.0121C13.9477 11.2418 13.9983 11.5174 13.9983 11.8385Z" fill="#FFB74F"/>
<path d="M11.8547 8.3768C11.6531 8.32008 11.4516 8.29055 11.25 8.28867V5.34961H11.947V6.91336C11.962 6.91617 11.9775 6.91805 11.9925 6.92086C12.2287 6.9668 12.4547 7.02586 12.6713 7.09805C12.8873 7.17023 13.0894 7.25227 13.2759 7.34367C13.463 7.43602 13.635 7.52742 13.7925 7.6193L13.0842 8.95664C13.0645 8.93086 12.9956 8.88164 12.8775 8.80945C12.7598 8.73727 12.6122 8.6618 12.435 8.58305C12.2583 8.5043 12.0647 8.43539 11.8547 8.3768Z" fill="#FF9A00"/>
<path d="M13.9988 11.8379C13.9988 12.2312 13.9252 12.564 13.7775 12.8359C13.6298 13.1082 13.4348 13.3276 13.1925 13.4949C12.9497 13.6623 12.6713 13.7837 12.3563 13.8587C12.2217 13.891 12.0853 13.9159 11.947 13.9346V15.6493H11.25V12.5115C11.3039 12.5148 11.3583 12.5162 11.4122 12.5162C11.9827 12.5162 12.2681 12.3427 12.2681 11.9949C12.2681 11.8641 12.225 11.7559 12.1402 11.6705C12.0548 11.5852 11.9367 11.5084 11.7863 11.4395C11.6353 11.3705 11.4567 11.3068 11.25 11.2477V9.56445C11.4183 9.61227 11.6105 9.66523 11.8252 9.72336C12.1598 9.81523 12.4612 9.91508 12.7303 10.0234C12.9989 10.1316 13.2267 10.2657 13.4138 10.4265C13.6003 10.5873 13.7447 10.7823 13.8464 11.0115C13.9481 11.2412 13.9988 11.5168 13.9988 11.8379Z" fill="#FF9A00"/>
<path d="M21.1228 19.1601L22.6763 17.6067L14.7266 15.4766L16.8567 23.4263L18.4101 21.8728L20.5379 24.0006L23.2506 21.2879L21.1228 19.1601Z" fill="#007AFF"/>
</g>
<defs>
<clipPath id="clip0_24352_4766">
<rect width="24" height="24" fill="white"/>
</clipPath>
</defs>
</svg>
