<svg width="46" height="46" viewBox="0 0 46 46" fill="none" xmlns="http://www.w3.org/2000/svg">
<rect x="0.888455" y="0.888455" width="43.7778" height="43.7778" rx="21.8889" stroke="#0F9BFB" stroke-opacity="0.1" stroke-width="1.77778"/>
<rect x="1.77734" y="1.77734" width="42" height="42" rx="21" fill="url(#paint0_radial_24370_5859)"/>
<path fill-rule="evenodd" clip-rule="evenodd" d="M24.1259 17.0635L24.1257 15.668C24.7879 15.6678 27.0336 15.6087 27.5518 15.7248C28.2141 15.8699 28.8187 16.2476 29.1643 16.7417C29.3083 16.9451 29.3947 17.0614 29.5099 17.323C30.1435 18.631 29.568 20.3174 28.3301 20.9865C27.8119 21.2774 27.524 21.3066 26.9482 21.365L26.9487 24.2431C27.87 24.3009 28.9352 23.9516 29.7413 23.5152C29.9428 23.3988 30.0868 23.2825 30.2595 23.1661C31.0368 22.6134 31.8715 21.5956 32.2169 20.6652C32.9651 18.6589 32.6768 16.7403 31.4673 15.0546C31.2945 14.793 31.0641 14.5896 30.8626 14.3571C30.4882 13.9793 30.0275 13.6888 29.538 13.4273C28.012 12.6139 26.63 12.7889 24.8162 12.7897C23.6358 12.7901 22.4265 12.7615 21.2461 12.7911L21.2474 19.9718" fill="white"/>
<path fill-rule="evenodd" clip-rule="evenodd" d="M21.2761 28.5177L21.2763 29.9131C20.7293 29.9134 20.2111 29.9136 19.664 29.9138C18.2533 29.9143 17.4471 30.031 16.4393 29.0138C15.8634 28.4617 15.6329 27.7059 15.6615 26.8628C15.6615 26.3396 15.978 25.5836 16.2947 25.2346C16.5825 24.9147 16.6689 24.8274 17.0431 24.5947C17.3886 24.362 17.9356 24.2164 18.4826 24.2162L18.4821 21.3381C17.7047 21.2802 16.438 21.6296 15.7759 22.0078C15.7759 22.0078 15.7759 22.0078 15.7471 22.0078L15.2577 22.2987C13.6744 23.375 12.8397 25.1197 12.7825 27.0094C12.7538 27.9687 13.0131 28.8408 13.4163 29.6837C13.5027 29.8872 13.6467 30.0906 13.7619 30.265C14.8851 31.8926 16.6127 32.764 18.6281 32.7632L22.2845 32.7618C22.8891 32.7615 23.5513 32.7903 24.1559 32.761L24.1547 25.5803" fill="white"/>
<path d="M24.133 25.1475L21.2538 28.0268L21.2525 20.4388L24.1317 17.5594L24.133 25.1475Z" fill="white"/>
<defs>
<radialGradient id="paint0_radial_24370_5859" cx="0" cy="0" r="1" gradientUnits="userSpaceOnUse" gradientTransform="translate(22.7773 34.4023) rotate(90) scale(24.75)">
<stop stop-color="#264BD1"/>
<stop offset="1" stop-color="#1798FF"/>
</radialGradient>
</defs>
</svg>
