<svg width="42" height="42" viewBox="0 0 42 42" fill="none" xmlns="http://www.w3.org/2000/svg">
<g clip-path="url(#clip0_20494_11264)">
<rect width="43.3116" height="73.1817" rx="7.46752" transform="matrix(1 0 0 -1 0 42.3506)" fill="#54D66E"/>
<g filter="url(#filter0_f_20494_11264)">
<path d="M36.2587 36.0683C38.7968 37.0427 38.0343 16.6078 37.4753 9.49919C36.8265 1.24956 12.6453 5.11455 8.47213 5.44272C4.29897 5.77089 30.1234 4.38447 32.6076 11.3243C32.6076 33.4316 32.0856 36.3965 36.2587 36.0683Z" fill="white"/>
</g>
<g filter="url(#filter1_f_20494_11264)">
<path d="M1.07264 41.4426C4.04434 41.4335 8.19648 27.0846 8.14888 11.5664C8.10128 -3.9518 3.87198 -14.7629 0.900281 -14.7538C-2.07142 -14.7447 -4.44187 -2.15729 -4.39428 13.3609C-4.34668 28.8791 -1.89906 41.4518 1.07264 41.4426Z" fill="#1AD692"/>
</g>
<g filter="url(#filter2_f_20494_11264)">
<path d="M29.9393 44.2175C32.911 44.2084 35.4341 65.5763 35.3865 50.0581C35.3389 34.5399 32.911 24.4949 29.9393 24.504C26.9676 24.5131 24.5972 37.1005 24.6448 52.6187C24.6924 68.1369 26.9676 44.2267 29.9393 44.2175Z" fill="#009B63"/>
</g>
<path d="M26.25 8.75H15.75C15.0219 8.78406 14.3369 9.10515 13.8449 9.64302C13.353 10.1809 13.0941 10.8917 13.125 11.62V17.7975L20.37 24.7188C20.5514 24.8673 20.7786 24.9485 21.0131 24.9485C21.2476 24.9485 21.4748 24.8673 21.6562 24.7188L28.875 18.375V11.62C28.9059 10.8917 28.647 10.1809 28.1551 9.64302C27.6631 9.10515 26.9781 8.78406 26.25 8.75ZM25.375 14.07C25.3574 14.2897 25.2575 14.4947 25.0952 14.6439C24.933 14.7932 24.7204 14.8757 24.5 14.875H17.5C17.2796 14.8757 17.067 14.7932 16.9048 14.6439C16.7425 14.4947 16.6426 14.2897 16.625 14.07C16.6207 14.0469 16.6207 14.0231 16.625 14C16.625 13.7679 16.7172 13.5454 16.8813 13.3813C17.0454 13.2172 17.2679 13.125 17.5 13.125H24.5C24.7321 13.125 24.9546 13.2172 25.1187 13.3813C25.2828 13.5454 25.375 13.7679 25.375 14C25.3793 14.0231 25.3793 14.0469 25.375 14.07ZM24.5 18.375H17.5C17.2679 18.375 17.0454 18.2828 16.8813 18.1187C16.7172 17.9546 16.625 17.7321 16.625 17.5C16.625 17.2679 16.7172 17.0454 16.8813 16.8813C17.0454 16.7172 17.2679 16.625 17.5 16.625H24.5C24.7321 16.625 24.9546 16.7172 25.1187 16.8813C25.2828 17.0454 25.375 17.2679 25.375 17.5C25.375 17.7321 25.2828 17.9546 25.1187 18.1187C24.9546 18.2828 24.7321 18.375 24.5 18.375ZM30.625 13.6238L31.8763 14.3063C32.0766 14.4202 32.2644 14.5551 32.4362 14.7088C32.5197 14.798 32.5985 14.8915 32.6725 14.9887L31.3512 16.1525L30.625 16.7912V13.6238ZM31.5 18.375L28.875 20.6937L22.82 26.0312C22.318 26.475 21.67 26.7181 21 26.7138C20.721 26.7093 20.444 26.6651 20.1775 26.5825L20.0375 26.5387H19.9762C19.8439 26.4864 19.7152 26.425 19.5913 26.355C19.495 26.2938 19.4163 26.2237 19.3288 26.1625L19.25 26.0225L13.125 20.2212L10.5 17.7188L8.8025 16.1C8.76787 16.2729 8.75029 16.4487 8.75 16.625V30.625C8.75 31.3212 9.02656 31.9889 9.51884 32.4812C10.0111 32.9734 10.6788 33.25 11.375 33.25H30.625C31.3212 33.25 31.9889 32.9734 32.4812 32.4812C32.9734 31.9889 33.25 31.3212 33.25 30.625V16.8088L31.5 18.375ZM11.375 16.1263V13.6325L10.115 14.315C9.98698 14.3945 9.86422 14.4822 9.7475 14.5775L11.0338 15.8025L11.375 16.1263Z" fill="url(#paint0_linear_20494_11264)"/>
</g>
<defs>
<filter id="filter0_f_20494_11264" x="-0.0971365" y="-3.85886" width="46.2451" height="48.0732" filterUnits="userSpaceOnUse" color-interpolation-filters="sRGB">
<feFlood flood-opacity="0" result="BackgroundImageFix"/>
<feBlend mode="normal" in="SourceGraphic" in2="BackgroundImageFix" result="shape"/>
<feGaussianBlur stdDeviation="4.05638" result="effect1_foregroundBlur_20494_11264"/>
</filter>
<filter id="filter1_f_20494_11264" x="-13.7834" y="-24.1428" width="31.3208" height="74.9741" filterUnits="userSpaceOnUse" color-interpolation-filters="sRGB">
<feFlood flood-opacity="0" result="BackgroundImageFix"/>
<feBlend mode="normal" in="SourceGraphic" in2="BackgroundImageFix" result="shape"/>
<feGaussianBlur stdDeviation="4.69445" result="effect1_foregroundBlur_20494_11264"/>
</filter>
<filter id="filter2_f_20494_11264" x="15.2556" y="15.115" width="29.52" height="52.1294" filterUnits="userSpaceOnUse" color-interpolation-filters="sRGB">
<feFlood flood-opacity="0" result="BackgroundImageFix"/>
<feBlend mode="normal" in="SourceGraphic" in2="BackgroundImageFix" result="shape"/>
<feGaussianBlur stdDeviation="4.69445" result="effect1_foregroundBlur_20494_11264"/>
</filter>
<linearGradient id="paint0_linear_20494_11264" x1="12.1875" y1="8.75" x2="33.25" y2="38.5" gradientUnits="userSpaceOnUse">
<stop offset="0.455504" stop-color="white"/>
<stop offset="1" stop-color="white" stop-opacity="0"/>
</linearGradient>
<clipPath id="clip0_20494_11264">
<rect width="42" height="42" rx="7.46752" fill="white"/>
</clipPath>
</defs>
</svg>
