<svg width="52" height="52" viewBox="0 0 52 52" fill="none" xmlns="http://www.w3.org/2000/svg">
<path d="M0 26C0 11.6406 11.6406 0 26 0C40.3594 0 52 11.6406 52 26C52 40.3594 40.3594 52 26 52C11.6406 52 0 40.3594 0 26Z" fill="white"/>
<g clip-path="url(#clip0_24841_11904)">
<path d="M22.3845 23.0145L23.4926 23.8195L25.9984 22.5862L28.5042 23.8195L29.6122 23.0145L29.2136 20.2503L31.1608 18.2483L30.7376 16.9457L27.9855 16.4705L26.6832 14H25.3136L24.0113 16.4706L21.2592 16.9457L20.8359 18.2483L22.7832 20.2503L22.3845 23.0145ZM22.6801 18.1274L24.9325 17.7386L25.9984 15.7166L27.0642 17.7386L29.3166 18.1274L27.7229 19.766L28.0492 22.0283L25.9984 21.0189L23.9476 22.0283L24.2738 19.766L22.6801 18.1274Z" fill="#1798FF"/>
<path d="M36.5469 36.5932V31.3281H29.9844V27.5781H22.0156V30.1563H15.4531V36.5932H14V37.9995H38V36.5932H36.5469ZM35.1406 32.7344V36.5932H29.9844V32.7344H35.1406ZM28.5781 28.9844V36.5932H23.4219V28.9844H28.5781ZM16.8594 31.5625H22.0156V36.5932H16.8594V31.5625Z" fill="#1798FF"/>
</g>
<defs>
<clipPath id="clip0_24841_11904">
<rect width="24" height="24" fill="white" transform="translate(14 14)"/>
</clipPath>
</defs>
</svg>
