<svg width="52" height="52" viewBox="0 0 52 52" fill="none" xmlns="http://www.w3.org/2000/svg">
<path d="M0 26C0 11.6406 11.6406 0 26 0C40.3594 0 52 11.6406 52 26C52 40.3594 40.3594 52 26 52C11.6406 52 0 40.3594 0 26Z" fill="white"/>
<path d="M26 21.5C25.5875 21.5 25.25 21.8375 25.25 22.25V22.385C24.38 22.6925 23.75 23.5175 23.75 24.5C23.75 25.7375 24.7625 26.75 26 26.75C26.4125 26.75 26.75 27.0875 26.75 27.5C26.75 27.9125 26.4125 28.25 26 28.25C25.685 28.25 25.3925 28.04 25.295 27.74C25.1675 27.35 24.74 27.1325 24.35 27.26C23.96 27.3875 23.7425 27.815 23.87 28.205C24.095 28.88 24.6125 29.39 25.25 29.615V29.75C25.25 30.1625 25.5875 30.5 26 30.5C26.4125 30.5 26.75 30.1625 26.75 29.75V29.615C27.62 29.3075 28.25 28.4825 28.25 27.5C28.25 26.2625 27.2375 25.25 26 25.25C25.5875 25.25 25.25 24.9125 25.25 24.5C25.25 24.0875 25.5875 23.75 26 23.75C26.315 23.75 26.6075 23.96 26.705 24.26C26.8325 24.65 27.26 24.8675 27.65 24.74C28.04 24.6125 28.2575 24.185 28.13 23.795C27.905 23.12 27.3875 22.61 26.75 22.385V22.25C26.75 21.8375 26.4125 21.5 26 21.5Z" fill="#1798FF"/>
<path d="M32.3702 18.613L32.2652 18.523C32.1677 18.4405 32.0777 18.3655 32.0027 18.313C31.6202 18.013 31.2002 17.7355 30.7277 17.473C30.3227 17.2555 29.9477 17.0755 29.5877 16.933C25.7402 15.403 21.3377 16.483 18.6227 19.633L18.5327 19.738C18.4502 19.8355 18.3677 19.933 18.3227 20.0005C18.2627 20.0755 18.2102 20.158 18.1502 20.2405L17.8352 19.153C17.7227 18.7555 17.3027 18.523 16.9052 18.6355C16.5077 18.748 16.2752 19.168 16.3877 19.5655L17.2127 22.4455C17.2652 22.633 17.3927 22.798 17.5727 22.8955C17.6852 22.9555 17.8127 22.9855 17.9327 22.9855C18.0002 22.9855 18.0752 22.978 18.1427 22.9555L21.0302 22.1305C21.4277 22.018 21.6602 21.598 21.5477 21.2005C21.4352 20.803 21.0227 20.5705 20.6177 20.683L19.4177 21.028C19.4552 20.983 19.4852 20.9305 19.5227 20.8855C19.5677 20.818 19.6277 20.758 19.6802 20.698L19.7702 20.5855C22.0577 17.938 25.7852 17.023 29.0327 18.3205C29.3402 18.4405 29.6552 18.5905 30.0002 18.778C30.3977 19.003 30.7502 19.228 31.1027 19.5055C31.1702 19.5505 31.2302 19.603 31.2902 19.6555L31.4027 19.7455C33.2102 21.313 34.2452 23.5855 34.2452 25.978C34.2452 26.3905 34.5827 26.728 34.9952 26.728C35.4077 26.728 35.7452 26.3905 35.7452 25.978C35.7452 23.143 34.5227 20.458 32.3627 18.5905L32.3702 18.613Z" fill="#1798FF"/>
<path d="M19.6328 33.3869L19.7378 33.4769C19.8353 33.5594 19.9328 33.6419 20.0003 33.6869C20.3828 33.9944 20.8028 34.2644 21.2753 34.5269C21.6803 34.7444 22.0553 34.9244 22.4153 35.0669C23.5778 35.5319 24.7928 35.7494 26.0003 35.7494C28.7753 35.7494 31.4903 34.5569 33.3878 32.3669L33.4778 32.2619C33.5603 32.1644 33.6353 32.0744 33.6878 31.9994C33.7478 31.9244 33.8003 31.8419 33.8603 31.7594L34.1678 32.8469C34.2578 33.1769 34.5653 33.3869 34.8878 33.3869C34.9553 33.3869 35.0228 33.3794 35.0978 33.3569C35.4953 33.2444 35.7278 32.8244 35.6153 32.4269L34.7903 29.5394C34.7378 29.3519 34.6103 29.1869 34.4303 29.0894C34.2578 28.9919 34.0478 28.9694 33.8603 29.0219L30.9728 29.8469C30.5753 29.9594 30.3428 30.3794 30.4553 30.7769C30.5678 31.1744 30.9878 31.4069 31.3853 31.2944L32.5853 30.9494C32.5478 30.9944 32.5178 31.0469 32.4803 31.0919C32.4353 31.1594 32.3828 31.2194 32.3303 31.2794L32.2328 31.3919C29.9453 34.0394 26.2178 34.9544 22.9703 33.6569C22.6703 33.5369 22.3478 33.3869 22.0028 33.1919C21.6053 32.9744 21.2528 32.7419 20.9003 32.4644C20.8328 32.4194 20.7728 32.3669 20.7128 32.3069L20.6003 32.2169C18.7928 30.6569 17.7578 28.3769 17.7578 25.9844C17.7578 25.5719 17.4203 25.2344 17.0078 25.2344C16.5953 25.2344 16.2578 25.5719 16.2578 25.9844C16.2578 28.8194 17.4878 31.5044 19.6403 33.3719L19.6328 33.3869Z" fill="#1798FF"/>
</svg>
