<svg width="52" height="52" viewBox="0 0 52 52" fill="none" xmlns="http://www.w3.org/2000/svg">
<path d="M0 26C0 11.6406 11.6406 0 26 0C40.3594 0 52 11.6406 52 26C52 40.3594 40.3594 52 26 52C11.6406 52 0 40.3594 0 26Z" fill="white"/>
<path d="M35.9963 19V23C35.9963 23.2652 35.8909 23.5196 35.7034 23.7071C35.5159 23.8946 35.2615 24 34.9963 24C34.7311 24 34.4767 23.8946 34.2892 23.7071C34.1017 23.5196 33.9963 23.2652 33.9963 23V21.52L27.7463 28.66C27.6526 28.7667 27.5372 28.8522 27.4079 28.9108C27.2786 28.9694 27.1383 28.9998 26.9963 29C26.859 29.0035 26.7224 28.9787 26.5951 28.9271C26.4677 28.8755 26.3524 28.7982 26.2563 28.7L24.0163 26.44L17.7163 33.66C17.6316 33.7651 17.5265 33.852 17.4074 33.9155C17.2882 33.9789 17.1574 34.0175 17.0229 34.0291C16.8884 34.0406 16.753 34.0248 16.6248 33.9826C16.4966 33.9404 16.3782 33.8726 16.2769 33.7834C16.1755 33.6943 16.0933 33.5855 16.0351 33.4637C15.9769 33.3419 15.944 33.2095 15.9384 33.0747C15.9327 32.9398 15.9544 32.8052 16.0022 32.6789C16.05 32.5526 16.1228 32.4374 16.2163 32.34L23.2163 24.34C23.3064 24.2368 23.4167 24.1532 23.5404 24.0944C23.6641 24.0356 23.7986 24.0029 23.9354 23.9982C24.0723 23.9935 24.2087 24.017 24.3362 24.0672C24.4636 24.1174 24.5794 24.1932 24.6763 24.29L26.9963 26.53L32.6663 20H30.9963C30.7311 20 30.4767 19.8946 30.2892 19.7071C30.1017 19.5196 29.9963 19.2652 29.9963 19C29.9963 18.7348 30.1017 18.4804 30.2892 18.2929C30.4767 18.1054 30.7311 18 30.9963 18H34.9963C35.2615 18 35.5159 18.1054 35.7034 18.2929C35.8909 18.4804 35.9963 18.7348 35.9963 19Z" fill="#1798FF"/>
</svg>
