<svg width="52" height="52" viewBox="0 0 52 52" fill="none" xmlns="http://www.w3.org/2000/svg">
<path d="M0 26C0 11.6406 11.6406 0 26 0C40.3594 0 52 11.6406 52 26C52 40.3594 40.3594 52 26 52C11.6406 52 0 40.3594 0 26Z" fill="white"/>
<g clip-path="url(#clip0_24841_11941)">
<path d="M36.1931 36.5582H35.5865V21.0377C35.5865 20.6394 35.2635 20.3164 34.8652 20.3164H31.1293C30.7311 20.3164 30.4081 20.6394 30.4081 21.0377V36.5582H28.6321V26.4391C28.6321 26.0408 28.3093 25.7178 27.9111 25.7178H24.175C23.7767 25.7178 23.4539 26.0408 23.4539 26.4391V36.5582H21.6778V25.1143C21.6778 24.7161 21.3548 24.3932 20.9565 24.3932H17.2206C16.8222 24.3932 16.4994 24.7161 16.4994 25.1143V36.5582H15.8931C15.4947 36.5582 15.1719 36.881 15.1719 37.2793C15.1719 37.6777 15.4947 38.0005 15.8931 38.0005H36.1931C36.5914 38.0005 36.9144 37.6777 36.9144 37.2793C36.9144 36.881 36.5914 36.5582 36.1931 36.5582ZM31.8504 21.7587H34.1442V36.5582H31.8504V21.7587ZM24.8962 27.1602H27.1898V36.5582H24.8962V27.1602ZM17.9417 25.8356H20.2353V36.5582H17.9417V25.8356Z" fill="#1798FF"/>
<path d="M20.2046 22.2625C20.2259 22.2625 20.2475 22.2615 20.2689 22.2597C20.3341 22.2538 21.8897 22.1099 24.0982 21.3275C26.1259 20.609 29.1206 19.1885 31.873 16.5007C31.8867 16.4873 31.8992 16.4732 31.9116 16.4589V17.5687C31.9116 17.9672 32.2345 18.29 32.6327 18.29C33.031 18.29 33.354 17.9672 33.354 17.5687V14.7213C33.354 14.3228 33.031 14 32.6327 14H29.7851C29.3868 14 29.064 14.3228 29.064 14.7213C29.064 15.1195 29.3868 15.4423 29.7851 15.4423H30.8954C30.8853 15.4511 30.8749 15.4594 30.8652 15.4689C30.1231 16.1936 29.3617 16.8189 28.6092 17.3587C26.7768 18.6723 24.9952 19.4756 23.6638 19.9511C23.387 20.05 23.1213 20.1377 22.8681 20.2161C21.2485 20.7172 20.1537 20.8218 20.1413 20.8231C19.745 20.8584 19.4522 21.2083 19.4872 21.6047C19.5204 21.9799 19.8351 22.2625 20.2046 22.2625Z" fill="#1798FF"/>
</g>
<defs>
<clipPath id="clip0_24841_11941">
<rect width="24" height="24" fill="white" transform="translate(14 14)"/>
</clipPath>
</defs>
</svg>
