<svg width="52" height="52" viewBox="0 0 52 52" fill="none" xmlns="http://www.w3.org/2000/svg">
<path d="M0 26C0 11.6406 11.6406 0 26 0C40.3594 0 52 11.6406 52 26C52 40.3594 40.3594 52 26 52C11.6406 52 0 40.3594 0 26Z" fill="white"/>
<g clip-path="url(#clip0_24841_11913)">
<mask id="path-2-outside-1_24841_11913" maskUnits="userSpaceOnUse" x="12" y="22.4004" width="28" height="17" fill="black">
<rect fill="white" x="12" y="22.4004" width="28" height="17"/>
<path d="M16.3967 30.9113C16.5533 31.0552 16.7486 31.1502 16.9585 31.1847C17.1684 31.2192 17.3839 31.1916 17.5783 31.1054C17.7619 31.0293 17.9188 30.9005 18.0293 30.7354C18.1398 30.5702 18.199 30.376 18.1993 30.1773V29.4814C19.7286 29.593 21.1592 30.2788 22.204 31.4013C23.2488 32.5237 23.8305 33.9997 23.8324 35.5331V37.6997C23.8324 38.0445 23.9694 38.3751 24.2132 38.6189C24.457 38.8627 24.7876 38.9996 25.1324 38.9996H26.8657C27.2104 38.9996 27.5411 38.8627 27.7849 38.6189C28.0287 38.3751 28.1656 38.0445 28.1656 37.6997V35.5331C28.1676 33.9997 28.7493 32.5237 29.7941 31.4013C30.8388 30.2788 32.2694 29.593 33.7988 29.4814V30.1773C33.799 30.3759 33.858 30.57 33.9684 30.7352C34.0787 30.9003 34.2354 31.0292 34.4188 31.1054C34.6138 31.1917 34.8298 31.2191 35.0401 31.1842C35.2504 31.1493 35.446 31.0537 35.6027 30.9091L38.674 28.0328C38.7758 27.9398 38.8572 27.8267 38.9128 27.7006C38.9684 27.5744 38.9972 27.4381 38.9972 27.3002C38.9972 27.1624 38.9684 27.026 38.9128 26.8999C38.8572 26.7738 38.7758 26.6607 38.674 26.5677L35.5975 23.6883C35.4408 23.5445 35.2455 23.4495 35.0356 23.4149C34.8258 23.3804 34.6104 23.4078 34.4158 23.4937C34.233 23.5706 34.0769 23.6997 33.9671 23.8649C33.8574 24.0301 33.7988 24.224 33.7988 24.4223V25.1421C32.2807 25.206 30.7951 25.6021 29.4467 26.3025C28.0983 27.0029 26.9199 27.9905 25.9947 29.1958C25.0736 27.9882 23.8973 26.9988 22.5498 26.2981C21.2024 25.5974 19.7168 25.2027 18.1993 25.1421V24.4223C18.199 24.2237 18.14 24.0295 18.0296 23.8643C17.9193 23.6991 17.7626 23.5701 17.5792 23.4937C17.3842 23.4077 17.1683 23.3804 16.958 23.4153C16.7477 23.4502 16.5522 23.5456 16.3954 23.69L13.3231 26.5664C13.2213 26.6594 13.14 26.7725 13.0844 26.8986C13.0287 27.0247 13 27.1611 13 27.2989C13 27.4368 13.0287 27.5731 13.0844 27.6993C13.14 27.8254 13.2213 27.9385 13.3231 28.0315L16.3967 30.9113ZM34.2321 26.0001C34.347 26.0001 34.4572 25.9544 34.5385 25.8731C34.6198 25.7919 34.6654 25.6817 34.6654 25.5667V24.4228C34.6667 24.3928 34.6769 24.3639 34.6949 24.3399C34.7128 24.3158 34.7376 24.2978 34.7659 24.288C34.7975 24.2746 34.8313 24.2675 34.8656 24.2672C34.9192 24.2667 34.971 24.2867 35.0103 24.3231L38.0843 27.2012C38.0991 27.2132 38.1111 27.2283 38.1193 27.2454C38.1275 27.2626 38.1318 27.2814 38.1318 27.3005C38.1318 27.3195 38.1275 27.3383 38.1193 27.3555C38.1111 27.3726 38.0991 27.3877 38.0843 27.3997L35.0121 30.2748C34.9791 30.3043 34.9381 30.3236 34.8943 30.3301C34.8505 30.3367 34.8057 30.3302 34.7655 30.3116C34.7372 30.302 34.7125 30.284 34.6946 30.26C34.6767 30.236 34.6665 30.2072 34.6654 30.1773V29.0333C34.6654 28.9184 34.6198 28.8082 34.5385 28.7269C34.4572 28.6456 34.347 28.6 34.2321 28.6C32.394 28.6023 30.6319 29.3335 29.3322 30.6332C28.0325 31.9329 27.3013 33.695 27.299 35.5331V37.6997C27.299 37.8146 27.2533 37.9248 27.1721 38.0061C27.0908 38.0873 26.9806 38.133 26.8657 38.133H25.1324C25.0175 38.133 24.9072 38.0873 24.826 38.0061C24.7447 37.9248 24.6991 37.8146 24.6991 37.6997V35.5331C24.702 33.0057 25.7074 30.5827 27.4945 28.7955C29.2817 27.0084 31.7047 26.003 34.2321 26.0001ZM13.9142 27.1999L16.986 24.3244C17.0191 24.295 17.06 24.2758 17.1038 24.2693C17.1476 24.2628 17.1923 24.2691 17.2325 24.2876C17.2609 24.2973 17.2857 24.3154 17.3036 24.3394C17.3216 24.3635 17.3318 24.3924 17.3331 24.4223V25.5667C17.3331 25.6817 17.3787 25.7919 17.46 25.8731C17.5412 25.9544 17.6515 26.0001 17.7664 26.0001C19.2712 25.9984 20.7548 26.3547 22.0947 27.0394C23.4347 27.7241 24.5926 28.7177 25.473 29.9381C24.8877 30.8492 24.449 31.8466 24.173 32.8937C23.6492 31.6248 22.761 30.5396 21.6206 29.7753C20.4802 29.011 19.1388 28.602 17.766 28.6C17.651 28.6 17.5408 28.6456 17.4596 28.7269C17.3783 28.8082 17.3326 28.9184 17.3326 29.0333V30.1773C17.3315 30.2072 17.3212 30.2361 17.3033 30.2601C17.2853 30.2841 17.2605 30.302 17.2321 30.3116C17.1924 30.3301 17.1481 30.3366 17.1048 30.3305C17.0614 30.3243 17.0207 30.3057 16.9877 30.2769L13.9129 27.3984C13.8981 27.3864 13.8861 27.3713 13.8779 27.3542C13.8696 27.337 13.8654 27.3182 13.8654 27.2992C13.8654 27.2801 13.8696 27.2613 13.8779 27.2441C13.8861 27.227 13.8981 27.2119 13.9129 27.1999H13.9142Z"/>
</mask>
<path d="M16.3967 30.9113C16.5533 31.0552 16.7486 31.1502 16.9585 31.1847C17.1684 31.2192 17.3839 31.1916 17.5783 31.1054C17.7619 31.0293 17.9188 30.9005 18.0293 30.7354C18.1398 30.5702 18.199 30.376 18.1993 30.1773V29.4814C19.7286 29.593 21.1592 30.2788 22.204 31.4013C23.2488 32.5237 23.8305 33.9997 23.8324 35.5331V37.6997C23.8324 38.0445 23.9694 38.3751 24.2132 38.6189C24.457 38.8627 24.7876 38.9996 25.1324 38.9996H26.8657C27.2104 38.9996 27.5411 38.8627 27.7849 38.6189C28.0287 38.3751 28.1656 38.0445 28.1656 37.6997V35.5331C28.1676 33.9997 28.7493 32.5237 29.7941 31.4013C30.8388 30.2788 32.2694 29.593 33.7988 29.4814V30.1773C33.799 30.3759 33.858 30.57 33.9684 30.7352C34.0787 30.9003 34.2354 31.0292 34.4188 31.1054C34.6138 31.1917 34.8298 31.2191 35.0401 31.1842C35.2504 31.1493 35.446 31.0537 35.6027 30.9091L38.674 28.0328C38.7758 27.9398 38.8572 27.8267 38.9128 27.7006C38.9684 27.5744 38.9972 27.4381 38.9972 27.3002C38.9972 27.1624 38.9684 27.026 38.9128 26.8999C38.8572 26.7738 38.7758 26.6607 38.674 26.5677L35.5975 23.6883C35.4408 23.5445 35.2455 23.4495 35.0356 23.4149C34.8258 23.3804 34.6104 23.4078 34.4158 23.4937C34.233 23.5706 34.0769 23.6997 33.9671 23.8649C33.8574 24.0301 33.7988 24.224 33.7988 24.4223V25.1421C32.2807 25.206 30.7951 25.6021 29.4467 26.3025C28.0983 27.0029 26.9199 27.9905 25.9947 29.1958C25.0736 27.9882 23.8973 26.9988 22.5498 26.2981C21.2024 25.5974 19.7168 25.2027 18.1993 25.1421V24.4223C18.199 24.2237 18.14 24.0295 18.0296 23.8643C17.9193 23.6991 17.7626 23.5701 17.5792 23.4937C17.3842 23.4077 17.1683 23.3804 16.958 23.4153C16.7477 23.4502 16.5522 23.5456 16.3954 23.69L13.3231 26.5664C13.2213 26.6594 13.14 26.7725 13.0844 26.8986C13.0287 27.0247 13 27.1611 13 27.2989C13 27.4368 13.0287 27.5731 13.0844 27.6993C13.14 27.8254 13.2213 27.9385 13.3231 28.0315L16.3967 30.9113ZM34.2321 26.0001C34.347 26.0001 34.4572 25.9544 34.5385 25.8731C34.6198 25.7919 34.6654 25.6817 34.6654 25.5667V24.4228C34.6667 24.3928 34.6769 24.3639 34.6949 24.3399C34.7128 24.3158 34.7376 24.2978 34.7659 24.288C34.7975 24.2746 34.8313 24.2675 34.8656 24.2672C34.9192 24.2667 34.971 24.2867 35.0103 24.3231L38.0843 27.2012C38.0991 27.2132 38.1111 27.2283 38.1193 27.2454C38.1275 27.2626 38.1318 27.2814 38.1318 27.3005C38.1318 27.3195 38.1275 27.3383 38.1193 27.3555C38.1111 27.3726 38.0991 27.3877 38.0843 27.3997L35.0121 30.2748C34.9791 30.3043 34.9381 30.3236 34.8943 30.3301C34.8505 30.3367 34.8057 30.3302 34.7655 30.3116C34.7372 30.302 34.7125 30.284 34.6946 30.26C34.6767 30.236 34.6665 30.2072 34.6654 30.1773V29.0333C34.6654 28.9184 34.6198 28.8082 34.5385 28.7269C34.4572 28.6456 34.347 28.6 34.2321 28.6C32.394 28.6023 30.6319 29.3335 29.3322 30.6332C28.0325 31.9329 27.3013 33.695 27.299 35.5331V37.6997C27.299 37.8146 27.2533 37.9248 27.1721 38.0061C27.0908 38.0873 26.9806 38.133 26.8657 38.133H25.1324C25.0175 38.133 24.9072 38.0873 24.826 38.0061C24.7447 37.9248 24.6991 37.8146 24.6991 37.6997V35.5331C24.702 33.0057 25.7074 30.5827 27.4945 28.7955C29.2817 27.0084 31.7047 26.003 34.2321 26.0001ZM13.9142 27.1999L16.986 24.3244C17.0191 24.295 17.06 24.2758 17.1038 24.2693C17.1476 24.2628 17.1923 24.2691 17.2325 24.2876C17.2609 24.2973 17.2857 24.3154 17.3036 24.3394C17.3216 24.3635 17.3318 24.3924 17.3331 24.4223V25.5667C17.3331 25.6817 17.3787 25.7919 17.46 25.8731C17.5412 25.9544 17.6515 26.0001 17.7664 26.0001C19.2712 25.9984 20.7548 26.3547 22.0947 27.0394C23.4347 27.7241 24.5926 28.7177 25.473 29.9381C24.8877 30.8492 24.449 31.8466 24.173 32.8937C23.6492 31.6248 22.761 30.5396 21.6206 29.7753C20.4802 29.011 19.1388 28.602 17.766 28.6C17.651 28.6 17.5408 28.6456 17.4596 28.7269C17.3783 28.8082 17.3326 28.9184 17.3326 29.0333V30.1773C17.3315 30.2072 17.3212 30.2361 17.3033 30.2601C17.2853 30.2841 17.2605 30.302 17.2321 30.3116C17.1924 30.3301 17.1481 30.3366 17.1048 30.3305C17.0614 30.3243 17.0207 30.3057 16.9877 30.2769L13.9129 27.3984C13.8981 27.3864 13.8861 27.3713 13.8779 27.3542C13.8696 27.337 13.8654 27.3182 13.8654 27.2992C13.8654 27.2801 13.8696 27.2613 13.8779 27.2441C13.8861 27.227 13.8981 27.2119 13.9129 27.1999H13.9142Z" fill="#1798FF"/>
<path d="M16.3967 30.9113C16.5533 31.0552 16.7486 31.1502 16.9585 31.1847C17.1684 31.2192 17.3839 31.1916 17.5783 31.1054C17.7619 31.0293 17.9188 30.9005 18.0293 30.7354C18.1398 30.5702 18.199 30.376 18.1993 30.1773V29.4814C19.7286 29.593 21.1592 30.2788 22.204 31.4013C23.2488 32.5237 23.8305 33.9997 23.8324 35.5331V37.6997C23.8324 38.0445 23.9694 38.3751 24.2132 38.6189C24.457 38.8627 24.7876 38.9996 25.1324 38.9996H26.8657C27.2104 38.9996 27.5411 38.8627 27.7849 38.6189C28.0287 38.3751 28.1656 38.0445 28.1656 37.6997V35.5331C28.1676 33.9997 28.7493 32.5237 29.7941 31.4013C30.8388 30.2788 32.2694 29.593 33.7988 29.4814V30.1773C33.799 30.3759 33.858 30.57 33.9684 30.7352C34.0787 30.9003 34.2354 31.0292 34.4188 31.1054C34.6138 31.1917 34.8298 31.2191 35.0401 31.1842C35.2504 31.1493 35.446 31.0537 35.6027 30.9091L38.674 28.0328C38.7758 27.9398 38.8572 27.8267 38.9128 27.7006C38.9684 27.5744 38.9972 27.4381 38.9972 27.3002C38.9972 27.1624 38.9684 27.026 38.9128 26.8999C38.8572 26.7738 38.7758 26.6607 38.674 26.5677L35.5975 23.6883C35.4408 23.5445 35.2455 23.4495 35.0356 23.4149C34.8258 23.3804 34.6104 23.4078 34.4158 23.4937C34.233 23.5706 34.0769 23.6997 33.9671 23.8649C33.8574 24.0301 33.7988 24.224 33.7988 24.4223V25.1421C32.2807 25.206 30.7951 25.6021 29.4467 26.3025C28.0983 27.0029 26.9199 27.9905 25.9947 29.1958C25.0736 27.9882 23.8973 26.9988 22.5498 26.2981C21.2024 25.5974 19.7168 25.2027 18.1993 25.1421V24.4223C18.199 24.2237 18.14 24.0295 18.0296 23.8643C17.9193 23.6991 17.7626 23.5701 17.5792 23.4937C17.3842 23.4077 17.1683 23.3804 16.958 23.4153C16.7477 23.4502 16.5522 23.5456 16.3954 23.69L13.3231 26.5664C13.2213 26.6594 13.14 26.7725 13.0844 26.8986C13.0287 27.0247 13 27.1611 13 27.2989C13 27.4368 13.0287 27.5731 13.0844 27.6993C13.14 27.8254 13.2213 27.9385 13.3231 28.0315L16.3967 30.9113ZM34.2321 26.0001C34.347 26.0001 34.4572 25.9544 34.5385 25.8731C34.6198 25.7919 34.6654 25.6817 34.6654 25.5667V24.4228C34.6667 24.3928 34.6769 24.3639 34.6949 24.3399C34.7128 24.3158 34.7376 24.2978 34.7659 24.288C34.7975 24.2746 34.8313 24.2675 34.8656 24.2672C34.9192 24.2667 34.971 24.2867 35.0103 24.3231L38.0843 27.2012C38.0991 27.2132 38.1111 27.2283 38.1193 27.2454C38.1275 27.2626 38.1318 27.2814 38.1318 27.3005C38.1318 27.3195 38.1275 27.3383 38.1193 27.3555C38.1111 27.3726 38.0991 27.3877 38.0843 27.3997L35.0121 30.2748C34.9791 30.3043 34.9381 30.3236 34.8943 30.3301C34.8505 30.3367 34.8057 30.3302 34.7655 30.3116C34.7372 30.302 34.7125 30.284 34.6946 30.26C34.6767 30.236 34.6665 30.2072 34.6654 30.1773V29.0333C34.6654 28.9184 34.6198 28.8082 34.5385 28.7269C34.4572 28.6456 34.347 28.6 34.2321 28.6C32.394 28.6023 30.6319 29.3335 29.3322 30.6332C28.0325 31.9329 27.3013 33.695 27.299 35.5331V37.6997C27.299 37.8146 27.2533 37.9248 27.1721 38.0061C27.0908 38.0873 26.9806 38.133 26.8657 38.133H25.1324C25.0175 38.133 24.9072 38.0873 24.826 38.0061C24.7447 37.9248 24.6991 37.8146 24.6991 37.6997V35.5331C24.702 33.0057 25.7074 30.5827 27.4945 28.7955C29.2817 27.0084 31.7047 26.003 34.2321 26.0001ZM13.9142 27.1999L16.986 24.3244C17.0191 24.295 17.06 24.2758 17.1038 24.2693C17.1476 24.2628 17.1923 24.2691 17.2325 24.2876C17.2609 24.2973 17.2857 24.3154 17.3036 24.3394C17.3216 24.3635 17.3318 24.3924 17.3331 24.4223V25.5667C17.3331 25.6817 17.3787 25.7919 17.46 25.8731C17.5412 25.9544 17.6515 26.0001 17.7664 26.0001C19.2712 25.9984 20.7548 26.3547 22.0947 27.0394C23.4347 27.7241 24.5926 28.7177 25.473 29.9381C24.8877 30.8492 24.449 31.8466 24.173 32.8937C23.6492 31.6248 22.761 30.5396 21.6206 29.7753C20.4802 29.011 19.1388 28.602 17.766 28.6C17.651 28.6 17.5408 28.6456 17.4596 28.7269C17.3783 28.8082 17.3326 28.9184 17.3326 29.0333V30.1773C17.3315 30.2072 17.3212 30.2361 17.3033 30.2601C17.2853 30.2841 17.2605 30.302 17.2321 30.3116C17.1924 30.3301 17.1481 30.3366 17.1048 30.3305C17.0614 30.3243 17.0207 30.3057 16.9877 30.2769L13.9129 27.3984C13.8981 27.3864 13.8861 27.3713 13.8779 27.3542C13.8696 27.337 13.8654 27.3182 13.8654 27.2992C13.8654 27.2801 13.8696 27.2613 13.8779 27.2441C13.8861 27.227 13.8981 27.2119 13.9129 27.1999H13.9142Z" stroke="#1798FF" stroke-width="0.6" mask="url(#path-2-outside-1_24841_11913)"/>
<path d="M23.4551 13.3564C24.6701 12.8532 26.007 12.721 27.2969 12.9775C28.5868 13.2341 29.7722 13.8679 30.7021 14.7979C31.6319 15.7277 32.2649 16.9125 32.5215 18.2021C32.7781 19.4921 32.6469 20.8298 32.1436 22.0449C31.6402 23.2599 30.7878 24.2987 29.6943 25.0293C28.6009 25.7599 27.3151 26.1494 26 26.1494C24.2371 26.1474 22.5464 25.4467 21.2998 24.2002C20.0532 22.9536 19.3516 21.263 19.3496 19.5C19.3496 18.1849 19.7401 16.8992 20.4707 15.8057C21.2014 14.7121 22.24 13.8598 23.4551 13.3564ZM26 14.0166C24.5462 14.0183 23.153 14.597 22.125 15.625C21.097 16.653 20.5183 18.0462 20.5166 19.5C20.5166 20.5843 20.8381 21.6443 21.4404 22.5459C22.0429 23.4476 22.8995 24.1504 23.9014 24.5654C24.9032 24.9804 26.0058 25.0894 27.0693 24.8779C28.133 24.6664 29.1101 24.1438 29.877 23.377C30.6438 22.6101 31.1664 21.633 31.3779 20.5693C31.5894 19.5058 31.4804 18.4032 31.0654 17.4014C30.6504 16.3995 29.9476 15.5429 29.0459 14.9404C28.1443 14.3381 27.0843 14.0166 26 14.0166Z" fill="#1798FF" stroke="#1798FF" stroke-width="0.3"/>
<path d="M24.6797 15.3057C25.2345 15.0523 25.8503 14.9641 26.4541 15.0508C27.058 15.1375 27.6247 15.3955 28.0859 15.7949C28.5471 16.1944 28.8836 16.7183 29.0557 17.3037C29.2277 17.889 29.2283 18.5113 29.0566 19.0967C28.885 19.6822 28.5488 20.2067 28.0879 20.6064C27.6574 20.9798 27.1343 21.2277 26.5752 21.3301C26.5553 21.4491 26.5005 21.5601 26.4141 21.6465C26.3047 21.7558 26.1566 21.8174 26.002 21.8174C25.8473 21.8174 25.6992 21.7558 25.5898 21.6465C25.4805 21.5372 25.419 21.389 25.4189 21.2344V20.8008C25.4189 20.6461 25.4805 20.4981 25.5898 20.3887C25.6992 20.2793 25.8473 20.2178 26.002 20.2178C26.4007 20.2178 26.7905 20.0994 27.1221 19.8779C27.4537 19.6563 27.7126 19.3411 27.8652 18.9727C28.0179 18.6042 28.0573 18.1988 27.9795 17.8076C27.9017 17.4165 27.7097 17.0574 27.4277 16.7754C27.1457 16.4934 26.7867 16.3005 26.3955 16.2227C26.0044 16.1449 25.5989 16.1853 25.2305 16.3379C24.8621 16.4905 24.5468 16.7486 24.3252 17.0801C24.1036 17.4117 23.9854 17.8023 23.9854 18.2012C23.9853 18.3558 23.9238 18.504 23.8145 18.6133C23.7051 18.7226 23.5569 18.7841 23.4023 18.7842C23.2476 18.7842 23.0987 18.7227 22.9893 18.6133C22.8801 18.504 22.8184 18.3557 22.8184 18.2012C22.8184 17.5911 22.9944 16.9937 23.3242 16.4805C23.6541 15.9672 24.1247 15.5592 24.6797 15.3057Z" fill="#1798FF" stroke="#1798FF" stroke-width="0.3"/>
<path d="M25.9961 22.3828C26.1506 22.3829 26.2989 22.4445 26.4082 22.5537C26.5176 22.6631 26.5791 22.8121 26.5791 22.9668V23.3994C26.5791 23.5541 26.5176 23.7031 26.4082 23.8125C26.2989 23.9217 26.1506 23.9833 25.9961 23.9834C25.8414 23.9834 25.6924 23.9219 25.583 23.8125C25.4737 23.7031 25.4121 23.5541 25.4121 23.3994V22.9668C25.4121 22.8121 25.4736 22.6631 25.583 22.5537C25.6924 22.4443 25.8414 22.3828 25.9961 22.3828Z" fill="#1798FF" stroke="#1798FF" stroke-width="0.3"/>
</g>
<defs>
<clipPath id="clip0_24841_11913">
<rect width="28" height="28" fill="white" transform="translate(12 12)"/>
</clipPath>
</defs>
</svg>
