<svg width="173" height="24" viewBox="0 0 173 24" fill="none" xmlns="http://www.w3.org/2000/svg">
<path d="M8 15.9387L11.4762 15.066L12.9286 19.5L8 15.9387ZM16 10.2075H9.88095L8 4.5L6.11905 10.2075H0L4.95238 13.7453L3.07143 19.4528L8.02381 15.9151L11.0714 13.7453L16 10.2075Z" fill="white"/>
<path d="M22.5238 7.18247V16H21.0159V7.18247H22.5238ZM25.2914 7.18247V8.39367H18.2725V7.18247H25.2914ZM27.3383 10.6949V16H25.8789V9.44741H27.2717L27.3383 10.6949ZM29.3429 9.40502L29.3308 10.7616C29.242 10.7454 29.1451 10.7333 29.0401 10.7252C28.9392 10.7172 28.8382 10.7131 28.7373 10.7131C28.487 10.7131 28.2669 10.7494 28.0772 10.8221C27.8874 10.8908 27.728 10.9917 27.5988 11.1249C27.4736 11.2541 27.3767 11.4116 27.3081 11.5973C27.2394 11.783 27.1991 11.9909 27.1869 12.2211L26.8539 12.2453C26.8539 11.8335 26.8942 11.4519 26.975 11.1007C27.0557 10.7494 27.1769 10.4406 27.3383 10.1741C27.5039 9.90767 27.7098 9.69974 27.9561 9.55036C28.2064 9.40098 28.495 9.32629 28.8221 9.32629C28.9109 9.32629 29.0058 9.33436 29.1067 9.35051C29.2117 9.36666 29.2904 9.38483 29.3429 9.40502ZM34.1998 14.4557V9.44741H35.6653V16H34.2846L34.1998 14.4557ZM34.4057 13.0931L34.8962 13.081C34.8962 13.5211 34.8478 13.9268 34.7509 14.2983C34.654 14.6657 34.5046 14.9866 34.3027 15.2612C34.1009 15.5317 33.8425 15.7436 33.5276 15.897C33.2127 16.0464 32.8352 16.1211 32.3951 16.1211C32.0762 16.1211 31.7835 16.0747 31.517 15.9818C31.2505 15.889 31.0204 15.7456 30.8266 15.5519C30.6369 15.3581 30.4895 15.1057 30.3845 14.7949C30.2795 14.484 30.2271 14.1125 30.2271 13.6806V9.44741H31.6866V13.6927C31.6866 13.9309 31.7148 14.1307 31.7713 14.2922C31.8279 14.4497 31.9046 14.5768 32.0015 14.6737C32.0984 14.7706 32.2114 14.8393 32.3406 14.8796C32.4698 14.92 32.6071 14.9402 32.7524 14.9402C33.1683 14.9402 33.4953 14.8595 33.7335 14.698C33.9757 14.5324 34.1473 14.3104 34.2482 14.0318C34.3532 13.7532 34.4057 13.4403 34.4057 13.0931ZM40.8372 14.2256C40.8372 14.0802 40.8008 13.949 40.7282 13.832C40.6555 13.7108 40.5162 13.6018 40.3103 13.5049C40.1084 13.408 39.8097 13.3192 39.414 13.2385C39.0668 13.1618 38.7479 13.0709 38.4572 12.9659C38.1705 12.8569 37.9242 12.7257 37.7183 12.5723C37.5124 12.4189 37.353 12.2372 37.2399 12.0273C37.1269 11.8173 37.0703 11.5751 37.0703 11.3005C37.0703 11.0341 37.1289 10.7817 37.246 10.5435C37.363 10.3053 37.5306 10.0954 37.7486 9.91372C37.9666 9.73204 38.2311 9.58872 38.5419 9.48375C38.8569 9.37877 39.2081 9.32629 39.5957 9.32629C40.1448 9.32629 40.6151 9.41915 41.0067 9.60487C41.4024 9.78655 41.7052 10.0348 41.9151 10.3498C42.1251 10.6606 42.2301 11.0119 42.2301 11.4035H40.7706C40.7706 11.2299 40.7261 11.0684 40.6373 10.919C40.5525 10.7656 40.4233 10.6425 40.2497 10.5496C40.0761 10.4527 39.8581 10.4043 39.5957 10.4043C39.3454 10.4043 39.1375 10.4446 38.9719 10.5254C38.8104 10.6021 38.6893 10.703 38.6086 10.8282C38.5319 10.9533 38.4935 11.0906 38.4935 11.24C38.4935 11.349 38.5137 11.4479 38.5541 11.5367C38.5985 11.6215 38.6711 11.7002 38.7721 11.7729C38.873 11.8415 39.0103 11.9061 39.1839 11.9667C39.3615 12.0273 39.5836 12.0858 39.85 12.1423C40.3507 12.2473 40.7806 12.3826 41.14 12.5481C41.5033 12.7096 41.7819 12.9195 41.9757 13.1779C42.1695 13.4323 42.2664 13.7552 42.2664 14.1469C42.2664 14.4376 42.2038 14.704 42.0787 14.9463C41.9575 15.1845 41.7799 15.3924 41.5457 15.57C41.3116 15.7436 41.031 15.8789 40.7039 15.9758C40.381 16.0727 40.0176 16.1211 39.6139 16.1211C39.0204 16.1211 38.5177 16.0161 38.1059 15.8062C37.6941 15.5922 37.3812 15.3197 37.1672 14.9886C36.9573 14.6535 36.8523 14.3063 36.8523 13.947H38.2634C38.2795 14.2175 38.3542 14.4335 38.4874 14.595C38.6247 14.7525 38.7943 14.8675 38.9961 14.9402C39.2021 15.0088 39.414 15.0432 39.632 15.0432C39.8945 15.0432 40.1145 15.0088 40.2921 14.9402C40.4698 14.8675 40.605 14.7706 40.6979 14.6495C40.7907 14.5244 40.8372 14.383 40.8372 14.2256ZM46.548 9.44741V10.5133H42.8538V9.44741H46.548ZM43.9197 7.84257H45.3792V14.1893C45.3792 14.3911 45.4074 14.5466 45.464 14.6556C45.5245 14.7605 45.6073 14.8312 45.7122 14.8675C45.8172 14.9039 45.9404 14.922 46.0817 14.922C46.1826 14.922 46.2795 14.916 46.3724 14.9039C46.4652 14.8918 46.5399 14.8796 46.5964 14.8675L46.6025 15.9818C46.4814 16.0182 46.3401 16.0505 46.1786 16.0787C46.0211 16.107 45.8394 16.1211 45.6335 16.1211C45.2984 16.1211 45.0017 16.0626 44.7433 15.9455C44.4849 15.8244 44.283 15.6286 44.1377 15.3581C43.9923 15.0876 43.9197 14.7282 43.9197 14.2801V7.84257ZM49.1399 10.7071V18.5193H47.6804V9.44741H49.0249L49.1399 10.7071ZM53.4094 12.6631V12.7903C53.4094 13.2667 53.3529 13.7088 53.2399 14.1166C53.1308 14.5203 52.9673 14.8736 52.7493 15.1764C52.5353 15.4751 52.2709 15.7073 51.956 15.8728C51.6411 16.0384 51.2777 16.1211 50.8659 16.1211C50.4581 16.1211 50.1008 16.0464 49.794 15.897C49.4912 15.7436 49.2348 15.5276 49.0249 15.2491C48.8149 14.9705 48.6454 14.6435 48.5162 14.268C48.391 13.8885 48.3022 13.4726 48.2497 13.0204V12.5299C48.3022 12.0495 48.391 11.6134 48.5162 11.2218C48.6454 10.8302 48.8149 10.4931 49.0249 10.2105C49.2348 9.92785 49.4912 9.70984 49.794 9.55642C50.0968 9.403 50.4501 9.32629 50.8538 9.32629C51.2656 9.32629 51.631 9.40704 51.9499 9.56853C52.2689 9.72599 52.5374 9.95208 52.7554 10.2468C52.9734 10.5375 53.1369 10.8887 53.2459 11.3005C53.3549 11.7083 53.4094 12.1625 53.4094 12.6631ZM51.9499 12.7903V12.6631C51.9499 12.3603 51.9217 12.0798 51.8651 11.8214C51.8086 11.5589 51.7198 11.3288 51.5987 11.131C51.4776 10.9331 51.3221 10.7797 51.1324 10.6707C50.9467 10.5577 50.7226 10.5012 50.4602 10.5012C50.2018 10.5012 49.9797 10.5456 49.794 10.6344C49.6083 10.7192 49.4528 10.8383 49.3277 10.9917C49.2025 11.1451 49.1056 11.3248 49.037 11.5307C48.9684 11.7325 48.9199 11.9526 48.8916 12.1908V13.3656C48.9401 13.6563 49.0229 13.9228 49.1399 14.165C49.257 14.4073 49.4226 14.6011 49.6365 14.7464C49.8546 14.8877 50.1331 14.9584 50.4723 14.9584C50.7347 14.9584 50.9588 14.9018 51.1445 14.7888C51.3302 14.6758 51.4816 14.5203 51.5987 14.3225C51.7198 14.1206 51.8086 13.8885 51.8651 13.626C51.9217 13.3636 51.9499 13.085 51.9499 12.7903ZM56.2134 9.44741V16H54.7478V9.44741H56.2134ZM54.6509 7.72751C54.6509 7.50545 54.7236 7.32175 54.8689 7.17641C55.0183 7.02703 55.2242 6.95234 55.4866 6.95234C55.745 6.95234 55.9489 7.02703 56.0983 7.17641C56.2477 7.32175 56.3224 7.50545 56.3224 7.72751C56.3224 7.94552 56.2477 8.1272 56.0983 8.27255C55.9489 8.41789 55.745 8.49056 55.4866 8.49056C55.2242 8.49056 55.0183 8.41789 54.8689 8.27255C54.7236 8.1272 54.6509 7.94552 54.6509 7.72751ZM59.3746 6.69799V16H57.909V6.69799H59.3746ZM60.6948 12.7964V12.6571C60.6948 12.1847 60.7634 11.7467 60.9007 11.3429C61.038 10.9352 61.2358 10.5819 61.4942 10.2831C61.7566 9.98034 62.0756 9.74617 62.451 9.58064C62.8305 9.41107 63.2585 9.32629 63.7349 9.32629C64.2153 9.32629 64.6433 9.41107 65.0188 9.58064C65.3983 9.74617 65.7193 9.98034 65.9817 10.2831C66.2441 10.5819 66.444 10.9352 66.5812 11.3429C66.7185 11.7467 66.7871 12.1847 66.7871 12.6571V12.7964C66.7871 13.2687 66.7185 13.7068 66.5812 14.1105C66.444 14.5143 66.2441 14.8675 65.9817 15.1703C65.7193 15.4691 65.4003 15.7033 65.0248 15.8728C64.6494 16.0384 64.2234 16.1211 63.747 16.1211C63.2666 16.1211 62.8366 16.0384 62.4571 15.8728C62.0816 15.7033 61.7627 15.4691 61.5002 15.1703C61.2378 14.8675 61.038 14.5143 60.9007 14.1105C60.7634 13.7068 60.6948 13.2687 60.6948 12.7964ZM62.1543 12.6571V12.7964C62.1543 13.0911 62.1846 13.3697 62.2451 13.6321C62.3057 13.8945 62.4006 14.1247 62.5298 14.3225C62.659 14.5203 62.8245 14.6758 63.0264 14.7888C63.2282 14.9018 63.4684 14.9584 63.747 14.9584C64.0175 14.9584 64.2517 14.9018 64.4495 14.7888C64.6514 14.6758 64.8169 14.5203 64.9461 14.3225C65.0753 14.1247 65.1702 13.8945 65.2307 13.6321C65.2953 13.3697 65.3276 13.0911 65.3276 12.7964V12.6571C65.3276 12.3664 65.2953 12.0919 65.2307 11.8335C65.1702 11.571 65.0733 11.3389 64.94 11.137C64.8109 10.9352 64.6453 10.7777 64.4435 10.6647C64.2456 10.5476 64.0094 10.489 63.7349 10.489C63.4604 10.489 63.2222 10.5476 63.0203 10.6647C62.8225 10.7777 62.659 10.9352 62.5298 11.137C62.4006 11.3389 62.3057 11.571 62.2451 11.8335C62.1846 12.0919 62.1543 12.3664 62.1543 12.6571ZM71.0142 9.44741V10.5133H67.3201V9.44741H71.0142ZM68.3859 7.84257H69.8454V14.1893C69.8454 14.3911 69.8737 14.5466 69.9302 14.6556C69.9907 14.7605 70.0735 14.8312 70.1785 14.8675C70.2835 14.9039 70.4066 14.922 70.5479 14.922C70.6488 14.922 70.7457 14.916 70.8386 14.9039C70.9314 14.8918 71.0061 14.8796 71.0627 14.8675L71.0687 15.9818C70.9476 16.0182 70.8063 16.0505 70.6448 16.0787C70.4873 16.107 70.3057 16.1211 70.0998 16.1211C69.7647 16.1211 69.4679 16.0626 69.2095 15.9455C68.9511 15.8244 68.7493 15.6286 68.6039 15.3581C68.4586 15.0876 68.3859 14.7282 68.3859 14.2801V7.84257Z" fill="white"/>
<g clip-path="url(#clip0_24841_4822)">
<path d="M95.7259 3.13867H78.0078V20.8568H95.7259V3.13867Z" fill="#57D970"/>
<path d="M114.921 3.13867H97.2031V20.8568H114.921V3.13867Z" fill="#57D970"/>
<path d="M134.117 3.13867H116.398V20.8568H134.117V3.13867Z" fill="#57D970"/>
<path d="M153.312 3.13867H135.594V20.8568H153.312V3.13867Z" fill="#57D970"/>
<path d="M172.499 3.13867H154.781V20.8568H172.499V3.13867Z" fill="#57D970"/>
<path d="M86.8654 15.0802L89.56 14.3974L90.6859 17.8672L86.8654 15.0802ZM93.0667 10.5953H88.3235L86.8654 6.12891L85.4074 10.5953H80.6641L84.503 13.3638L83.0449 17.8302L86.8839 15.0618L89.2463 13.3638L93.0667 10.5953Z" fill="white"/>
<path d="M106.061 15.0802L108.755 14.3974L109.881 17.8672L106.061 15.0802ZM112.262 10.5953H107.519L106.061 6.12891L104.603 10.5953H99.8594L103.698 13.3638L102.24 17.8302L106.079 15.0618L108.442 13.3638L112.262 10.5953Z" fill="white"/>
<path d="M125.256 15.0802L127.951 14.3974L129.077 17.8672L125.256 15.0802ZM131.457 10.5953H126.714L125.256 6.12891L123.798 10.5953H119.055L122.894 13.3638L121.436 17.8302L125.274 15.0618L127.637 13.3638L131.457 10.5953Z" fill="white"/>
<path d="M144.451 15.0802L147.146 14.3974L148.272 17.8672L144.451 15.0802ZM150.653 10.5953H145.909L144.451 6.12891L142.993 10.5953H138.25L142.089 13.3638L140.631 17.8302L144.47 15.0618L146.832 13.3638L150.653 10.5953Z" fill="white"/>
<path d="M163.639 15.0802L166.333 14.3974L167.459 17.8672L163.639 15.0802ZM169.84 10.5953H165.097L163.639 6.12891L162.181 10.5953H157.438L161.276 13.3638L159.818 17.8302L163.657 15.0618L166.02 13.3638L169.84 10.5953Z" fill="white"/>
</g>
<defs>
<clipPath id="clip0_24841_4822">
<rect width="94.4966" height="17.7181" fill="white" transform="translate(78 3.14062)"/>
</clipPath>
</defs>
</svg>
