<svg width="60" height="60" viewBox="0 0 60 60" fill="none" xmlns="http://www.w3.org/2000/svg">
<path d="M29.705 60C46.1106 60 59.41 46.5685 59.41 30C59.41 13.4315 46.1106 0 29.705 0C13.2994 0 0 13.4315 0 30C0 46.5685 13.2994 60 29.705 60Z" fill="url(#paint0_linear_25053_7872)"/>
<path fill-rule="evenodd" clip-rule="evenodd" d="M32.5595 18.7204V15.9723C33.8634 15.9723 38.2851 15.8578 39.3055 16.0868C40.6094 16.3731 41.7998 17.1173 42.4801 18.0906C42.7635 18.4914 42.9336 18.7204 43.1604 19.2357C44.4075 21.812 43.2737 25.1326 40.8361 26.4494C39.8157 27.0219 39.2488 27.0792 38.115 27.1937V32.8616C39.9291 32.9761 42.0266 32.2891 43.6139 31.4303C44.0107 31.2013 44.2941 30.9723 44.6343 30.7433C46.1649 29.6555 47.8089 27.6517 48.4891 25.8196C49.963 21.8692 49.3961 18.0906 47.0152 14.77C46.6751 14.2547 46.2216 13.854 45.8247 13.396C45.0878 12.6517 44.1808 12.0792 43.217 11.5639C40.2125 9.96084 37.4915 10.3044 33.9201 10.3044C31.5958 10.3044 29.2149 10.2471 26.8906 10.3044V24.4456" fill="white"/>
<path fill-rule="evenodd" clip-rule="evenodd" d="M26.9385 41.2749V44.023C25.8614 44.023 24.841 44.023 23.7639 44.023C20.9861 44.023 19.3988 44.252 17.4147 42.2482C16.2809 41.1604 15.8274 39.6718 15.8841 38.0115C15.8841 36.981 16.5077 35.4924 17.1313 34.8054C17.6982 34.1756 17.8682 34.0039 18.6052 33.5459C19.2855 33.0878 20.3626 32.8016 21.4396 32.8016V27.1336C19.909 27.0191 17.4147 27.7062 16.1109 28.4504C16.1109 28.4504 16.1109 28.4504 16.0542 28.4504L15.0905 29.023C11.9726 31.1413 10.3286 34.5764 10.2152 38.2978C10.1585 40.1871 10.6687 41.9046 11.4624 43.5649C11.6324 43.9657 11.9159 44.3665 12.1426 44.71C14.3535 47.9161 17.7549 49.6336 21.7231 49.6336H28.9226C30.1131 49.6336 31.4169 49.6909 32.6074 49.6336V35.4924" fill="white"/>
<path d="M32.5595 34.6381L26.8906 40.306V25.3633L32.5595 19.6953V34.6381Z" fill="white"/>
<defs>
<linearGradient id="paint0_linear_25053_7872" x1="0.0172901" y1="29.9741" x2="59.4398" y2="29.9741" gradientUnits="userSpaceOnUse">
<stop stop-color="#1798FF"/>
<stop offset="1" stop-color="#264BD1"/>
</linearGradient>
</defs>
</svg>
