<svg width="62" height="62" viewBox="0 0 62 62" fill="none" xmlns="http://www.w3.org/2000/svg">
<rect width="62" height="62" rx="20" fill="white"/>
<path fill-rule="evenodd" clip-rule="evenodd" d="M21.6545 11.9238H34.4106L45.2218 23.1927V45.1106C45.2218 47.8563 43.0005 50.0777 40.2643 50.0777H21.6545C18.9088 50.0777 16.6875 47.8563 16.6875 45.1106V16.8909C16.6875 14.1452 18.9088 11.9238 21.6545 11.9238Z" fill="#E5252A"/>
<path opacity="0.302" fill-rule="evenodd" clip-rule="evenodd" d="M34.3984 11.9238V23.1069H45.2192L34.3984 11.9238Z" fill="white"/>
<path d="M22.2109 40.391V33.4219H25.1759C25.91 33.4219 26.4916 33.6221 26.9301 34.032C27.3687 34.4324 27.588 34.9759 27.588 35.6528C27.588 36.3296 27.3687 36.8731 26.9301 37.2735C26.4916 37.6834 25.91 37.8837 25.1759 37.8837H23.9937V40.391H22.2109ZM23.9937 36.3678H24.9757C25.2426 36.3678 25.4524 36.3106 25.5954 36.1772C25.7384 36.0532 25.8147 35.8816 25.8147 35.6528C25.8147 35.424 25.7385 35.2524 25.5954 35.1285C25.4524 34.995 25.2427 34.9378 24.9757 34.9378H23.9937V36.3678ZM28.322 40.391V33.4219H30.7913C31.2775 33.4219 31.7351 33.4886 32.1641 33.6316C32.5931 33.7746 32.984 33.9749 33.3272 34.2513C33.6704 34.5183 33.9469 34.8805 34.1471 35.3382C34.3378 35.7958 34.4427 36.3201 34.4427 36.9112C34.4427 37.4928 34.3378 38.0171 34.1471 38.4747C33.9469 38.9324 33.6704 39.2946 33.3272 39.5616C32.984 39.838 32.5931 40.0382 32.1641 40.1813C31.7351 40.3242 31.2775 40.391 30.7913 40.391H28.322ZM30.0667 38.8752H30.5815C30.858 38.8752 31.1154 38.8466 31.3537 38.7798C31.5825 38.7131 31.8018 38.6082 32.0116 38.4652C32.2118 38.3222 32.3739 38.122 32.4882 37.8551C32.6026 37.5881 32.6599 37.2735 32.6599 36.9112C32.6599 36.5394 32.6026 36.2248 32.4882 35.9579C32.3739 35.6909 32.2118 35.4907 32.0116 35.3477C31.8018 35.2047 31.5826 35.0998 31.3537 35.0331C31.1154 34.9664 30.858 34.9378 30.5815 34.9378H30.0667V38.8752ZM35.3388 40.391V33.4219H40.2964V34.9378H37.1216V36.0532H39.6576V37.5595H37.1216V40.391H35.3388Z" fill="white"/>
</svg>
