<svg width="140" height="51" viewBox="0 0 140 51" fill="none" xmlns="http://www.w3.org/2000/svg">
<path fill-rule="evenodd" clip-rule="evenodd" d="M30.0317 33.5774V47.3564H33.6484C33.6484 47.3564 35.6487 47.3345 36.8081 46.7998C37.9674 46.265 39.7806 45.0327 39.7806 40.8205C39.7806 36.3969 38.7234 35.0211 36.5237 34.0149C35.3935 33.5045 33.3932 33.5652 33.3932 33.5652L30.0317 33.5774ZM26.6289 30.7773H35.3473C35.3473 30.7773 37.9772 30.9766 39.7223 32.2357C41.4674 33.4947 43.1956 35.8427 43.1956 40.5167C43.1956 45.1907 41.1734 47.8084 39.2581 48.9751C37.3428 50.1418 35.1577 50.171 34.2268 50.171H26.6289V30.7773Z" fill="#231F20"/>
<path d="M45.3828 30.7789H59.3269V33.7564H48.7491V38.7731H58.5394V41.5391H48.7491V47.1951H59.5043V50.1604H45.3828V30.7789ZM62.4064 30.7789H67.022L72.2672 46.0211L77.3835 30.7789H81.9505V50.1604H78.7616V35.1321L73.5165 50.1604H70.8526L65.5345 35.1685V50.1604H62.4064V30.7789ZM95.0487 42.4506L92.0616 33.9921L89.0939 42.4506H95.0487ZM90.3602 30.7838H93.9064L101.354 50.1604H97.7685L95.9456 45.0027H88.197L86.3863 50.1604H82.8814L90.3602 30.7838ZM98.8623 30.7792H114.576V33.7566H108.402V50.1606H104.965V33.7564H98.8623V30.7792ZM116.778 30.7792H120.217V50.1606H116.778V30.7792ZM137.625 35.5893C136.834 34.5685 135.762 33.8013 134.54 33.3823C132.681 32.799 130.408 33.008 128.875 34.4566C127.341 35.9053 126.743 38.0612 126.675 39.9352C126.607 41.8092 127.03 44.6797 128.552 46.1988C129.149 46.815 129.885 47.2802 130.698 47.5562C131.511 47.8321 132.378 47.9109 133.228 47.7859C134.574 47.5985 135.839 47.031 136.874 46.1502C137.213 45.8628 137.517 45.5365 137.78 45.1779L140.002 46.8794C140.002 46.8794 139.54 47.6571 138.252 48.7169C137.187 49.5943 135.051 50.5957 132.635 50.5908C130.049 50.5908 127.915 49.8058 126.247 48.1481C124.58 46.4904 123.182 43.7949 123.311 40.1904C123.44 36.5858 124.872 34.1139 126.32 32.7309C127.769 31.3479 129.842 30.3733 132.53 30.3587C135.126 30.3417 136.808 31.1049 138.026 31.9604C138.792 32.4789 139.452 33.1389 139.97 33.9049L137.625 35.5893Z" fill="#231F20"/>
<path d="M0 0H6.74479V50.5877H0V0Z" fill="#FDBB30"/>
</svg>
