<svg width="150" height="32" viewBox="0 0 150 32" fill="none" xmlns="http://www.w3.org/2000/svg">
<path d="M55.7794 6.12151L53.4531 8.4209L59.586 14.4829L61.9123 12.1835L55.7794 6.12151Z" fill="#0066B5"/>
<path d="M49.5273 12.3007L63.9752 26.6043H68.6224L51.851 10.0039L49.5273 12.3007Z" fill="#0066B5"/>
<path d="M49.0508 19.6005L56.1367 26.6045H60.7839L51.3744 17.3037L49.0508 19.6005Z" fill="#0066B5"/>
<path d="M4.97266 12.46H8.90671C9.89597 12.46 10.6322 12.7101 11.1153 13.2104C11.5064 13.597 11.6904 14.0745 11.6904 14.643V14.6658C11.6904 14.9159 11.6674 15.1206 11.5984 15.3025C11.5294 15.4844 11.4604 15.6436 11.3684 15.8028C11.2763 15.962 11.1613 16.0757 11.0233 16.1894C10.8852 16.3031 10.7472 16.394 10.5862 16.485C11.0693 16.6669 11.4604 16.9171 11.7365 17.2354C12.0125 17.5538 12.1506 17.9859 12.1506 18.5544V18.5771C12.1506 18.9637 12.0816 19.3048 11.9205 19.5777C11.7595 19.8733 11.5524 20.1007 11.2763 20.3054C11.0003 20.4873 10.6552 20.6465 10.2641 20.7374C9.87296 20.8284 9.43585 20.8739 8.95272 20.8739H4.97266V12.46ZM8.5156 15.8483C8.92971 15.8483 9.2518 15.78 9.50486 15.6436C9.75793 15.5072 9.87296 15.2798 9.87296 14.9614V14.9387C9.87296 14.6658 9.75793 14.4384 9.55088 14.3019C9.34382 14.1427 9.04474 14.0745 8.63063 14.0745H6.79014V15.8483H8.5156ZM9.02174 19.2366C9.43585 19.2366 9.75793 19.1683 9.98799 19.0092C10.2181 18.85 10.3331 18.6226 10.3331 18.327V18.3042C10.3331 18.0313 10.2181 17.8039 10.011 17.6447C9.78094 17.4856 9.43585 17.3946 8.95272 17.3946H6.79014V19.2366H9.02174Z" fill="black"/>
<path d="M17.1185 20.9878C15.9682 20.9878 15.0709 20.6695 14.4268 20.0555C13.7596 19.4415 13.4375 18.5092 13.4375 17.2584V12.4602H15.301V17.213C15.301 17.8952 15.462 18.4182 15.7841 18.7593C16.1062 19.1004 16.5663 19.2823 17.1415 19.2823C17.7166 19.2823 18.1768 19.1231 18.4988 18.782C18.8209 18.4409 18.982 17.9407 18.982 17.2584V12.4375H20.8455V17.1675C20.8455 17.8042 20.7535 18.3727 20.5924 18.8275C20.4084 19.3051 20.1783 19.6917 19.8562 20.01C19.5341 20.3284 19.143 20.5558 18.6829 20.715C18.1998 20.9196 17.6936 20.9878 17.1185 20.9878Z" fill="black"/>
<path d="M22.4062 12.4609H26.2943C27.3756 12.4609 28.2038 12.7566 28.7789 13.3023C29.2621 13.7799 29.5151 14.4166 29.5151 15.2125V15.2353C29.5151 15.9175 29.3541 16.4632 29.009 16.8953C28.6639 17.3274 28.2268 17.6457 27.6977 17.8276L29.7682 20.8294H27.5826L25.7651 18.146H25.7421H24.2928V20.8294H22.4293V12.4609H22.4062ZM26.1793 16.5314C26.6394 16.5314 26.9845 16.4177 27.2375 16.2131C27.4906 15.9857 27.6056 15.7128 27.6056 15.349V15.3262C27.6056 14.9169 27.4676 14.6213 27.2145 14.4166C26.9615 14.2119 26.5934 14.121 26.1332 14.121H24.2697V16.5314H26.1793Z" fill="black"/>
<path d="M31.1953 12.4609H32.9208L36.9008 17.6457V12.4609H38.7413V20.8521H37.1539L33.0358 15.5309V20.8521H31.1953V12.4609Z" fill="black"/>
<path d="M43.8034 20.9883C43.1592 20.9883 42.515 20.8746 41.8939 20.6472C41.2727 20.4198 40.6975 20.0787 40.1914 19.6239L41.2957 18.3049C41.6868 18.6233 42.0779 18.8734 42.492 19.0553C42.9061 19.2373 43.3432 19.3282 43.8264 19.3282C44.2175 19.3282 44.5166 19.26 44.7236 19.1236C44.9307 18.9871 45.0457 18.7825 45.0457 18.5323V18.5096C45.0457 18.3959 45.0227 18.2822 44.9767 18.1912C44.9307 18.1003 44.8386 18.0093 44.7236 17.9411C44.5856 17.8501 44.4245 17.7819 44.1945 17.6909C43.9644 17.6 43.6883 17.5317 43.3202 17.4408C42.8831 17.3271 42.492 17.2134 42.1469 17.0997C41.8018 16.9632 41.5028 16.8041 41.2497 16.6221C40.9966 16.4402 40.8126 16.1901 40.6745 15.9172C40.5365 15.6443 40.4675 15.2805 40.4675 14.8711C40.4675 14.4845 40.5365 14.1434 40.6745 13.8251C40.8126 13.5067 41.0196 13.2566 41.2727 13.0292C41.5258 12.8018 41.8478 12.6426 42.2159 12.5061C42.584 12.3924 42.9751 12.3242 43.4123 12.3242C44.0334 12.3242 44.6086 12.4152 45.1377 12.5971C45.6669 12.779 46.15 13.0519 46.5871 13.393L45.6209 14.7802C45.2298 14.53 44.8617 14.3254 44.4936 14.1662C44.1255 14.007 43.7574 13.9388 43.3893 13.9388C43.0212 13.9388 42.7451 14.007 42.561 14.1434C42.377 14.2799 42.285 14.4618 42.285 14.6665V14.6892C42.285 14.8257 42.308 14.9394 42.354 15.0531C42.4 15.144 42.492 15.235 42.6301 15.3259C42.7681 15.4169 42.9521 15.4851 43.2052 15.5533C43.4353 15.6216 43.7574 15.7125 44.1024 15.8035C44.5396 15.9172 44.9077 16.0536 45.2528 16.1901C45.5978 16.3265 45.8739 16.5084 46.104 16.6904C46.334 16.895 46.5181 17.1224 46.6331 17.3726C46.7482 17.6454 46.8172 17.9638 46.8172 18.3277V18.3504C46.8172 18.7597 46.7482 19.1463 46.5871 19.4647C46.4261 19.783 46.219 20.0559 45.9429 20.2833C45.6669 20.5107 45.3448 20.6699 44.9537 20.7836C44.7006 20.92 44.2865 20.9883 43.8034 20.9883Z" fill="black"/>
<path d="M76.772 18.1671C76.3579 18.1671 75.9438 18.0989 75.5757 17.9397C75.2076 17.7805 74.8855 17.5758 74.6325 17.3029C74.3794 17.0301 74.1724 16.7344 74.0113 16.3706C73.8733 16.0068 73.7812 15.6429 73.7812 15.2336V15.2108C73.7812 14.8015 73.8503 14.4377 74.0113 14.0738C74.1493 13.71 74.3564 13.4144 74.6325 13.1415C74.8855 12.8686 75.2076 12.6639 75.5757 12.5047C75.9438 12.3456 76.3349 12.2773 76.772 12.2773C77.3012 12.2773 77.7613 12.3683 78.1064 12.5275C78.4515 12.6867 78.7736 12.9368 79.0497 13.2097L78.0604 14.2557C77.8763 14.0738 77.6923 13.9146 77.4852 13.8009C77.3012 13.6872 77.0481 13.6418 76.749 13.6418C76.542 13.6418 76.3579 13.6872 76.1969 13.7555C76.0359 13.8464 75.8748 13.9374 75.7598 14.0966C75.6447 14.233 75.5297 14.3922 75.4607 14.5968C75.3917 14.7788 75.3687 14.9834 75.3687 15.1881V15.2108C75.3687 15.4382 75.3917 15.6202 75.4607 15.8248C75.5297 16.0068 75.6217 16.1887 75.7598 16.3251C75.8978 16.4616 76.0358 16.5753 76.2199 16.6662C76.4039 16.7572 76.588 16.7799 76.8181 16.7799C77.0941 16.7799 77.3242 16.7344 77.5312 16.6207C77.7383 16.507 77.9224 16.3706 78.1294 16.1887L79.0727 17.1438C78.7966 17.4394 78.4745 17.6895 78.1294 17.8942C77.8073 18.0761 77.3472 18.1671 76.772 18.1671Z" fill="black"/>
<path d="M80.5898 12.4609H83.9027C84.5699 12.4609 85.1681 12.5746 85.7202 12.7793C86.2724 12.984 86.7555 13.2796 87.1466 13.6662C87.5377 14.0528 87.8598 14.4848 88.0668 14.9851C88.2739 15.4854 88.3889 16.0539 88.3889 16.6451V16.6679C88.3889 17.2591 88.2739 17.8049 88.0668 18.3279C87.8368 18.851 87.5377 19.283 87.1466 19.6696C86.7555 20.0562 86.2724 20.3518 85.7202 20.5565C85.1681 20.7839 84.5469 20.8748 83.9027 20.8748H80.5898V12.4609ZM83.9027 19.1921C84.2938 19.1921 84.6389 19.1238 84.938 19.0101C85.2601 18.8964 85.5132 18.7145 85.7432 18.4871C85.9733 18.2597 86.1343 18.0096 86.2724 17.6912C86.3874 17.3956 86.4564 17.0545 86.4564 16.6679V16.6451C86.4564 16.2813 86.3874 15.9402 86.2724 15.6218C86.1573 15.3035 85.9733 15.0306 85.7432 14.8259C85.5132 14.5985 85.2601 14.4166 84.938 14.3029C84.6159 14.1892 84.2708 14.121 83.9027 14.121H82.4533V19.1921H83.9027Z" fill="black"/>
<path d="M94.0478 21.011C93.3807 21.011 92.7825 20.8973 92.2303 20.6699C91.6782 20.4425 91.1951 20.1241 90.804 19.7376C90.4129 19.351 90.0908 18.8962 89.8607 18.3731C89.6307 17.8501 89.5156 17.2816 89.5156 16.6904V16.6676C89.5156 16.0764 89.6307 15.5079 89.8607 14.9848C90.0908 14.4618 90.3899 14.007 90.804 13.5977C91.1951 13.2111 91.6782 12.8927 92.2303 12.6653C92.7825 12.4379 93.3807 12.3242 94.0478 12.3242C94.715 12.3242 95.3132 12.4379 95.8653 12.6653C96.4175 12.8927 96.9006 13.2111 97.2917 13.5977C97.6828 13.9843 98.0049 14.4391 98.2349 14.9621C98.465 15.4851 98.58 16.0536 98.58 16.6449V16.6676C98.58 17.2589 98.465 17.8274 98.2349 18.3504C98.0049 18.8734 97.6828 19.3282 97.2917 19.7376C96.9006 20.1241 96.4175 20.4425 95.8653 20.6699C95.3132 20.8973 94.715 21.011 94.0478 21.011ZM94.0708 19.3055C94.4389 19.3055 94.784 19.2373 95.1061 19.1008C95.4282 18.9644 95.6813 18.7825 95.9113 18.5323C96.1414 18.2822 96.3024 18.0093 96.4405 17.6909C96.5555 17.3726 96.6245 17.0315 96.6245 16.6676V16.6449C96.6245 16.281 96.5555 15.9399 96.4405 15.6216C96.3254 15.3032 96.1414 15.0303 95.9113 14.7802C95.6813 14.53 95.4052 14.3481 95.0831 14.2117C94.761 14.0752 94.4159 14.007 94.0478 14.007C93.6567 14.007 93.3116 14.0752 93.0126 14.2117C92.6905 14.3481 92.4374 14.53 92.2073 14.7802C91.9773 15.0303 91.8162 15.3032 91.6782 15.6216C91.5632 15.9399 91.4942 16.281 91.4942 16.6449V16.6676C91.4942 17.0315 91.5632 17.3726 91.6782 17.6909C91.7932 18.0093 91.9773 18.2822 92.2073 18.5323C92.4374 18.7825 92.7135 18.9644 93.0126 19.1008C93.3576 19.2373 93.7027 19.3055 94.0708 19.3055Z" fill="black"/>
<path d="M99.8945 12.4609H101.62L105.6 17.623V12.4609H107.464V20.8521H105.853L101.758 15.5309V20.8521H99.8945V12.4609Z" fill="black"/>
<path d="M109.328 12.4609H111.054L115.034 17.623V12.4609H116.874V20.8521H115.287L111.169 15.5309V20.8521H109.328V12.4609Z" fill="black"/>
<path d="M118.578 12.4609H124.974V14.0982H120.419V15.8038H124.422V17.4638H120.419V19.2148H125.043V20.8521H118.578V12.4609Z" fill="black"/>
<path d="M126.719 12.4609H128.582V19.1921H132.815V20.8521H126.719V12.4609Z" fill="black"/>
<path d="M134.223 12.4609H136.086V19.1921H140.342V20.8521H134.223V12.4609Z" fill="black"/>
<path d="M78.9341 19.0996H74.1719V20.8506H78.9341V19.0996Z" fill="#0066B5" fill-opacity="0.8"/>
<path d="M70.4843 12.46L68.2527 16.0074L66.0211 12.46H64.0195V14.7795V18.8727L65.86 20.6919V16.0984V15.4162L67.2174 17.4401L68.2297 18.9637H68.2757L68.4597 18.6908L70.6683 15.3707V20.8511H72.5088V12.46H70.4843Z" fill="black"/>
<path d="M141.32 20.0318C141.32 19.577 141.688 19.1904 142.149 19.1904C142.632 19.1904 142.977 19.577 142.977 20.0091C142.977 20.4639 142.609 20.8505 142.149 20.8505C141.688 20.8505 141.32 20.4866 141.32 20.0318ZM142.908 20.0318C142.908 19.6225 142.586 19.2814 142.172 19.2814C141.757 19.2814 141.435 19.6225 141.435 20.0318C141.435 20.4411 141.757 20.7595 142.172 20.7595C142.586 20.7595 142.908 20.4411 142.908 20.0318ZM141.849 19.577H142.241C142.425 19.577 142.563 19.668 142.563 19.8499C142.563 19.9863 142.471 20.0773 142.356 20.1L142.586 20.4184H142.379L142.172 20.1228H141.987V20.4184H141.826V19.577H141.849ZM142.218 20.0091C142.333 20.0091 142.402 19.9409 142.402 19.8726C142.402 19.7817 142.333 19.7362 142.218 19.7362H142.01V20.0091H142.218Z" fill="black"/>
</svg>
