<svg width="150" height="39" viewBox="0 0 150 39" fill="none" xmlns="http://www.w3.org/2000/svg">
<path d="M14.8788 29.3736C14.1196 30.0806 13.1073 30.5368 11.98 30.5596C8.52909 30.5596 7.72388 27.5947 7.72388 23.6491C7.72388 19.7034 8.46008 16.7385 11.911 16.7385C13.0153 16.7613 14.0046 17.2175 14.7408 17.9245L16.6273 21.2087H16.7423V16.6473H16.6273L14.8328 17.6052C14.0506 16.921 13.0383 16.4877 11.934 16.4648C8.59811 16.4648 4.66406 19.0877 4.66406 23.6491C4.66406 28.2105 8.52909 30.8333 11.98 30.8333C13.1303 30.7877 14.1656 30.3771 14.9708 29.6929L16.8343 30.628H16.9493V25.8841H16.8343L14.8788 29.3736Z" fill="black"/>
<path d="M26.1093 16.4434C22.1983 16.5802 19.0694 19.7276 19.0234 23.6276C19.0694 27.5276 22.1983 30.6749 26.1093 30.8118C30.0434 30.6749 33.1722 27.5276 33.2182 23.6276C33.1492 19.7276 30.0204 16.5802 26.1093 16.4434ZM26.1093 30.5381C22.7964 30.5381 22.0602 27.7784 22.0602 23.6276C22.0602 19.4539 22.8195 16.717 26.1093 16.717C29.3992 16.717 30.1584 19.4767 30.1584 23.6276C30.1814 27.7556 29.4452 30.5381 26.1093 30.5381Z" fill="black"/>
<path d="M44.558 16.9234H46.3295V25.7497H46.2835L40.0718 16.7181H34.7344V16.9462H36.4828V30.3339H34.7344V30.562H38.5304V30.3339H36.8049V16.9234H36.8509L46.5365 30.8129H46.6055V16.9234H48.377V16.6953H44.558V16.9234Z" fill="black"/>
<path d="M55.9265 16.7168H49.9219V16.9449H51.6703V30.3326H49.9219V30.5607H55.9265C58.9173 30.5607 64.0246 29.2379 64.0246 23.5589C64.0246 17.88 58.9173 16.7168 55.9265 16.7168ZM55.8575 30.3326H54.4081V16.9221H55.8575C59.4004 16.9221 61.0108 19.3852 61.0108 23.6273C61.0108 27.8694 59.4004 30.3326 55.8575 30.3326Z" fill="black"/>
<path d="M75.1561 30.3326H70.0487V23.2396H72.6254C73.4766 23.9238 74.4659 25.9308 74.4659 25.9308H74.5809V20.3203H74.4659C74.4659 20.3203 73.4766 22.3045 72.6254 23.0115H70.0487V16.9221H74.6269C75.9613 17.8115 77.1116 20.4343 77.1116 20.4343H77.2266V16.7168H65.5625V16.9449H67.311V30.3326H65.5625V30.5607H77.6177V25.908H77.5027C77.5027 25.908 76.3524 29.0098 75.1561 30.3326Z" fill="black"/>
<path d="M74.9293 13.7735L74.5842 12.8157L74.8833 11.1964L74.8143 11.1279L70.5352 14.7543L70.5812 14.8227L74.9293 13.7735Z" fill="black"/>
<path d="M102.607 16.6953H98.7885V16.9234H100.56V25.7497H100.514L94.3023 16.7181H88.9648V16.9462H90.7133V30.3339H88.9648V30.562H92.7609V30.3339H91.0124V16.9234H91.0584L100.767 30.8129H100.836V16.9234H102.607V16.6953Z" fill="black"/>
<path d="M109.898 16.2393H109.806L103.962 30.334H102.352V30.5621H105.987V30.334H104.238L106.424 25.0428H110.818L113.118 30.334H111.37V30.5621H117.72V30.334H116.109L109.898 16.2393ZM106.516 24.8375L108.563 19.8656L110.726 24.8375H106.516Z" fill="black"/>
<path d="M125.585 22.4191L122.916 21.484C121.582 21.0279 120.501 20.3665 120.501 19.0436C120.501 17.5156 121.651 16.6945 123.445 16.6945C123.491 16.6945 123.56 16.6945 123.629 16.6945C124.527 16.6945 125.332 17.0594 125.907 17.6296L127.817 20.8454H127.909V16.4893H127.817L125.999 17.4015C125.355 16.8314 124.504 16.4893 123.56 16.4893C123.514 16.4893 123.491 16.4893 123.445 16.4893C120.892 16.4893 119.189 18.1998 119.166 20.6173C119.166 22.6015 120.524 23.5822 122.042 24.1524L124.757 25.1331C126.183 25.6577 127.172 26.2963 127.172 27.7559C127.172 29.1472 126.275 30.5156 123.929 30.5384C122.732 30.5156 121.651 30.0594 120.823 29.3068L118.752 25.7717H118.66L118.752 30.584H118.844L120.708 29.6033C121.582 30.3103 122.686 30.7665 123.906 30.8121C126.873 30.8121 128.806 28.6682 128.806 26.3419C128.806 24.0156 127.264 22.9893 125.585 22.4191Z" fill="black"/>
<path d="M130.148 16.7168V21.0045H130.24C130.24 21.0045 131.506 18.2449 132.702 16.9221H135.049V30.3326H132.932V30.5607H139.903V30.3326H137.786V16.9221H140.133C141.306 18.2449 142.595 21.0045 142.595 21.0045H142.687V16.7168H130.148Z" fill="black"/>
</svg>
